<svg width="25" height="30" viewBox="0 0 25 30" fill="none" xmlns="http://www.w3.org/2000/svg">
<path d="M10.0974 9.54892C9.30074 9.54892 8.65493 8.90311 8.65493 8.10644C8.65493 7.8409 8.43964 7.62561 8.1741 7.62561C7.90856 7.62561 7.69327 7.8409 7.69327 8.10644C7.69327 8.90311 7.04746 9.54892 6.25079 9.54892C5.98525 9.54892 5.76996 9.76422 5.76996 10.0298C5.76996 10.2953 5.98525 10.5106 6.25079 10.5106C7.04746 10.5106 7.69327 11.1564 7.69327 11.9531C7.69327 12.2186 7.90856 12.4339 8.1741 12.4339C8.43964 12.4339 8.65493 12.2186 8.65493 11.9531C8.65493 11.1564 9.30074 10.5106 10.0974 10.5106C10.363 10.5106 10.5782 10.2953 10.5782 10.0298C10.5782 9.76422 10.363 9.54892 10.0974 9.54892ZM8.1741 10.5106C8.03742 10.3283 7.87551 10.1664 7.69327 10.0298C7.87551 9.89308 8.03742 9.73116 8.1741 9.54892C8.31078 9.73116 8.47269 9.89308 8.65493 10.0298C8.47263 10.1664 8.31078 10.3283 8.1741 10.5106Z" fill="black"/>
<path d="M6.2508 5.70224C5.45412 5.70224 4.80831 5.05643 4.80831 4.25976C4.80831 3.99422 4.59302 3.77893 4.32748 3.77893C4.06194 3.77893 3.84665 3.99422 3.84665 4.25976C3.84665 5.05643 3.20084 5.70224 2.40417 5.70224C2.13863 5.70224 1.92334 5.91754 1.92334 6.18307C1.92334 6.44861 2.13863 6.6639 2.40417 6.6639C3.20084 6.6639 3.84665 7.30971 3.84665 8.10639C3.84665 8.37192 4.06194 8.58721 4.32748 8.58721C4.59302 8.58721 4.80831 8.37192 4.80831 8.10639C4.80831 7.30971 5.45412 6.6639 6.2508 6.6639C6.51633 6.6639 6.73162 6.44861 6.73162 6.18307C6.73162 5.91754 6.51633 5.70224 6.2508 5.70224ZM4.32748 6.6639C4.19081 6.48167 4.02889 6.31975 3.84665 6.18307C4.02889 6.0464 4.19081 5.88448 4.32748 5.70224C4.46416 5.88448 4.62608 6.0464 4.80831 6.18307C4.62602 6.31975 4.46416 6.48161 4.32748 6.6639Z" fill="black"/>
<path d="M19.2331 13.3955H1.92331C0.861103 13.3955 0 14.2566 0 15.3188C0 16.381 0.861103 17.2421 1.92331 17.2421H2.88497V29.7437H18.2715V17.2421H19.2331C20.2953 17.2421 21.1564 16.381 21.1564 15.3188C21.1564 14.2566 20.2953 13.3955 19.2331 13.3955ZM17.3098 28.782H3.84663V23.9737H17.3098V28.782ZM17.3098 23.0121H3.84663V20.1271H17.3098V23.0121ZM17.3098 19.1654H3.84663V17.2421H17.3098V19.1654ZM19.2331 16.2805H1.92331C1.39218 16.2805 0.961657 15.85 0.961657 15.3188C0.961657 14.7877 1.39218 14.3572 1.92331 14.3572H19.2331C19.7643 14.3572 20.1948 14.7877 20.1948 15.3188C20.1948 15.85 19.7642 16.2805 19.2331 16.2805Z" fill="black"/>
<path d="M24.5528 1.32844C24.2731 1.05196 23.8962 0.896056 23.5029 0.893952C23.1043 0.891368 22.7214 1.04902 22.4403 1.33151L13.2661 10.5105L15.3865 12.631L24.5655 3.45677C25.1497 2.86559 25.1441 1.91271 24.5528 1.32844ZM15.3865 11.275L14.622 10.5105L15.8673 9.26517L16.6319 10.0297L15.3865 11.275ZM23.8827 2.77399L17.3098 9.35172L16.5453 8.58721L23.123 2.01428C23.3339 1.80452 23.6748 1.8053 23.8846 2.01615C23.9846 2.11658 24.0409 2.25241 24.0414 2.39414C24.042 2.537 23.9847 2.67404 23.8827 2.77399Z" fill="black"/>
<path d="M14.4249 4.7406H13.4632V5.70226H14.4249V4.7406Z" fill="black"/>
<path d="M14.4249 6.66394H13.4632V7.6256H14.4249V6.66394Z" fill="black"/>
<path d="M13.4632 5.70227H12.5015V6.66393H13.4632V5.70227Z" fill="black"/>
<path d="M15.3865 5.70227H14.4249V6.66393H15.3865V5.70227Z" fill="black"/>
</svg>
