<?xml version="1.0" standalone="no"?>
<!DOCTYPE svg PUBLIC "-//W3C//DTD SVG 1.1//EN" "http://www.w3.org/Graphics/SVG/1.1/DTD/svg11.dtd" >
<svg>
<metadata>
Created by FontForge 20090914 at Tue Jun 29 10:10:07 2021
 By www-data
Copyright 2016 The Jura Font Project Authors (daniel@danieljohnson.name)
</metadata>
<defs>
<font id="Jura-Light" horiz-adv-x="593" >
  <font-face 
    font-family="Jura Light"
    font-weight="300"
    font-stretch="normal"
    units-per-em="1000"
    panose-1="0 0 4 0 0 0 0 0 0 0"
    ascent="800"
    descent="-200"
    x-height="461"
    cap-height="636"
    bbox="-631 -210 1180.15 1060"
    underline-thickness="50"
    underline-position="-50"
    unicode-range="U+000D-U+FFFD"
  />
<missing-glyph horiz-adv-x="445" 
d="M365 690v-890h-282v890h282zM296 630h-146v-29h57v-33h-58v-29h147v29h-58v33h58v29zM238 516h-89v-93h147v30h-58v63zM207 485v-32h-29v32h29zM296 399h-147v-29h58v-33h-58v-30h89v63h58v29zM296 346h-29v-59h-118v-30h147v89zM296 237h-89v-50h31v21h29v-42h-89v71
h-29v-101h147v101zM296 83h-147v-101h147v101zM267 54v-42h-89v42h89zM296 -38h-147v-29h62l-62 -42v-30h147v30h-90l62 42h28v29z" />
    <glyph glyph-name="fi" unicode="fi" horiz-adv-x="516" 
d="M445 662v-17.999c0 -9.33301 -2.5 -16.5 -7.5 -21.5s-11.833 -7.5 -20.5 -7.5h-19c-4 0 -7 0.333008 -9 1l-122 32c-48.667 0 -82.5 -9.5 -101.5 -28.5s-28.5 -52.5 -28.5 -100.5v-58h271c14 0 21 -7 21 -21v-419c0 -14 -7 -21 -21 -21s-21 7 -21 21v398h-250v-398
c0 -14 -7 -21 -21 -21s-21 7 -21 21v398h-44c-14 0 -21 7 -21 21s7 21 21 21h44v58c0 59.333 13.667 102.666 41 129.999s71 41 131 41h130h1h19c18.667 0 28 -9.33301 28 -28z" />
    <glyph glyph-name="fl" unicode="fl" horiz-adv-x="548" 
d="M518 20c0 -6.66699 -2 -11.833 -6 -15.5s-9.33301 -5.16699 -16 -4.5c-37.333 2.66699 -64.833 13 -82.5 31s-26.5 44.667 -26.5 80v537h-120c-48 0 -81.667 -9.66699 -101 -29s-29 -53 -29 -101v-57h130c14 0 21 -7 21 -21s-7 -21 -21 -21h-130v-398
c0 -14 -7 -21 -21 -21s-21 7 -21 21v398h-44c-14 0 -21 7 -21 21s7 21 21 21h44v57c0 60 13.667 103.667 41 131s71 41 131 41h141c14 0 21 -7 21 -21v-558c0 -23.333 5 -40.333 15 -51s27.667 -16.667 53 -18c14 -0.666992 21 -8 21 -22z" />
    <glyph glyph-name="f_f" unicode="ff" horiz-adv-x="601" 
d="M581 440c0 -14 -7 -21 -21 -21h-131v-398c0 -14 -7 -21 -21 -21s-21 7 -21 21v398h-250v-398c0 -14 -7 -21 -21 -21s-21 7 -21 21v398h-44c-14 0 -21 7 -21 21s7 21 21 21h44v57c0 60 13.667 103.667 41 131s71 41 131 41c14.667 0 22 -7 22 -21s-7.33301 -21 -22 -21
c-48 0 -81.667 -9.66699 -101 -29s-29 -53 -29 -101v-57h250v57c0 60 13.667 103.667 41 131s71 41 131 41c14.667 0 22 -7 22 -21s-7.33301 -21 -22 -21c-48 0 -81.667 -9.66699 -101 -29s-29 -53 -29 -101v-57h131c14 0 21 -7 21 -21z" />
    <glyph glyph-name=".notdef" horiz-adv-x="445" 
d="M365 690v-890h-282v890h282zM296 630h-146v-29h57v-33h-58v-29h147v29h-58v33h58v29zM238 516h-89v-93h147v30h-58v63zM207 485v-32h-29v32h29zM296 399h-147v-29h58v-33h-58v-30h89v63h58v29zM296 346h-29v-59h-118v-30h147v89zM296 237h-89v-50h31v21h29v-42h-89v71
h-29v-101h147v101zM296 83h-147v-101h147v101zM267 54v-42h-89v42h89zM296 -38h-147v-29h62l-62 -42v-30h147v30h-90l62 42h28v29z" />
    <glyph glyph-name="NULL" horiz-adv-x="0" 
 />
    <glyph glyph-name="NULL" horiz-adv-x="0" 
 />
    <glyph glyph-name="nonmarkingreturn" unicode="&#xd;" horiz-adv-x="230" 
 />
    <glyph glyph-name="space" unicode=" " horiz-adv-x="230" 
 />
    <glyph glyph-name="exclam" unicode="!" horiz-adv-x="207" 
d="M83 182v488c0 14 7 21 21 21s21 -7 21 -21v-488c0 -14 -7 -21 -21 -21s-21 7 -21 21zM70 26v17c0 16.667 8.33301 25 25 25h17c16.667 0 25 -8.33301 25 -25v-17c0 -17.333 -8.33301 -26 -25 -26h-17c-16.667 0 -25 8.66699 -25 26z" />
    <glyph glyph-name="quotedbl" unicode="&#x22;" horiz-adv-x="272" 
d="M76 469c-4 4 -6 9 -6 15v204c0 6 2 11 6 15s9 6 15 6s11 -2 15 -6s6 -9 6 -15v-204c0 -6 -2 -11 -6 -15s-9 -6 -15 -6s-11 2 -15 6zM166 469c-4 4 -6 9 -6 15v204c0 6 2 11 6 15s9 6 15 6s11 -2 15 -6s6 -9 6 -15v-204c0 -6 -2 -11 -6 -15s-9 -6 -15 -6s-11 2 -15 6z" />
    <glyph glyph-name="numbersign" unicode="#" horiz-adv-x="565" 
d="M87 7c-4 4 -6 9 -6 15c0 2.66699 0.333008 4.66699 1 6l51 184h-82c-6 0 -11 2 -15 6s-6 9 -6 15s2 11 6 15s9 6 15 6h94l44 158h-82c-6 0 -11 2 -15 6s-6 9 -6 15s2 11 6 15s9 6 15 6h93l52 184c1.33301 4.66699 3.83301 8.5 7.5 11.5s7.83398 4.5 12.501 4.5
c6 0 11 -2 15 -6s6 -9 6 -15c0 -2.66699 -0.333008 -4.66699 -1 -6l-48 -173h136l52 184c1.33301 4.66699 3.83301 8.5 7.5 11.5s7.83398 4.5 12.501 4.5c6 0 11 -2 15 -6s6 -9 6 -15c0 -2.66699 -0.333008 -4.66699 -1 -6l-48 -173h110c6 0 11 -2 15 -6s6 -9 6 -15
s-2 -11 -6 -15s-9 -6 -15 -6h-122l-44 -158h110c6 0 11 -2 15 -6s6 -9 6 -15s-2 -11 -6 -15s-9 -6 -15 -6h-121l-55 -195c-1.33301 -4.66699 -3.83301 -8.5 -7.5 -11.5s-7.83398 -4.5 -12.501 -4.5c-6 0 -11 2 -15 6s-6 9 -6 15c0 2.66699 0.333008 4.66699 1 6l51 184h-136
l-55 -195c-1.33301 -4.66699 -3.83301 -8.5 -7.5 -11.5s-7.83398 -4.5 -12.501 -4.5c-6 0 -11 2 -15 6zM188 254h137l44 158h-137z" />
    <glyph glyph-name="dollar" unicode="$" horiz-adv-x="630" 
d="M510 292c26.667 -26.667 40 -68.667 40 -126s-13.333 -99.333 -40 -126s-68.667 -40 -126 -40h-45v-61c0 -14 -7 -21 -21 -21s-21 7 -21 21v61h-51c-57.333 -0 -99.333 13.333 -126 40s-40 68.667 -40 126c0 14 7 21 21 21s21 -7 21 -21
c0 -46 9.16699 -78.167 27.5 -96.5s50.5 -27.5 96.5 -27.5h51v248h-36c-54 0 -93.833 13.833 -119.5 41.5s-38.5 69.167 -38.5 124.5c0 54.667 12.5 94.5 37.5 119.5s64.833 37.5 119.5 37.5h41v76c0 14 7 21 21 21s21 -7 21 -21v-76h38c54.667 0 94.5 -12.5 119.5 -37.5
s37.5 -64.5 37.5 -118.5c0 -14 -7 -21 -21 -21s-21 7 -21 21c0 42 -8.5 71.5 -25.5 88.5s-46.833 25.5 -89.5 25.5h-38v-239h41c57.333 0 99.333 -13.333 126 -40zM171.5 361.5c17.667 -19.667 47.5 -29.5 89.5 -29.5h40v239h-41c-42.667 0 -72.5 -8.5 -89.5 -25.5
s-25.5 -46.833 -25.5 -89.5c0 -43.333 8.83301 -74.833 26.5 -94.5zM480.5 69.5c18.333 18.333 27.5 50.5 27.5 96.5s-9.16699 78.167 -27.5 96.5s-50.5 27.5 -96.5 27.5h-45v-248h45c46 0 78.167 9.16699 96.5 27.5z" />
    <glyph glyph-name="percent" unicode="%" horiz-adv-x="716" 
d="M108 7c-4 4 -6 9 -6 15c0 3.33301 1.33301 7.66602 4 12.999l461 610c4 6 9.66699 9 17 9c6 0 11 -2 15 -6s6 -9 6 -15c0 -3.33301 -1.33301 -7.66602 -4 -12.999l-461 -610c-4 -6 -9.66699 -9 -17 -9c-6 0 -11 2 -15 6zM80.5 338.5
c-20.333 20.333 -30.5 51.832 -30.5 94.499v75c0 43.333 10 75 30 95s51.667 30 95 30h16c43.333 0 75 -10 95 -30s30 -51.667 30 -95v-74c0 -43.333 -10 -75.166 -30 -95.499s-51.667 -30.5 -95 -30.5h-16c-42.667 0 -74.167 10.167 -94.5 30.5zM191 349.999
c31.333 0 53 6.16797 65 18.501s18 34.166 18 65.499v74c0 31.333 -6 53 -18 65s-33.667 18 -65 18h-16c-31.333 0 -53 -5.83301 -65 -17.5s-18 -33.5 -18 -65.5v-75c0 -30.667 6.16699 -52.167 18.5 -64.5s33.833 -18.5 64.5 -18.5h16zM430.5 30.5
c-20.333 20.333 -30.5 51.832 -30.5 94.499v75c0 43.333 10 75 30 95s51.667 30 95 30h16c43.333 0 75 -10 95 -30s30 -51.667 30 -95v-74c0 -43.333 -10 -75.166 -30 -95.499s-51.667 -30.5 -95 -30.5h-16c-42.667 0 -74.167 10.167 -94.5 30.5zM541 41.999
c31.333 0 53 6.16797 65 18.501s18 34.166 18 65.499v74c0 31.333 -6 53 -18 65s-33.667 18 -65 18h-16c-31.333 0 -53 -5.83301 -65 -17.5s-18 -33.5 -18 -65.5v-75c0 -30.667 6.16699 -52.167 18.5 -64.5s33.833 -18.5 64.5 -18.5h16z" />
    <glyph glyph-name="ampersand" unicode="&#x26;" horiz-adv-x="600" 
d="M580 61c0 -4 -1.99707 -8.66895 -5.99707 -14.002c-5.33301 -5.33301 -10.333 -8 -15 -8s-9.66699 2 -15 6l-63 56c-12.667 -34.667 -34.334 -60.167 -65.001 -76.5s-71.334 -24.5 -122.001 -24.5h-32c-70.667 0 -122 16 -154 48s-48 83.333 -48 154
c0 50 8.16699 90.167 24.5 120.5s42.166 52.5 77.499 66.5c-12 15.333 -20.333 30.5 -25 45.5s-7 32.833 -7 53.5c0 50 11.667 86.667 35 110s59.666 35 108.999 35h25c46 0 80.667 -9.83301 104 -29.5s36.333 -50.5 39 -92.5v-2c0 -6.66699 -1.83301 -11.667 -5.5 -15
s-8.5 -5 -14.5 -5c-13.333 0 -20.666 7 -21.999 21c-2.66699 30 -11.5 51 -26.5 63s-39.833 18 -74.5 18h-25c-38 0 -64.5 -7.5 -79.5 -22.5s-22.5 -41.833 -22.5 -80.5c0 -24 4.66699 -44.167 14 -60.5s28 -36.5 56 -60.5l211 -186c0.666992 4.66699 1 11.667 1 21v56
c0 14 7 21 21 21s21 -7 21 -21v-56c0 -21.333 -1.33301 -39.666 -4 -54.999l80 -70c5.33301 -5.33301 8 -10.666 8 -15.999zM397.003 62.498c24 13.667 40.333 36.5 49 68.5l-232 204l-22 20c-32 -8.66699 -55 -25 -69 -49s-21 -58.667 -21 -104
c0 -40 5.16699 -71.5 15.5 -94.5s27 -39.667 50 -50s54.5 -15.5 94.5 -15.5h32c44.667 0 79 6.83301 103 20.5z" />
    <glyph glyph-name="quotesingle" unicode="'" horiz-adv-x="182" 
d="M76 469c-4 4 -6 9 -6 15v204c0 6 2 11 6 15s9 6 15 6s11 -2 15 -6s6 -9 6 -15v-204c0 -6 -2 -11 -6 -15s-9 -6 -15 -6s-11 2 -15 6z" />
    <glyph glyph-name="parenleft" unicode="(" horiz-adv-x="256" 
d="M91.5 -110c-27.667 34 -41.5 88.667 -41.5 164v385c0 78.667 13.833 135.834 41.5 171.501s72.167 53.5 133.5 53.5c6 0 11 -2 15 -6s6 -9 6 -15s-2 -11 -6 -15s-9 -6 -15 -6c-32.667 0 -58.667 -5.83301 -78 -17.5s-33.333 -30.834 -42 -57.501s-13 -62.667 -13 -108
v-385c0 -43.333 4.33301 -77.5 13 -102.5s22.667 -43 42 -54s45.333 -16.5 78 -16.5c6 0 11 -2 15 -6s6 -9 6 -15s-2 -11 -6 -15s-9 -6 -15 -6c-61.333 0 -105.833 17 -133.5 51z" />
    <glyph glyph-name="parenright" unicode=")" horiz-adv-x="256" 
d="M16 -155c-4 4 -6 9 -6 15s2 11 6 15s9 6 15 6c32.667 0 58.667 5.5 78 16.5s33.333 29 42 54s13 59.167 13 102.5v385c0 45.333 -4.33301 81.333 -13 108s-22.667 45.834 -42 57.501s-45.333 17.5 -78 17.5c-6 0 -11 2 -15 6s-6 9 -6 15s2 11 6 15s9 6 15 6
c61.333 0 105.833 -17.833 133.5 -53.5s41.5 -92.834 41.5 -171.501v-385c0 -75.333 -13.833 -130 -41.5 -164s-72.167 -51 -133.5 -51c-6 0 -11 2 -15 6z" />
    <glyph glyph-name="asterisk" unicode="*" horiz-adv-x="384" 
d="M319 435c0 -2.66699 -1.33301 -6.66602 -4 -11.999c-4.66699 -8 -10.334 -12 -17.001 -12c-2.66699 0 -6.66699 1.33301 -12 4l-73 42v-84c0 -14 -7 -21 -21 -21s-21 7 -21 21v85l-74 -43c-5.33301 -2.66699 -9 -4 -11 -4c-6.66699 0 -12.334 4 -17.001 12
c-2.66699 3.33301 -4 7.33301 -4 12c0 7.33301 3.66699 13 11 17l73 42l-73 42c-7.33301 4 -11 9.66699 -11 17c0 4.66699 1.33301 8.66699 4 12c4.66699 8 10.334 12 17.001 12c2 0 5.66699 -1.33301 11 -4l74 -43v85c0 14 7 21 21 21s21 -7 21 -21v-84l73 42
c5.33301 2.66699 9.33301 4 12 4c6.66699 0 12.334 -4 17.001 -12c2.66699 -5.33301 4 -9.33301 4 -12c0 -6 -4 -11.667 -12 -17l-73 -42l73 -42c8 -4.66699 12 -10.334 12 -17.001z" />
    <glyph glyph-name="plus" unicode="+" horiz-adv-x="545" 
d="M475 327c0 -14 -7 -21 -21 -21h-178v-180c0 -14 -7 -21 -21 -21s-21 7 -21 21v180h-143c-14 0 -21 7 -21 21s7 21 21 21h143v141c0 14 7 21 21 21s21 -7 21 -21v-141h178c14 0 21 -7 21 -21z" />
    <glyph glyph-name="comma" unicode="," horiz-adv-x="188" 
d="M118 26c0 -7.33301 -1.99805 -13.668 -5.99805 -19.001l-42 -85c-4.66699 -9.33301 -11.334 -14 -20.001 -14c-6.66699 0 -12 2 -16 6s-5.66699 9 -5 15l22 118c0.666992 6.66699 3.16699 11.834 7.5 15.501s10.166 5.5 17.499 5.5h17c16.667 0 25 -8.33301 25 -25v-17z
" />
    <glyph glyph-name="hyphen" unicode="-" horiz-adv-x="458" 
d="M76 255c-4 4 -6 9 -6 15s2 11 6 15s9 6 15 6h276c6 0 11 -2 15 -6s6 -9 6 -15s-2 -11 -6 -15s-9 -6 -15 -6h-276c-6 0 -11 2 -15 6z" />
    <glyph glyph-name="period" unicode="." horiz-adv-x="207" 
d="M70 26v17c0 16.667 8.33301 25 25 25h17c16.667 0 25 -8.33301 25 -25v-17c0 -17.333 -8.33301 -26 -25 -26h-17c-16.667 0 -25 8.66699 -25 26z" />
    <glyph glyph-name="slash" unicode="/" horiz-adv-x="347" 
d="M53.5 -124.5c-3.66699 5 -4.5 11.5 -2.5 19.5l205 798c2 10.667 8.66699 16 20 16c17.333 0 24.333 -9 21 -27l-206 -798c-2 -10.667 -8.66699 -16 -20 -16c-8 0 -13.833 2.5 -17.5 7.5z" />
    <glyph glyph-name="zero" unicode="0" horiz-adv-x="586" 
d="M108.5 45.5c-32.333 32.333 -48.5 83.833 -48.5 154.5v227c0 70.667 16.167 122 48.5 154s83.833 48 154.5 48h60c71.333 0 123 -16 155 -48s48 -83.667 48 -155v-226c0 -70.667 -16 -122.167 -48 -154.5s-83.667 -48.5 -155 -48.5h-60
c-70.667 0 -122.167 16.167 -154.5 48.5zM323 39c59.333 0 101 12.167 125 36.5s36 65.833 36 124.5v226c0 59.333 -12 101 -36 125s-65.667 36 -125 36h-60c-59.333 0 -101 -12 -125 -36s-36 -65.333 -36 -124v-227c0 -58.667 12.167 -100.167 36.5 -124.5
s65.833 -36.5 124.5 -36.5h60zM280 303v17c0 16.667 8.33301 25 25 25h17c16.667 0 25 -8.33301 25 -25v-17c0 -17.333 -8.33301 -26 -25 -26h-17c-16.667 0 -25 8.66699 -25 26z" />
    <glyph glyph-name="one" unicode="1" horiz-adv-x="343" 
d="M243 612l-0.000976562 -591c0 -14 -7 -21 -21 -21s-21 7 -21 21v544l-84 -83c-4.66699 -4.66699 -9.66699 -7 -15 -7s-10.333 2.33301 -15 7c-4.66699 6 -7 11 -7 15s2.33301 9 7 15l113 110c6.66699 7.33301 15.334 11 26.001 11c11.333 0 17 -7 17 -21z" />
    <glyph glyph-name="two" unicode="2" horiz-adv-x="564" 
d="M91 0c-14.667 0 -21.999 7 -21.999 21c0 46.667 8 85.5 24 116.5s39.667 58.667 71 83s78 54.166 140 89.499c39.333 22.667 68.333 40.667 87 54s33.5 28.333 44.5 45s16.5 36.667 16.5 60c0 45.333 -9 77 -27 95s-49.667 27 -95 27h-107
c-41.333 0 -71.166 -7.5 -89.499 -22.5s-28.833 -40.833 -31.5 -77.5c-0.666992 -14 -7.66699 -21 -21 -21c-7.33301 0 -12.833 2 -16.5 6s-5.16699 9.33301 -4.5 16c2.66699 48.667 17.167 84.334 43.5 107.001s66.166 34 119.499 34h107c57.333 0 99 -13 125 -39
s39 -67.667 39 -125c0 -30.667 -7 -57.167 -21 -79.5s-32.167 -41.5 -54.5 -57.5s-53.5 -35.333 -93.5 -58c-56 -32 -97.5 -57.667 -124.5 -77s-47.833 -41 -62.5 -65s-23.334 -54 -26.001 -90h371c14 0 21 -7 21 -21s-7 -21 -21 -21h-392z" />
    <glyph glyph-name="three" unicode="3" horiz-adv-x="571" 
d="M96 37c-28 24 -43.332 62.333 -45.999 115v2c0 13.333 7 20 21 20c13.333 0 20.333 -7 21 -21c2.66699 -40 13.834 -68.333 33.501 -85s52.167 -25 97.5 -25h114c48.667 0 82.834 9.66699 102.501 29s29.5 53.333 29.5 102s-9.83301 82.667 -29.5 102
s-53.834 29 -102.501 29h-98c-14 0 -21 7 -21 21s7 21 21 21h103c41.333 0.666992 70.166 10.5 86.499 29.5s24.5 49.833 24.5 92.5c0 45.333 -9 77 -27 95s-49.667 27 -95 27h-97c-41.333 0 -71.166 -7.5 -89.499 -22.5s-28.833 -40.833 -31.5 -77.5
c-0.666992 -14 -7.66699 -21 -21 -21c-7.33301 0 -12.833 2 -16.5 6s-5.16699 9.33301 -4.5 16c2.66699 48.667 17.167 84.334 43.5 107.001s66.166 34 119.499 34h97c57.333 0 99 -13 125 -39s39 -67.667 39 -125c0 -68.667 -26.333 -115.334 -79 -140.001
c32.667 -12.667 56.667 -31.5 72 -56.5s23 -57.833 23 -98.5c0 -60 -13.833 -103.833 -41.5 -131.5s-71.834 -41.5 -132.501 -41.5h-114c-56.667 0 -99 12 -127 36z" />
    <glyph glyph-name="four" unicode="4" horiz-adv-x="518" 
d="M488 160c0 -14 -7.00098 -21 -21.001 -21h-47l-1 -118c0 -14 -7 -21 -21 -21s-21 7 -21 21l1 118h-327c-14 0 -21 7 -21 21c0 6.66699 3 14 9 22l341 438c6.66699 8.66699 15.334 13 26.001 13c12 0 18 -7 18 -21l-4 -431h47c14 0 21 -7 21 -21zM90.999 181h287l4 374z
" />
    <glyph glyph-name="five" unicode="5" horiz-adv-x="571" 
d="M106 36c-28 24 -43.332 62.333 -45.999 115v2c0 13.333 7 20 21 20c13.333 0 20.333 -7 21 -21c2.66699 -40 13.834 -68.333 33.501 -85s52.167 -25 97.5 -25h104c48.667 0 82.834 9.83301 102.501 29.5s29.5 53.834 29.5 102.501v69
c0 48.667 -9.83301 82.834 -29.5 102.501s-53.834 29.5 -102.501 29.5h-74c-66.667 0 -112.334 -12.333 -137.001 -37c-6.66699 -6.66699 -13 -10 -19 -10c-2 0 -5 0.666992 -9 2l-4 1c-12 3.33301 -18 11 -18 23v258c0 14 7 21 21 21h386c14 0 21 -7 21 -21s-7 -21 -21 -21
h-365v-205c33.333 20.667 81.666 31 144.999 31h74c60.667 0 104.834 -13.833 132.501 -41.5s41.5 -71.834 41.5 -132.501v-69c0 -60.667 -13.833 -104.834 -41.5 -132.501s-71.834 -41.5 -132.501 -41.5h-104c-56.667 0 -99 12 -127 36z" />
    <glyph glyph-name="six" unicode="6" horiz-adv-x="572" 
d="M101.5 42.5c-27.667 27.667 -41.501 71.5029 -41.501 131.503v295c0 57.333 13.167 99 39.5 125s67.833 39 124.5 39h124c53.333 0 93.166 -11.333 119.499 -34s40.833 -58.334 43.5 -107.001v-2c0 -6.66699 -1.83301 -11.667 -5.5 -15s-8.5 -5 -14.5 -5
c-13.333 0 -20.666 7 -21.999 21c-2.66699 36.667 -13.167 62.5 -31.5 77.5s-48.166 22.5 -89.499 22.5h-124c-44.667 0 -76.167 -9 -94.5 -27s-27.5 -49.667 -27.5 -95v-121c10.667 23.333 26.834 40.5 48.501 51.5s49.5 16.5 83.5 16.5h104
c60.667 0 104.834 -13.833 132.501 -41.5s41.5 -71.834 41.5 -132.501v-67c0 -60.667 -13.833 -104.834 -41.5 -132.501s-71.834 -41.5 -132.501 -41.5h-104c-60.667 0 -104.834 13.833 -132.501 41.5zM337.999 43.0029c48.667 0 82.834 9.83105 102.501 29.498
s29.5 53.834 29.5 102.501v67c0 48.667 -9.83301 82.834 -29.5 102.501s-53.834 29.5 -102.501 29.5h-104c-48.667 0 -82.834 -9.66699 -102.501 -29s-29.5 -53.333 -29.5 -102v-69c0 -48.667 9.83301 -82.667 29.5 -102s53.834 -29 102.501 -29h104z" />
    <glyph glyph-name="seven" unicode="7" horiz-adv-x="457" 
d="M136 22c0.666992 65.333 4.66699 118.665 12 159.998s21.166 77.833 41.499 109.5s50.166 61.167 89.499 88.5c38 26.667 64.833 55.334 80.5 86.001s24.167 72.334 25.5 125.001h-334c-14 0 -21 7 -21 21s7 21 21 21h355c14 0 21 -7 21 -21
c0 -66.667 -9.16699 -119.834 -27.5 -159.501s-50.5 -75.167 -96.5 -106.5c-33.333 -23.333 -58.666 -47.666 -75.999 -72.999s-29.666 -57 -36.999 -95s-11.333 -90 -12 -156c0 -14.667 -7 -22 -21 -22s-21 7.33301 -21 22z" />
    <glyph glyph-name="eight" unicode="8" horiz-adv-x="582" 
d="M522 173c0 -60 -13.8311 -103.832 -41.498 -131.499s-71.834 -41.5 -132.501 -41.5h-114c-60.667 0 -104.834 13.833 -132.501 41.5s-41.5 71.5 -41.5 131.5c0 41.333 7.16699 74.666 21.5 99.999s36.5 44 66.5 56c-44.667 25.333 -67 72 -67 140
c0 57.333 13.167 99 39.5 125s67.833 39 124.5 39h97c57.333 0 99 -13 125 -39s39 -67.667 39 -125c0 -69.333 -23 -116.333 -69 -141c56.667 -23.333 85 -75 85 -155zM150.502 564.001c-18.333 -18 -27.5 -49.668 -27.5 -95.001s9.16699 -77.166 27.5 -95.499
s50.166 -27.5 95.499 -27.5l116 1c36.667 0 62.834 9.66699 78.501 29s23.5 50.333 23.5 93c0 45.333 -9 77 -27 95s-49.667 27 -95 27h-97c-44.667 0 -76.167 -9 -94.5 -27zM450.502 71c19.667 19.333 29.5 53.333 29.5 102s-9.83301 82.667 -29.5 102
s-53.834 29 -102.501 29h-114c-48.667 0 -82.834 -9.66699 -102.501 -29s-29.5 -53.333 -29.5 -102s9.83301 -82.667 29.5 -102s53.834 -29 102.501 -29h114c48.667 0 82.834 9.66699 102.501 29z" />
    <glyph glyph-name="nine" unicode="9" horiz-adv-x="572" 
d="M470.5 590.5c27.667 -27.667 41.5 -71.5029 41.5 -131.503v-295c0 -56.667 -13 -98.167 -39 -124.5s-67.667 -39.5 -125 -39.5h-124c-53.333 0 -93.166 11.333 -119.499 34s-40.833 58.334 -43.5 107.001v2c0 6.66699 1.83301 11.667 5.5 15s8.5 5 14.5 5
c14 0 21.333 -7 22 -21c2.66699 -36.667 13.167 -62.5 31.5 -77.5s48.166 -22.5 89.499 -22.5h124c45.333 0 77 9.16699 95 27.5s27 49.833 27 94.5v121c-10.667 -23.333 -26.834 -40.5 -48.501 -51.5s-49.5 -16.5 -83.5 -16.5h-104
c-60.667 0 -104.834 13.833 -132.501 41.5s-41.5 71.834 -41.5 132.501v67c0 60.667 13.833 104.834 41.5 132.501s71.834 41.5 132.501 41.5h104c60.667 0 104.834 -13.833 132.501 -41.5zM234 589.997c-48.667 0 -82.834 -9.83105 -102.501 -29.498
s-29.5 -53.834 -29.5 -102.501v-67c0 -48.667 9.83301 -82.834 29.5 -102.501s53.834 -29.5 102.501 -29.5h104c48.667 0 82.834 9.66699 102.501 29s29.5 53.333 29.5 102v69c0 48.667 -9.83301 82.667 -29.5 102s-53.834 29 -102.501 29h-104z" />
    <glyph glyph-name="colon" unicode=":" horiz-adv-x="207" 
d="M70 26v17c0 16.667 8.33301 25 25 25h17c16.667 0 25 -8.33301 25 -25v-17c0 -17.333 -8.33301 -26 -25 -26h-17c-16.667 0 -25 8.66699 -25 26zM70 356v17c0 16.667 8.33301 25 25 25h17c16.667 0 25 -8.33301 25 -25v-17c0 -17.333 -8.33301 -26 -25 -26h-17
c-16.667 0 -25 8.66699 -25 26z" />
    <glyph glyph-name="semicolon" unicode=";" horiz-adv-x="188" 
d="M118 26c0 -7.33301 -1.99805 -13.668 -5.99805 -19.001l-42 -85c-4.66699 -9.33301 -11.334 -14 -20.001 -14c-6.66699 0 -12 2 -16 6s-5.66699 9 -5 15l22 118c0.666992 6.66699 3.16699 11.834 7.5 15.501s10.166 5.5 17.499 5.5h17c16.667 0 25 -8.33301 25 -25v-17z
M51.002 355.998v17c0 16.667 8.33301 25 25 25h17c16.667 0 25 -8.33301 25 -25v-17c0 -17.333 -8.33301 -26 -25 -26h-17c-16.667 0 -25 8.66699 -25 26z" />
    <glyph glyph-name="less" unicode="&#x3c;" horiz-adv-x="545" 
d="M444 152c0 -2.66699 -1.33301 -6.66504 -4 -11.998c-4.66699 -8 -10.334 -12 -17.001 -12c-2.66699 0 -6.66699 1.33301 -12 4l-296 167c-10 5.33301 -15 14.333 -15 27c0 11.333 5 19.666 15 24.999l296 165c5.33301 2.66699 9.33301 4 12 4
c6.66699 0 12.334 -4 17.001 -12c2.66699 -5.33301 4 -9.33301 4 -12c0 -6 -4 -11.667 -12 -17l-277 -154l277 -156c8 -4.66699 12 -10.334 12 -17.001z" />
    <glyph glyph-name="equal" unicode="=" horiz-adv-x="545" 
d="M70 389c0 14 7 21 21 21h363c14 0 21 -7 21 -21s-7 -21 -21 -21h-363c-14 0 -21 7 -21 21zM70 261c0 14 7 21 21 21h363c14 0 21 -7 21 -21s-7 -21 -21 -21h-363c-14 0 -21 7 -21 21z" />
    <glyph glyph-name="greater" unicode="&#x3e;" horiz-adv-x="545" 
d="M444 326c0 -12.667 -5 -21.6689 -15 -27.002l-296 -167c-5.33301 -2.66699 -9.33301 -4 -12 -4c-6.66699 0 -12.334 4 -17.001 12c-2.66699 5.33301 -4 9.33301 -4 12c0 6.66699 4 12.334 12 17.001l277 156l-277 154c-8 5.33301 -12 11 -12 17
c0 2.66699 1.33301 6.66699 4 12c4.66699 8 10.334 12 17.001 12c2.66699 0 6.66699 -1.33301 12 -4l296 -165c10 -5.33301 15 -13.666 15 -24.999z" />
    <glyph glyph-name="question" unicode="?" horiz-adv-x="475" 
d="M196 152c0 34 4.66699 62.167 14 84.5s20.5 39.833 33.5 52.5s29.833 25.667 50.5 39c18.667 12.667 33.167 24 43.5 34s18.833 23.5 25.5 40.5s10 39.167 10 66.5c0 45.333 -9 77 -27 95s-49.667 27 -95 27h-67c-44.667 0 -76.167 -9 -94.5 -27s-27.5 -49.667 -27.5 -95
c0 -14 -7 -21 -21 -21s-21 7 -21 21c0 56.667 13.167 98.167 39.5 124.5s67.833 39.5 124.5 39.5h67c57.333 0 99 -13 125 -39s39 -67.667 39 -125c0 -34 -4.66699 -62.167 -14 -84.5s-20.5 -39.833 -33.5 -52.5s-29.833 -25.667 -50.5 -39
c-18.667 -12.667 -33.167 -24 -43.5 -34s-18.833 -23.5 -25.5 -40.5s-10 -39.167 -10 -66.5c0 -14 -7 -21 -21 -21s-21 7 -21 21zM185 26v17c0 16.667 8.33301 25 25 25h17c16.667 0 25 -8.33301 25 -25v-17c0 -17.333 -8.33301 -26 -25 -26h-17
c-16.667 0 -25 8.66699 -25 26z" />
    <glyph glyph-name="at" unicode="@" horiz-adv-x="713" 
d="M226 0c-51.333 -0.666992 -88.501 10.833 -111.501 34.5s-34.5 62.167 -34.5 115.5v253c0 53.333 11.5 91.833 34.5 115.5s60.167 35.167 111.5 34.5h260c52.667 0 90.334 -11.667 113.001 -35s34 -62 34 -116v-199c0 -29.333 -7.16699 -50.5 -21.5 -63.5
s-37.833 -19.5 -70.5 -19.5c-22.667 0 -40.5 4 -53.5 12s-22.5 22.667 -28.5 44c-12.667 -21.333 -28.834 -36.333 -48.501 -45s-44.167 -13 -73.5 -13h-7c-42.667 0 -73.834 9.83301 -93.501 29.5s-29.5 50.5 -29.5 92.5v79c0 44 9.66699 75.833 29 95.5
s50.333 29.5 93 29.5h41c19.333 0 35.333 -2.66699 48 -8s23.334 -15.666 32.001 -30.999c0.666992 26 7.66699 39 21 39c14 0 21 -7 21 -21v-220c0 -17.333 3 -28.5 9 -33.5s19.333 -7.5 40 -7.5s34.167 2.5 40.5 7.5s9.5 16.167 9.5 33.5v199
c0 28.667 -3.16699 50.667 -9.5 66s-17 26.333 -32 33s-36.167 10 -63.5 10h-260c-27.333 0.666992 -48.333 -2.33301 -63 -9s-25.167 -17.667 -31.5 -33s-9.5 -37.333 -9.5 -66v-253c0 -28.667 3.16699 -50.667 9.5 -66s16.833 -26.333 31.5 -33s35.667 -9.66699 63 -9h275
c20 0 36.5 2.16699 49.5 6.5s26.167 12.166 39.5 23.499c4.66699 3.33301 9.33398 5 14.001 5c6 0 11 -2 15 -6s6 -9 6 -15c0 -6.66699 -2.66699 -12 -8 -16c-16.667 -14 -34.167 -24.167 -52.5 -30.5s-39.5 -9.5 -63.5 -9.5h-275zM336.999 160
c38.667 0 67.166 6.49902 85.499 19.499s27.5 33.167 27.5 60.5v78c0 32.667 -5.5 54.834 -16.5 66.501s-32.167 17.5 -63.5 17.5h-41c-30.667 0 -51.667 -5.83301 -63 -17.5s-17 -33.5 -17 -65.5v-79c0 -30.667 5.83301 -51.667 17.5 -63s32.834 -17 63.501 -17h7z" />
    <glyph glyph-name="A" unicode="A" horiz-adv-x="597" 
d="M577 19c0 -7.33301 -4.66895 -12.999 -14.002 -16.999c-4 -1.33301 -7.33301 -2 -10 -2c-7.33301 0 -13 4.33301 -17 13l-71 167c-2 -0.666992 -5.33301 -1 -10 -1h-315c-3.33301 0 -5.66602 0.333008 -6.99902 1l-72 -167c-4 -8.66699 -10 -13 -18 -13
c-1.33301 0 -4.66602 0.666992 -9.99902 2c-8.66699 4 -13 10 -13 18c0 1.33301 0.666992 4.66602 2 9.99902l251 587c4 10.667 12 16 24 16h3c11.333 0 19.333 -5.33301 24 -16l250 -587c2 -4 3 -7.66699 3 -11zM150.998 221.001h296l-147 346z" />
    <glyph glyph-name="B" unicode="B" horiz-adv-x="603" 
d="M553 198v-30.999c0 -55.333 -14.167 -97 -42.5 -125s-70.166 -42 -125.499 -42h-274c-14 0 -21 7 -21 21v591c0 14 7 21 21 21h261c47.333 0 83.166 -11.833 107.499 -35.5s36.5 -58.834 36.5 -105.501v-27c0 -55.333 -17.667 -93 -53 -113c60 -22 90 -73.333 90 -154z
M132 364.001l252.999 -0.000976562h2l6 1c28 2 48.5 11.167 61.5 27.5s19.5 40.5 19.5 72.5v27c0 34.667 -8.16699 59.834 -24.5 75.501s-42.166 23.5 -77.499 23.5h-240v-227zM510.999 198c0 43.333 -10 74.833 -30 94.5s-52 29.5 -96 29.5h-253v-280h253c44 0 76 10 96 30
s30 51.667 30 95v31z" />
    <glyph glyph-name="C" unicode="C" horiz-adv-x="655" 
d="M128.5 48.5c-32.333 32.333 -48.501 83.8301 -48.501 154.497v227c0 71.333 16 123 48 155s83.333 48 154 48h121c61.333 0 106.333 -12.667 135 -38s44.334 -66.333 47.001 -123v-3c0 -12.667 -6.66699 -19 -20 -19s-20.666 7 -21.999 21
c-2 44.667 -13.5 75.834 -34.5 93.501s-56.167 26.5 -105.5 26.5h-121c-40 0 -71.5 -5.16699 -94.5 -15.5s-39.667 -27.166 -50 -50.499s-15.5 -55 -15.5 -95v-227c0 -58.667 12.167 -100.167 36.5 -124.5s65.833 -36.5 124.5 -36.5h120c49.333 0 84.5 8.83301 105.5 26.5
s32.5 48.834 34.5 93.501c1.33301 14 8.66602 21 21.999 21c14.667 0 21.334 -7.33301 20.001 -22c-2.66699 -56.667 -18.334 -97.667 -47.001 -123s-73.667 -38 -135 -38h-120c-70.667 0 -122.167 16.167 -154.5 48.5z" />
    <glyph glyph-name="D" unicode="D" horiz-adv-x="665" 
d="M90 21v591c0 14 7 21 21 21h241c81.333 0 140.5 -18.5 177.5 -55.5s55.5 -96.167 55.5 -177.5v-167c0 -81.333 -18.5 -140.5 -55.5 -177.5s-96.167 -55.5 -177.5 -55.5h-241c-14 0 -21 7 -21 21zM352 42c46.667 0 83.834 6.3291 111.501 18.9961
s47.834 32.834 60.501 60.501s19 64.834 19 111.501v167c0 46.667 -6.33301 83.834 -19 111.501s-32.834 47.834 -60.501 60.501s-64.834 19 -111.501 19h-220v-549h220z" />
    <glyph glyph-name="E" unicode="E" horiz-adv-x="547" 
d="M512 21c0 -14 -7 -21 -21 -21h-380c-14 0 -21 7 -21 21v591c0 14 7 21 21 21h380c14 0 21 -7 21 -21s-7 -21 -21 -21h-359v-249h241c14 0 21 -7 21 -21s-7 -21 -21 -21h-241v-258h359c14 0 21 -7 21 -21z" />
    <glyph glyph-name="F" unicode="F" horiz-adv-x="490" 
d="M90 21v591c0 14 7 21 21 21h358c14 0 21 -7 21 -21s-7 -21 -21 -21h-337v-249h237c14 0 21 -7 21 -21s-7 -21 -21 -21h-237v-279c0 -14 -7 -21 -21 -21s-21 7 -21 21z" />
    <glyph glyph-name="G" unicode="G" horiz-adv-x="656" 
d="M128.5 48.5c-32.333 32.333 -48.501 83.832 -48.501 154.499v227c0 71.333 16 123 48 155s83.333 48 154 48h121c61.333 0 106.333 -12.667 135 -38s44.334 -66.333 47.001 -123v-3c0 -12.667 -6.66699 -19 -20 -19s-20.666 7 -21.999 21
c-2 44.667 -13.5 75.834 -34.5 93.501s-56.167 26.5 -105.5 26.5h-121c-40 0 -71.5 -5.16699 -94.5 -15.5s-39.667 -27.166 -50 -50.499s-15.5 -55 -15.5 -95v-227c0 -58.667 12.167 -100.167 36.5 -124.5s65.833 -36.5 124.5 -36.5h120c36 0 64.167 4.33301 84.5 13
s34.833 23.167 43.5 43.5s13 48.5 13 84.5v68l-120 1c-14 0 -21 7 -21 21s7 21 21 21l141 -1c14 0 21 -7 21 -21v-89c0 -64.667 -14.333 -111.334 -43 -140.001s-75.334 -43 -140.001 -43h-120c-70.667 0 -122.167 16.167 -154.5 48.5z" />
    <glyph glyph-name="H" unicode="H" horiz-adv-x="687" 
d="M90 21v591c0 14 7 21 21 21s21 -7 21 -21v-270h423v270c0 14 7 21 21 21s21 -7 21 -21v-591c0 -14 -7 -21 -21 -21s-21 7 -21 21v279h-423v-279c0 -14 -7 -21 -21 -21s-21 7 -21 21z" />
    <glyph glyph-name="I" unicode="I" horiz-adv-x="222" 
d="M96 6c-4 4 -6 9 -6 15v592c0 6 2 11 6 15s9 6 15 6s11 -2 15 -6s6 -9 6 -15v-592c0 -6 -2 -11 -6 -15s-9 -6 -15 -6s-11 2 -15 6z" />
    <glyph glyph-name="J" unicode="J" horiz-adv-x="494" 
d="M69 38c-28.667 25.333 -44.332 66.335 -46.999 123.002v3c0 12.667 6.66699 19 20 19c14 0 21.333 -7 22 -21c2 -44.667 13.5 -75.834 34.5 -93.501s56.167 -26.5 105.5 -26.5h27c36 0 64.167 4.33301 84.5 13s34.833 23.167 43.5 43.5s13 48.5 13 84.5v429
c0 14 7 21 21 21s21 -7 21 -21v-429c0 -64.667 -14.333 -111.334 -43 -140.001s-75.334 -43 -140.001 -43h-27c-61.333 0 -106.333 12.667 -135 38z" />
    <glyph glyph-name="K" unicode="K" horiz-adv-x="539" 
d="M519 17c0 -5.33301 -3 -10.666 -9 -15.999c-4.66699 -4 -9.33398 -6 -14.001 -6c-5.33301 0 -10.333 3 -15 9l-265 329l-84 -86v-226c0 -14 -7 -21 -21 -21s-21 7 -21 21v591c0 14 7 21 21 21s21 -7 21 -21v-304l311 318c4.66699 4.66699 9.66699 7 15 7
c4.66699 0 9.33398 -2.33301 14.001 -7c5.33301 -5.33301 8 -10.333 8 -15c0 -4 -2.33301 -9 -7 -15l-228 -233l268 -332c4 -4.66699 6 -9.33398 6 -14.001z" />
    <glyph glyph-name="L" unicode="L" horiz-adv-x="486" 
d="M90 21v591c0 14 7 21 21 21s21 -7 21 -21v-570h313c14 0 21 -7 21 -21s-7 -21 -21 -21h-334c-14 0 -21 7 -21 21z" />
    <glyph glyph-name="M" unicode="M" horiz-adv-x="767" 
d="M677 612v-591c0 -14 -7 -21 -21 -21s-21 7 -21 21v527l-226 -348c-5.33301 -9.33301 -13.666 -14 -24.999 -14s-19.666 4.66699 -24.999 14l-227 349v-528c0 -14 -7 -21 -21 -21s-21 7 -21 21v591c0 14 7 21 21 21c11.333 0 19.666 -4.66699 24.999 -14l248 -382l248 382
c5.33301 9.33301 13.666 14 24.999 14c13.333 0 20 -7 20 -21z" />
    <glyph glyph-name="N" unicode="N" horiz-adv-x="687" 
d="M597 612l-0.000976562 -591c0 -14 -7 -21 -21 -21c-7.33301 0 -14.666 4 -21.999 12l-422 541v-532c0 -14 -7 -21 -21 -21s-21 7 -21 21v591c0 14 7 21 21 21c8 0 15.333 -4 22 -12l422 -541v532c0 14 7 21 21 21s21 -7 21 -21z" />
    <glyph glyph-name="O" unicode="O" horiz-adv-x="686" 
d="M128.5 48.5c-32.333 32.333 -48.5 83.835 -48.5 154.502v227c0 71.333 16 123.166 48 155.499s83.333 48.166 154 47.499h121c71.333 0 123 -16 155 -48s48 -83.667 48 -155v-227c0 -70.667 -16 -122.167 -48 -154.5s-83.667 -48.5 -155 -48.5h-120
c-70.667 0 -122.167 16.167 -154.5 48.5zM403 42.002c59.333 0 101 12.165 125 36.498s36 65.833 36 124.5v227c0 59.333 -12 101 -36 125s-65.667 36 -125 36h-121c-58.667 0.666992 -100 -11.166 -124 -35.499s-36 -66.166 -36 -125.499v-227
c0 -58.667 12.167 -100.167 36.5 -124.5s65.833 -36.5 124.5 -36.5h120z" />
    <glyph glyph-name="P" unicode="P" horiz-adv-x="543" 
d="M470.5 590.5c28.333 -28.333 42.5 -70.168 42.5 -125.501v-30c0 -55.333 -14.167 -97.166 -42.5 -125.499s-70.166 -42.5 -125.499 -42.5h-213v-246c0 -14 -7 -21 -21 -21s-21 7 -21 21v591c0 14 7 21 21 21h234c55.333 0 97.166 -14.167 125.499 -42.5zM471 464.998
c0 43.333 -10.167 75.168 -30.5 95.501s-52.166 30.5 -95.499 30.5h-213v-282h213c43.333 0 75.166 10.167 95.499 30.5s30.5 52.166 30.5 95.499v30z" />
    <glyph glyph-name="Q" unicode="Q" horiz-adv-x="686" 
d="M555 46l43 -43.998c5.33301 -5.33301 8 -10.333 8 -15s-2.66699 -9.66699 -8 -15s-10.333 -8 -15 -8s-9.66699 2.66699 -15 8l-49 49c-30 -14 -68.667 -21 -116 -21h-120c-70.667 0 -122.167 16.167 -154.5 48.5s-48.5 83.833 -48.5 154.5v227
c0 71.333 16 123.166 48 155.499s83.333 48.166 154 47.499h121c71.333 0 123 -16 155 -48s48 -83.667 48 -155v-227c0 -72.667 -17 -125 -51 -157zM440 110.002c0 5.33301 2.33301 10.3311 7 14.998c5.33301 5.33301 10.333 8 15 8s9.66699 -2.66699 15 -8l48 -49
c14 12 24 28.333 30 49s9 46.667 9 78v227c0 59.333 -12 101 -36 125s-65.667 36 -125 36h-121c-58.667 0.666992 -100 -11.166 -124 -35.499s-36 -66.166 -36 -125.499v-227c0 -58.667 12.167 -100.167 36.5 -124.5s65.833 -36.5 124.5 -36.5h120c34 0 62.333 4 85 12
l-41 41c-4.66699 4.66699 -7 9.66699 -7 15z" />
    <glyph glyph-name="R" unicode="R" horiz-adv-x="582" 
d="M537 15c0 -6.66699 -3.66602 -12.0029 -10.999 -16.0029c-4.66699 -2.66699 -9 -4 -13 -4c-6.66699 0 -12 3.33301 -16 10l-167 262h-198v-246c0 -14 -7 -21 -21 -21s-21 7 -21 21v591c0 14 7 21 21 21h234c55.333 0 97.166 -14.167 125.499 -42.5
s42.5 -70.166 42.5 -125.499v-30c0 -99.333 -44.667 -154.666 -134 -165.999l153 -241c3.33301 -5.33301 5 -9.66602 5 -12.999zM132.001 308.997l213 0.00195312c43.333 0 75.166 10.167 95.499 30.5s30.5 52.166 30.5 95.499v30c0 43.333 -10.167 75.166 -30.5 95.499
s-52.166 30.5 -95.499 30.5h-213v-282z" />
    <glyph glyph-name="S" unicode="S" horiz-adv-x="652" 
d="M121.5 42.5c-27.667 27.667 -41.5 71.5 -41.5 131.5c0 6 2 11 6 15s9 6 15 6s11 -2 15 -6s6 -9 6 -15c0 -48.667 9.83301 -82.667 29.5 -102s53.834 -29 102.501 -29h144c48.667 0 82.834 9.66699 102.501 29s29.5 53.333 29.5 102s-9.83301 82.667 -29.5 102
s-53.834 29 -102.501 29h-141c-57.333 0 -99.166 13 -125.499 39s-39.5 67.667 -39.5 125s13.167 99 39.5 125s67.833 39 124.5 39h147c56.667 0 98.167 -13 124.5 -39s39.5 -67.333 39.5 -124c0 -6 -2 -11 -6 -15s-9 -6 -15 -6s-11 2 -15 6s-6 9 -6 15
c0 44.667 -9.16699 76 -27.5 94s-49.833 27 -94.5 27h-147c-44.667 0 -76.167 -9 -94.5 -27s-27.5 -49.667 -27.5 -95s9.16699 -77 27.5 -95s50.166 -27 95.499 -27h141c60.667 0 104.834 -13.833 132.501 -41.5s41.5 -71.5 41.5 -131.5s-13.833 -103.833 -41.5 -131.5
s-71.834 -41.5 -132.501 -41.5h-144c-60.667 0 -104.834 13.833 -132.501 41.5z" />
    <glyph glyph-name="T" unicode="T" horiz-adv-x="552" 
d="M261 5c-4 4 -6 9 -6 15v572h-219c-6 0 -11 2 -15 6s-6 9 -6 15s2 11 6 15s9 6 15 6h480c6 0 11 -2 15 -6s6 -9 6 -15s-2 -11 -6 -15s-9 -6 -15 -6h-219v-572c0 -6 -2 -11 -6 -15s-9 -6 -15 -6s-11 2 -15 6z" />
    <glyph glyph-name="U" unicode="U" horiz-adv-x="686" 
d="M128.5 48.5c-32.333 32.333 -48.5 83.833 -48.5 154.5v409c0 6 2 11 6 15s9 6 15 6s11 -2 15 -6s6 -9 6 -15v-409c0 -58.667 12.167 -100.167 36.5 -124.5s65.833 -36.5 124.5 -36.5h120c59.333 0 101 12.167 125 36.5s36 65.833 36 124.5v409c0 6 2 11 6 15s9 6 15 6
s11 -2 15 -6s6 -9 6 -15v-409c0 -70.667 -16 -122.167 -48 -154.5s-83.667 -48.5 -155 -48.5h-120c-70.667 0 -122.167 16.167 -154.5 48.5z" />
    <glyph glyph-name="V" unicode="V" horiz-adv-x="597" 
d="M276 13l-263.999 590c-1.33301 2.66699 -2 6 -2 10c0 6 2.16699 10.833 6.5 14.5s9.16602 5.5 14.499 5.5c9.33301 0 15.666 -4.33301 18.999 -13l248 -554l248 554c3.33301 8.66699 9.66602 13 18.999 13c6 0 11.167 -1.66699 15.5 -5s6.5 -8 6.5 -14
c0 -3.33301 -1 -7 -3 -11l-264 -590c-3.33301 -8.66699 -9.66602 -13 -18.999 -13h-6c-9.33301 -0 -15.666 4.33301 -18.999 13z" />
    <glyph glyph-name="W" unicode="W" horiz-adv-x="841" 
d="M830 614c0 -4 -0.333984 -6.99902 -1.00098 -8.99902l-194 -590c-2.66699 -10 -9.33398 -15 -20.001 -15h-6c-10 0 -16.667 5 -20 15l-169 543l-169 -543c-2.66699 -10 -9.33398 -15 -20.001 -15h-6c-10 0 -16.667 5 -20 15l-194 590
c-0.666992 1.33301 -1 3.66602 -1 6.99902c0 6 1.83301 11 5.5 15s8.83398 6 15.501 6c10.667 0 17.334 -5 20.001 -15l177 -538l167 538c3.33301 10 10 15 20 15h10c10.667 0 17.334 -5 20.001 -15l167 -538l177 538c3.33301 10 10 15 20 15c14 0 21 -6.33301 21 -19z" />
    <glyph glyph-name="X" unicode="X" horiz-adv-x="559" 
d="M33 22c0 4.66699 1.33203 8.66602 3.99902 11.999l207 301l-189 264c-3.33301 4.66699 -5 9 -5 13c0 6 3.33301 11.333 10 16c4.66699 3.33301 9 5 13 5c6.66699 0 12.334 -3.33301 17.001 -10l182 -255l190 256c5.33301 6 10.666 9 15.999 9c4 0 8.66699 -1.66699 14 -5
c6 -4.66699 9 -9.66699 9 -15c0 -4 -1.66699 -8.66699 -5 -14l-197 -268l213 -297c3.33301 -4.66699 5 -9 5 -13c0 -6 -3.33301 -11.333 -10 -16c-4.66699 -3.33301 -9 -5 -13 -5c-6 0 -11.333 3.33301 -16 10l-208 289l-198 -288
c-5.33301 -7.33301 -10.666 -11 -15.999 -11c-4 0 -8.33301 1.66699 -13 5c-6.66699 4.66699 -10 10.334 -10 17.001z" />
    <glyph glyph-name="Y" unicode="Y" horiz-adv-x="515" 
d="M505 613c0 -3.33301 -1.66699 -7.66699 -5 -13l-222 -350v-229c0 -14 -7 -21 -21 -21s-21 7 -21 21v229l-222 350c-2.66699 3.33301 -4 7.33301 -4 12c0 6 3.66699 11.667 11 17c3.33301 2.66699 7.33301 4 12 4c7.33301 0 13 -3.66699 17 -11l207 -327l208 328
c4 6.66699 9.33301 10 16 10c4 0 8.33301 -1.33301 13 -4c7.33301 -4 11 -9.33301 11 -16z" />
    <glyph glyph-name="Z" unicode="Z" horiz-adv-x="595" 
d="M550.5 137c3.66699 -4 5.16797 -9.33301 4.50098 -16c-2.66699 -40 -16.167 -70.167 -40.5 -90.5s-58.166 -30.5 -101.499 -30.5h-333c-15.333 0 -23 7 -23 21c0 4.66699 1 9 3 13s4.66699 8.33301 8 13l408 544h-294c-31.333 0 -55.166 -6.33301 -71.499 -19
s-25.833 -33 -28.5 -61c-0.666992 -14 -8 -21 -22 -21c-6.66699 0 -11.834 2 -15.501 6s-5.16699 9.33301 -4.5 16c2.66699 40 16.167 70.167 40.5 90.5s58.166 30.5 101.499 30.5h330c14 0 21 -7 21 -21c0 -10.667 -3 -20 -9 -28l-403 -542h292
c31.333 0 55.166 6.33301 71.499 19s25.833 33 28.5 61c1.33301 14 8.33301 21 21 21c7.33301 0 12.833 -2 16.5 -6z" />
    <glyph glyph-name="bracketleft" unicode="[" horiz-adv-x="186" 
d="M50 -140v783c0 14 7 21 21 21h84c6 0 11 -2 15 -6s6 -9 6 -15s-2 -11 -6 -15s-9 -6 -15 -6h-63v-741h63c6 0 11 -2 15 -6s6 -9 6 -15s-2 -11 -6 -15s-9 -6 -15 -6h-84c-14 0 -21 7 -21 21z" />
    <glyph glyph-name="backslash" unicode="\" horiz-adv-x="347" 
d="M256 -116l-205.999 798l-1 8c0 12.667 7.33301 19 22 19c11.333 0 18 -5.33301 20 -16l205 -798c0.666992 -2 1 -4.66699 1 -8c0 -6 -1.83301 -10.667 -5.5 -14s-8.83398 -5 -15.501 -5c-11.333 0 -18 5.33301 -20 16z" />
    <glyph glyph-name="bracketright" unicode="]" horiz-adv-x="186" 
d="M31 -161c-6 0 -11 2 -15 6s-6 9 -6 15s2 11 6 15s9 6 15 6h63v741h-63c-6 0 -11 2 -15 6s-6 9 -6 15s2 11 6 15s9 6 15 6h84c14 0 21 -7 21 -21v-783c0 -14 -7 -21 -21 -21h-84z" />
    <glyph glyph-name="asciicircum" unicode="^" horiz-adv-x="372" 
d="M76 424c-4 4 -5.99805 9 -5.99805 15c0 2.66699 0.666992 5.33398 2 8.00098l79 205c4.66699 11.333 12.667 17 24 17h22c11.333 0 19.333 -5.66699 24 -17l79 -205c1.33301 -2.66699 2 -5.33398 2 -8.00098c0 -6 -2 -11 -6 -15s-9 -6 -15 -6
c-4.66699 0 -8.83398 1.33301 -12.501 4s-6.16699 6 -7.5 10l-75 194l-75 -194c-1.33301 -4 -3.83301 -7.33301 -7.5 -10s-7.83398 -4 -12.501 -4c-6 0 -11 2 -15 6z" />
    <glyph glyph-name="underscore" unicode="_" horiz-adv-x="425" 
d="M50 -21c0 14 7 21 21 21h253c14 0 21 -7 21 -21s-7 -21 -21 -21h-253c-14 0 -21 7 -21 21z" />
    <glyph glyph-name="grave" unicode="`" horiz-adv-x="233" 
d="M161 517c-5.33301 0 -10.667 3 -16 9l-90 106c-3.33301 4 -5 8.66699 -5 14c0 6 2.66699 11.333 8 16c4 4 8.66699 6 14 6c6 0 11.333 -3 16 -9l90 -106c3.33301 -4 5 -8.66699 5 -14c0 -6 -2.66699 -11.333 -8 -16c-4 -4 -8.66699 -6 -14 -6z" />
    <glyph glyph-name="a" unicode="a" horiz-adv-x="571" 
d="M448.5 419.5c27.667 -27.667 41.501 -72.168 41.501 -133.501v-265c0 -14 -7 -21 -21 -21s-21 7 -21 21v59c-15.333 -26 -37.833 -45.833 -67.5 -59.5s-66.167 -20.5 -109.5 -20.5h-56c-50.667 0 -87.5 11.5 -110.5 34.5s-34.5 59.833 -34.5 110.5s11.667 87.667 35 111
s60 35 110 35h233c-0.666992 46.667 -11 79.667 -31 99s-54 29 -102 29h-58c-45.333 0 -78.333 -5.16699 -99 -15.5s-33 -28.166 -37 -53.499c-2 -13.333 -9 -20 -21 -20c-7.33301 0 -12.833 2 -16.5 6s-5.16699 9.33301 -4.5 16c2.66699 37.333 18.667 64.833 48 82.5
s72.666 26.5 129.999 26.5h58c61.333 0 105.833 -13.833 133.5 -41.5zM448.001 157.999v91h-233c-38.667 0 -65.5 -7.66699 -80.5 -23s-22.5 -42.333 -22.5 -81s7.5 -65.5 22.5 -80.5s41.833 -22.5 80.5 -22.5h56c108 0 166.667 36.667 176 110z" />
    <glyph glyph-name="b" unicode="b" horiz-adv-x="602" 
d="M480.5 420.5c27.667 -27.667 41.5 -72.167 41.5 -133.5v-112c0 -60.667 -13.833 -105 -41.5 -133s-72.167 -42 -133.5 -42h-38c-46 -0 -83.5 6.33301 -112.5 19s-50.5 31.667 -64.5 57v-55c0 -14 -7 -21 -21 -21s-21 7 -21 21v648c0 14 7 21 21 21s21 -7 21 -21v-283
c14 25.333 35.5 44.333 64.5 57s66.5 19 112.5 19h38c61.333 0 105.833 -13.833 133.5 -41.5zM480 287c0 49.333 -9.83301 83.833 -29.5 103.5s-54.167 29.5 -103.5 29.5h-38c-56 0 -99.5 -9.16699 -130.5 -27.5s-46.5 -45.5 -46.5 -81.5v-163
c0.666992 -34.667 16.667 -61 48 -79s74.333 -27 129 -27h38c49.333 0 83.833 10 103.5 30s29.5 54.333 29.5 103v112z" />
    <glyph glyph-name="c" unicode="c" horiz-adv-x="551" 
d="M122 42c-28 28 -42 72.3311 -42 132.998v112c0 61.333 14 105.833 42 133.5s72.333 41.167 133 40.5h82c49.333 0 86.333 -8.33301 111 -25s39 -42.667 43 -78v-2c0 -13.333 -7 -20 -21 -20c-12 0 -19 6.66699 -21 20c-2.66699 22.667 -12.667 38.834 -30 48.501
s-44.666 14.5 -81.999 14.5h-82c-49.333 0.666992 -83.833 -8.83301 -103.5 -28.5s-29.5 -54.167 -29.5 -103.5v-112c0 -48.667 10 -83 30 -103s54.333 -30 103 -30h82c37.333 0 64.666 4.83301 81.999 14.5s27.333 25.834 30 48.501c2 13.333 9 20 21 20
c7.33301 0 12.833 -2 16.5 -6s5.16699 -9.33301 4.5 -16c-4 -35.333 -18.333 -61.333 -43 -78s-61.667 -25 -111 -25h-82c-60.667 0 -105 14 -133 42z" />
    <glyph glyph-name="d" unicode="d" 
d="M512 669v-648c0 -14 -7 -21 -21 -21s-21 7 -21 21v55c-14 -25.333 -35.5 -44.333 -64.5 -57s-66.5 -19 -112.5 -19h-38c-60.667 0 -105 14 -133 42s-42 72.333 -42 133v111c0 61.333 14 105.833 42 133.5s72.333 41.5 133 41.5h215v208c0 14 7 21 21 21s21 -7 21 -21z
M423.5 69.5c31 18.333 46.5 45.5 46.5 81.5v268h-215c-48.667 0 -83 -9.83301 -103 -29.5s-30 -54.167 -30 -103.5v-111c0 -48.667 10 -83 30 -103s54.333 -30 103 -30h38c56 0 99.5 9.16699 130.5 27.5z" />
    <glyph glyph-name="e" unicode="e" horiz-adv-x="592" 
d="M122 215l-0.000976562 -40.999c0 -48.667 10 -82.834 30 -102.501s54.333 -29.5 103 -29.5h82c45.333 0 78 6.16699 98 18.5s31.333 33.5 34 63.5c1.33301 14 8.66602 21 21.999 21c6.66699 0 11.834 -2 15.501 -6s5.16699 -9.33301 4.5 -16
c-3.33301 -42.667 -19.166 -73.834 -47.499 -93.501s-70.5 -29.5 -126.5 -29.5h-82c-60.667 0 -105 13.833 -133 41.5s-42 71.834 -42 132.501v112c0 61.333 14 106 42 134s72.333 41.667 133 41h82c61.333 0 105.833 -13.833 133.5 -41.5s41.5 -72.167 41.5 -133.5v-50
c0 -14 -7 -21 -21 -21h-369zM121.999 257.001h348v29c0 49.333 -9.83301 83.833 -29.5 103.5s-54.167 29.5 -103.5 29.5h-82c-48.667 0.666992 -83 -9 -103 -29s-30 -54.667 -30 -104v-29z" />
    <glyph glyph-name="f" unicode="f" horiz-adv-x="309" 
d="M289 440c0 -14 -7 -21 -21 -21h-131v-398c0 -14 -7 -21 -21 -21s-21 7 -21 21v398h-44c-14 0 -21 7 -21 21s7 21 21 21h44v57c0 60 13.667 103.667 41 131s71 41 131 41c14.667 0 22 -7 22 -21s-7.33301 -21 -22 -21c-48 0 -81.667 -9.66699 -101 -29s-29 -53 -29 -101
v-57h131c14 0 21 -7 21 -21z" />
    <glyph glyph-name="g" unicode="g" 
d="M512 440l0.00292969 -516.999c0 -42.667 -9.83301 -73.834 -29.5 -93.501s-50.834 -29.5 -93.501 -29.5h-186c-39.333 0 -68.833 8.16699 -88.5 24.5s-30.834 41.833 -33.501 76.5v2c0 6.66699 1.83301 11.667 5.5 15s8.5 5 14.5 5c14 0 21.333 -7 22 -21
c2 -22.667 9 -38.334 21 -47.001s31.667 -13 59 -13h186c31.333 0 52.666 5.66699 63.999 17s17 32.666 17 63.999v152c-28.667 -50 -87.667 -75 -177 -75h-38c-60.667 0 -105 13.833 -133 41.5s-42 71.834 -42 132.501v112c0 61.333 14 106 42 134s72.333 41.667 133 41h82
c35.333 0 63.5 -4.66699 84.5 -14s37.167 -23.666 48.5 -42.999v36c0 14 7 21 21 21s21 -7 21 -21zM423.503 69.501c31 18.333 46.5 45.501 46.5 81.501v156c0 40 -10.5 68.667 -31.5 86s-54.833 26 -101.5 26h-82c-48.667 0.666992 -83 -9 -103 -29s-30 -54.667 -30 -104
v-112c0 -48.667 10 -82.834 30 -102.501s54.333 -29.5 103 -29.5h38c56 0 99.5 9.16699 130.5 27.5z" />
    <glyph glyph-name="h" unicode="h" 
d="M470.5 420.5c27.667 -27.667 41.501 -72.167 41.501 -133.5v-266c0 -14 -7 -21 -21 -21s-21 7 -21 21v266c0 49.333 -9.83301 83.833 -29.5 103.5s-54.167 29.5 -103.5 29.5h-28c-108.667 0 -167.334 -36.333 -176.001 -109l-1 -6v-284c0 -14 -7 -21 -21 -21
s-21 7 -21 21v648c0 14 7 21 21 21s21 -7 21 -21v-286c30.667 52.667 89.667 79 177 79h28c61.333 0 105.833 -13.833 133.5 -41.5z" />
    <glyph glyph-name="i" unicode="i" horiz-adv-x="222" 
d="M90 21v419c0 14 7 21 21 21s21 -7 21 -21v-419c0 -14 -7 -21 -21 -21s-21 7 -21 21zM71 586l-0.000976562 20c0 20 10 30 30 30h20c20 0 30 -10 30 -30v-20c0 -10 -2.66699 -17.667 -8 -23s-12.666 -8 -21.999 -8h-20c-20 0 -30 10.333 -30 31z" />
    <glyph glyph-name="j" unicode="j" horiz-adv-x="222" 
d="M-15.5 -163.5c4.33301 3.66699 9.83301 5.49805 16.5 5.49805c33.333 0 56.5 6.5 69.5 19.5s19.5 36.167 19.5 69.5v509c0 14 7 21 21 21s21 -7 21 -21v-509c0 -45.333 -10.5 -78.5 -31.5 -99.5s-54.167 -31.5 -99.5 -31.5c-6.66699 0 -12.167 1.83301 -16.5 5.5
s-6.5 8.83398 -6.5 15.501s2.16699 11.834 6.5 15.501zM71 585.998l-0.000976562 20c0 20 10 30 30 30h20c20 0 30 -10 30 -30v-20c0 -10 -2.66699 -17.667 -8 -23s-12.666 -8 -21.999 -8h-20c-20 0 -30 10.333 -30 31z" />
    <glyph glyph-name="k" unicode="k" horiz-adv-x="469" 
d="M449 21c0 -4.66699 -2.99902 -9.66699 -8.99902 -15c-4.66699 -4 -9.33398 -6 -14.001 -6s-9.66699 2.66699 -15 8l-209 236l-1 1l-69 -59v-165c0 -14 -7 -21 -21 -21s-21 7 -21 21v648c0 14 7 21 21 21s21 -7 21 -21v-428l259 222c5.33301 4 10 6 14 6
c4.66699 0 9.66699 -2.66699 15 -8c4 -4.66699 6 -9.33398 6 -14.001c0 -5.33301 -2.66699 -10.666 -8 -15.999l-185 -158l1 -1l208 -236c4.66699 -6 7 -11 7 -15z" />
    <glyph glyph-name="l" unicode="l" horiz-adv-x="274" 
d="M122 31.5c-21.333 21 -32 54.167 -32 99.5v538c0 14 7 21 21 21s21 -7 21 -21v-538c0 -34 6.5 -57.333 19.5 -70s36.5 -19 70.5 -19c14.667 0 22 -7 22 -21s-7 -21 -21 -21c-46 0 -79.667 10.5 -101 31.5z" />
    <glyph glyph-name="m" unicode="m" horiz-adv-x="833" 
d="M719.5 422.5c21.667 -26.333 32.4971 -70.166 32.4971 -131.499v-271c0 -14 -7 -21 -21 -21s-21 7 -21 21v271c0 46 -7.66699 79 -23 99s-40.666 30 -75.999 30h-42c-45.333 0 -77.833 -10 -97.5 -30s-29.5 -53 -29.5 -99v-271c0 -14 -7 -21 -21 -21s-21 7 -21 21v271
c0 46 -7.66699 79 -23 99s-40.666 30 -75.999 30h-42c-45.333 0 -77.833 -10 -97.5 -30s-29.5 -53 -29.5 -99v-271c0 -14 -7 -21 -21 -21s-21 7 -21 21v420c0 14 7 21 21 21s21 -7 21 -21v-44c13.333 23.333 30 40.166 50 50.499s45.667 15.5 77 15.5h42
c33.333 0 60 -6.16699 80 -18.5s36.333 -32.5 49 -60.5c12.667 28 30 48.167 52 60.5s51 18.5 87 18.5h42c50.667 0 86.834 -13.167 108.501 -39.5z" />
    <glyph glyph-name="n" unicode="n" 
d="M470.5 419.5c27.667 -27.667 41.501 -72.167 41.501 -133.5v-265c0 -14 -7 -21 -21 -21s-21 7 -21 21v265c0 49.333 -9.83301 83.833 -29.5 103.5s-54.167 29.5 -103.5 29.5h-28c-108.667 0 -167.334 -36.333 -176.001 -109l-1 -6v-283c0 -14 -7 -21 -21 -21
s-21 7 -21 21v419c0 14 7 21 21 21s21 -7 21 -21v-58c30.667 52.667 89.667 79 177 79h28c61.333 0 105.833 -13.833 133.5 -41.5z" />
    <glyph glyph-name="o" unicode="o" horiz-adv-x="592" 
d="M122 41.5c-28 27.667 -42 71.833 -42 132.5v112c0 61.333 14 106 42 134s72.333 41.667 133 41h82c61.333 0 105.833 -13.833 133.5 -41.5s41.5 -72.167 41.5 -133.5v-111c0 -60.667 -13.833 -105 -41.5 -133s-72.167 -42 -133.5 -42h-82
c-60.667 -0 -105 13.833 -133 41.5zM337 41.999c49.333 0 83.833 10.001 103.5 30.001s29.5 54.333 29.5 103v111c0 49.333 -9.83301 83.833 -29.5 103.5s-54.167 29.5 -103.5 29.5h-82c-48.667 0.666992 -83 -9 -103 -29s-30 -54.667 -30 -104v-112
c0 -48.667 10 -82.834 30 -102.501s54.333 -29.5 103 -29.5h82z" />
    <glyph glyph-name="p" unicode="p" horiz-adv-x="602" 
d="M480.5 419.5c27.667 -27.667 41.5 -72.167 41.5 -133.5v-111c0 -60.667 -13.833 -105 -41.5 -133s-72.167 -42 -133.5 -42h-215v-179c0 -14 -7 -21 -21 -21s-21 7 -21 21v619c0 14 7 21 21 21s21 -7 21 -21v-55c14 25.333 35.5 44.333 64.5 57s66.5 19 112.5 19h38
c61.333 0 105.833 -13.833 133.5 -41.5zM480 286c0 49.333 -9.83203 83.833 -29.499 103.5s-54.167 29.5 -103.5 29.5h-38c-108.667 0 -167.334 -36.333 -176.001 -109l-1 -6v-262h215c49.333 0 83.833 10 103.5 30s29.5 54.333 29.5 103v111z" />
    <glyph glyph-name="q" unicode="q" 
d="M512 440v-619c0 -14 -7 -21 -21 -21s-21 7 -21 21v179h-215c-60.667 0 -105 14 -133 42s-42 72.333 -42 133v111c0 61.333 14 105.833 42 133.5s72.333 41.5 133 41.5h38c46 0 83.5 -6.33301 112.5 -19s50.5 -31.667 64.5 -57v55c0 14 7 21 21 21s21 -7 21 -21zM470 42
v268c0 36 -15.5 63.167 -46.5 81.5s-74.5 27.5 -130.5 27.5h-38c-48.667 0 -83 -9.83301 -103 -29.5s-30 -54.167 -30 -103.5v-111c0 -48.667 10 -83 30 -103s54.333 -30 103 -30h215z" />
    <glyph glyph-name="r" unicode="r" horiz-adv-x="360" 
d="M350 440c0 -14 -7 -20.999 -21 -20.999c-60 0 -106.833 -14.333 -140.5 -43s-52.167 -70.334 -55.5 -125.001c0 -2.66699 -0.333008 -4.66699 -1 -6v-224c0 -14 -7 -21 -21 -21s-21 7 -21 21v419c0 14 7 21 21 21s21 -7 21 -21v-94c16.667 37.333 41.667 65.833 75 85.5
s74 29.5 122 29.5c14 0 21 -7 21 -21z" />
    <glyph glyph-name="s" unicode="s" horiz-adv-x="541" 
d="M96 27c-20.667 17.333 -32.666 44.333 -35.999 81v2c0 13.333 7 20 21 20c13.333 0 20.333 -7 21 -21c2.66699 -24 10.5 -41 23.5 -51s33.833 -15 62.5 -15h164c32.667 0 55.334 6.33301 68.001 19s19 35.334 19 68.001s-6.33301 55.334 -19 68.001
s-35.334 19 -68.001 19h-162c-42 0 -73 9.83301 -93 29.5s-30 50.5 -30 92.5c0 42.667 10 73.834 30 93.501s51 29.5 93 29.5h157c38 0 67 -8.16699 87 -24.5s31.333 -41.5 34 -75.5v-4c0 -12 -6.66699 -18 -20 -18c-12.667 0 -20 7 -22 21c-2 22 -9 37.333 -21 46
s-31.333 13 -58 13h-157c-30.667 0 -51.834 -5.83301 -63.501 -17.5s-17.5 -32.834 -17.5 -63.501c0 -30 5.83301 -50.833 17.5 -62.5s32.834 -17.5 63.501 -17.5h162c44.667 0 77.334 -10.333 98.001 -31s31 -53.334 31 -98.001s-10.333 -77.334 -31 -98.001
s-53.334 -31 -98.001 -31h-164c-40.667 0 -71.334 8.66699 -92.001 26z" />
    <glyph glyph-name="t" unicode="t" horiz-adv-x="338" 
d="M298 21c0 -14 -7.33301 -20.999 -22 -20.999c-60 0 -103.667 13.667 -131 41s-41 70.666 -41 129.999v248h-63c-14 0 -21 7 -21 21s7 21 21 21h63v119c0 14 7 21 21 21s21 -7 21 -21v-119h129c14 0 21 -7 21 -21s-7 -21 -21 -21h-129v-248c0 -48 9.5 -81.5 28.5 -100.5
s52.833 -28.5 101.5 -28.5c14.667 0 22 -7 22 -21z" />
    <glyph glyph-name="u" unicode="u" 
d="M503 440l-0.000976562 -419c0 -14 -7 -21 -21 -21s-21 7 -21 21v58c-30.667 -52.667 -89.667 -79 -177 -79h-28c-60.667 0 -105 14 -133 42s-42 72.333 -42 133v265c0 14 7 21 21 21s21 -7 21 -21v-265c0 -48.667 10 -83 30 -103s54.333 -30 103 -30h28
c108.667 0 167.334 36.333 176.001 109l1 6v283c0 14 7 21 21 21s21 -7 21 -21z" />
    <glyph glyph-name="v" unicode="v" horiz-adv-x="492" 
d="M472 441c0 -2.66699 -1.00098 -6 -3.00098 -10l-203 -415c-3.33301 -6.66699 -7 -11 -11 -13s-9.33301 -3 -16 -3s-12 1.33301 -16 4s-7.33301 6.66699 -10 12l-191 416l-2 9c0 8 4.66699 14 14 18c4 1.33301 7.33301 2 10 2c7.33301 0 13 -4.33301 17 -13l179 -391
l190 391c4 8.66699 9.66699 13 17 13c4.66699 0 8.33398 -0.666992 11.001 -2c9.33301 -4 14 -10 14 -18z" />
    <glyph glyph-name="w" unicode="w" horiz-adv-x="684" 
d="M663 441c0 -4 -0.333984 -7 -1.00098 -9l-155 -415c-4 -11.333 -12.667 -17 -26 -17c-8 0 -14 1.16699 -18 3.5s-7 6.83301 -9 13.5l-112 356l-125 -356c-2.66699 -6.66699 -6.16699 -11.167 -10.5 -13.5s-9.83301 -3.5 -16.5 -3.5c-7.33301 -0 -13 1.33301 -17 4
s-7 7 -9 13l-142 415c-1.33301 4 -2 7 -2 9c0 9.33301 5 15.333 15 18c2 0.666992 5 1 9 1c8.66699 0 14.334 -4.66699 17.001 -14l132 -385l126 375c4 11.333 12 17 24 17c11.333 0 19 -5.66699 23 -17l117 -372l139 382c4 10 10 15 18 15c2 0 5 -0.666992 9 -2
c9.33301 -4 14 -10 14 -18z" />
    <glyph glyph-name="x" unicode="x" horiz-adv-x="482" 
d="M437 439c0 -4.66699 -1.99902 -8.99902 -5.99902 -12.999l-163 -197l151 -194c4 -4.66699 6 -9.33398 6 -14.001c0 -6 -3 -11 -9 -15c-4.66699 -4 -9.33398 -6 -14.001 -6c-5.33301 0 -10.666 3 -15.999 9l-148 189l-155 -189c-4.66699 -6 -10 -9 -16 -9
c-4.66699 0 -9 2 -13 6c-6 5.33301 -9 10.666 -9 15.999c0 4.66699 2 9.33398 6 14.001l161 196l-152 194c-4 5.33301 -6 10 -6 14c0 6 3 11.333 9 16c5.33301 3.33301 10 5 14 5c6 0 11.333 -3 16 -9l149 -190l156 190c5.33301 6 10.666 9 15.999 9s10 -2 14 -6
c6 -4.66699 9 -10 9 -16z" />
    <glyph glyph-name="y" unicode="y" horiz-adv-x="583" 
d="M110.5 -170c-19.667 20 -29.501 51.335 -29.501 94.002c0 14 7 21 21 21s21 -7 21 -21c0 -31.333 5.83301 -52.833 17.5 -64.5s32.834 -17.5 63.501 -17.5h166c30.667 0 51.834 5.83301 63.501 17.5s17.5 33.167 17.5 64.5v141c-18 -22.667 -41.667 -39.334 -71 -50.001
s-64.666 -16 -105.999 -16h-21c-60 0 -103.667 13.667 -131 41s-41 70.666 -41 129.999v271c0 14 7 21 21 21s21 -7 21 -21v-271c0 -48 9.5 -81.5 28.5 -100.5s52.833 -28.5 101.5 -28.5h21c118 0 177 43 177 129v271c0 14 7 21 21 21s21 -7 21 -21v-517
c0 -42.667 -9.83301 -74 -29.5 -94s-50.834 -30 -93.501 -30h-166c-42.667 0 -73.834 10 -93.501 30z" />
    <glyph glyph-name="z" unicode="z" horiz-adv-x="506" 
d="M467 117c3.33301 -4 4.66895 -9.33105 4.00195 -15.998c-7.33301 -67.333 -48 -101 -122 -101h-269c-14 0 -21 7 -21 21c0 7.33301 3 15 9 23l305 375h-206c-27.333 0 -46.833 -4.33301 -58.5 -13s-18.834 -24.334 -21.501 -47.001c-0.666992 -14 -7.66699 -21 -21 -21
c-7.33301 0 -12.833 2 -16.5 6s-5.16699 9.33301 -4.5 16c2.66699 34.667 14 60.167 34 76.5s49.333 24.5 88 24.5h245c14 0 21 -7 21 -21c0 -8 -3 -16 -9 -24l-303 -374h228c26 0 45.167 4.66699 57.5 14s19.833 24.666 22.5 45.999c2 14 9.33301 21 22 21
c7.33301 0 12.666 -2 15.999 -6z" />
    <glyph glyph-name="braceleft" unicode="{" horiz-adv-x="316" 
d="M193.5 -145c-22.333 10.667 -38.499 27.834 -48.499 51.501s-15 56.167 -15 97.5v177l-63 24c-11.333 4.66699 -17 12.667 -17 24v34c0 11.333 5.33301 19.333 16 24l64 25v177c0 44 4.83301 78.667 14.5 104s25.667 43.5 48 54.5s53.166 16.5 92.499 16.5
c6 0 11 -2 15 -6s6 -9 6 -15s-2 -11 -6 -15s-9 -6 -15 -6c-31.333 0 -54.833 -3.66699 -70.5 -11s-26.667 -20.333 -33 -39s-9.5 -46.334 -9.5 -83.001v-188c0 -11.333 -5.33301 -19.333 -16 -24l-64 -25v-12l63 -24c11.333 -4.66699 17 -12.667 17 -24v-188
c0 -34 3.16699 -59.667 9.5 -77s17.333 -29.333 33 -36s39.167 -10 70.5 -10c6 0 11 -2 15 -6s6 -9 6 -15s-2 -11 -6 -15s-9 -6 -15 -6c-38.667 0 -69.167 5.33301 -91.5 16z" />
    <glyph glyph-name="bar" unicode="|" horiz-adv-x="202" 
d="M80 -120v793c0 14 7 21 21 21s21 -7 21 -21v-793c0 -14 -7 -21 -21 -21s-21 7 -21 21z" />
    <glyph glyph-name="braceright" unicode="}" horiz-adv-x="316" 
d="M16 -155c-4 4 -5.99902 9 -5.99902 15s2 11 6 15s9 6 15 6c31.333 0 54.833 3.33301 70.5 10s26.667 18.667 33 36s9.5 43 9.5 77v188c0 11.333 5.66699 19.333 17 24l63 24v12l-64 25c-10.667 4.66699 -16 12.667 -16 24v188c0 36.667 -3.16699 64.334 -9.5 83.001
s-17.333 31.667 -33 39s-39.167 11 -70.5 11c-6 0 -11 2 -15 6s-6 9 -6 15s2 11 6 15s9 6 15 6c39.333 0 70.166 -5.5 92.499 -16.5s38.333 -29.167 48 -54.5s14.5 -60 14.5 -104v-177l64 -25c10.667 -4.66699 16 -12.667 16 -24v-34c0 -11.333 -5.66699 -19.333 -17 -24
l-63 -24v-177c0 -41.333 -5 -73.833 -15 -97.5s-26.167 -40.834 -48.5 -51.501s-52.833 -16 -91.5 -16c-6 0 -11 2 -15 6z" />
    <glyph glyph-name="asciitilde" unicode="~" horiz-adv-x="545" 
d="M75 267c-4 3.33301 -5.99707 7.66699 -5.99707 13c0 3.33301 1 7 3 11c11.333 24.667 26.166 42.5 44.499 53.5s41.833 16.5 70.5 16.5c22 0 40.167 -2.83301 54.5 -8.5s29.5 -13.834 45.5 -24.501c14.667 -9.33301 26.834 -16 36.501 -20s21.5 -6 35.5 -6
c38 0 64.333 15 79 45c4.66699 9.33301 11 14 19 14c6 0 10.667 -1.66699 14 -5s5 -7.66602 5 -12.999c0 -4.66699 -1 -9 -3 -13c-22 -45.333 -60 -68 -114 -68c-20 0 -36.167 2.5 -48.5 7.5s-25.5 12.5 -39.5 22.5c-13.333 9.33301 -26 16.5 -38 21.5s-27.333 7.5 -46 7.5
c-20.667 0 -36.834 -3.5 -48.501 -10.5s-21.834 -19.5 -30.501 -37.5c-2 -4 -4.33301 -6.83301 -7 -8.5s-6.33398 -2.5 -11.001 -2.5c-6 0 -11 1.66699 -15 5z" />
    <glyph glyph-name="uni00A0" unicode="&#xa0;" horiz-adv-x="230" 
 />
    <glyph glyph-name="exclamdown" unicode="&#xa1;" horiz-adv-x="207" 
d="M137 495v-17c0 -16.667 -8.33301 -25 -25 -25h-17c-16.667 0 -25 8.33301 -25 25v17c0 17.333 8.33301 26 25 26h17c16.667 0 25 -8.66699 25 -26zM124 339v-488c0 -14 -7 -21 -21 -21s-21 7 -21 21v488c0 14 7 21 21 21s21 -7 21 -21z" />
    <glyph glyph-name="cent" unicode="&#xa2;" horiz-adv-x="460" 
d="M414 200c4 -4 6 -8.99902 6 -14.999c0 -40 -11.5 -69.167 -34.5 -87.5s-59.167 -27.5 -108.5 -27.5h-7v-70c0 -14 -7 -21 -21 -21s-21 7 -21 21v70h-7c-56 0 -96.833 12.667 -122.5 38s-38.5 65.666 -38.5 120.999v83c0 56 13 96.833 39 122.5s66.667 38.167 122 37.5h7
v69c0 14 7 21 21 21s21 -7 21 -21v-69h7c49.333 0 85.5 -9.16699 108.5 -27.5s34.5 -47.5 34.5 -87.5c0 -6 -2 -11 -6 -15s-9 -6 -15 -6s-11 2 -15 6s-6 9 -6 15c0 27.333 -7.33301 46.333 -22 57s-41 16 -79 16h-7v-318h7c38 0 64.333 5.33301 79 16s22 29.667 22 57
c0 6 2 11 6 15s9 6 15 6s11 -2 15 -6zM228 112.001v317.998h-7c-44 0.666992 -74.833 -7.66602 -92.5 -24.999s-26.5 -48.333 -26.5 -93v-83c0 -43.333 8.66699 -73.666 26 -90.999s48.333 -26 93 -26h7z" />
    <glyph glyph-name="sterling" unicode="&#xa3;" horiz-adv-x="595" 
d="M550 21c0 -14 -7.00098 -21 -21.001 -21h-479v42c27.333 0 46.5 7.5 57.5 22.5s16.5 38.5 16.5 70.5v88h-63c-14 0 -21 7 -21 21s7 21 21 21h63v165c0 71.333 16 123 48 155s83.333 48 154 48h21c64.667 0 111.334 -14.333 140.001 -43s43 -75.334 43 -140.001
c0 -14 -7 -21 -21 -21s-21 7 -21 21c0 36 -4.33301 64.167 -13 84.5s-23.167 34.833 -43.5 43.5s-48.5 13 -84.5 13h-21c-40 0 -71.5 -5.16699 -94.5 -15.5s-39.667 -27.166 -50 -50.499s-15.5 -55 -15.5 -95v-165h179c14 0 21 -7 21 -21s-7 -21 -21 -21h-179v-88
c0 -42 -8.66699 -73 -26 -93h389c14 0 21 -7 21 -21z" />
    <glyph glyph-name="currency" unicode="&#xa4;" horiz-adv-x="509" 
d="M56 148c-4 4 -6.00098 9 -6.00098 15s2 11 6 15l55 55c-25.333 32.667 -38 70.667 -38 114c0 44 12.667 81.667 38 113l-55 56c-4 4 -6 9 -6 15s2 11 6 15s9 6 15 6s11 -2 15 -6l55 -56c33.333 24.667 71 37 113 37c42.667 0 80.334 -12.667 113.001 -38l55 56
c4 4 9 6 15 6s11 -2 15 -6s6 -9 6 -15s-2 -11 -6 -15l-55 -56c24.667 -32 37 -69.333 37 -112c0 -42 -12.333 -79.667 -37 -113l56 -56c4 -4 6 -9 6 -15s-2 -11 -6 -15s-9 -6 -15 -6s-11 2 -15 6l-56 56c-31.333 -25.333 -69 -38 -113 -38c-43.333 0 -81 12.667 -113 38
l-55 -56c-4 -4 -9 -6 -15 -6s-11 2 -15 6zM352.499 247.5c26.333 26.333 39.5 59.5 39.5 99.5c0 39.333 -13.167 72.166 -39.5 98.499s-59.166 39.5 -98.499 39.5c-40 0 -73.167 -13.167 -99.5 -39.5s-39.5 -59.166 -39.5 -98.499c0 -40 13.167 -73.167 39.5 -99.5
s59.5 -39.5 99.5 -39.5c39.333 0 72.166 13.167 98.499 39.5z" />
    <glyph glyph-name="yen" unicode="&#xa5;" horiz-adv-x="517" 
d="M507 612c0 -3.33301 -1.66602 -7.33203 -4.99902 -11.999l-206 -321h105c6 0 11 -2 15 -6s6 -9 6 -15s-2 -11 -6 -15s-9 -6 -15 -6h-124v-46h124c6 0 11 -2 15 -6s6 -9 6 -15s-2 -11 -6 -15s-9 -6 -15 -6h-124v-128c0 -14 -7 -21 -21 -21s-21 7 -21 21v128h-123
c-6 0 -11 2 -15 6s-6 9 -6 15s2 11 6 15s9 6 15 6h123v46h-123c-6 0 -11 2 -15 6s-6 9 -6 15s2 11 6 15s9 6 15 6h105l-202 321c-3.33301 5.33301 -5 9.66602 -5 12.999c0 6.66699 3.66699 12 11 16c4.66699 2.66699 9 4 13 4c6.66699 0 12 -3.33301 16 -10l206 -328
l211 328c4 6.66699 9.33301 10 16 10c5.33301 0 9.66602 -1.33301 12.999 -4c7.33301 -4 11 -9.66699 11 -17z" />
    <glyph glyph-name="brokenbar" unicode="&#xa6;" horiz-adv-x="202" 
d="M86 374c-4 4 -6 9 -6 15v285c0 6 2 11 6 15s9 6 15 6s11 -2 15 -6s6 -9 6 -15v-285c0 -6 -2 -11 -6 -15s-9 -6 -15 -6s-11 2 -15 6zM86 -135c-4 4 -6 9 -6 15v287c0 6 2 11 6 15s9 6 15 6s11 -2 15 -6s6 -9 6 -15v-287c0 -6 -2 -11 -6 -15s-9 -6 -15 -6s-11 2 -15 6z" />
    <glyph glyph-name="section" unicode="&#xa7;" horiz-adv-x="536" 
d="M439 125c11.333 -16.667 17.002 -39.3311 17.002 -67.998c0 -44.667 -10.333 -77.334 -31 -98.001s-53.334 -31 -98.001 -31h-114c-44.667 0 -77.334 10.333 -98.001 31s-31 53.334 -31 98.001c0 14 7 21 21 21s21 -7 21 -21c0 -32.667 6.33301 -55.334 19 -68.001
s35.334 -19 68.001 -19h114c32.667 0 55.334 6.33301 68.001 19s19 35.334 19 68.001c0 16.667 -2.33301 29.667 -7 39s-13.334 17.666 -26.001 24.999s-32.667 15.333 -60 24l-124 40c-43.333 13.333 -73.666 30.666 -90.999 51.999s-26 51.666 -26 90.999
c0 33.333 7.16699 59.5 21.5 78.5s36.166 31.167 65.499 36.5c-18 12.667 -31.333 27.334 -40 44.001s-13 36.334 -13 59.001c0 32 9.66699 56.167 29 72.5s47.666 24.5 84.999 24.5h98c38 0 66.167 -9.16699 84.5 -27.5s27.5 -46.833 27.5 -85.5c0 -14 -7 -21 -21 -21
s-21 7 -21 21c0 26.667 -5 45.167 -15 55.5s-28.333 15.5 -55 15.5h-98c-26 0 -44.5 -4.16699 -55.5 -12.5s-16.5 -22.5 -16.5 -42.5c0 -22.667 6 -40.667 18 -54s32.333 -25 61 -35l99 -35c40 -14.667 68.667 -32.667 86 -54s26 -50 26 -86c0 -60 -23 -97.667 -69 -113
c30 -12.667 50.667 -27.334 62 -44.001zM139.502 262.503c11.667 -14.333 34.833 -26.835 69.5 -37.502l115 -37c28 0.666992 48.333 8.33398 61 23.001s19 38.334 19 71.001c0 26.667 -6 47.167 -18 61.5s-34 27.166 -66 38.499l-99 35l-8 3
c-34 0 -57.667 -6.66699 -71 -20s-20 -37.333 -20 -72c0 -29.333 5.83301 -51.166 17.5 -65.499z" />
    <glyph glyph-name="dieresis" unicode="&#xa8;" horiz-adv-x="310" 
d="M70 575v17c0 16.667 8.33301 25 25 25h17c16.667 0 25 -8.33301 25 -25v-17c0 -17.333 -8.33301 -26 -25 -26h-17c-16.667 0 -25 8.66699 -25 26zM213 575v17c0 16.667 8.33301 25 25 25h17c16.667 0 25 -8.33301 25 -25v-17c0 -17.333 -8.33301 -26 -25 -26h-17
c-16.667 0 -25 8.66699 -25 26z" />
    <glyph glyph-name="copyright" unicode="&#xa9;" horiz-adv-x="790" 
d="M232.5 41c-47.667 27.333 -85 65 -112 113s-40.5 102.333 -40.5 163s13.5 115 40.5 163s64.333 85.5 112 112.5s101.834 40.5 162.501 40.5s114.834 -13.5 162.501 -40.5s85 -64.5 112 -112.5s40.5 -102.333 40.5 -163s-13.5 -115 -40.5 -163s-64.333 -85.667 -112 -113
s-101.834 -41 -162.501 -41s-114.834 13.667 -162.501 41zM536 77.5c41.333 23.667 73.666 56.334 96.999 98.001s35 88.834 35 141.501s-11.667 99.834 -35 141.501s-55.666 74.167 -96.999 97.5s-88.333 35 -141 35s-99.667 -11.667 -141 -35
s-73.666 -55.833 -96.999 -97.5s-35 -88.834 -35 -141.501s11.667 -99.834 35 -141.501s55.666 -74.334 96.999 -98.001s88.333 -35.5 141 -35.5s99.667 11.833 141 35.5zM278 174c-21.333 21.333 -32 54.666 -32 99.999v83c0 46.667 10.667 80.5 32 101.5s55 31.5 101 31.5
h44c40.667 0 70.667 -7.83301 90 -23.5s29 -40.167 29 -73.5c0 -6 -2 -11 -6 -15s-9 -6 -15 -6s-11 2 -15 6s-6 9 -6 15c0 20.667 -5.5 35 -16.5 43s-31.167 12 -60.5 12h-44c-34 0 -57.667 -6.5 -71 -19.5s-20 -36.833 -20 -71.5v-83c0 -33.333 6.66699 -56.666 20 -69.999
s37 -20 71 -20h44c29.333 0 49.5 4 60.5 12s16.5 22.333 16.5 43c0 6 2 11 6 15s9 6 15 6s11 -2 15 -6s6 -9 6 -15c0 -33.333 -9.66699 -57.833 -29 -73.5s-49.333 -23.5 -90 -23.5h-44c-46 0 -79.667 10.667 -101 32z" />
    <glyph glyph-name="ordfeminine" unicode="&#xaa;" horiz-adv-x="415" 
d="M335 614c20 -20 30.0029 -51.667 30.0029 -95v-179c0 -14 -7 -21 -21 -21s-21 7 -21 21v25c-22.667 -30.667 -60.334 -46 -113.001 -46h-55c-36 0 -62.5 8.5 -79.5 25.5s-25.5 43.5 -25.5 79.5s8.5 62.5 25.5 79.5s43.5 25.5 79.5 25.5h168
c-0.666992 26.667 -7.33398 45.5 -20.001 56.5s-33.667 16.5 -63 16.5h-56c-27.333 0 -47.333 -2.5 -60 -7.5s-20.667 -13.833 -24 -26.5c-3.33301 -13.333 -10.666 -20 -21.999 -20c-7.33301 0 -12.833 2 -16.5 6s-4.83398 9.33301 -3.50098 16c4 25.333 16.167 44 36.5 56
s50.166 18 89.499 18h56c43.333 0 75 -10 95 -30zM292.503 376.5c20.333 10.333 30.499 25.501 30.499 45.501v65h-168c-24 0 -40.5 -4.33301 -49.5 -13s-13.5 -25.334 -13.5 -50.001c0 -24 4.33301 -40.5 13 -49.5s25.334 -13.5 50.001 -13.5h55
c34.667 0 62.167 5.16699 82.5 15.5z" />
    <glyph glyph-name="guillemotleft" unicode="&#xab;" horiz-adv-x="579" 
d="M465 126l-186 153c-5.33301 5.33301 -8 10.333 -8 15c0 6 2.66699 11 8 15l186 153c4.66699 3.33301 9.33398 5 14.001 5c5.33301 0 10.166 -2 14.499 -6s6.5 -9 6.5 -15c0 -6.66699 -2.66699 -12 -8 -16l-165 -136l165 -136c5.33301 -4 8 -9.33301 8 -16
c0 -6 -2.16699 -11 -6.5 -15s-9.16602 -6 -14.499 -6c-4.66699 0 -9.33398 1.66699 -14.001 5zM275 126l-186 153c-5.33301 5.33301 -8 10.333 -8 15c0 6 2.66699 11 8 15l186 153c4.66699 3.33301 9.33398 5 14.001 5c5.33301 0 10.166 -2 14.499 -6s6.5 -9 6.5 -15
c0 -6.66699 -2.66699 -12 -8 -16l-165 -136l165 -136c5.33301 -4 8 -9.33301 8 -16c0 -6 -2.16699 -11 -6.5 -15s-9.16602 -6 -14.499 -6c-4.66699 0 -9.33398 1.66699 -14.001 5z" />
    <glyph glyph-name="logicalnot" unicode="&#xac;" horiz-adv-x="545" 
d="M438 239v95h-349c-14 0 -21 7 -21 21s7 21 21 21h370c14 0 21 -7 21 -21v-116c0 -14 -7 -21 -21 -21s-21 7 -21 21z" />
    <glyph glyph-name="uni00AD" unicode="&#xad;" horiz-adv-x="458" 
d="M76 255c-4 4 -6 9 -6 15s2 11 6 15s9 6 15 6h276c6 0 11 -2 15 -6s6 -9 6 -15s-2 -11 -6 -15s-9 -6 -15 -6h-276c-6 0 -11 2 -15 6z" />
    <glyph glyph-name="registered" unicode="&#xae;" horiz-adv-x="790" 
d="M232.5 40.5c-47.667 27 -85 64.333 -112 112s-40.5 101.834 -40.5 162.501s13.5 114.834 40.5 162.501s64.333 85 112 112s101.834 40.5 162.501 40.5s114.834 -13.5 162.501 -40.5s85 -64.333 112 -112s40.5 -101.834 40.5 -162.501s-13.5 -114.834 -40.5 -162.501
s-64.333 -85 -112 -112s-101.834 -40.5 -162.501 -40.5s-114.834 13.5 -162.501 40.5zM536 77c41.333 23.333 73.666 55.666 96.999 96.999s35 88.333 35 141s-11.667 99.667 -35 141s-55.666 73.666 -96.999 96.999s-88.333 35 -141 35s-99.667 -11.667 -141 -35
s-73.666 -55.666 -96.999 -96.999s-35 -88.333 -35 -141s11.667 -99.667 35 -141s55.666 -73.666 96.999 -96.999s88.333 -35 141 -35s99.667 11.667 141 35zM284 174v293c0 14 7 21 21 21h117c30.667 0 54.167 -8.16699 70.5 -24.5s24.5 -39.833 24.5 -70.5v-15
c0 -24 -5 -43.833 -15 -59.5s-24.667 -26.167 -44 -31.5l56 -105c2 -4 3 -7.66699 3 -11c0 -7.33301 -4 -13 -12 -17c-4 -2 -7.66699 -3 -11 -3c-7.33301 0 -13 4 -17 12l-63 119h-88v-108c0 -14 -7 -21 -21 -21s-21 7 -21 21zM422 324c19.333 0 33 4.16797 41 12.501
s12 22.166 12 41.499v15c0 19.333 -4 33 -12 41s-21.667 12 -41 12h-96v-122h96z" />
    <glyph glyph-name="macron" unicode="&#xaf;" horiz-adv-x="395" 
d="M50 605c0 14 7 21 21 21h253c14 0 21 -7 21 -21s-7 -21 -21 -21h-253c-14 0 -21 7 -21 21z" />
    <glyph glyph-name="degree" unicode="&#xb0;" horiz-adv-x="275" 
d="M69.5 465.5c-13 13 -19.5 31.833 -19.5 56.5v72c0 24.667 6.5 43.5 19.5 56.5s31.833 19.5 56.5 19.5h23c24.667 0 43.5 -6.5 56.5 -19.5s19.5 -31.833 19.5 -56.5v-72c0 -24.667 -6.5 -43.5 -19.5 -56.5s-31.833 -19.5 -56.5 -19.5h-23c-24.667 0 -43.5 6.5 -56.5 19.5z
M149 488c12.667 0 21.5 2.5 26.5 7.5s7.5 13.833 7.5 26.5v72c0 12.667 -2.5 21.5 -7.5 26.5s-13.833 7.5 -26.5 7.5h-23c-12.667 0 -21.5 -2.5 -26.5 -7.5s-7.5 -13.833 -7.5 -26.5v-72c0 -12.667 2.5 -21.5 7.5 -26.5s13.833 -7.5 26.5 -7.5h23z" />
    <glyph glyph-name="plusminus" unicode="&#xb1;" horiz-adv-x="545" 
d="M70 367c0 14 7 21 21 21h142v111c0 6 2 11 6 15s9 6 15 6s11 -2 15 -6s6 -9 6 -15v-111h179c14 0 21 -7 21 -21s-7 -21 -21 -21h-179v-113c0 -6 -2 -11 -6 -15s-9 -6 -15 -6s-11 2 -15 6s-6 9 -6 15v113h-142c-14 0 -21 7 -21 21zM475 167c0 -14 -7 -21 -21 -21h-363
c-14 0 -21 7 -21 21s7 21 21 21h363c14 0 21 -7 21 -21z" />
    <glyph glyph-name="uni00B2" unicode="&#xb2;" horiz-adv-x="349" 
d="M85 319c-14 0 -21.0039 6.99707 -21.0039 20.9971c0 25.333 4.83301 46.333 14.5 63s20.834 29.667 33.501 39s31.334 21 56.001 35l31.5 18c16.333 9.33301 27.333 17.833 33 25.5s8.5 16.167 8.5 25.5c0 17.333 -3.16699 29.166 -9.5 35.499s-18.166 9.5 -35.499 9.5
h-50c-14 0 -24.167 -1.83301 -30.5 -5.5s-10.5 -10.167 -12.5 -19.5c-3.33301 -13.333 -10.666 -20 -21.999 -20c-7.33301 0 -12.833 2 -16.5 6s-5.16699 9.33301 -4.5 16c6.66699 43.333 35.334 65 86.001 65h50c29.333 0 51.166 -7.16699 65.499 -21.5
s21.5 -36.166 21.5 -65.499c0 -17.333 -4.16699 -32.166 -12.5 -44.499s-18 -22.166 -29 -29.499s-28.5 -17.666 -52.5 -30.999c-27.333 -16 -46.833 -29 -58.5 -39s-19.167 -23.667 -22.5 -41h160c14 0 21 -7 21 -21s-7 -21 -21 -21h-183z" />
    <glyph glyph-name="uni00B3" unicode="&#xb3;" horiz-adv-x="305" 
d="M285 410c0 -30.667 -7.50391 -53.499 -22.5039 -68.499s-38.167 -22.5 -69.5 -22.5h-52c-27.333 0 -48.5 5.66699 -63.5 17s-24.167 28.666 -27.5 51.999v4c0 12 6.66699 18 20 18c12.667 0 20 -6.66699 22 -20c2 -10.667 6.66699 -18.167 14 -22.5s19 -6.5 35 -6.5h52
c19.333 0 32.5 3.33301 39.5 10s10.5 19.667 10.5 39s-3.5 32.333 -10.5 39s-20.167 10 -39.5 10h-34c-14 0 -21 7 -21 21s7 21 21 21h31c16.667 0 28.5 3.83301 35.5 11.5s10.5 18.834 10.5 33.501c0 17.333 -3.16699 29.166 -9.5 35.499s-18.166 9.5 -35.499 9.5h-49
c-14 0 -24.333 -1.83301 -31 -5.5s-11 -10.167 -13 -19.5c-1.33301 -6.66699 -3.66602 -11.667 -6.99902 -15s-8.33301 -5 -15 -5c-7.33301 0 -12.666 2 -15.999 6s-4.66602 9.33301 -3.99902 16c6 43.333 34.667 65 86 65h49c58 0 87 -29 87 -87c0 -25.333 -10 -44 -30 -56
c24.667 -14 37 -40.667 37 -80z" />
    <glyph glyph-name="acute" unicode="&#xb4;" horiz-adv-x="233" 
d="M50 539c0 5.33301 1.66797 10 5.00098 14l90 106c5.33301 6 10.666 9 15.999 9s10 -2 14 -6c5.33301 -4.66699 8 -10 8 -16c0 -5.33301 -1.66699 -10 -5 -14l-90 -106c-4.66699 -6 -10 -9 -16 -9c-5.33301 0 -10 2 -14 6c-5.33301 4.66699 -8 10 -8 16z" />
    <glyph glyph-name="uni00B5" unicode="&#xb5;" horiz-adv-x="603" 
d="M573 21c0 -7.33301 -1.99902 -12.833 -5.99902 -16.5s-9.33301 -5.16699 -16 -4.5c-46.667 2.66699 -75.334 27 -86.001 73c-34 -48 -94.333 -72 -181 -72h-28c-34 0 -61.833 5.33301 -83.5 16s-38.167 27.334 -49.5 50.001v-138c0 -14 -7 -21 -21 -21s-21 7 -21 21v511
c0 14 7 21 21 21s21 -7 21 -21v-264c0 -48.667 10 -83 30 -103s54.333 -30 103 -30h28c56 0 99.5 9.16699 130.5 27.5s46.5 45.5 46.5 81.5v288c0 14 7 21 21 21s21 -7 21 -21v-327c0 -23.333 3.66699 -40.333 11 -51s20 -17.334 38 -20.001c14 -2 21 -9 21 -21z" />
    <glyph glyph-name="paragraph" unicode="&#xb6;" horiz-adv-x="520" 
d="M264 -178c-4 4 -6 9.00098 -6 15.001v453h-65c-54 0 -94.667 13.667 -122 41s-41 67.666 -41 120.999v29c0 108.667 54.333 163 163 163h216c14 0 21 -7 21 -21v-786c0 -6 -2 -11 -6 -15s-9 -6 -15 -6s-11 2 -15 6s-6 9 -6 15v765h-88v-765c0 -6 -2 -11 -6 -15
s-9 -6 -15 -6s-11 2 -15 6z" />
    <glyph glyph-name="periodcentered" unicode="&#xb7;" horiz-adv-x="207" 
d="M70 276v17c0 16.667 8.33301 25 25 25h17c16.667 0 25 -8.33301 25 -25v-17c0 -17.333 -8.33301 -26 -25 -26h-17c-16.667 0 -25 8.66699 -25 26z" />
    <glyph glyph-name="cedilla" unicode="&#xb8;" horiz-adv-x="286" 
d="M50 -117c0 14 7.00098 20.998 21.001 20.998s21 -7 21 -21c0 -16 2.83301 -26.833 8.5 -32.5s16.5 -8.5 32.5 -8.5c23.333 0 39.333 4.33301 48 13s13 24.667 13 48c0 7.33301 -1.66699 13.333 -5 18s-10.333 10.667 -21 18c-14 10 -25.333 20.333 -34 31
s-13 25.667 -13 45c0 14 7 21 21 21s21 -7 21 -21c0 -9.33301 1.83301 -16.666 5.5 -21.999s11.167 -11.666 22.5 -18.999c13.333 -9.33301 24.166 -19 32.499 -29s12.5 -24 12.5 -42c0 -35.333 -8.33301 -61.333 -25 -78s-42.667 -25 -78 -25c-55.333 0 -83 27.667 -83 83z
" />
    <glyph glyph-name="uni00B9" unicode="&#xb9;" horiz-adv-x="271" 
d="M211 612l0.000976562 -272.001c0 -14 -7 -21 -21 -21c-6.66699 0 -11.834 1.83301 -15.501 5.5s-5.5 8.83398 -5.5 15.501v230l-52 -52c-4.66699 -4.66699 -9.66699 -7 -15 -7s-10.333 2.33301 -15 7c-4.66699 6 -7 11 -7 15s2.33301 9 7 15l77 74
c7.33301 7.33301 16 11 26 11c14 0 21 -7 21 -21z" />
    <glyph glyph-name="ordmasculine" unicode="&#xba;" horiz-adv-x="416" 
d="M80.5 349.5c-20.333 20.333 -30.5 51.834 -30.5 94.501v75c0 43.333 10 75.166 30 95.499s51.667 30.166 95 29.499h66c43.333 0 75 -10 95 -30s30 -51.667 30 -95v-74c0 -43.333 -10 -75.166 -30 -95.499s-51.667 -30.5 -95 -30.5h-66
c-42.667 0 -74.167 10.167 -94.5 30.5zM241 361.001c31.333 0 53 6.16797 65 18.501s18 34.166 18 65.499v74c0 31.333 -6 53 -18 65s-33.667 18 -65 18h-66c-31.333 0.666992 -53 -5 -65 -17s-18 -34 -18 -66v-75c0 -30.667 6.16699 -52.167 18.5 -64.5
s33.833 -18.5 64.5 -18.5h66z" />
    <glyph glyph-name="guillemotright" unicode="&#xbb;" horiz-adv-x="580" 
d="M276.5 127c-4.33301 4 -6.5 9 -6.5 15c0 6.66699 2.66699 12 8 16l165 136l-165 136c-5.33301 4 -8 9.33301 -8 16c0 6 2.16699 11 6.5 15s9.16602 6 14.499 6c4.66699 0 9.33398 -1.66699 14.001 -5l186 -153c5.33301 -3.33301 8 -8.33301 8 -15
c0 -5.33301 -2.66699 -10.333 -8 -15l-186 -153c-4.66699 -3.33301 -9.33398 -5 -14.001 -5c-5.33301 0 -10.166 2 -14.499 6zM85.5 127c-4.33301 4 -6.5 9 -6.5 15c0 6.66699 2.66699 12 8 16l165 136l-165 136c-5.33301 4 -8 9.33301 -8 16c0 6 2.16699 11 6.5 15
s9.16602 6 14.499 6c4.66699 0 9.33398 -1.66699 14.001 -5l186 -153c5.33301 -3.33301 8 -8.33301 8 -15c0 -5.33301 -2.66699 -10.333 -8 -15l-186 -153c-4.66699 -3.33301 -9.33398 -5 -14.001 -5c-5.33301 0 -10.166 2 -14.499 6z" />
    <glyph glyph-name="onequarter" unicode="&#xbc;" horiz-adv-x="711" 
d="M211 612l0.000976562 -272.001c0 -14 -7 -21 -21 -21c-6.66699 0 -11.834 1.83301 -15.501 5.5s-5.5 8.83398 -5.5 15.501v230l-52 -52c-4.66699 -4.66699 -9.66699 -7 -15 -7s-10.333 2.33301 -15 7c-4.66699 6 -7 11 -7 15s2.33301 9 7 15l77 74
c7.33301 7.33301 16 11 26 11c14 0 21 -7 21 -21zM117.001 6.99902c-4 4 -6 9 -6 15c0 3.33301 1.33301 7.66602 4 12.999l461 610c4 6 9.66699 9 17 9c6 0 11 -2 15 -6s6 -9 6 -15c0 -3.33301 -1.33301 -7.66602 -4 -12.999l-461 -610c-4 -6 -9.66699 -9 -17 -9
c-6 0 -11 2 -15 6zM631.001 85.999c0 -14 -7 -21 -21 -21h-29v-42c0 -14 -7 -21 -21 -21s-21 7 -21 21v42h-140c-14 0 -21 7 -21 21c0 9.33301 3 17.333 9 24l150 193c3.33301 4.66699 7 8 11 10s9 3 15 3c13.333 0 20 -7 20 -21l-1 -188h28c14 0 21 -7 21 -21z
M436.001 106.999h104l1 137z" />
    <glyph glyph-name="onehalf" unicode="&#xbd;" horiz-adv-x="726" 
d="M211 612l0.000976562 -272.001c0 -14 -7 -21 -21 -21c-6.66699 0 -11.834 1.83301 -15.501 5.5s-5.5 8.83398 -5.5 15.501v230l-52 -52c-4.66699 -4.66699 -9.66699 -7 -15 -7s-10.333 2.33301 -15 7c-4.66699 6 -7 11 -7 15s2.33301 9 7 15l77 74
c7.33301 7.33301 16 11 26 11c14 0 21 -7 21 -21zM117.001 6.99902c-4 4 -6 9 -6 15c0 3.33301 1.33301 7.66602 4 12.999l461 610c4 6 9.66699 9 17 9c6 0 11 -2 15 -6s6 -9 6 -15c0 -3.33301 -1.33301 -7.66602 -4 -12.999l-461 -610c-4 -6 -9.66699 -9 -17 -9
c-6 0 -11 2 -15 6zM462.001 -0.000976562c-14 0 -21.0039 6.99707 -21.0039 20.9971c0 25.333 4.83301 46.333 14.5 63s20.834 29.667 33.501 39s31.334 21 56.001 35l31.5 18c16.333 9.33301 27.333 17.833 33 25.5s8.5 16.167 8.5 25.5
c0 17.333 -3.16699 29.166 -9.5 35.499s-18.166 9.5 -35.499 9.5h-50c-14 0 -24.167 -1.83301 -30.5 -5.5s-10.5 -10.167 -12.5 -19.5c-3.33301 -13.333 -10.666 -20 -21.999 -20c-7.33301 0 -12.833 2 -16.5 6s-5.16699 9.33301 -4.5 16
c6.66699 43.333 35.334 65 86.001 65h50c29.333 0 51.166 -7.16699 65.499 -21.5s21.5 -36.166 21.5 -65.499c0 -17.333 -4.16699 -32.166 -12.5 -44.499s-18 -22.166 -29 -29.499s-28.5 -17.666 -52.5 -30.999c-27.333 -16 -46.833 -29 -58.5 -39
s-19.167 -23.667 -22.5 -41h160c14 0 21 -7 21 -21s-7 -21 -21 -21h-183z" />
    <glyph glyph-name="threequarters" unicode="&#xbe;" horiz-adv-x="744" 
d="M285 410c0 -30.667 -7.50391 -53.499 -22.5039 -68.499s-38.167 -22.5 -69.5 -22.5h-52c-27.333 0 -48.5 5.66699 -63.5 17s-24.167 28.666 -27.5 51.999v4c0 12 6.66699 18 20 18c12.667 0 20 -6.66699 22 -20c2 -10.667 6.66699 -18.167 14 -22.5s19 -6.5 35 -6.5h52
c19.333 0 32.5 3.33301 39.5 10s10.5 19.667 10.5 39s-3.5 32.333 -10.5 39s-20.167 10 -39.5 10h-34c-14 0 -21 7 -21 21s7 21 21 21h31c16.667 0 28.5 3.83301 35.5 11.5s10.5 18.834 10.5 33.501c0 17.333 -3.16699 29.166 -9.5 35.499s-18.166 9.5 -35.499 9.5h-49
c-14 0 -24.333 -1.83301 -31 -5.5s-11 -10.167 -13 -19.5c-1.33301 -6.66699 -3.66602 -11.667 -6.99902 -15s-8.33301 -5 -15 -5c-7.33301 0 -12.666 2 -15.999 6s-4.66602 9.33301 -3.99902 16c6 43.333 34.667 65 86 65h49c58 0 87 -29 87 -87c0 -25.333 -10 -44 -30 -56
c24.667 -14 37 -40.667 37 -80zM150.996 7.00098c-4 4 -6 9 -6 15c0 3.33301 1.33301 7.66602 4 12.999l461 610c4 6 9.66699 9 17 9c6 0 11 -2 15 -6s6 -9 6 -15c0 -3.33301 -1.33301 -7.66602 -4 -12.999l-461 -610c-4 -6 -9.66699 -9 -17 -9c-6 0 -11 2 -15 6z
M663.996 86.001c0 -14 -7 -21 -21 -21h-29v-42c0 -14 -7 -21 -21 -21s-21 7 -21 21v42h-140c-14 0 -21 7 -21 21c0 9.33301 3 17.333 9 24l150 193c3.33301 4.66699 7 8 11 10s9 3 15 3c13.333 0 20 -7 20 -21l-1 -188h28c14 0 21 -7 21 -21zM468.996 107.001h104l1 137z
" />
    <glyph glyph-name="questiondown" unicode="&#xbf;" horiz-adv-x="465" 
d="M290 484v-17c0 -16.667 -8.33301 -25 -25 -25h-17c-16.667 0 -25 8.33301 -25 25v17c0 17.333 8.33301 26 25 26h17c16.667 0 25 -8.66699 25 -26zM279 358c0 -34 -4.66699 -62.167 -14 -84.5s-20.5 -39.833 -33.5 -52.5s-29.833 -25.667 -50.5 -39
c-18.667 -12.667 -33.167 -24 -43.5 -34s-18.833 -23.5 -25.5 -40.5s-10 -39.167 -10 -66.5c0 -45.333 9.16699 -77 27.5 -95s49.833 -27 94.5 -27h67c45.333 0 77 9 95 27s27 49.667 27 95c0 14 7 21 21 21s21 -7 21 -21c0 -56.667 -13.167 -98.167 -39.5 -124.5
s-67.833 -39.5 -124.5 -39.5h-67c-56.667 0 -98.167 13 -124.5 39s-39.5 67.667 -39.5 125c0 34 4.66699 62.167 14 84.5s20.5 39.833 33.5 52.5s29.833 25.667 50.5 39c18.667 12.667 33.167 24 43.5 34s18.833 23.5 25.5 40.5s10 39.167 10 66.5c0 14 7 21 21 21
s21 -7 21 -21z" />
    <glyph glyph-name="Agrave" unicode="&#xc0;" horiz-adv-x="597" 
d="M577 19c0 -7.33301 -4.66895 -12.999 -14.002 -16.999c-4 -1.33301 -7.33301 -2 -10 -2c-7.33301 0 -13 4.33301 -17 13l-71 167c-2 -0.666992 -5.33301 -1 -10 -1h-315c-3.33301 0 -5.66602 0.333008 -6.99902 1l-72 -167c-4 -8.66699 -10 -13 -18 -13
c-1.33301 0 -4.66602 0.666992 -9.99902 2c-8.66699 4 -13 10 -13 18c0 1.33301 0.666992 4.66602 2 9.99902l251 587c4 10.667 12 16 24 16h3c11.333 0 19.333 -5.33301 24 -16l250 -587c2 -4 3 -7.66699 3 -11zM150.998 221.001h296l-147 346zM311.998 689.001
c-6 0 -11.332 3 -15.999 9l-90 106c-3.33301 4 -5 8.66699 -5 14c0 6 2.66699 11.333 8 16c4 4 8.66699 6 14 6s10.666 -3 15.999 -9l90 -106c3.33301 -4 5 -8.66699 5 -14c0 -6 -2.66699 -11.333 -8 -16c-4 -4 -8.66699 -6 -14 -6z" />
    <glyph glyph-name="Aacute" unicode="&#xc1;" horiz-adv-x="597" 
d="M577 19c0 -7.33301 -4.66895 -12.999 -14.002 -16.999c-4 -1.33301 -7.33301 -2 -10 -2c-7.33301 0 -13 4.33301 -17 13l-71 167c-2 -0.666992 -5.33301 -1 -10 -1h-315c-3.33301 0 -5.66602 0.333008 -6.99902 1l-72 -167c-4 -8.66699 -10 -13 -18 -13
c-1.33301 0 -4.66602 0.666992 -9.99902 2c-8.66699 4 -13 10 -13 18c0 1.33301 0.666992 4.66602 2 9.99902l251 587c4 10.667 12 16 24 16h3c11.333 0 19.333 -5.33301 24 -16l250 -587c2 -4 3 -7.66699 3 -11zM150.998 221.001h296l-147 346zM276.998 711.001
c0 5.33301 1.66602 10 4.99902 14l90 106c4.66699 6 10 9 16 9c5.33301 0 10 -2 14 -6c5.33301 -4.66699 8 -10 8 -16c0 -5.33301 -1.66699 -10 -5 -14l-90 -106c-5.33301 -6 -10.666 -9 -15.999 -9s-10 2 -14 6c-5.33301 4.66699 -8 10 -8 16z" />
    <glyph glyph-name="Acircumflex" unicode="&#xc2;" horiz-adv-x="597" 
d="M577 19c0 -7.33301 -4.66895 -12.999 -14.002 -16.999c-4 -1.33301 -7.33301 -2 -10 -2c-7.33301 0 -13 4.33301 -17 13l-71 167c-2 -0.666992 -5.33301 -1 -10 -1h-315c-3.33301 0 -5.66602 0.333008 -6.99902 1l-72 -167c-4 -8.66699 -10 -13 -18 -13
c-1.33301 0 -4.66602 0.666992 -9.99902 2c-8.66699 4 -13 10 -13 18c0 1.33301 0.666992 4.66602 2 9.99902l251 587c4 10.667 12 16 24 16h3c11.333 0 19.333 -5.33301 24 -16l250 -587c2 -4 3 -7.66699 3 -11zM150.998 221.001h296l-147 346zM159.998 704.001
c-4 4 -5.99805 9 -5.99805 15c0 6.66699 2.66699 12 8 16l101 85c8 6 16.667 9 26 9h14c9.33301 0 18 -3 26 -9l101 -85c5.33301 -4 8 -9.33301 8 -16c0 -6 -2 -11 -6 -15s-9 -6 -15 -6c-4.66699 0 -9.33398 1.66699 -14.001 5l-101 84h-12l-101 -84
c-4.66699 -3.33301 -9.33398 -5 -14.001 -5c-6 0 -11 2 -15 6z" />
    <glyph glyph-name="Atilde" unicode="&#xc3;" horiz-adv-x="597" 
d="M577 19c0 -7.33301 -4.66895 -12.999 -14.002 -16.999c-4 -1.33301 -7.33301 -2 -10 -2c-7.33301 0 -13 4.33301 -17 13l-71 167c-2 -0.666992 -5.33301 -1 -10 -1h-315c-3.33301 0 -5.66602 0.333008 -6.99902 1l-72 -167c-4 -8.66699 -10 -13 -18 -13
c-1.33301 0 -4.66602 0.666992 -9.99902 2c-8.66699 4 -13 10 -13 18c0 1.33301 0.666992 4.66602 2 9.99902l251 587c4 10.667 12 16 24 16h3c11.333 0 19.333 -5.33301 24 -16l250 -587c2 -4 3 -7.66699 3 -11zM150.998 221.001h296l-147 346zM316.998 731.001
c-10.667 6.66699 -20.9971 15.332 -30.9971 25.999c-9.33301 9.33301 -17 15.833 -23 19.5s-14 5.5 -24 5.5c-12 0 -21.167 -3.16699 -27.5 -9.5s-12.5 -18.5 -18.5 -36.5c-1.33301 -4.66699 -3.83301 -8.33398 -7.5 -11.001s-7.83398 -4 -12.501 -4
c-8 0 -14 3.33301 -18 10s-4.66699 12.667 -2 18c9.33301 26.667 20.666 45.834 33.999 57.501s30.666 17.5 51.999 17.5c17.333 0 31.833 -3.5 43.5 -10.5s22.834 -16.167 33.501 -27.5c9.33301 -9.33301 16.666 -15.5 21.999 -18.5s11.666 -4.5 18.999 -4.5
c11.333 0 20.833 3.5 28.5 10.5s13.834 18.833 18.501 35.5c3.33301 10 10.333 15 21 15c7.33301 0 12.833 -3.16699 16.5 -9.5s4.5 -12.166 2.5 -17.499c-9.33301 -25.333 -21 -44.333 -35 -57s-31.333 -19 -52 -19c-16 0 -29.333 3.33301 -40 10z" />
    <glyph glyph-name="Adieresis" unicode="&#xc4;" horiz-adv-x="597" 
d="M577 19c0 -7.33301 -4.66895 -12.999 -14.002 -16.999c-4 -1.33301 -7.33301 -2 -10 -2c-7.33301 0 -13 4.33301 -17 13l-71 167c-2 -0.666992 -5.33301 -1 -10 -1h-315c-3.33301 0 -5.66602 0.333008 -6.99902 1l-72 -167c-4 -8.66699 -10 -13 -18 -13
c-1.33301 0 -4.66602 0.666992 -9.99902 2c-8.66699 4 -13 10 -13 18c0 1.33301 0.666992 4.66602 2 9.99902l251 587c4 10.667 12 16 24 16h3c11.333 0 19.333 -5.33301 24 -16l250 -587c2 -4 3 -7.66699 3 -11zM150.998 221.001h296l-147 346zM192.998 747.001v17
c0 16.667 8.33301 25 25 25h17c16.667 0 25 -8.33301 25 -25v-17c0 -17.333 -8.33301 -26 -25 -26h-17c-16.667 0 -25 8.66699 -25 26zM335.998 747.001v17c0 16.667 8.33301 25 25 25h17c16.667 0 25 -8.33301 25 -25v-17c0 -17.333 -8.33301 -26 -25 -26h-17
c-16.667 0 -25 8.66699 -25 26z" />
    <glyph glyph-name="Aring" unicode="&#xc5;" horiz-adv-x="597" 
d="M577 19c0 -7.33301 -4.66895 -12.999 -14.002 -16.999c-4 -1.33301 -7.33301 -2 -10 -2c-7.33301 0 -13 4.33301 -17 13l-71 167c-2 -0.666992 -5.33301 -1 -10 -1h-315c-3.33301 0 -5.66602 0.333008 -6.99902 1l-72 -167c-4 -8.66699 -10 -13 -18 -13
c-1.33301 0 -4.66602 0.666992 -9.99902 2c-8.66699 4 -13 10 -13 18c0 1.33301 0.666992 4.66602 2 9.99902l251 587c4 10.667 12 16 24 16h3c11.333 0 19.333 -5.33301 24 -16l250 -587c2 -4 3 -7.66699 3 -11zM150.998 221.001h296l-147 346zM235.498 714.501
c-13 13 -19.5 31.833 -19.5 56.5s6.5 43.5 19.5 56.5s31.833 19.5 56.5 19.5s43.5 -6.5 56.5 -19.5s19.5 -31.833 19.5 -56.5s-6.5 -43.5 -19.5 -56.5s-31.833 -19.5 -56.5 -19.5s-43.5 6.5 -56.5 19.5zM318.498 744.501c5 5 7.5 13.833 7.5 26.5s-2.5 21.5 -7.5 26.5
s-13.833 7.5 -26.5 7.5s-21.5 -2.5 -26.5 -7.5s-7.5 -13.833 -7.5 -26.5s2.5 -21.5 7.5 -26.5s13.833 -7.5 26.5 -7.5s21.5 2.5 26.5 7.5z" />
    <glyph glyph-name="AE" unicode="&#xc6;" horiz-adv-x="817" 
d="M401 21l0.000976562 158l-245 1l-95 -169c-4.66699 -8 -10.334 -12 -17.001 -12c-2.66699 0 -6.66699 1.33301 -12 4c-8 5.33301 -12 11 -12 17c0 2.66699 1.33301 6.66699 4 12l331 586c4.66699 10 12.667 15 24 15h382c14 0 21 -7 21 -21s-7 -21 -21 -21h-318v-249h200
c14 0 21 -7 21 -21s-7 -21 -21 -21h-200v-258h318c14 0 21 -7 21 -21s-7 -21 -21 -21h-339c-14 0 -21 7 -21 21zM179.001 221h222v370h-14z" />
    <glyph glyph-name="Ccedilla" unicode="&#xc7;" horiz-adv-x="655" 
d="M585 161c-2.66699 -56.667 -18.335 -97.6699 -47.002 -123.003s-73.667 -38 -135 -38h-16c2.66699 -8 11.334 -16.667 26.001 -26c13.333 -8.66699 24.166 -18.167 32.499 -28.5s12.5 -24.5 12.5 -42.5c0 -35.333 -8.33301 -61.333 -25 -78s-42.667 -25 -78 -25
c-55.333 0 -83 27.667 -83 83c0 14 7 21 21 21s21 -7 21 -21c0 -16 2.83301 -26.833 8.5 -32.5s16.5 -8.5 32.5 -8.5c23.333 0 39.333 4.33301 48 13s13 24.667 13 48c0 7.33301 -1.66699 13.333 -5 18s-10.333 10.667 -21 18c-12 8 -22 16.5 -30 25.5
s-13.333 20.833 -16 35.5h-61c-70.667 0 -122.167 16.167 -154.5 48.5s-48.5 83.833 -48.5 154.5v227c0 71.333 16 123 48 155s83.333 48 154 48h121c61.333 0 106.333 -12.667 135 -38s44.334 -66.333 47.001 -123v-3c0 -12.667 -6.66699 -19 -20 -19s-20.666 7 -21.999 21
c-2 44.667 -13.5 75.834 -34.5 93.501s-56.167 26.5 -105.5 26.5h-121c-40 0 -71.5 -5.16699 -94.5 -15.5s-39.667 -27.166 -50 -50.499s-15.5 -55 -15.5 -95v-227c0 -58.667 12.167 -100.167 36.5 -124.5s65.833 -36.5 124.5 -36.5h120c49.333 0 84.5 8.83301 105.5 26.5
s32.5 48.834 34.5 93.501c1.33301 14 8.66602 21 21.999 21c14.667 0 21.334 -7.33301 20.001 -22z" />
    <glyph glyph-name="Egrave" unicode="&#xc8;" horiz-adv-x="547" 
d="M512 21c0 -14 -7 -21 -21 -21h-380c-14 0 -21 7 -21 21v591c0 14 7 21 21 21h380c14 0 21 -7 21 -21s-7 -21 -21 -21h-359v-249h241c14 0 21 -7 21 -21s-7 -21 -21 -21h-241v-258h359c14 0 21 -7 21 -21zM333 689c-6 0 -11.332 3 -15.999 9l-90 106
c-3.33301 4 -5 8.66699 -5 14c0 6 2.66699 11.333 8 16c4 4 8.66699 6 14 6s10.666 -3 15.999 -9l90 -106c3.33301 -4 5 -8.66699 5 -14c0 -6 -2.66699 -11.333 -8 -16c-4 -4 -8.66699 -6 -14 -6z" />
    <glyph glyph-name="Eacute" unicode="&#xc9;" horiz-adv-x="547" 
d="M512 21c0 -14 -7 -21 -21 -21h-380c-14 0 -21 7 -21 21v591c0 14 7 21 21 21h380c14 0 21 -7 21 -21s-7 -21 -21 -21h-359v-249h241c14 0 21 -7 21 -21s-7 -21 -21 -21h-241v-258h359c14 0 21 -7 21 -21zM283 711c0 5.33301 1.66602 10 4.99902 14l90 106
c4.66699 6 10 9 16 9c5.33301 0 10 -2 14 -6c5.33301 -4.66699 8 -10 8 -16c0 -5.33301 -1.66699 -10 -5 -14l-90 -106c-5.33301 -6 -10.666 -9 -15.999 -9s-10 2 -14 6c-5.33301 4.66699 -8 10 -8 16z" />
    <glyph glyph-name="Ecircumflex" unicode="&#xca;" horiz-adv-x="547" 
d="M512 21c0 -14 -7 -21 -21 -21h-380c-14 0 -21 7 -21 21v591c0 14 7 21 21 21h380c14 0 21 -7 21 -21s-7 -21 -21 -21h-359v-249h241c14 0 21 -7 21 -21s-7 -21 -21 -21h-241v-258h359c14 0 21 -7 21 -21zM181 704c-4 4 -5.99805 9 -5.99805 15c0 6.66699 2.66699 12 8 16
l101 85c8 6 16.667 9 26 9h14c9.33301 0 18 -3 26 -9l101 -85c5.33301 -4 8 -9.33301 8 -16c0 -6 -2 -11 -6 -15s-9 -6 -15 -6c-4.66699 0 -9.33398 1.66699 -14.001 5l-101 84h-12l-101 -84c-4.66699 -3.33301 -9.33398 -5 -14.001 -5c-6 0 -11 2 -15 6z" />
    <glyph glyph-name="Edieresis" unicode="&#xcb;" horiz-adv-x="547" 
d="M512 21c0 -14 -7 -21 -21 -21h-380c-14 0 -21 7 -21 21v591c0 14 7 21 21 21h380c14 0 21 -7 21 -21s-7 -21 -21 -21h-359v-249h241c14 0 21 -7 21 -21s-7 -21 -21 -21h-241v-258h359c14 0 21 -7 21 -21zM214 747v17c0 16.667 8.33301 25 25 25h17
c16.667 0 25 -8.33301 25 -25v-17c0 -17.333 -8.33301 -26 -25 -26h-17c-16.667 0 -25 8.66699 -25 26zM357 747v17c0 16.667 8.33301 25 25 25h17c16.667 0 25 -8.33301 25 -25v-17c0 -17.333 -8.33301 -26 -25 -26h-17c-16.667 0 -25 8.66699 -25 26z" />
    <glyph glyph-name="Igrave" unicode="&#xcc;" horiz-adv-x="222" 
d="M96 6c-4 4 -6 9 -6 15v592c0 6 2 11 6 15s9 6 15 6s11 -2 15 -6s6 -9 6 -15v-592c0 -6 -2 -11 -6 -15s-9 -6 -15 -6s-11 2 -15 6zM125 689c-6 0 -11.332 3 -15.999 9l-90 106c-3.33301 4 -5 8.66699 -5 14c0 6 2.66699 11.333 8 16c4 4 8.66699 6 14 6
s10.666 -3 15.999 -9l90 -106c3.33301 -4 5 -8.66699 5 -14c0 -6 -2.66699 -11.333 -8 -16c-4 -4 -8.66699 -6 -14 -6z" />
    <glyph glyph-name="Iacute" unicode="&#xcd;" horiz-adv-x="222" 
d="M96 6c-4 4 -6 9 -6 15v592c0 6 2 11 6 15s9 6 15 6s11 -2 15 -6s6 -9 6 -15v-592c0 -6 -2 -11 -6 -15s-9 -6 -15 -6s-11 2 -15 6zM75 711c0 5.33301 1.66602 10 4.99902 14l90 106c4.66699 6 10 9 16 9c5.33301 0 10 -2 14 -6c5.33301 -4.66699 8 -10 8 -16
c0 -5.33301 -1.66699 -10 -5 -14l-90 -106c-5.33301 -6 -10.666 -9 -15.999 -9s-10 2 -14 6c-5.33301 4.66699 -8 10 -8 16z" />
    <glyph glyph-name="Icircumflex" unicode="&#xce;" horiz-adv-x="222" 
d="M96 6c-4 4 -6 9 -6 15v592c0 6 2 11 6 15s9 6 15 6s11 -2 15 -6s6 -9 6 -15v-592c0 -6 -2 -11 -6 -15s-9 -6 -15 -6s-11 2 -15 6zM3 696c-4 4 -6 9 -6 15c0 3.33301 1.33301 7.66602 4 12.999l78 104c6.66699 8.66699 15 13 25 13h18c10 0 18.333 -4.33301 25 -13
l78 -104c2.66699 -5.33301 4 -9.66602 4 -12.999c0 -6 -2 -11 -6 -15s-9 -6 -15 -6c-7.33301 0 -13 3 -17 9l-75 100h-6l-75 -100c-4 -6 -9.66699 -9 -17 -9c-6 0 -11 2 -15 6z" />
    <glyph glyph-name="Idieresis" unicode="&#xcf;" horiz-adv-x="222" 
d="M96 6c-4 4 -6 9 -6 15v592c0 6 2 11 6 15s9 6 15 6s11 -2 15 -6s6 -9 6 -15v-592c0 -6 -2 -11 -6 -15s-9 -6 -15 -6s-11 2 -15 6zM6 747v17c0 16.667 8.33301 25 25 25h17c16.667 0 25 -8.33301 25 -25v-17c0 -17.333 -8.33301 -26 -25 -26h-17
c-16.667 0 -25 8.66699 -25 26zM149 747v17c0 16.667 8.33301 25 25 25h17c16.667 0 25 -8.33301 25 -25v-17c0 -17.333 -8.33301 -26 -25 -26h-17c-16.667 0 -25 8.66699 -25 26z" />
    <glyph glyph-name="Eth" unicode="&#xd0;" horiz-adv-x="665" 
d="M529.5 577.5c37 -37 55.5 -96.167 55.5 -177.5v-167c0 -81.333 -18.5 -140.5 -55.5 -177.5s-96.167 -55.5 -177.5 -55.5h-241c-14 0 -21 7 -21 21v279h-69c-14 0 -21 7 -21 21s7 21 21 21h69v270c0 14 7 21 21 21h241c81.333 0 140.5 -18.5 177.5 -55.5zM543 400
c0 46.667 -6.33301 83.8301 -19 111.497s-32.834 47.834 -60.501 60.501s-64.834 19 -111.501 19h-220v-249h147c14 0 21 -7 21 -21s-7 -21 -21 -21h-147v-258h220c46.667 0 83.834 6.33301 111.501 19s47.834 32.834 60.501 60.501s19 64.834 19 111.501v167z" />
    <glyph glyph-name="Ntilde" unicode="&#xd1;" horiz-adv-x="687" 
d="M597 612l-0.000976562 -591c0 -14 -7 -21 -21 -21c-7.33301 0 -14.666 4 -21.999 12l-422 541v-532c0 -14 -7 -21 -21 -21s-21 7 -21 21v591c0 14 7 21 21 21c8 0 15.333 -4 22 -12l422 -541v532c0 14 7 21 21 21s21 -7 21 -21zM371.999 731
c-10.667 6.66699 -20.9971 15.332 -30.9971 25.999c-9.33301 9.33301 -17 15.833 -23 19.5s-14 5.5 -24 5.5c-12 0 -21.167 -3.16699 -27.5 -9.5s-12.5 -18.5 -18.5 -36.5c-1.33301 -4.66699 -3.83301 -8.33398 -7.5 -11.001s-7.83398 -4 -12.501 -4
c-8 0 -14 3.33301 -18 10s-4.66699 12.667 -2 18c9.33301 26.667 20.666 45.834 33.999 57.501s30.666 17.5 51.999 17.5c17.333 0 31.833 -3.5 43.5 -10.5s22.834 -16.167 33.501 -27.5c9.33301 -9.33301 16.666 -15.5 21.999 -18.5s11.666 -4.5 18.999 -4.5
c11.333 0 20.833 3.5 28.5 10.5s13.834 18.833 18.501 35.5c3.33301 10 10.333 15 21 15c7.33301 0 12.833 -3.16699 16.5 -9.5s4.5 -12.166 2.5 -17.499c-9.33301 -25.333 -21 -44.333 -35 -57s-31.333 -19 -52 -19c-16 0 -29.333 3.33301 -40 10z" />
    <glyph glyph-name="Ograve" unicode="&#xd2;" horiz-adv-x="686" 
d="M128.5 48.5c-32.333 32.333 -48.5 83.835 -48.5 154.502v227c0 71.333 16 123.166 48 155.499s83.333 48.166 154 47.499h121c71.333 0 123 -16 155 -48s48 -83.667 48 -155v-227c0 -70.667 -16 -122.167 -48 -154.5s-83.667 -48.5 -155 -48.5h-120
c-70.667 0 -122.167 16.167 -154.5 48.5zM403 42.002c59.333 0 101 12.165 125 36.498s36 65.833 36 124.5v227c0 59.333 -12 101 -36 125s-65.667 36 -125 36h-121c-58.667 0.666992 -100 -11.166 -124 -35.499s-36 -66.166 -36 -125.499v-227
c0 -58.667 12.167 -100.167 36.5 -124.5s65.833 -36.5 124.5 -36.5h120zM357 689c-6 0 -11.332 3 -15.999 9l-90 106c-3.33301 4 -5 8.66699 -5 14c0 6 2.66699 11.333 8 16c4 4 8.66699 6 14 6s10.666 -3 15.999 -9l90 -106c3.33301 -4 5 -8.66699 5 -14
c0 -6 -2.66699 -11.333 -8 -16c-4 -4 -8.66699 -6 -14 -6z" />
    <glyph glyph-name="Oacute" unicode="&#xd3;" horiz-adv-x="686" 
d="M128.5 48.5c-32.333 32.333 -48.5 83.835 -48.5 154.502v227c0 71.333 16 123.166 48 155.499s83.333 48.166 154 47.499h121c71.333 0 123 -16 155 -48s48 -83.667 48 -155v-227c0 -70.667 -16 -122.167 -48 -154.5s-83.667 -48.5 -155 -48.5h-120
c-70.667 0 -122.167 16.167 -154.5 48.5zM403 42.002c59.333 0 101 12.165 125 36.498s36 65.833 36 124.5v227c0 59.333 -12 101 -36 125s-65.667 36 -125 36h-121c-58.667 0.666992 -100 -11.166 -124 -35.499s-36 -66.166 -36 -125.499v-227
c0 -58.667 12.167 -100.167 36.5 -124.5s65.833 -36.5 124.5 -36.5h120zM307 711c0 5.33301 1.66602 10 4.99902 14l90 106c4.66699 6 10 9 16 9c5.33301 0 10 -2 14 -6c5.33301 -4.66699 8 -10 8 -16c0 -5.33301 -1.66699 -10 -5 -14l-90 -106
c-5.33301 -6 -10.666 -9 -15.999 -9s-10 2 -14 6c-5.33301 4.66699 -8 10 -8 16z" />
    <glyph glyph-name="Ocircumflex" unicode="&#xd4;" horiz-adv-x="686" 
d="M128.5 48.5c-32.333 32.333 -48.5 83.835 -48.5 154.502v227c0 71.333 16 123.166 48 155.499s83.333 48.166 154 47.499h121c71.333 0 123 -16 155 -48s48 -83.667 48 -155v-227c0 -70.667 -16 -122.167 -48 -154.5s-83.667 -48.5 -155 -48.5h-120
c-70.667 0 -122.167 16.167 -154.5 48.5zM403 42.002c59.333 0 101 12.165 125 36.498s36 65.833 36 124.5v227c0 59.333 -12 101 -36 125s-65.667 36 -125 36h-121c-58.667 0.666992 -100 -11.166 -124 -35.499s-36 -66.166 -36 -125.499v-227
c0 -58.667 12.167 -100.167 36.5 -124.5s65.833 -36.5 124.5 -36.5h120zM205 704c-4 4 -5.99805 9 -5.99805 15c0 6.66699 2.66699 12 8 16l101 85c8 6 16.667 9 26 9h14c9.33301 0 18 -3 26 -9l101 -85c5.33301 -4 8 -9.33301 8 -16c0 -6 -2 -11 -6 -15s-9 -6 -15 -6
c-4.66699 0 -9.33398 1.66699 -14.001 5l-101 84h-12l-101 -84c-4.66699 -3.33301 -9.33398 -5 -14.001 -5c-6 0 -11 2 -15 6z" />
    <glyph glyph-name="Otilde" unicode="&#xd5;" horiz-adv-x="686" 
d="M128.5 48.5c-32.333 32.333 -48.5 83.835 -48.5 154.502v227c0 71.333 16 123.166 48 155.499s83.333 48.166 154 47.499h121c71.333 0 123 -16 155 -48s48 -83.667 48 -155v-227c0 -70.667 -16 -122.167 -48 -154.5s-83.667 -48.5 -155 -48.5h-120
c-70.667 0 -122.167 16.167 -154.5 48.5zM403 42.002c59.333 0 101 12.165 125 36.498s36 65.833 36 124.5v227c0 59.333 -12 101 -36 125s-65.667 36 -125 36h-121c-58.667 0.666992 -100 -11.166 -124 -35.499s-36 -66.166 -36 -125.499v-227
c0 -58.667 12.167 -100.167 36.5 -124.5s65.833 -36.5 124.5 -36.5h120zM362 731c-10.667 6.66699 -20.9971 15.332 -30.9971 25.999c-9.33301 9.33301 -17 15.833 -23 19.5s-14 5.5 -24 5.5c-12 0 -21.167 -3.16699 -27.5 -9.5s-12.5 -18.5 -18.5 -36.5
c-1.33301 -4.66699 -3.83301 -8.33398 -7.5 -11.001s-7.83398 -4 -12.501 -4c-8 0 -14 3.33301 -18 10s-4.66699 12.667 -2 18c9.33301 26.667 20.666 45.834 33.999 57.501s30.666 17.5 51.999 17.5c17.333 0 31.833 -3.5 43.5 -10.5s22.834 -16.167 33.501 -27.5
c9.33301 -9.33301 16.666 -15.5 21.999 -18.5s11.666 -4.5 18.999 -4.5c11.333 0 20.833 3.5 28.5 10.5s13.834 18.833 18.501 35.5c3.33301 10 10.333 15 21 15c7.33301 0 12.833 -3.16699 16.5 -9.5s4.5 -12.166 2.5 -17.499c-9.33301 -25.333 -21 -44.333 -35 -57
s-31.333 -19 -52 -19c-16 0 -29.333 3.33301 -40 10z" />
    <glyph glyph-name="Odieresis" unicode="&#xd6;" horiz-adv-x="686" 
d="M128.5 48.5c-32.333 32.333 -48.5 83.835 -48.5 154.502v227c0 71.333 16 123.166 48 155.499s83.333 48.166 154 47.499h121c71.333 0 123 -16 155 -48s48 -83.667 48 -155v-227c0 -70.667 -16 -122.167 -48 -154.5s-83.667 -48.5 -155 -48.5h-120
c-70.667 0 -122.167 16.167 -154.5 48.5zM403 42.002c59.333 0 101 12.165 125 36.498s36 65.833 36 124.5v227c0 59.333 -12 101 -36 125s-65.667 36 -125 36h-121c-58.667 0.666992 -100 -11.166 -124 -35.499s-36 -66.166 -36 -125.499v-227
c0 -58.667 12.167 -100.167 36.5 -124.5s65.833 -36.5 124.5 -36.5h120zM238 747v17c0 16.667 8.33301 25 25 25h17c16.667 0 25 -8.33301 25 -25v-17c0 -17.333 -8.33301 -26 -25 -26h-17c-16.667 0 -25 8.66699 -25 26zM381 747v17c0 16.667 8.33301 25 25 25h17
c16.667 0 25 -8.33301 25 -25v-17c0 -17.333 -8.33301 -26 -25 -26h-17c-16.667 0 -25 8.66699 -25 26z" />
    <glyph glyph-name="multiply" unicode="&#xd7;" horiz-adv-x="545" 
d="M436 186c0 -4.66699 -2.66699 -9.66797 -8 -15.001c-4 -4.66699 -8.66699 -7 -14 -7s-10.333 2.33301 -15 7l-126 126l-127 -127c-4 -4.66699 -8.66699 -7 -14 -7s-10.333 2.33301 -15 7s-7 9.33398 -7 14.001c0 5.33301 2.33301 10.333 7 15l126 127l-101 101
c-4.66699 4.66699 -7 9.66699 -7 15s2.33301 10.333 7 15c5.33301 5.33301 10.333 8 15 8s9.66699 -2.66699 15 -8l101 -101l100 100c5.33301 5.33301 10.333 8 15 8s9.66699 -2.66699 15 -8s8 -10.333 8 -15s-2.66699 -9.66699 -8 -15l-100 -100l125 -126
c5.33301 -4 8 -8.66699 8 -14z" />
    <glyph glyph-name="Oslash" unicode="&#xd8;" horiz-adv-x="686" 
d="M590 533.5c10.667 -27.667 16.001 -62.165 16.001 -103.498v-227c0 -70.667 -16 -122.167 -48 -154.5s-83.667 -48.5 -155 -48.5h-120c-38 0 -71 4.66699 -99 14l-32 -52c-4 -7.33301 -9.33301 -11 -16 -11c-4 0 -8.33301 1.33301 -13 4c-7.33301 4 -11 9.33301 -11 16
c0 4 1.33301 8.33301 4 13l30 49c-22.667 16 -39.334 38 -50.001 66s-16 62.667 -16 104v227c0 71.333 16 123.166 48 155.499s83.333 48.166 154 47.499h121c40 0 73.333 -5 100 -15l36 59c4 7.33301 9.33301 11 16 11c4 0 8.33301 -1.33301 13 -4
c7.33301 -4 11 -9.33301 11 -16c0 -4 -1.33301 -8.33301 -4 -13l-34 -56c22 -16 38.333 -37.833 49 -65.5zM133.001 120.502c7.33301 -21.667 19 -38.502 35 -50.502l313 512c-20.667 6 -46.667 9 -78 9h-121c-58.667 0.666992 -100 -11.166 -124 -35.499
s-36 -66.166 -36 -125.499v-227c0 -33.333 3.66699 -60.833 11 -82.5zM564.001 430c0 33.333 -3.50098 60.667 -10.501 82s-18.5 38.333 -34.5 51l-313 -512c20.667 -6 46.334 -9 77.001 -9h120c59.333 0 101 12.167 125 36.5s36 65.833 36 124.5v227z" />
    <glyph glyph-name="Ugrave" unicode="&#xd9;" horiz-adv-x="686" 
d="M128.5 48.5c-32.333 32.333 -48.5 83.833 -48.5 154.5v409c0 6 2 11 6 15s9 6 15 6s11 -2 15 -6s6 -9 6 -15v-409c0 -58.667 12.167 -100.167 36.5 -124.5s65.833 -36.5 124.5 -36.5h120c59.333 0 101 12.167 125 36.5s36 65.833 36 124.5v409c0 6 2 11 6 15s9 6 15 6
s11 -2 15 -6s6 -9 6 -15v-409c0 -70.667 -16 -122.167 -48 -154.5s-83.667 -48.5 -155 -48.5h-120c-70.667 0 -122.167 16.167 -154.5 48.5zM357 689c-6 0 -11.332 3 -15.999 9l-90 106c-3.33301 4 -5 8.66699 -5 14c0 6 2.66699 11.333 8 16c4 4 8.66699 6 14 6
s10.666 -3 15.999 -9l90 -106c3.33301 -4 5 -8.66699 5 -14c0 -6 -2.66699 -11.333 -8 -16c-4 -4 -8.66699 -6 -14 -6z" />
    <glyph glyph-name="Uacute" unicode="&#xda;" horiz-adv-x="686" 
d="M128.5 48.5c-32.333 32.333 -48.5 83.833 -48.5 154.5v409c0 6 2 11 6 15s9 6 15 6s11 -2 15 -6s6 -9 6 -15v-409c0 -58.667 12.167 -100.167 36.5 -124.5s65.833 -36.5 124.5 -36.5h120c59.333 0 101 12.167 125 36.5s36 65.833 36 124.5v409c0 6 2 11 6 15s9 6 15 6
s11 -2 15 -6s6 -9 6 -15v-409c0 -70.667 -16 -122.167 -48 -154.5s-83.667 -48.5 -155 -48.5h-120c-70.667 0 -122.167 16.167 -154.5 48.5zM307 711c0 5.33301 1.66602 10 4.99902 14l90 106c4.66699 6 10 9 16 9c5.33301 0 10 -2 14 -6c5.33301 -4.66699 8 -10 8 -16
c0 -5.33301 -1.66699 -10 -5 -14l-90 -106c-5.33301 -6 -10.666 -9 -15.999 -9s-10 2 -14 6c-5.33301 4.66699 -8 10 -8 16z" />
    <glyph glyph-name="Ucircumflex" unicode="&#xdb;" horiz-adv-x="686" 
d="M128.5 48.5c-32.333 32.333 -48.5 83.833 -48.5 154.5v409c0 6 2 11 6 15s9 6 15 6s11 -2 15 -6s6 -9 6 -15v-409c0 -58.667 12.167 -100.167 36.5 -124.5s65.833 -36.5 124.5 -36.5h120c59.333 0 101 12.167 125 36.5s36 65.833 36 124.5v409c0 6 2 11 6 15s9 6 15 6
s11 -2 15 -6s6 -9 6 -15v-409c0 -70.667 -16 -122.167 -48 -154.5s-83.667 -48.5 -155 -48.5h-120c-70.667 0 -122.167 16.167 -154.5 48.5zM205 704c-4 4 -5.99805 9 -5.99805 15c0 6.66699 2.66699 12 8 16l101 85c8 6 16.667 9 26 9h14c9.33301 0 18 -3 26 -9l101 -85
c5.33301 -4 8 -9.33301 8 -16c0 -6 -2 -11 -6 -15s-9 -6 -15 -6c-4.66699 0 -9.33398 1.66699 -14.001 5l-101 84h-12l-101 -84c-4.66699 -3.33301 -9.33398 -5 -14.001 -5c-6 0 -11 2 -15 6z" />
    <glyph glyph-name="Udieresis" unicode="&#xdc;" horiz-adv-x="686" 
d="M128.5 48.5c-32.333 32.333 -48.5 83.833 -48.5 154.5v409c0 6 2 11 6 15s9 6 15 6s11 -2 15 -6s6 -9 6 -15v-409c0 -58.667 12.167 -100.167 36.5 -124.5s65.833 -36.5 124.5 -36.5h120c59.333 0 101 12.167 125 36.5s36 65.833 36 124.5v409c0 6 2 11 6 15s9 6 15 6
s11 -2 15 -6s6 -9 6 -15v-409c0 -70.667 -16 -122.167 -48 -154.5s-83.667 -48.5 -155 -48.5h-120c-70.667 0 -122.167 16.167 -154.5 48.5zM238 747v17c0 16.667 8.33301 25 25 25h17c16.667 0 25 -8.33301 25 -25v-17c0 -17.333 -8.33301 -26 -25 -26h-17
c-16.667 0 -25 8.66699 -25 26zM381 747v17c0 16.667 8.33301 25 25 25h17c16.667 0 25 -8.33301 25 -25v-17c0 -17.333 -8.33301 -26 -25 -26h-17c-16.667 0 -25 8.66699 -25 26z" />
    <glyph glyph-name="Yacute" unicode="&#xdd;" horiz-adv-x="515" 
d="M505 613c0 -3.33301 -1.66699 -7.66699 -5 -13l-222 -350v-229c0 -14 -7 -21 -21 -21s-21 7 -21 21v229l-222 350c-2.66699 3.33301 -4 7.33301 -4 12c0 6 3.66699 11.667 11 17c3.33301 2.66699 7.33301 4 12 4c7.33301 0 13 -3.66699 17 -11l207 -327l208 328
c4 6.66699 9.33301 10 16 10c4 0 8.33301 -1.33301 13 -4c7.33301 -4 11 -9.33301 11 -16zM223 710.999c0 5.33301 1.66602 10 4.99902 14l90 106c4.66699 6 10 9 16 9c5.33301 0 10 -2 14 -6c5.33301 -4.66699 8 -10 8 -16c0 -5.33301 -1.66699 -10 -5 -14l-90 -106
c-5.33301 -6 -10.666 -9 -15.999 -9s-10 2 -14 6c-5.33301 4.66699 -8 10 -8 16z" />
    <glyph glyph-name="Thorn" unicode="&#xde;" horiz-adv-x="495" 
d="M422.5 501.5c28.333 -28.333 42.5 -70.168 42.5 -125.501v-30c0 -55.333 -14.167 -97.166 -42.5 -125.499s-70.166 -42.5 -125.499 -42.5h-165v-157c0 -14 -7 -21 -21 -21s-21 7 -21 21v591c0 14 7 21 21 21s21 -7 21 -21v-68h165c55.333 0 97.166 -14.167 125.499 -42.5
zM423 375.998c0 43.333 -10.167 75.168 -30.5 95.501s-52.166 30.5 -95.499 30.5h-165v-282h165c43.333 0 75.166 10.167 95.499 30.5s30.5 52.166 30.5 95.499v30z" />
    <glyph glyph-name="germandbls" unicode="&#xdf;" horiz-adv-x="517" 
d="M90 22v503.998c0 57.333 13.167 99 39.5 125s67.833 39 124.5 39s98 -13 124 -39s39 -67.333 39 -124c0 -62.667 -21.333 -107 -64 -133c43.333 -9.33301 74.833 -26.666 94.5 -51.999s29.5 -61.666 29.5 -108.999v-59c0 -60.667 -13.667 -104.667 -41 -132
s-71.333 -41 -132 -41h-61c-14 0 -21 7 -21 21s7 21 21 21h61c48.667 0 82.667 9.66699 102 29s29 53.333 29 102v59c0 48.667 -9.66699 82.667 -29 102s-53.333 29 -102 29h-29c-14 0 -21 7 -21 21s7 21.333 21 22c36.667 2.66699 62.5 13 77.5 31s22.5 47.667 22.5 89
c0 44.667 -9 76 -27 94s-49.333 27 -94 27s-76.167 -9 -94.5 -27s-27.5 -49.667 -27.5 -95v-504c0 -14 -7 -21 -21 -21s-21 7 -21 21z" />
    <glyph glyph-name="agrave" unicode="&#xe0;" horiz-adv-x="571" 
d="M448.5 419.5c27.667 -27.667 41.501 -72.168 41.501 -133.501v-265c0 -14 -7 -21 -21 -21s-21 7 -21 21v59c-15.333 -26 -37.833 -45.833 -67.5 -59.5s-66.167 -20.5 -109.5 -20.5h-56c-50.667 0 -87.5 11.5 -110.5 34.5s-34.5 59.833 -34.5 110.5s11.667 87.667 35 111
s60 35 110 35h233c-0.666992 46.667 -11 79.667 -31 99s-54 29 -102 29h-58c-45.333 0 -78.333 -5.16699 -99 -15.5s-33 -28.166 -37 -53.499c-2 -13.333 -9 -20 -21 -20c-7.33301 0 -12.833 2 -16.5 6s-5.16699 9.33301 -4.5 16c2.66699 37.333 18.667 64.833 48 82.5
s72.666 26.5 129.999 26.5h58c61.333 0 105.833 -13.833 133.5 -41.5zM448.001 157.999v91h-233c-38.667 0 -65.5 -7.66699 -80.5 -23s-22.5 -42.333 -22.5 -81s7.5 -65.5 22.5 -80.5s41.833 -22.5 80.5 -22.5h56c108 0 166.667 36.667 176 110zM298.001 516.999
c-6 0 -11.332 3 -15.999 9l-90 106c-3.33301 4 -5 8.66699 -5 14c0 6 2.66699 11.333 8 16c4 4 8.66699 6 14 6s10.666 -3 15.999 -9l90 -106c3.33301 -4 5 -8.66699 5 -14c0 -6 -2.66699 -11.333 -8 -16c-4 -4 -8.66699 -6 -14 -6z" />
    <glyph glyph-name="aacute" unicode="&#xe1;" horiz-adv-x="571" 
d="M448.5 419.5c27.667 -27.667 41.501 -72.168 41.501 -133.501v-265c0 -14 -7 -21 -21 -21s-21 7 -21 21v59c-15.333 -26 -37.833 -45.833 -67.5 -59.5s-66.167 -20.5 -109.5 -20.5h-56c-50.667 0 -87.5 11.5 -110.5 34.5s-34.5 59.833 -34.5 110.5s11.667 87.667 35 111
s60 35 110 35h233c-0.666992 46.667 -11 79.667 -31 99s-54 29 -102 29h-58c-45.333 0 -78.333 -5.16699 -99 -15.5s-33 -28.166 -37 -53.499c-2 -13.333 -9 -20 -21 -20c-7.33301 0 -12.833 2 -16.5 6s-5.16699 9.33301 -4.5 16c2.66699 37.333 18.667 64.833 48 82.5
s72.666 26.5 129.999 26.5h58c61.333 0 105.833 -13.833 133.5 -41.5zM448.001 157.999v91h-233c-38.667 0 -65.5 -7.66699 -80.5 -23s-22.5 -42.333 -22.5 -81s7.5 -65.5 22.5 -80.5s41.833 -22.5 80.5 -22.5h56c108 0 166.667 36.667 176 110zM248.001 538.999
c0 5.33301 1.66602 10 4.99902 14l90 106c4.66699 6 10 9 16 9c5.33301 0 10 -2 14 -6c5.33301 -4.66699 8 -10 8 -16c0 -5.33301 -1.66699 -10 -5 -14l-90 -106c-5.33301 -6 -10.666 -9 -15.999 -9s-10 2 -14 6c-5.33301 4.66699 -8 10 -8 16z" />
    <glyph glyph-name="acircumflex" unicode="&#xe2;" horiz-adv-x="571" 
d="M448.5 419.5c27.667 -27.667 41.501 -72.168 41.501 -133.501v-265c0 -14 -7 -21 -21 -21s-21 7 -21 21v59c-15.333 -26 -37.833 -45.833 -67.5 -59.5s-66.167 -20.5 -109.5 -20.5h-56c-50.667 0 -87.5 11.5 -110.5 34.5s-34.5 59.833 -34.5 110.5s11.667 87.667 35 111
s60 35 110 35h233c-0.666992 46.667 -11 79.667 -31 99s-54 29 -102 29h-58c-45.333 0 -78.333 -5.16699 -99 -15.5s-33 -28.166 -37 -53.499c-2 -13.333 -9 -20 -21 -20c-7.33301 0 -12.833 2 -16.5 6s-5.16699 9.33301 -4.5 16c2.66699 37.333 18.667 64.833 48 82.5
s72.666 26.5 129.999 26.5h58c61.333 0 105.833 -13.833 133.5 -41.5zM448.001 157.999v91h-233c-38.667 0 -65.5 -7.66699 -80.5 -23s-22.5 -42.333 -22.5 -81s7.5 -65.5 22.5 -80.5s41.833 -22.5 80.5 -22.5h56c108 0 166.667 36.667 176 110zM176.001 523.999
c-4 4 -6 9 -6 15c0 3.33301 1.33301 7.66602 4 12.999l78 104c6.66699 8.66699 15 13 25 13h18c10 0 18.333 -4.33301 25 -13l78 -104c2.66699 -5.33301 4 -9.66602 4 -12.999c0 -6 -2 -11 -6 -15s-9 -6 -15 -6c-7.33301 0 -13 3 -17 9l-75 100h-6l-75 -100
c-4 -6 -9.66699 -9 -17 -9c-6 0 -11 2 -15 6z" />
    <glyph glyph-name="atilde" unicode="&#xe3;" horiz-adv-x="571" 
d="M448.5 419.5c27.667 -27.667 41.501 -72.168 41.501 -133.501v-265c0 -14 -7 -21 -21 -21s-21 7 -21 21v59c-15.333 -26 -37.833 -45.833 -67.5 -59.5s-66.167 -20.5 -109.5 -20.5h-56c-50.667 0 -87.5 11.5 -110.5 34.5s-34.5 59.833 -34.5 110.5s11.667 87.667 35 111
s60 35 110 35h233c-0.666992 46.667 -11 79.667 -31 99s-54 29 -102 29h-58c-45.333 0 -78.333 -5.16699 -99 -15.5s-33 -28.166 -37 -53.499c-2 -13.333 -9 -20 -21 -20c-7.33301 0 -12.833 2 -16.5 6s-5.16699 9.33301 -4.5 16c2.66699 37.333 18.667 64.833 48 82.5
s72.666 26.5 129.999 26.5h58c61.333 0 105.833 -13.833 133.5 -41.5zM448.001 157.999v91h-233c-38.667 0 -65.5 -7.66699 -80.5 -23s-22.5 -42.333 -22.5 -81s7.5 -65.5 22.5 -80.5s41.833 -22.5 80.5 -22.5h56c108 0 166.667 36.667 176 110zM303.001 558.999
c-10.667 6.66699 -20.9971 15.332 -30.9971 25.999c-9.33301 9.33301 -17 15.833 -23 19.5s-14 5.5 -24 5.5c-12 0 -21.167 -3.16699 -27.5 -9.5s-12.5 -18.5 -18.5 -36.5c-1.33301 -4.66699 -3.83301 -8.33398 -7.5 -11.001s-7.83398 -4 -12.501 -4
c-8 0 -14 3.33301 -18 10s-4.66699 12.667 -2 18c9.33301 26.667 20.666 45.834 33.999 57.501s30.666 17.5 51.999 17.5c17.333 0 31.833 -3.5 43.5 -10.5s22.834 -16.167 33.501 -27.5c9.33301 -9.33301 16.666 -15.5 21.999 -18.5s11.666 -4.5 18.999 -4.5
c11.333 0 20.833 3.5 28.5 10.5s13.834 18.833 18.501 35.5c3.33301 10 10.333 15 21 15c7.33301 0 12.833 -3.16699 16.5 -9.5s4.5 -12.166 2.5 -17.499c-9.33301 -25.333 -21 -44.333 -35 -57s-31.333 -19 -52 -19c-16 0 -29.333 3.33301 -40 10z" />
    <glyph glyph-name="adieresis" unicode="&#xe4;" horiz-adv-x="571" 
d="M448.5 419.5c27.667 -27.667 41.501 -72.168 41.501 -133.501v-265c0 -14 -7 -21 -21 -21s-21 7 -21 21v59c-15.333 -26 -37.833 -45.833 -67.5 -59.5s-66.167 -20.5 -109.5 -20.5h-56c-50.667 0 -87.5 11.5 -110.5 34.5s-34.5 59.833 -34.5 110.5s11.667 87.667 35 111
s60 35 110 35h233c-0.666992 46.667 -11 79.667 -31 99s-54 29 -102 29h-58c-45.333 0 -78.333 -5.16699 -99 -15.5s-33 -28.166 -37 -53.499c-2 -13.333 -9 -20 -21 -20c-7.33301 0 -12.833 2 -16.5 6s-5.16699 9.33301 -4.5 16c2.66699 37.333 18.667 64.833 48 82.5
s72.666 26.5 129.999 26.5h58c61.333 0 105.833 -13.833 133.5 -41.5zM448.001 157.999v91h-233c-38.667 0 -65.5 -7.66699 -80.5 -23s-22.5 -42.333 -22.5 -81s7.5 -65.5 22.5 -80.5s41.833 -22.5 80.5 -22.5h56c108 0 166.667 36.667 176 110zM179.001 574.999v17
c0 16.667 8.33301 25 25 25h17c16.667 0 25 -8.33301 25 -25v-17c0 -17.333 -8.33301 -26 -25 -26h-17c-16.667 0 -25 8.66699 -25 26zM322.001 574.999v17c0 16.667 8.33301 25 25 25h17c16.667 0 25 -8.33301 25 -25v-17c0 -17.333 -8.33301 -26 -25 -26h-17
c-16.667 0 -25 8.66699 -25 26z" />
    <glyph glyph-name="aring" unicode="&#xe5;" horiz-adv-x="571" 
d="M448.5 419.5c27.667 -27.667 41.501 -72.168 41.501 -133.501v-265c0 -14 -7 -21 -21 -21s-21 7 -21 21v59c-15.333 -26 -37.833 -45.833 -67.5 -59.5s-66.167 -20.5 -109.5 -20.5h-56c-50.667 0 -87.5 11.5 -110.5 34.5s-34.5 59.833 -34.5 110.5s11.667 87.667 35 111
s60 35 110 35h233c-0.666992 46.667 -11 79.667 -31 99s-54 29 -102 29h-58c-45.333 0 -78.333 -5.16699 -99 -15.5s-33 -28.166 -37 -53.499c-2 -13.333 -9 -20 -21 -20c-7.33301 0 -12.833 2 -16.5 6s-5.16699 9.33301 -4.5 16c2.66699 37.333 18.667 64.833 48 82.5
s72.666 26.5 129.999 26.5h58c61.333 0 105.833 -13.833 133.5 -41.5zM448.001 157.999v91h-233c-38.667 0 -65.5 -7.66699 -80.5 -23s-22.5 -42.333 -22.5 -81s7.5 -65.5 22.5 -80.5s41.833 -22.5 80.5 -22.5h56c108 0 166.667 36.667 176 110zM221.501 542.499
c-13 13 -19.5 31.833 -19.5 56.5s6.5 43.5 19.5 56.5s31.833 19.5 56.5 19.5s43.5 -6.5 56.5 -19.5s19.5 -31.833 19.5 -56.5s-6.5 -43.5 -19.5 -56.5s-31.833 -19.5 -56.5 -19.5s-43.5 6.5 -56.5 19.5zM304.501 572.499c5 5 7.5 13.833 7.5 26.5s-2.5 21.5 -7.5 26.5
s-13.833 7.5 -26.5 7.5s-21.5 -2.5 -26.5 -7.5s-7.5 -13.833 -7.5 -26.5s2.5 -21.5 7.5 -26.5s13.833 -7.5 26.5 -7.5s21.5 2.5 26.5 7.5z" />
    <glyph glyph-name="ae" unicode="&#xe6;" horiz-adv-x="910" 
d="M500 21c-25.333 14.667 -43.6641 37 -54.9971 67c-34.667 -58 -99.334 -87 -194.001 -87h-36c-50.667 0 -87.5 11.5 -110.5 34.5s-34.5 59.833 -34.5 110.5s11.5 87.5 34.5 110.5s59.833 34.5 110.5 34.5h213c-0.666992 47.333 -10.834 80.666 -30.501 99.999
s-53.834 29 -102.501 29h-38c-51.333 0 -87 -6.66699 -107 -20s-30 -36.333 -30 -69c0 -6 -2 -11 -6 -15s-9 -6 -15 -6s-11 2 -15 6s-6 9 -6 15c0 46 14.333 79.333 43 100s74 31 136 31h38c39.333 0 71.666 -6.5 96.999 -19.5s44.333 -33.167 57 -60.5
c12.667 27.333 31.334 47.5 56.001 60.5s56 19.167 94 18.5h60c59.333 0 102.666 -15.333 129.999 -46s41 -79 41 -145c0 -14 -7 -21 -21 -21h-339v-73c0 -49.333 9.66699 -84.166 29 -104.499s52.333 -30.5 99 -30.5h61c48 0 81.5 7 100.5 21s28.5 38.333 28.5 73
c0 6 2 11 6 15s9 6 15 6s11 -2 15 -6s6 -9 6 -15c0 -47.333 -13.667 -81.833 -41 -103.5s-70.666 -32.5 -129.999 -32.5h-61c-40 0 -72.667 7.33301 -98 22zM788.002 291c-2.66699 46.667 -13.833 79.665 -33.5 98.998s-51.5 29 -95.5 29h-60
c-46.667 0.666992 -79.667 -8.66602 -99 -27.999s-29.333 -52.666 -30 -99.999h318zM251.003 42.998c118 0 177 43 177 129v77h-213c-38.667 0 -65.5 -7.5 -80.5 -22.5s-22.5 -41.833 -22.5 -80.5s7.5 -65.5 22.5 -80.5s41.833 -22.5 80.5 -22.5h36z" />
    <glyph glyph-name="ccedilla" unicode="&#xe7;" horiz-adv-x="551" 
d="M486.5 119c3.66699 -4 5.16602 -9.33301 4.49902 -16c-4 -34.667 -18.167 -60.334 -42.5 -77.001s-60.166 -25.334 -107.499 -26.001c2.66699 -8 11.334 -16.667 26.001 -26c13.333 -8.66699 24.166 -18.167 32.499 -28.5s12.5 -24.5 12.5 -42.5
c0 -35.333 -8.33301 -61.333 -25 -78s-42.667 -25 -78 -25c-55.333 0 -83 27.667 -83 83c0 14 7 21 21 21s21 -7 21 -21c0 -16 2.83301 -26.833 8.5 -32.5s16.5 -8.5 32.5 -8.5c23.333 0 39.333 4.33301 48 13s13 24.667 13 48c0 7.33301 -1.66699 13.333 -5 18
s-10.333 10.667 -21 18c-12 8 -22 16.5 -30 25.5s-13.333 20.833 -16 35.5h-43c-60.667 0 -105 14 -133 42s-42 72.333 -42 133v112c0 61.333 14 105.833 42 133.5s72.333 41.167 133 40.5h82c49.333 0 86.333 -8.33301 111 -25s39 -42.667 43 -78v-2
c0 -13.333 -7 -20 -21 -20c-12 0 -19 6.66699 -21 20c-2.66699 22.667 -12.667 38.834 -30 48.501s-44.666 14.5 -81.999 14.5h-82c-49.333 0.666992 -83.833 -8.83301 -103.5 -28.5s-29.5 -54.167 -29.5 -103.5v-112c0 -48.667 10 -83 30 -103s54.333 -30 103 -30h82
c37.333 0 64.666 4.83301 81.999 14.5s27.333 25.834 30 48.501c2 13.333 9 20 21 20c7.33301 0 12.833 -2 16.5 -6z" />
    <glyph glyph-name="egrave" unicode="&#xe8;" horiz-adv-x="592" 
d="M122 215l-0.000976562 -40.999c0 -48.667 10 -82.834 30 -102.501s54.333 -29.5 103 -29.5h82c45.333 0 78 6.16699 98 18.5s31.333 33.5 34 63.5c1.33301 14 8.66602 21 21.999 21c6.66699 0 11.834 -2 15.501 -6s5.16699 -9.33301 4.5 -16
c-3.33301 -42.667 -19.166 -73.834 -47.499 -93.501s-70.5 -29.5 -126.5 -29.5h-82c-60.667 0 -105 13.833 -133 41.5s-42 71.834 -42 132.501v112c0 61.333 14 106 42 134s72.333 41.667 133 41h82c61.333 0 105.833 -13.833 133.5 -41.5s41.5 -72.167 41.5 -133.5v-50
c0 -14 -7 -21 -21 -21h-369zM121.999 257.001h348v29c0 49.333 -9.83301 83.833 -29.5 103.5s-54.167 29.5 -103.5 29.5h-82c-48.667 0.666992 -83 -9 -103 -29s-30 -54.667 -30 -104v-29zM317.999 517.001c-6 0 -11.332 3 -15.999 9l-90 106c-3.33301 4 -5 8.66699 -5 14
c0 6 2.66699 11.333 8 16c4 4 8.66699 6 14 6s10.666 -3 15.999 -9l90 -106c3.33301 -4 5 -8.66699 5 -14c0 -6 -2.66699 -11.333 -8 -16c-4 -4 -8.66699 -6 -14 -6z" />
    <glyph glyph-name="eacute" unicode="&#xe9;" horiz-adv-x="592" 
d="M122 215l-0.000976562 -40.999c0 -48.667 10 -82.834 30 -102.501s54.333 -29.5 103 -29.5h82c45.333 0 78 6.16699 98 18.5s31.333 33.5 34 63.5c1.33301 14 8.66602 21 21.999 21c6.66699 0 11.834 -2 15.501 -6s5.16699 -9.33301 4.5 -16
c-3.33301 -42.667 -19.166 -73.834 -47.499 -93.501s-70.5 -29.5 -126.5 -29.5h-82c-60.667 0 -105 13.833 -133 41.5s-42 71.834 -42 132.501v112c0 61.333 14 106 42 134s72.333 41.667 133 41h82c61.333 0 105.833 -13.833 133.5 -41.5s41.5 -72.167 41.5 -133.5v-50
c0 -14 -7 -21 -21 -21h-369zM121.999 257.001h348v29c0 49.333 -9.83301 83.833 -29.5 103.5s-54.167 29.5 -103.5 29.5h-82c-48.667 0.666992 -83 -9 -103 -29s-30 -54.667 -30 -104v-29zM267.999 539.001c0 5.33301 1.66602 10 4.99902 14l90 106c4.66699 6 10 9 16 9
c5.33301 0 10 -2 14 -6c5.33301 -4.66699 8 -10 8 -16c0 -5.33301 -1.66699 -10 -5 -14l-90 -106c-5.33301 -6 -10.666 -9 -15.999 -9s-10 2 -14 6c-5.33301 4.66699 -8 10 -8 16z" />
    <glyph glyph-name="ecircumflex" unicode="&#xea;" horiz-adv-x="592" 
d="M122 215l-0.000976562 -40.999c0 -48.667 10 -82.834 30 -102.501s54.333 -29.5 103 -29.5h82c45.333 0 78 6.16699 98 18.5s31.333 33.5 34 63.5c1.33301 14 8.66602 21 21.999 21c6.66699 0 11.834 -2 15.501 -6s5.16699 -9.33301 4.5 -16
c-3.33301 -42.667 -19.166 -73.834 -47.499 -93.501s-70.5 -29.5 -126.5 -29.5h-82c-60.667 0 -105 13.833 -133 41.5s-42 71.834 -42 132.501v112c0 61.333 14 106 42 134s72.333 41.667 133 41h82c61.333 0 105.833 -13.833 133.5 -41.5s41.5 -72.167 41.5 -133.5v-50
c0 -14 -7 -21 -21 -21h-369zM121.999 257.001h348v29c0 49.333 -9.83301 83.833 -29.5 103.5s-54.167 29.5 -103.5 29.5h-82c-48.667 0.666992 -83 -9 -103 -29s-30 -54.667 -30 -104v-29zM195.999 524.001c-4 4 -6 9 -6 15c0 3.33301 1.33301 7.66602 4 12.999l78 104
c6.66699 8.66699 15 13 25 13h18c10 0 18.333 -4.33301 25 -13l78 -104c2.66699 -5.33301 4 -9.66602 4 -12.999c0 -6 -2 -11 -6 -15s-9 -6 -15 -6c-7.33301 0 -13 3 -17 9l-75 100h-6l-75 -100c-4 -6 -9.66699 -9 -17 -9c-6 0 -11 2 -15 6z" />
    <glyph glyph-name="edieresis" unicode="&#xeb;" horiz-adv-x="592" 
d="M122 215l-0.000976562 -40.999c0 -48.667 10 -82.834 30 -102.501s54.333 -29.5 103 -29.5h82c45.333 0 78 6.16699 98 18.5s31.333 33.5 34 63.5c1.33301 14 8.66602 21 21.999 21c6.66699 0 11.834 -2 15.501 -6s5.16699 -9.33301 4.5 -16
c-3.33301 -42.667 -19.166 -73.834 -47.499 -93.501s-70.5 -29.5 -126.5 -29.5h-82c-60.667 0 -105 13.833 -133 41.5s-42 71.834 -42 132.501v112c0 61.333 14 106 42 134s72.333 41.667 133 41h82c61.333 0 105.833 -13.833 133.5 -41.5s41.5 -72.167 41.5 -133.5v-50
c0 -14 -7 -21 -21 -21h-369zM121.999 257.001h348v29c0 49.333 -9.83301 83.833 -29.5 103.5s-54.167 29.5 -103.5 29.5h-82c-48.667 0.666992 -83 -9 -103 -29s-30 -54.667 -30 -104v-29zM198.999 575.001v17c0 16.667 8.33301 25 25 25h17c16.667 0 25 -8.33301 25 -25
v-17c0 -17.333 -8.33301 -26 -25 -26h-17c-16.667 0 -25 8.66699 -25 26zM341.999 575.001v17c0 16.667 8.33301 25 25 25h17c16.667 0 25 -8.33301 25 -25v-17c0 -17.333 -8.33301 -26 -25 -26h-17c-16.667 0 -25 8.66699 -25 26z" />
    <glyph glyph-name="igrave" unicode="&#xec;" horiz-adv-x="222" 
d="M90 21v419c0 14 7 21 21 21s21 -7 21 -21v-419c0 -14 -7 -21 -21 -21s-21 7 -21 21zM125 517c-6 0 -11.332 3 -15.999 9l-90 106c-3.33301 4 -5 8.66699 -5 14c0 6 2.66699 11.333 8 16c4 4 8.66699 6 14 6s10.666 -3 15.999 -9l90 -106c3.33301 -4 5 -8.66699 5 -14
c0 -6 -2.66699 -11.333 -8 -16c-4 -4 -8.66699 -6 -14 -6z" />
    <glyph glyph-name="iacute" unicode="&#xed;" horiz-adv-x="222" 
d="M90 21v419c0 14 7 21 21 21s21 -7 21 -21v-419c0 -14 -7 -21 -21 -21s-21 7 -21 21zM75 539c0 5.33301 1.66602 10 4.99902 14l90 106c4.66699 6 10 9 16 9c5.33301 0 10 -2 14 -6c5.33301 -4.66699 8 -10 8 -16c0 -5.33301 -1.66699 -10 -5 -14l-90 -106
c-5.33301 -6 -10.666 -9 -15.999 -9s-10 2 -14 6c-5.33301 4.66699 -8 10 -8 16z" />
    <glyph glyph-name="icircumflex" unicode="&#xee;" horiz-adv-x="222" 
d="M90 21v419c0 14 7 21 21 21s21 -7 21 -21v-419c0 -14 -7 -21 -21 -21s-21 7 -21 21zM3 524c-4 4 -6 9 -6 15c0 3.33301 1.33301 7.66602 4 12.999l78 104c6.66699 8.66699 15 13 25 13h18c10 0 18.333 -4.33301 25 -13l78 -104c2.66699 -5.33301 4 -9.66602 4 -12.999
c0 -6 -2 -11 -6 -15s-9 -6 -15 -6c-7.33301 0 -13 3 -17 9l-75 100h-6l-75 -100c-4 -6 -9.66699 -9 -17 -9c-6 0 -11 2 -15 6z" />
    <glyph glyph-name="idieresis" unicode="&#xef;" horiz-adv-x="222" 
d="M90 21v419c0 14 7 21 21 21s21 -7 21 -21v-419c0 -14 -7 -21 -21 -21s-21 7 -21 21zM6 575v17c0 16.667 8.33301 25 25 25h17c16.667 0 25 -8.33301 25 -25v-17c0 -17.333 -8.33301 -26 -25 -26h-17c-16.667 0 -25 8.66699 -25 26zM149 575v17c0 16.667 8.33301 25 25 25
h17c16.667 0 25 -8.33301 25 -25v-17c0 -17.333 -8.33301 -26 -25 -26h-17c-16.667 0 -25 8.66699 -25 26z" />
    <glyph glyph-name="eth" unicode="&#xf0;" horiz-adv-x="592" 
d="M480.5 556c20.333 -53.333 30.833 -135.003 31.5 -245.003v-135c0 -60.667 -13.833 -105 -41.5 -133s-72.167 -42 -133.5 -42h-82c-60.667 0 -105 13.833 -133 41.5s-42 71.834 -42 132.501v112c0 61.333 14 106 42 134s72.333 41.667 133 41h82
c57.333 0 100 -16.333 128 -49c-4.66699 62.667 -14.5 109.834 -29.5 141.501s-35.833 51.167 -62.5 58.5l-92 23l-73 -68c-6 -4.66699 -11 -7 -15 -7c-4.66699 0 -9.66699 2.66699 -15 8c-4.66699 6 -7 11 -7 15c0 4.66699 2.66699 9.66699 8 15l53 49l-90 23
c-10.667 2.66699 -16 9 -16 19c0 15.333 6.33301 23 19 23c3.33301 0 6 -0.333008 8 -1l115 -30l64 60c6 4.66699 11 7 15 7c4.66699 0 9.66699 -2.66699 15 -8c4.66699 -6 7 -11 7 -15c0 -4.66699 -2.66699 -9.66699 -8 -15l-44 -41l66 -17
c44.667 -11.333 77.167 -43.666 97.5 -96.999zM470 310.997c0 39.333 -11.5 67.334 -34.5 84.001s-55.833 25 -98.5 25h-82c-48.667 0.666992 -83 -9 -103 -29s-30 -54.667 -30 -104v-112c0 -48.667 10 -82.834 30 -102.501s54.333 -29.5 103 -29.5h82
c49.333 0 83.833 10 103.5 30s29.5 54.333 29.5 103v135z" />
    <glyph glyph-name="ntilde" unicode="&#xf1;" 
d="M470.5 419.5c27.667 -27.667 41.501 -72.167 41.501 -133.5v-265c0 -14 -7 -21 -21 -21s-21 7 -21 21v265c0 49.333 -9.83301 83.833 -29.5 103.5s-54.167 29.5 -103.5 29.5h-28c-108.667 0 -167.334 -36.333 -176.001 -109l-1 -6v-283c0 -14 -7 -21 -21 -21
s-21 7 -21 21v419c0 14 7 21 21 21s21 -7 21 -21v-58c30.667 52.667 89.667 79 177 79h28c61.333 0 105.833 -13.833 133.5 -41.5zM341.001 559c-10.667 6.66699 -20.9971 15.332 -30.9971 25.999c-9.33301 9.33301 -17 15.833 -23 19.5s-14 5.5 -24 5.5
c-12 0 -21.167 -3.16699 -27.5 -9.5s-12.5 -18.5 -18.5 -36.5c-1.33301 -4.66699 -3.83301 -8.33398 -7.5 -11.001s-7.83398 -4 -12.501 -4c-8 0 -14 3.33301 -18 10s-4.66699 12.667 -2 18c9.33301 26.667 20.666 45.834 33.999 57.501s30.666 17.5 51.999 17.5
c17.333 0 31.833 -3.5 43.5 -10.5s22.834 -16.167 33.501 -27.5c9.33301 -9.33301 16.666 -15.5 21.999 -18.5s11.666 -4.5 18.999 -4.5c11.333 0 20.833 3.5 28.5 10.5s13.834 18.833 18.501 35.5c3.33301 10 10.333 15 21 15c7.33301 0 12.833 -3.16699 16.5 -9.5
s4.5 -12.166 2.5 -17.499c-9.33301 -25.333 -21 -44.333 -35 -57s-31.333 -19 -52 -19c-16 0 -29.333 3.33301 -40 10z" />
    <glyph glyph-name="ograve" unicode="&#xf2;" horiz-adv-x="592" 
d="M122 41.5c-28 27.667 -42 71.833 -42 132.5v112c0 61.333 14 106 42 134s72.333 41.667 133 41h82c61.333 0 105.833 -13.833 133.5 -41.5s41.5 -72.167 41.5 -133.5v-111c0 -60.667 -13.833 -105 -41.5 -133s-72.167 -42 -133.5 -42h-82
c-60.667 -0 -105 13.833 -133 41.5zM337 41.999c49.333 0 83.833 10.001 103.5 30.001s29.5 54.333 29.5 103v111c0 49.333 -9.83301 83.833 -29.5 103.5s-54.167 29.5 -103.5 29.5h-82c-48.667 0.666992 -83 -9 -103 -29s-30 -54.667 -30 -104v-112
c0 -48.667 10 -82.834 30 -102.501s54.333 -29.5 103 -29.5h82zM310 517c-6 0 -11.332 3 -15.999 9l-90 106c-3.33301 4 -5 8.66699 -5 14c0 6 2.66699 11.333 8 16c4 4 8.66699 6 14 6s10.666 -3 15.999 -9l90 -106c3.33301 -4 5 -8.66699 5 -14
c0 -6 -2.66699 -11.333 -8 -16c-4 -4 -8.66699 -6 -14 -6z" />
    <glyph glyph-name="oacute" unicode="&#xf3;" horiz-adv-x="592" 
d="M122 41.5c-28 27.667 -42 71.833 -42 132.5v112c0 61.333 14 106 42 134s72.333 41.667 133 41h82c61.333 0 105.833 -13.833 133.5 -41.5s41.5 -72.167 41.5 -133.5v-111c0 -60.667 -13.833 -105 -41.5 -133s-72.167 -42 -133.5 -42h-82
c-60.667 -0 -105 13.833 -133 41.5zM337 41.999c49.333 0 83.833 10.001 103.5 30.001s29.5 54.333 29.5 103v111c0 49.333 -9.83301 83.833 -29.5 103.5s-54.167 29.5 -103.5 29.5h-82c-48.667 0.666992 -83 -9 -103 -29s-30 -54.667 -30 -104v-112
c0 -48.667 10 -82.834 30 -102.501s54.333 -29.5 103 -29.5h82zM260 539c0 5.33301 1.66602 10 4.99902 14l90 106c4.66699 6 10 9 16 9c5.33301 0 10 -2 14 -6c5.33301 -4.66699 8 -10 8 -16c0 -5.33301 -1.66699 -10 -5 -14l-90 -106c-5.33301 -6 -10.666 -9 -15.999 -9
s-10 2 -14 6c-5.33301 4.66699 -8 10 -8 16z" />
    <glyph glyph-name="ocircumflex" unicode="&#xf4;" horiz-adv-x="592" 
d="M122 41.5c-28 27.667 -42 71.833 -42 132.5v112c0 61.333 14 106 42 134s72.333 41.667 133 41h82c61.333 0 105.833 -13.833 133.5 -41.5s41.5 -72.167 41.5 -133.5v-111c0 -60.667 -13.833 -105 -41.5 -133s-72.167 -42 -133.5 -42h-82
c-60.667 -0 -105 13.833 -133 41.5zM337 41.999c49.333 0 83.833 10.001 103.5 30.001s29.5 54.333 29.5 103v111c0 49.333 -9.83301 83.833 -29.5 103.5s-54.167 29.5 -103.5 29.5h-82c-48.667 0.666992 -83 -9 -103 -29s-30 -54.667 -30 -104v-112
c0 -48.667 10 -82.834 30 -102.501s54.333 -29.5 103 -29.5h82zM188 524c-4 4 -6 9 -6 15c0 3.33301 1.33301 7.66602 4 12.999l78 104c6.66699 8.66699 15 13 25 13h18c10 0 18.333 -4.33301 25 -13l78 -104c2.66699 -5.33301 4 -9.66602 4 -12.999c0 -6 -2 -11 -6 -15
s-9 -6 -15 -6c-7.33301 0 -13 3 -17 9l-75 100h-6l-75 -100c-4 -6 -9.66699 -9 -17 -9c-6 0 -11 2 -15 6z" />
    <glyph glyph-name="otilde" unicode="&#xf5;" horiz-adv-x="592" 
d="M122 41.5c-28 27.667 -42 71.833 -42 132.5v112c0 61.333 14 106 42 134s72.333 41.667 133 41h82c61.333 0 105.833 -13.833 133.5 -41.5s41.5 -72.167 41.5 -133.5v-111c0 -60.667 -13.833 -105 -41.5 -133s-72.167 -42 -133.5 -42h-82
c-60.667 -0 -105 13.833 -133 41.5zM337 41.999c49.333 0 83.833 10.001 103.5 30.001s29.5 54.333 29.5 103v111c0 49.333 -9.83301 83.833 -29.5 103.5s-54.167 29.5 -103.5 29.5h-82c-48.667 0.666992 -83 -9 -103 -29s-30 -54.667 -30 -104v-112
c0 -48.667 10 -82.834 30 -102.501s54.333 -29.5 103 -29.5h82zM315 559c-10.667 6.66699 -20.9971 15.332 -30.9971 25.999c-9.33301 9.33301 -17 15.833 -23 19.5s-14 5.5 -24 5.5c-12 0 -21.167 -3.16699 -27.5 -9.5s-12.5 -18.5 -18.5 -36.5
c-1.33301 -4.66699 -3.83301 -8.33398 -7.5 -11.001s-7.83398 -4 -12.501 -4c-8 0 -14 3.33301 -18 10s-4.66699 12.667 -2 18c9.33301 26.667 20.666 45.834 33.999 57.501s30.666 17.5 51.999 17.5c17.333 0 31.833 -3.5 43.5 -10.5s22.834 -16.167 33.501 -27.5
c9.33301 -9.33301 16.666 -15.5 21.999 -18.5s11.666 -4.5 18.999 -4.5c11.333 0 20.833 3.5 28.5 10.5s13.834 18.833 18.501 35.5c3.33301 10 10.333 15 21 15c7.33301 0 12.833 -3.16699 16.5 -9.5s4.5 -12.166 2.5 -17.499c-9.33301 -25.333 -21 -44.333 -35 -57
s-31.333 -19 -52 -19c-16 0 -29.333 3.33301 -40 10z" />
    <glyph glyph-name="odieresis" unicode="&#xf6;" horiz-adv-x="592" 
d="M122 41.5c-28 27.667 -42 71.833 -42 132.5v112c0 61.333 14 106 42 134s72.333 41.667 133 41h82c61.333 0 105.833 -13.833 133.5 -41.5s41.5 -72.167 41.5 -133.5v-111c0 -60.667 -13.833 -105 -41.5 -133s-72.167 -42 -133.5 -42h-82
c-60.667 -0 -105 13.833 -133 41.5zM337 41.999c49.333 0 83.833 10.001 103.5 30.001s29.5 54.333 29.5 103v111c0 49.333 -9.83301 83.833 -29.5 103.5s-54.167 29.5 -103.5 29.5h-82c-48.667 0.666992 -83 -9 -103 -29s-30 -54.667 -30 -104v-112
c0 -48.667 10 -82.834 30 -102.501s54.333 -29.5 103 -29.5h82zM191 575v17c0 16.667 8.33301 25 25 25h17c16.667 0 25 -8.33301 25 -25v-17c0 -17.333 -8.33301 -26 -25 -26h-17c-16.667 0 -25 8.66699 -25 26zM334 575v17c0 16.667 8.33301 25 25 25h17
c16.667 0 25 -8.33301 25 -25v-17c0 -17.333 -8.33301 -26 -25 -26h-17c-16.667 0 -25 8.66699 -25 26z" />
    <glyph glyph-name="divide" unicode="&#xf7;" horiz-adv-x="545" 
d="M70 367c0 14 7 21 21 21h363c14 0 21 -7 21 -21s-7 -21 -21 -21h-363c-14 0 -21 7 -21 21zM238 193v17c0 16.667 8.33301 25 25 25h17c16.667 0 25 -8.33301 25 -25v-17c0 -17.333 -8.33301 -26 -25 -26h-17c-16.667 0 -25 8.66699 -25 26zM238 523v17
c0 16.667 8.33301 25 25 25h17c16.667 0 25 -8.33301 25 -25v-17c0 -17.333 -8.33301 -26 -25 -26h-17c-16.667 0 -25 8.66699 -25 26z" />
    <glyph glyph-name="oslash" unicode="&#xf8;" horiz-adv-x="592" 
d="M496 380.5c10.667 -25 16.001 -56.502 16.001 -94.502v-111c0 -60.667 -13.833 -105 -41.5 -133s-72.167 -42 -133.5 -42h-82c-26 0 -49.667 2.66699 -71 8l-39 -63c-4 -6.66699 -9.33301 -10 -16 -10c-7.33301 0 -13 1.66699 -17 5s-6 8 -6 14
c0 4.66699 1.33301 9.33398 4 14.001l35 56c-22 12.667 -38.333 31.334 -49 56.001s-16 56 -16 94v112c0 61.333 14 106 42 134s72.333 41.667 133 41h82c25.333 0 48.666 -2.66699 69.999 -8l32 53c5.33301 8.66699 13 11.667 23 9c12 -2.66699 18 -8.66699 18 -18
c0 -4 -1.66699 -8.66699 -5 -14l-28 -46c22 -12.667 38.333 -31.5 49 -56.5zM122.001 173.998c0 -30 3.50098 -54.168 10.501 -72.501s18.5 -32.166 34.5 -41.499l217 355c-12.667 2.66699 -28.334 4 -47.001 4h-82c-48.667 0.666992 -83 -9 -103 -29s-30 -54.667 -30 -104
v-112zM470.002 285.997c0 30.667 -3.50098 55.168 -10.501 73.501s-18.5 32.166 -34.5 41.499l-217 -355c12.667 -2.66699 28.334 -4 47.001 -4h82c49.333 0 83.833 10 103.5 30s29.5 54.333 29.5 103v111z" />
    <glyph glyph-name="ugrave" unicode="&#xf9;" 
d="M503 440l-0.000976562 -419c0 -14 -7 -21 -21 -21s-21 7 -21 21v58c-30.667 -52.667 -89.667 -79 -177 -79h-28c-60.667 0 -105 14 -133 42s-42 72.333 -42 133v265c0 14 7 21 21 21s21 -7 21 -21v-265c0 -48.667 10 -83 30 -103s54.333 -30 103 -30h28
c108.667 0 167.334 36.333 176.001 109l1 6v283c0 14 7 21 21 21s21 -7 21 -21zM299.999 517c-6 0 -11.332 3 -15.999 9l-90 106c-3.33301 4 -5 8.66699 -5 14c0 6 2.66699 11.333 8 16c4 4 8.66699 6 14 6s10.666 -3 15.999 -9l90 -106c3.33301 -4 5 -8.66699 5 -14
c0 -6 -2.66699 -11.333 -8 -16c-4 -4 -8.66699 -6 -14 -6z" />
    <glyph glyph-name="uacute" unicode="&#xfa;" 
d="M503 440l-0.000976562 -419c0 -14 -7 -21 -21 -21s-21 7 -21 21v58c-30.667 -52.667 -89.667 -79 -177 -79h-28c-60.667 0 -105 14 -133 42s-42 72.333 -42 133v265c0 14 7 21 21 21s21 -7 21 -21v-265c0 -48.667 10 -83 30 -103s54.333 -30 103 -30h28
c108.667 0 167.334 36.333 176.001 109l1 6v283c0 14 7 21 21 21s21 -7 21 -21zM249.999 539c0 5.33301 1.66602 10 4.99902 14l90 106c4.66699 6 10 9 16 9c5.33301 0 10 -2 14 -6c5.33301 -4.66699 8 -10 8 -16c0 -5.33301 -1.66699 -10 -5 -14l-90 -106
c-5.33301 -6 -10.666 -9 -15.999 -9s-10 2 -14 6c-5.33301 4.66699 -8 10 -8 16z" />
    <glyph glyph-name="ucircumflex" unicode="&#xfb;" 
d="M503 440l-0.000976562 -419c0 -14 -7 -21 -21 -21s-21 7 -21 21v58c-30.667 -52.667 -89.667 -79 -177 -79h-28c-60.667 0 -105 14 -133 42s-42 72.333 -42 133v265c0 14 7 21 21 21s21 -7 21 -21v-265c0 -48.667 10 -83 30 -103s54.333 -30 103 -30h28
c108.667 0 167.334 36.333 176.001 109l1 6v283c0 14 7 21 21 21s21 -7 21 -21zM177.999 524c-4 4 -6 9 -6 15c0 3.33301 1.33301 7.66602 4 12.999l78 104c6.66699 8.66699 15 13 25 13h18c10 0 18.333 -4.33301 25 -13l78 -104c2.66699 -5.33301 4 -9.66602 4 -12.999
c0 -6 -2 -11 -6 -15s-9 -6 -15 -6c-7.33301 0 -13 3 -17 9l-75 100h-6l-75 -100c-4 -6 -9.66699 -9 -17 -9c-6 0 -11 2 -15 6z" />
    <glyph glyph-name="udieresis" unicode="&#xfc;" 
d="M503 440l-0.000976562 -419c0 -14 -7 -21 -21 -21s-21 7 -21 21v58c-30.667 -52.667 -89.667 -79 -177 -79h-28c-60.667 0 -105 14 -133 42s-42 72.333 -42 133v265c0 14 7 21 21 21s21 -7 21 -21v-265c0 -48.667 10 -83 30 -103s54.333 -30 103 -30h28
c108.667 0 167.334 36.333 176.001 109l1 6v283c0 14 7 21 21 21s21 -7 21 -21zM180.999 575v17c0 16.667 8.33301 25 25 25h17c16.667 0 25 -8.33301 25 -25v-17c0 -17.333 -8.33301 -26 -25 -26h-17c-16.667 0 -25 8.66699 -25 26zM323.999 575v17
c0 16.667 8.33301 25 25 25h17c16.667 0 25 -8.33301 25 -25v-17c0 -17.333 -8.33301 -26 -25 -26h-17c-16.667 0 -25 8.66699 -25 26z" />
    <glyph glyph-name="yacute" unicode="&#xfd;" horiz-adv-x="583" 
d="M110.5 -170c-19.667 20 -29.501 51.335 -29.501 94.002c0 14 7 21 21 21s21 -7 21 -21c0 -31.333 5.83301 -52.833 17.5 -64.5s32.834 -17.5 63.501 -17.5h166c30.667 0 51.834 5.83301 63.501 17.5s17.5 33.167 17.5 64.5v141c-18 -22.667 -41.667 -39.334 -71 -50.001
s-64.666 -16 -105.999 -16h-21c-60 0 -103.667 13.667 -131 41s-41 70.666 -41 129.999v271c0 14 7 21 21 21s21 -7 21 -21v-271c0 -48 9.5 -81.5 28.5 -100.5s52.833 -28.5 101.5 -28.5h21c118 0 177 43 177 129v271c0 14 7 21 21 21s21 -7 21 -21v-517
c0 -42.667 -9.83301 -74 -29.5 -94s-50.834 -30 -93.501 -30h-166c-42.667 0 -73.834 10 -93.501 30zM250.999 539.002c0 5.33301 1.66602 10 4.99902 14l90 106c4.66699 6 10 9 16 9c5.33301 0 10 -2 14 -6c5.33301 -4.66699 8 -10 8 -16c0 -5.33301 -1.66699 -10 -5 -14
l-90 -106c-5.33301 -6 -10.666 -9 -15.999 -9s-10 2 -14 6c-5.33301 4.66699 -8 10 -8 16z" />
    <glyph glyph-name="thorn" unicode="&#xfe;" horiz-adv-x="602" 
d="M90 -179v802c0 14 7 21 21 21s21 -7 21 -21v-237c37.333 50.667 96.333 76 177 76h38c61.333 0 105.833 -13.833 133.5 -41.5s41.5 -72.167 41.5 -133.5v-111c0 -60.667 -13.833 -105 -41.5 -133s-72.167 -42 -133.5 -42h-215v-180c0 -14 -7 -21 -21 -21s-21 7 -21 21z
M347 43c49.333 0 83.833 10 103.5 30s29.5 54.333 29.5 103v111c0 49.333 -9.83301 83.833 -29.5 103.5s-54.167 29.5 -103.5 29.5h-38c-118 0 -177 -43 -177 -129v-248h215z" />
    <glyph glyph-name="ydieresis" unicode="&#xff;" horiz-adv-x="583" 
d="M110.5 -170c-19.667 20 -29.501 51.335 -29.501 94.002c0 14 7 21 21 21s21 -7 21 -21c0 -31.333 5.83301 -52.833 17.5 -64.5s32.834 -17.5 63.501 -17.5h166c30.667 0 51.834 5.83301 63.501 17.5s17.5 33.167 17.5 64.5v141c-18 -22.667 -41.667 -39.334 -71 -50.001
s-64.666 -16 -105.999 -16h-21c-60 0 -103.667 13.667 -131 41s-41 70.666 -41 129.999v271c0 14 7 21 21 21s21 -7 21 -21v-271c0 -48 9.5 -81.5 28.5 -100.5s52.833 -28.5 101.5 -28.5h21c118 0 177 43 177 129v271c0 14 7 21 21 21s21 -7 21 -21v-517
c0 -42.667 -9.83301 -74 -29.5 -94s-50.834 -30 -93.501 -30h-166c-42.667 0 -73.834 10 -93.501 30zM181.999 575.002v17c0 16.667 8.33301 25 25 25h17c16.667 0 25 -8.33301 25 -25v-17c0 -17.333 -8.33301 -26 -25 -26h-17c-16.667 0 -25 8.66699 -25 26z
M324.999 575.002v17c0 16.667 8.33301 25 25 25h17c16.667 0 25 -8.33301 25 -25v-17c0 -17.333 -8.33301 -26 -25 -26h-17c-16.667 0 -25 8.66699 -25 26z" />
    <glyph glyph-name="Amacron" unicode="&#x100;" horiz-adv-x="597" 
d="M577 19c0 -7.33301 -4.66895 -12.999 -14.002 -16.999c-4 -1.33301 -7.33301 -2 -10 -2c-7.33301 0 -13 4.33301 -17 13l-71 167c-2 -0.666992 -5.33301 -1 -10 -1h-315c-3.33301 0 -5.66602 0.333008 -6.99902 1l-72 -167c-4 -8.66699 -10 -13 -18 -13
c-1.33301 0 -4.66602 0.666992 -9.99902 2c-8.66699 4 -13 10 -13 18c0 1.33301 0.666992 4.66602 2 9.99902l251 587c4 10.667 12 16 24 16h3c11.333 0 19.333 -5.33301 24 -16l250 -587c2 -4 3 -7.66699 3 -11zM150.998 221.001h296l-147 346zM150.998 777.001
c0 14 7 21 21 21h253c14 0 21 -7 21 -21s-7 -21 -21 -21h-253c-14 0 -21 7 -21 21z" />
    <glyph glyph-name="amacron" unicode="&#x101;" horiz-adv-x="571" 
d="M448.5 419.5c27.667 -27.667 41.501 -72.168 41.501 -133.501v-265c0 -14 -7 -21 -21 -21s-21 7 -21 21v59c-15.333 -26 -37.833 -45.833 -67.5 -59.5s-66.167 -20.5 -109.5 -20.5h-56c-50.667 0 -87.5 11.5 -110.5 34.5s-34.5 59.833 -34.5 110.5s11.667 87.667 35 111
s60 35 110 35h233c-0.666992 46.667 -11 79.667 -31 99s-54 29 -102 29h-58c-45.333 0 -78.333 -5.16699 -99 -15.5s-33 -28.166 -37 -53.499c-2 -13.333 -9 -20 -21 -20c-7.33301 0 -12.833 2 -16.5 6s-5.16699 9.33301 -4.5 16c2.66699 37.333 18.667 64.833 48 82.5
s72.666 26.5 129.999 26.5h58c61.333 0 105.833 -13.833 133.5 -41.5zM448.001 157.999v91h-233c-38.667 0 -65.5 -7.66699 -80.5 -23s-22.5 -42.333 -22.5 -81s7.5 -65.5 22.5 -80.5s41.833 -22.5 80.5 -22.5h56c108 0 166.667 36.667 176 110zM137.001 604.999
c0 14 7 21 21 21h253c14 0 21 -7 21 -21s-7 -21 -21 -21h-253c-14 0 -21 7 -21 21z" />
    <glyph glyph-name="Abreve" unicode="&#x102;" horiz-adv-x="597" 
d="M577 19c0 -7.33301 -4.66895 -12.999 -14.002 -16.999c-4 -1.33301 -7.33301 -2 -10 -2c-7.33301 0 -13 4.33301 -17 13l-71 167c-2 -0.666992 -5.33301 -1 -10 -1h-315c-3.33301 0 -5.66602 0.333008 -6.99902 1l-72 -167c-4 -8.66699 -10 -13 -18 -13
c-1.33301 0 -4.66602 0.666992 -9.99902 2c-8.66699 4 -13 10 -13 18c0 1.33301 0.666992 4.66602 2 9.99902l251 587c4 10.667 12 16 24 16h3c11.333 0 19.333 -5.33301 24 -16l250 -587c2 -4 3 -7.66699 3 -11zM150.998 221.001h296l-147 346zM206.498 722.001
c-20.333 20.667 -30.501 50.667 -30.501 90v2c0 14 7 21 21 21s21 -7 21 -21v-2c0 -28 6.33301 -48.333 19 -61s33 -19 61 -19c28.667 0.666992 49.167 7.16699 61.5 19.5s18.5 32.5 18.5 60.5v2c0 14 7 21 21 21s21 -7 21 -21v-2c0 -80.667 -41.333 -121 -124 -121
c-39.333 0 -69.166 10.333 -89.499 31z" />
    <glyph glyph-name="abreve" unicode="&#x103;" horiz-adv-x="571" 
d="M448.5 419.5c27.667 -27.667 41.501 -72.168 41.501 -133.501v-265c0 -14 -7 -21 -21 -21s-21 7 -21 21v59c-15.333 -26 -37.833 -45.833 -67.5 -59.5s-66.167 -20.5 -109.5 -20.5h-56c-50.667 0 -87.5 11.5 -110.5 34.5s-34.5 59.833 -34.5 110.5s11.667 87.667 35 111
s60 35 110 35h233c-0.666992 46.667 -11 79.667 -31 99s-54 29 -102 29h-58c-45.333 0 -78.333 -5.16699 -99 -15.5s-33 -28.166 -37 -53.499c-2 -13.333 -9 -20 -21 -20c-7.33301 0 -12.833 2 -16.5 6s-5.16699 9.33301 -4.5 16c2.66699 37.333 18.667 64.833 48 82.5
s72.666 26.5 129.999 26.5h58c61.333 0 105.833 -13.833 133.5 -41.5zM448.001 157.999v91h-233c-38.667 0 -65.5 -7.66699 -80.5 -23s-22.5 -42.333 -22.5 -81s7.5 -65.5 22.5 -80.5s41.833 -22.5 80.5 -22.5h56c108 0 166.667 36.667 176 110zM192.501 549.999
c-20.333 20.667 -30.501 50.667 -30.501 90v2c0 14 7 21 21 21s21 -7 21 -21v-2c0 -28 6.33301 -48.333 19 -61s33 -19 61 -19c28.667 0.666992 49.167 7.16699 61.5 19.5s18.5 32.5 18.5 60.5v2c0 14 7 21 21 21s21 -7 21 -21v-2c0 -80.667 -41.333 -121 -124 -121
c-39.333 0 -69.166 10.333 -89.499 31z" />
    <glyph glyph-name="Aogonek" unicode="&#x104;" horiz-adv-x="597" 
d="M642 -98c4 -4 5.99805 -9 5.99805 -15s-2 -11 -6 -15c-12.667 -12.667 -26.834 -22.5 -42.501 -29.5s-31.167 -10.5 -46.5 -10.5c-24.667 0 -45.5 7.5 -62.5 22.5s-25.5 33.833 -25.5 56.5c0 20.667 7.33301 40.334 22 59.001l43 56l-65 154
c-2 -0.666992 -5.33301 -1 -10 -1h-315c-3.33301 0 -5.66602 0.333008 -6.99902 1l-72 -167c-4 -8.66699 -10 -13 -18 -13c-1.33301 0 -4.66602 0.666992 -9.99902 2c-8.66699 4 -13 10 -13 18c0 1.33301 0.666992 4.66602 2 9.99902l251 587c4 10.667 12 16 24 16h3
c11.333 0 19.333 -5.33301 24 -16l250 -587c2 -4 3 -7.66699 3 -11c0 -6 -3.33301 -11 -10 -15l-46 -60c-9.33301 -12.667 -14 -23.667 -14 -33c0 -10.667 4.33301 -19.5 13 -26.5s19.667 -10.5 33 -10.5c20.667 0 40.334 9.33301 59.001 28c4 4 9 6 15 6s11 -2 15 -6z
M150.998 221h296l-147 346z" />
    <glyph glyph-name="aogonek" unicode="&#x105;" horiz-adv-x="571" 
d="M556 -98c4 -4 6.00098 -9.00195 6.00098 -15.002s-2 -11 -6 -15c-12.667 -12.667 -26.834 -22.5 -42.501 -29.5s-31.167 -10.5 -46.5 -10.5c-24.667 0 -45.5 7.5 -62.5 22.5s-25.5 33.833 -25.5 56.5c0 20.667 7.33301 40.334 22 59.001l47 61v49
c-15.333 -26 -37.833 -45.833 -67.5 -59.5s-66.167 -20.5 -109.5 -20.5h-56c-50.667 0 -87.5 11.5 -110.5 34.5s-34.5 59.833 -34.5 110.5s11.667 87.667 35 111s60 35 110 35h233c-0.666992 46.667 -11 79.667 -31 99s-54 29 -102 29h-58
c-45.333 0 -78.333 -5.16699 -99 -15.5s-33 -28.166 -37 -53.499c-2 -13.333 -9 -20 -21 -20c-7.33301 0 -12.833 2 -16.5 6s-5.16699 9.33301 -4.5 16c2.66699 37.333 18.667 64.833 48 82.5s72.666 26.5 129.999 26.5h58c61.333 0 105.833 -13.833 133.5 -41.5
s41.5 -72.167 41.5 -133.5v-265c0 -10.667 -3.66699 -17 -11 -19l-44 -58c-9.33301 -12.667 -14 -23.667 -14 -33c0 -10.667 4.33301 -19.5 13 -26.5s19.667 -10.5 33 -10.5c20.667 0 40.334 9.33301 59.001 28c4 4 9 6 15 6s11 -2 15 -6zM448.001 157.998v91h-233
c-38.667 0 -65.5 -7.66699 -80.5 -23s-22.5 -42.333 -22.5 -81s7.5 -65.5 22.5 -80.5s41.833 -22.5 80.5 -22.5h56c108 0 166.667 36.667 176 110z" />
    <glyph glyph-name="Cacute" unicode="&#x106;" horiz-adv-x="655" 
d="M128.5 48.5c-32.333 32.333 -48.501 83.8301 -48.501 154.497v227c0 71.333 16 123 48 155s83.333 48 154 48h121c61.333 0 106.333 -12.667 135 -38s44.334 -66.333 47.001 -123v-3c0 -12.667 -6.66699 -19 -20 -19s-20.666 7 -21.999 21
c-2 44.667 -13.5 75.834 -34.5 93.501s-56.167 26.5 -105.5 26.5h-121c-40 0 -71.5 -5.16699 -94.5 -15.5s-39.667 -27.166 -50 -50.499s-15.5 -55 -15.5 -95v-227c0 -58.667 12.167 -100.167 36.5 -124.5s65.833 -36.5 124.5 -36.5h120c49.333 0 84.5 8.83301 105.5 26.5
s32.5 48.834 34.5 93.501c1.33301 14 8.66602 21 21.999 21c14.667 0 21.334 -7.33301 20.001 -22c-2.66699 -56.667 -18.334 -97.667 -47.001 -123s-73.667 -38 -135 -38h-120c-70.667 0 -122.167 16.167 -154.5 48.5zM296.999 710.997c0 5.33301 1.66602 10 4.99902 14
l90 106c4.66699 6 10 9 16 9c5.33301 0 10 -2 14 -6c5.33301 -4.66699 8 -10 8 -16c0 -5.33301 -1.66699 -10 -5 -14l-90 -106c-5.33301 -6 -10.666 -9 -15.999 -9s-10 2 -14 6c-5.33301 4.66699 -8 10 -8 16z" />
    <glyph glyph-name="cacute" unicode="&#x107;" horiz-adv-x="551" 
d="M122 42c-28 28 -42 72.3311 -42 132.998v112c0 61.333 14 105.833 42 133.5s72.333 41.167 133 40.5h82c49.333 0 86.333 -8.33301 111 -25s39 -42.667 43 -78v-2c0 -13.333 -7 -20 -21 -20c-12 0 -19 6.66699 -21 20c-2.66699 22.667 -12.667 38.834 -30 48.501
s-44.666 14.5 -81.999 14.5h-82c-49.333 0.666992 -83.833 -8.83301 -103.5 -28.5s-29.5 -54.167 -29.5 -103.5v-112c0 -48.667 10 -83 30 -103s54.333 -30 103 -30h82c37.333 0 64.666 4.83301 81.999 14.5s27.333 25.834 30 48.501c2 13.333 9 20 21 20
c7.33301 0 12.833 -2 16.5 -6s5.16699 -9.33301 4.5 -16c-4 -35.333 -18.333 -61.333 -43 -78s-61.667 -25 -111 -25h-82c-60.667 0 -105 14 -133 42zM262 538.998c0 5.33301 1.66602 10 4.99902 14l90 106c4.66699 6 10 9 16 9c5.33301 0 10 -2 14 -6
c5.33301 -4.66699 8 -10 8 -16c0 -5.33301 -1.66699 -10 -5 -14l-90 -106c-5.33301 -6 -10.666 -9 -15.999 -9s-10 2 -14 6c-5.33301 4.66699 -8 10 -8 16z" />
    <glyph glyph-name="Ccircumflex" unicode="&#x108;" horiz-adv-x="655" 
d="M128.5 48.5c-32.333 32.333 -48.501 83.8301 -48.501 154.497v227c0 71.333 16 123 48 155s83.333 48 154 48h121c61.333 0 106.333 -12.667 135 -38s44.334 -66.333 47.001 -123v-3c0 -12.667 -6.66699 -19 -20 -19s-20.666 7 -21.999 21
c-2 44.667 -13.5 75.834 -34.5 93.501s-56.167 26.5 -105.5 26.5h-121c-40 0 -71.5 -5.16699 -94.5 -15.5s-39.667 -27.166 -50 -50.499s-15.5 -55 -15.5 -95v-227c0 -58.667 12.167 -100.167 36.5 -124.5s65.833 -36.5 124.5 -36.5h120c49.333 0 84.5 8.83301 105.5 26.5
s32.5 48.834 34.5 93.501c1.33301 14 8.66602 21 21.999 21c14.667 0 21.334 -7.33301 20.001 -22c-2.66699 -56.667 -18.334 -97.667 -47.001 -123s-73.667 -38 -135 -38h-120c-70.667 0 -122.167 16.167 -154.5 48.5zM224.999 695.997c-4 4 -6 9 -6 15
c0 3.33301 1.33301 7.66602 4 12.999l78 104c6.66699 8.66699 15 13 25 13h18c10 0 18.333 -4.33301 25 -13l78 -104c2.66699 -5.33301 4 -9.66602 4 -12.999c0 -6 -2 -11 -6 -15s-9 -6 -15 -6c-7.33301 0 -13 3 -17 9l-75 100h-6l-75 -100c-4 -6 -9.66699 -9 -17 -9
c-6 0 -11 2 -15 6z" />
    <glyph glyph-name="ccircumflex" unicode="&#x109;" horiz-adv-x="551" 
d="M122 42c-28 28 -42 72.3311 -42 132.998v112c0 61.333 14 105.833 42 133.5s72.333 41.167 133 40.5h82c49.333 0 86.333 -8.33301 111 -25s39 -42.667 43 -78v-2c0 -13.333 -7 -20 -21 -20c-12 0 -19 6.66699 -21 20c-2.66699 22.667 -12.667 38.834 -30 48.501
s-44.666 14.5 -81.999 14.5h-82c-49.333 0.666992 -83.833 -8.83301 -103.5 -28.5s-29.5 -54.167 -29.5 -103.5v-112c0 -48.667 10 -83 30 -103s54.333 -30 103 -30h82c37.333 0 64.666 4.83301 81.999 14.5s27.333 25.834 30 48.501c2 13.333 9 20 21 20
c7.33301 0 12.833 -2 16.5 -6s5.16699 -9.33301 4.5 -16c-4 -35.333 -18.333 -61.333 -43 -78s-61.667 -25 -111 -25h-82c-60.667 0 -105 14 -133 42zM190 523.998c-4 4 -6 9 -6 15c0 3.33301 1.33301 7.66602 4 12.999l78 104c6.66699 8.66699 15 13 25 13h18
c10 0 18.333 -4.33301 25 -13l78 -104c2.66699 -5.33301 4 -9.66602 4 -12.999c0 -6 -2 -11 -6 -15s-9 -6 -15 -6c-7.33301 0 -13 3 -17 9l-75 100h-6l-75 -100c-4 -6 -9.66699 -9 -17 -9c-6 0 -11 2 -15 6z" />
    <glyph glyph-name="Cdotaccent" unicode="&#x10a;" horiz-adv-x="655" 
d="M128.5 48.5c-32.333 32.333 -48.501 83.8301 -48.501 154.497v227c0 71.333 16 123 48 155s83.333 48 154 48h121c61.333 0 106.333 -12.667 135 -38s44.334 -66.333 47.001 -123v-3c0 -12.667 -6.66699 -19 -20 -19s-20.666 7 -21.999 21
c-2 44.667 -13.5 75.834 -34.5 93.501s-56.167 26.5 -105.5 26.5h-121c-40 0 -71.5 -5.16699 -94.5 -15.5s-39.667 -27.166 -50 -50.499s-15.5 -55 -15.5 -95v-227c0 -58.667 12.167 -100.167 36.5 -124.5s65.833 -36.5 124.5 -36.5h120c49.333 0 84.5 8.83301 105.5 26.5
s32.5 48.834 34.5 93.501c1.33301 14 8.66602 21 21.999 21c14.667 0 21.334 -7.33301 20.001 -22c-2.66699 -56.667 -18.334 -97.667 -47.001 -123s-73.667 -38 -135 -38h-120c-70.667 0 -122.167 16.167 -154.5 48.5zM292.999 757.997l-0.000976562 20c0 20 10 30 30 30
h20c20 0 30 -10 30 -30v-20c0 -10 -2.66699 -17.667 -8 -23s-12.666 -8 -21.999 -8h-20c-20 0 -30 10.333 -30 31z" />
    <glyph glyph-name="cdotaccent" unicode="&#x10b;" horiz-adv-x="551" 
d="M122 42c-28 28 -42 72.3311 -42 132.998v112c0 61.333 14 105.833 42 133.5s72.333 41.167 133 40.5h82c49.333 0 86.333 -8.33301 111 -25s39 -42.667 43 -78v-2c0 -13.333 -7 -20 -21 -20c-12 0 -19 6.66699 -21 20c-2.66699 22.667 -12.667 38.834 -30 48.501
s-44.666 14.5 -81.999 14.5h-82c-49.333 0.666992 -83.833 -8.83301 -103.5 -28.5s-29.5 -54.167 -29.5 -103.5v-112c0 -48.667 10 -83 30 -103s54.333 -30 103 -30h82c37.333 0 64.666 4.83301 81.999 14.5s27.333 25.834 30 48.501c2 13.333 9 20 21 20
c7.33301 0 12.833 -2 16.5 -6s5.16699 -9.33301 4.5 -16c-4 -35.333 -18.333 -61.333 -43 -78s-61.667 -25 -111 -25h-82c-60.667 0 -105 14 -133 42zM258 585.998l-0.000976562 20c0 20 10 30 30 30h20c20 0 30 -10 30 -30v-20c0 -10 -2.66699 -17.667 -8 -23
s-12.666 -8 -21.999 -8h-20c-20 0 -30 10.333 -30 31z" />
    <glyph glyph-name="Ccaron" unicode="&#x10c;" horiz-adv-x="655" 
d="M128.5 48.5c-32.333 32.333 -48.501 83.8301 -48.501 154.497v227c0 71.333 16 123 48 155s83.333 48 154 48h121c61.333 0 106.333 -12.667 135 -38s44.334 -66.333 47.001 -123v-3c0 -12.667 -6.66699 -19 -20 -19s-20.666 7 -21.999 21
c-2 44.667 -13.5 75.834 -34.5 93.501s-56.167 26.5 -105.5 26.5h-121c-40 0 -71.5 -5.16699 -94.5 -15.5s-39.667 -27.166 -50 -50.499s-15.5 -55 -15.5 -95v-227c0 -58.667 12.167 -100.167 36.5 -124.5s65.833 -36.5 124.5 -36.5h120c49.333 0 84.5 8.83301 105.5 26.5
s32.5 48.834 34.5 93.501c1.33301 14 8.66602 21 21.999 21c14.667 0 21.334 -7.33301 20.001 -22c-2.66699 -56.667 -18.334 -97.667 -47.001 -123s-73.667 -38 -135 -38h-120c-70.667 0 -122.167 16.167 -154.5 48.5zM254.999 835.997l100.998 -84h12l101 84
c4.66699 3.33301 9.33398 5 14.001 5c6 0 11 -2 15 -6s6 -9 6 -15c0 -6.66699 -2.66699 -12 -8 -16l-101 -85c-8 -6 -16.667 -9 -26 -9h-14c-9.33301 0 -18 3 -26 9l-101 85c-5.33301 4 -8 9.33301 -8 16c0 6 2 11 6 15s9 6 15 6c4.66699 0 9.33398 -1.66699 14.001 -5z" />
    <glyph glyph-name="ccaron" unicode="&#x10d;" horiz-adv-x="551" 
d="M122 42c-28 28 -42 72.3311 -42 132.998v112c0 61.333 14 105.833 42 133.5s72.333 41.167 133 40.5h82c49.333 0 86.333 -8.33301 111 -25s39 -42.667 43 -78v-2c0 -13.333 -7 -20 -21 -20c-12 0 -19 6.66699 -21 20c-2.66699 22.667 -12.667 38.834 -30 48.501
s-44.666 14.5 -81.999 14.5h-82c-49.333 0.666992 -83.833 -8.83301 -103.5 -28.5s-29.5 -54.167 -29.5 -103.5v-112c0 -48.667 10 -83 30 -103s54.333 -30 103 -30h82c37.333 0 64.666 4.83301 81.999 14.5s27.333 25.834 30 48.501c2 13.333 9 20 21 20
c7.33301 0 12.833 -2 16.5 -6s5.16699 -9.33301 4.5 -16c-4 -35.333 -18.333 -61.333 -43 -78s-61.667 -25 -111 -25h-82c-60.667 0 -105 14 -133 42zM220 659.998l75 -100h6l75 100c4 6 9.66699 9 17 9c6 0 11 -2 15 -6s6 -9 6 -15
c0 -3.33301 -1.33301 -7.66602 -4 -12.999l-78 -104c-6.66699 -8.66699 -15 -13 -25 -13h-18c-10 0 -18.333 4.33301 -25 13l-78 104c-2.66699 5.33301 -4 9.66602 -4 12.999c0 6 2 11 6 15s9 6 15 6c7.33301 0 13 -3 17 -9z" />
    <glyph glyph-name="Dcaron" unicode="&#x10e;" horiz-adv-x="665" 
d="M90 21v591c0 14 7 21 21 21h241c81.333 0 140.5 -18.5 177.5 -55.5s55.5 -96.167 55.5 -177.5v-167c0 -81.333 -18.5 -140.5 -55.5 -177.5s-96.167 -55.5 -177.5 -55.5h-241c-14 0 -21 7 -21 21zM352 42c46.667 0 83.834 6.3291 111.501 18.9961
s47.834 32.834 60.501 60.501s19 64.834 19 111.501v167c0 46.667 -6.33301 83.834 -19 111.501s-32.834 47.834 -60.501 60.501s-64.834 19 -111.501 19h-220v-549h220zM218 835.996l100.998 -84h12l101 84c4.66699 3.33301 9.33398 5 14.001 5c6 0 11 -2 15 -6s6 -9 6 -15
c0 -6.66699 -2.66699 -12 -8 -16l-101 -85c-8 -6 -16.667 -9 -26 -9h-14c-9.33301 0 -18 3 -26 9l-101 85c-5.33301 4 -8 9.33301 -8 16c0 6 2 11 6 15s9 6 15 6c4.66699 0 9.33398 -1.66699 14.001 -5z" />
    <glyph glyph-name="dcaron" unicode="&#x10f;" horiz-adv-x="617" 
d="M512 669v-648c0 -14 -7 -21 -21 -21s-21 7 -21 21v55c-14 -25.333 -35.5 -44.333 -64.5 -57s-66.5 -19 -112.5 -19h-38c-60.667 0 -105 14 -133 42s-42 72.333 -42 133v111c0 61.333 14 105.833 42 133.5s72.333 41.5 133 41.5h215v208c0 14 7 21 21 21s21 -7 21 -21z
M423.5 69.5c31 18.333 46.5 45.5 46.5 81.5v268h-215c-48.667 0 -83 -9.83301 -103 -29.5s-30 -54.167 -30 -103.5v-111c0 -48.667 10 -83 30 -103s54.333 -30 103 -30h38c56 0 99.5 9.16699 130.5 27.5zM656 653c0 -6.66699 -1.66797 -12.332 -5.00098 -16.999l-32 -74
c-4 -8.66699 -9.33301 -13 -16 -13c-4.66699 0 -8.66699 1.66699 -12 5s-4.66602 7.66602 -3.99902 12.999l17 102c0 14 6.66699 21 20 21h13c12.667 0 19 -7.33301 19 -22v-15z" />
    <glyph glyph-name="Dcroat" unicode="&#x110;" horiz-adv-x="665" 
d="M529.5 577.5c37 -37 55.5 -96.167 55.5 -177.5v-167c0 -81.333 -18.5 -140.5 -55.5 -177.5s-96.167 -55.5 -177.5 -55.5h-241c-14 0 -21 7 -21 21v279h-69c-14 0 -21 7 -21 21s7 21 21 21h69v270c0 14 7 21 21 21h241c81.333 0 140.5 -18.5 177.5 -55.5zM543 400
c0 46.667 -6.33301 83.8301 -19 111.497s-32.834 47.834 -60.501 60.501s-64.834 19 -111.501 19h-220v-249h147c14 0 21 -7 21 -21s-7 -21 -21 -21h-147v-258h220c46.667 0 83.834 6.33301 111.501 19s47.834 32.834 60.501 60.501s19 64.834 19 111.501v167z" />
    <glyph glyph-name="dcroat" unicode="&#x111;" 
d="M603 571c0 -14 -7 -21 -21 -21h-70v-529c0 -14 -7 -21 -21 -21s-21 7 -21 21v55c-14 -25.333 -35.5 -44.333 -64.5 -57s-66.5 -19 -112.5 -19h-38c-60.667 0 -105 14 -133 42s-42 72.333 -42 133v111c0 61.333 14 105.833 42 133.5s72.333 41.5 133 41.5h215v89h-146
c-14 0 -21 7 -21 21s7 21 21 21h146v77c0 14 7 21 21 21s21 -7 21 -21v-77h70c14 0 21 -7 21 -21zM423.5 69.5c31 18.333 46.5 45.5 46.5 81.5v268h-215c-48.667 0 -83 -9.83301 -103 -29.5s-30 -54.167 -30 -103.5v-111c0 -48.667 10 -83 30 -103s54.333 -30 103 -30h38
c56 0 99.5 9.16699 130.5 27.5z" />
    <glyph glyph-name="Emacron" unicode="&#x112;" horiz-adv-x="547" 
d="M512 21c0 -14 -7 -21 -21 -21h-380c-14 0 -21 7 -21 21v591c0 14 7 21 21 21h380c14 0 21 -7 21 -21s-7 -21 -21 -21h-359v-249h241c14 0 21 -7 21 -21s-7 -21 -21 -21h-241v-258h359c14 0 21 -7 21 -21zM172 777c0 14 7 21 21 21h253c14 0 21 -7 21 -21s-7 -21 -21 -21
h-253c-14 0 -21 7 -21 21z" />
    <glyph glyph-name="emacron" unicode="&#x113;" horiz-adv-x="592" 
d="M122 215l-0.000976562 -40.999c0 -48.667 10 -82.834 30 -102.501s54.333 -29.5 103 -29.5h82c45.333 0 78 6.16699 98 18.5s31.333 33.5 34 63.5c1.33301 14 8.66602 21 21.999 21c6.66699 0 11.834 -2 15.501 -6s5.16699 -9.33301 4.5 -16
c-3.33301 -42.667 -19.166 -73.834 -47.499 -93.501s-70.5 -29.5 -126.5 -29.5h-82c-60.667 0 -105 13.833 -133 41.5s-42 71.834 -42 132.501v112c0 61.333 14 106 42 134s72.333 41.667 133 41h82c61.333 0 105.833 -13.833 133.5 -41.5s41.5 -72.167 41.5 -133.5v-50
c0 -14 -7 -21 -21 -21h-369zM121.999 257.001h348v29c0 49.333 -9.83301 83.833 -29.5 103.5s-54.167 29.5 -103.5 29.5h-82c-48.667 0.666992 -83 -9 -103 -29s-30 -54.667 -30 -104v-29zM156.999 605.001c0 14 7 21 21 21h253c14 0 21 -7 21 -21s-7 -21 -21 -21h-253
c-14 0 -21 7 -21 21z" />
    <glyph glyph-name="Ebreve" unicode="&#x114;" horiz-adv-x="547" 
d="M512 21c0 -14 -7 -21 -21 -21h-380c-14 0 -21 7 -21 21v591c0 14 7 21 21 21h380c14 0 21 -7 21 -21s-7 -21 -21 -21h-359v-249h241c14 0 21 -7 21 -21s-7 -21 -21 -21h-241v-258h359c14 0 21 -7 21 -21zM227.5 722c-20.333 20.667 -30.501 50.667 -30.501 90v2
c0 14 7 21 21 21s21 -7 21 -21v-2c0 -28 6.33301 -48.333 19 -61s33 -19 61 -19c28.667 0.666992 49.167 7.16699 61.5 19.5s18.5 32.5 18.5 60.5v2c0 14 7 21 21 21s21 -7 21 -21v-2c0 -80.667 -41.333 -121 -124 -121c-39.333 0 -69.166 10.333 -89.499 31z" />
    <glyph glyph-name="ebreve" unicode="&#x115;" horiz-adv-x="592" 
d="M122 215l-0.000976562 -40.999c0 -48.667 10 -82.834 30 -102.501s54.333 -29.5 103 -29.5h82c45.333 0 78 6.16699 98 18.5s31.333 33.5 34 63.5c1.33301 14 8.66602 21 21.999 21c6.66699 0 11.834 -2 15.501 -6s5.16699 -9.33301 4.5 -16
c-3.33301 -42.667 -19.166 -73.834 -47.499 -93.501s-70.5 -29.5 -126.5 -29.5h-82c-60.667 0 -105 13.833 -133 41.5s-42 71.834 -42 132.501v112c0 61.333 14 106 42 134s72.333 41.667 133 41h82c61.333 0 105.833 -13.833 133.5 -41.5s41.5 -72.167 41.5 -133.5v-50
c0 -14 -7 -21 -21 -21h-369zM121.999 257.001h348v29c0 49.333 -9.83301 83.833 -29.5 103.5s-54.167 29.5 -103.5 29.5h-82c-48.667 0.666992 -83 -9 -103 -29s-30 -54.667 -30 -104v-29zM212.499 550.001c-20.333 20.667 -30.501 50.667 -30.501 90v2c0 14 7 21 21 21
s21 -7 21 -21v-2c0 -28 6.33301 -48.333 19 -61s33 -19 61 -19c28.667 0.666992 49.167 7.16699 61.5 19.5s18.5 32.5 18.5 60.5v2c0 14 7 21 21 21s21 -7 21 -21v-2c0 -80.667 -41.333 -121 -124 -121c-39.333 0 -69.166 10.333 -89.499 31z" />
    <glyph glyph-name="Edotaccent" unicode="&#x116;" horiz-adv-x="547" 
d="M512 21c0 -14 -7 -21 -21 -21h-380c-14 0 -21 7 -21 21v591c0 14 7 21 21 21h380c14 0 21 -7 21 -21s-7 -21 -21 -21h-359v-249h241c14 0 21 -7 21 -21s-7 -21 -21 -21h-241v-258h359c14 0 21 -7 21 -21zM279 758l-0.000976562 20c0 20 10 30 30 30h20
c20 0 30 -10 30 -30v-20c0 -10 -2.66699 -17.667 -8 -23s-12.666 -8 -21.999 -8h-20c-20 0 -30 10.333 -30 31z" />
    <glyph glyph-name="edotaccent" unicode="&#x117;" horiz-adv-x="592" 
d="M122 215l-0.000976562 -40.999c0 -48.667 10 -82.834 30 -102.501s54.333 -29.5 103 -29.5h82c45.333 0 78 6.16699 98 18.5s31.333 33.5 34 63.5c1.33301 14 8.66602 21 21.999 21c6.66699 0 11.834 -2 15.501 -6s5.16699 -9.33301 4.5 -16
c-3.33301 -42.667 -19.166 -73.834 -47.499 -93.501s-70.5 -29.5 -126.5 -29.5h-82c-60.667 0 -105 13.833 -133 41.5s-42 71.834 -42 132.501v112c0 61.333 14 106 42 134s72.333 41.667 133 41h82c61.333 0 105.833 -13.833 133.5 -41.5s41.5 -72.167 41.5 -133.5v-50
c0 -14 -7 -21 -21 -21h-369zM121.999 257.001h348v29c0 49.333 -9.83301 83.833 -29.5 103.5s-54.167 29.5 -103.5 29.5h-82c-48.667 0.666992 -83 -9 -103 -29s-30 -54.667 -30 -104v-29zM263.999 586.001l-0.000976562 20c0 20 10 30 30 30h20c20 0 30 -10 30 -30v-20
c0 -10 -2.66699 -17.667 -8 -23s-12.666 -8 -21.999 -8h-20c-20 0 -30 10.333 -30 31z" />
    <glyph glyph-name="Eogonek" unicode="&#x118;" horiz-adv-x="547" 
d="M576 -98c4 -4 6 -9.00098 6 -15.001s-2 -11 -6 -15c-12.667 -12.667 -26.834 -22.5 -42.501 -29.5s-31.167 -10.5 -46.5 -10.5c-24.667 0 -45.5 7.5 -62.5 22.5s-25.5 33.833 -25.5 56.5c0 20.667 7.33301 40.334 22 59.001l23 30h-333c-14 0 -21 7 -21 21v591
c0 14 7 21 21 21h380c14 0 21 -7 21 -21s-7 -21 -21 -21h-359v-249h241c14 0 21 -7 21 -21s-7 -21 -21 -21h-241v-258h359c14 0 21 -7 21 -21c0 -11.333 -4.33301 -18 -13 -20l-44 -57c-9.33301 -12.667 -14 -23.667 -14 -33c0 -10.667 4.33301 -19.5 13 -26.5
s19.667 -10.5 33 -10.5c20.667 0 40.334 9.33301 59.001 28c4 4 9 6 15 6s11 -2 15 -6z" />
    <glyph glyph-name="eogonek" unicode="&#x119;" horiz-adv-x="592" 
d="M528 -96c4 -4 6 -9.00195 6 -15.002s-2 -11 -6 -15c-12.667 -12.667 -26.834 -22.5 -42.501 -29.5s-31.167 -10.5 -46.5 -10.5c-24.667 0 -45.5 7.5 -62.5 22.5s-25.5 33.833 -25.5 56.5c0 20.667 7.33301 40.334 22 59.001l25 33c-20 -3.33301 -40.333 -5 -61 -5h-82
c-60.667 0 -105 13.833 -133 41.5s-42 71.834 -42 132.501v112c0 61.333 14 106 42 134s72.333 41.667 133 41h82c61.333 0 105.833 -13.833 133.5 -41.5s41.5 -72.167 41.5 -133.5v-50c0 -14 -7 -21 -21 -21h-369v-41c0 -48.667 10 -82.834 30 -102.501
s54.333 -29.5 103 -29.5h82c28.667 0 51.834 2.33301 69.501 7s31.5 12 41.5 22l5 7l2 2c7.33301 10.667 12 25.334 14 44.001c1.33301 14 8.66602 21 21.999 21c6 0 10.833 -1.66699 14.5 -5s5.5 -8.33301 5.5 -15c0 -24.667 -7.33301 -48 -22 -70l-2 -3l-80 -106
c-9.33301 -12.667 -14 -23.667 -14 -33c0 -10.667 4.33301 -19.5 13 -26.5s19.667 -10.5 33 -10.5c20.667 0 40.334 9.33301 59.001 28c4 4 9 6 15 6s11 -2 15 -6zM122 256.998h348v29c0 49.333 -9.83301 83.833 -29.5 103.5s-54.167 29.5 -103.5 29.5h-82
c-48.667 0.666992 -83 -9 -103 -29s-30 -54.667 -30 -104v-29z" />
    <glyph glyph-name="Ecaron" unicode="&#x11a;" horiz-adv-x="547" 
d="M512 21c0 -14 -7 -21 -21 -21h-380c-14 0 -21 7 -21 21v591c0 14 7 21 21 21h380c14 0 21 -7 21 -21s-7 -21 -21 -21h-359v-249h241c14 0 21 -7 21 -21s-7 -21 -21 -21h-241v-258h359c14 0 21 -7 21 -21zM241 836l100.998 -84h12l101 84
c4.66699 3.33301 9.33398 5 14.001 5c6 0 11 -2 15 -6s6 -9 6 -15c0 -6.66699 -2.66699 -12 -8 -16l-101 -85c-8 -6 -16.667 -9 -26 -9h-14c-9.33301 0 -18 3 -26 9l-101 85c-5.33301 4 -8 9.33301 -8 16c0 6 2 11 6 15s9 6 15 6c4.66699 0 9.33398 -1.66699 14.001 -5z" />
    <glyph glyph-name="ecaron" unicode="&#x11b;" horiz-adv-x="592" 
d="M122 215l-0.000976562 -40.999c0 -48.667 10 -82.834 30 -102.501s54.333 -29.5 103 -29.5h82c45.333 0 78 6.16699 98 18.5s31.333 33.5 34 63.5c1.33301 14 8.66602 21 21.999 21c6.66699 0 11.834 -2 15.501 -6s5.16699 -9.33301 4.5 -16
c-3.33301 -42.667 -19.166 -73.834 -47.499 -93.501s-70.5 -29.5 -126.5 -29.5h-82c-60.667 0 -105 13.833 -133 41.5s-42 71.834 -42 132.501v112c0 61.333 14 106 42 134s72.333 41.667 133 41h82c61.333 0 105.833 -13.833 133.5 -41.5s41.5 -72.167 41.5 -133.5v-50
c0 -14 -7 -21 -21 -21h-369zM121.999 257.001h348v29c0 49.333 -9.83301 83.833 -29.5 103.5s-54.167 29.5 -103.5 29.5h-82c-48.667 0.666992 -83 -9 -103 -29s-30 -54.667 -30 -104v-29zM225.999 660.001l75 -100h6l75 100c4 6 9.66699 9 17 9c6 0 11 -2 15 -6s6 -9 6 -15
c0 -3.33301 -1.33301 -7.66602 -4 -12.999l-78 -104c-6.66699 -8.66699 -15 -13 -25 -13h-18c-10 0 -18.333 4.33301 -25 13l-78 104c-2.66699 5.33301 -4 9.66602 -4 12.999c0 6 2 11 6 15s9 6 15 6c7.33301 0 13 -3 17 -9z" />
    <glyph glyph-name="Gcircumflex" unicode="&#x11c;" horiz-adv-x="656" 
d="M128.5 48.5c-32.333 32.333 -48.501 83.832 -48.501 154.499v227c0 71.333 16 123 48 155s83.333 48 154 48h121c61.333 0 106.333 -12.667 135 -38s44.334 -66.333 47.001 -123v-3c0 -12.667 -6.66699 -19 -20 -19s-20.666 7 -21.999 21
c-2 44.667 -13.5 75.834 -34.5 93.501s-56.167 26.5 -105.5 26.5h-121c-40 0 -71.5 -5.16699 -94.5 -15.5s-39.667 -27.166 -50 -50.499s-15.5 -55 -15.5 -95v-227c0 -58.667 12.167 -100.167 36.5 -124.5s65.833 -36.5 124.5 -36.5h120c36 0 64.167 4.33301 84.5 13
s34.833 23.167 43.5 43.5s13 48.5 13 84.5v68l-120 1c-14 0 -21 7 -21 21s7 21 21 21l141 -1c14 0 21 -7 21 -21v-89c0 -64.667 -14.333 -111.334 -43 -140.001s-75.334 -43 -140.001 -43h-120c-70.667 0 -122.167 16.167 -154.5 48.5zM224.999 695.999c-4 4 -6 9 -6 15
c0 3.33301 1.33301 7.66602 4 12.999l78 104c6.66699 8.66699 15 13 25 13h18c10 0 18.333 -4.33301 25 -13l78 -104c2.66699 -5.33301 4 -9.66602 4 -12.999c0 -6 -2 -11 -6 -15s-9 -6 -15 -6c-7.33301 0 -13 3 -17 9l-75 100h-6l-75 -100c-4 -6 -9.66699 -9 -17 -9
c-6 0 -11 2 -15 6z" />
    <glyph glyph-name="gcircumflex" unicode="&#x11d;" 
d="M512 440l0.00292969 -516.999c0 -42.667 -9.83301 -73.834 -29.5 -93.501s-50.834 -29.5 -93.501 -29.5h-186c-39.333 0 -68.833 8.16699 -88.5 24.5s-30.834 41.833 -33.501 76.5v2c0 6.66699 1.83301 11.667 5.5 15s8.5 5 14.5 5c14 0 21.333 -7 22 -21
c2 -22.667 9 -38.334 21 -47.001s31.667 -13 59 -13h186c31.333 0 52.666 5.66699 63.999 17s17 32.666 17 63.999v152c-28.667 -50 -87.667 -75 -177 -75h-38c-60.667 0 -105 13.833 -133 41.5s-42 71.834 -42 132.501v112c0 61.333 14 106 42 134s72.333 41.667 133 41h82
c35.333 0 63.5 -4.66699 84.5 -14s37.167 -23.666 48.5 -42.999v36c0 14 7 21 21 21s21 -7 21 -21zM423.503 69.501c31 18.333 46.5 45.501 46.5 81.501v156c0 40 -10.5 68.667 -31.5 86s-54.833 26 -101.5 26h-82c-48.667 0.666992 -83 -9 -103 -29s-30 -54.667 -30 -104
v-112c0 -48.667 10 -82.834 30 -102.501s54.333 -29.5 103 -29.5h38c56 0 99.5 9.16699 130.5 27.5zM193.003 524.002c-4 4 -6 9 -6 15c0 3.33301 1.33301 7.66602 4 12.999l78 104c6.66699 8.66699 15 13 25 13h18c10 0 18.333 -4.33301 25 -13l78 -104
c2.66699 -5.33301 4 -9.66602 4 -12.999c0 -6 -2 -11 -6 -15s-9 -6 -15 -6c-7.33301 0 -13 3 -17 9l-75 100h-6l-75 -100c-4 -6 -9.66699 -9 -17 -9c-6 0 -11 2 -15 6z" />
    <glyph glyph-name="Gbreve" unicode="&#x11e;" horiz-adv-x="656" 
d="M128.5 48.5c-32.333 32.333 -48.501 83.832 -48.501 154.499v227c0 71.333 16 123 48 155s83.333 48 154 48h121c61.333 0 106.333 -12.667 135 -38s44.334 -66.333 47.001 -123v-3c0 -12.667 -6.66699 -19 -20 -19s-20.666 7 -21.999 21
c-2 44.667 -13.5 75.834 -34.5 93.501s-56.167 26.5 -105.5 26.5h-121c-40 0 -71.5 -5.16699 -94.5 -15.5s-39.667 -27.166 -50 -50.499s-15.5 -55 -15.5 -95v-227c0 -58.667 12.167 -100.167 36.5 -124.5s65.833 -36.5 124.5 -36.5h120c36 0 64.167 4.33301 84.5 13
s34.833 23.167 43.5 43.5s13 48.5 13 84.5v68l-120 1c-14 0 -21 7 -21 21s7 21 21 21l141 -1c14 0 21 -7 21 -21v-89c0 -64.667 -14.333 -111.334 -43 -140.001s-75.334 -43 -140.001 -43h-120c-70.667 0 -122.167 16.167 -154.5 48.5zM241.499 721.999
c-20.333 20.667 -30.501 50.667 -30.501 90v2c0 14 7 21 21 21s21 -7 21 -21v-2c0 -28 6.33301 -48.333 19 -61s33 -19 61 -19c28.667 0.666992 49.167 7.16699 61.5 19.5s18.5 32.5 18.5 60.5v2c0 14 7 21 21 21s21 -7 21 -21v-2c0 -80.667 -41.333 -121 -124 -121
c-39.333 0 -69.166 10.333 -89.499 31z" />
    <glyph glyph-name="gbreve" unicode="&#x11f;" 
d="M512 440l0.00292969 -516.999c0 -42.667 -9.83301 -73.834 -29.5 -93.501s-50.834 -29.5 -93.501 -29.5h-186c-39.333 0 -68.833 8.16699 -88.5 24.5s-30.834 41.833 -33.501 76.5v2c0 6.66699 1.83301 11.667 5.5 15s8.5 5 14.5 5c14 0 21.333 -7 22 -21
c2 -22.667 9 -38.334 21 -47.001s31.667 -13 59 -13h186c31.333 0 52.666 5.66699 63.999 17s17 32.666 17 63.999v152c-28.667 -50 -87.667 -75 -177 -75h-38c-60.667 0 -105 13.833 -133 41.5s-42 71.834 -42 132.501v112c0 61.333 14 106 42 134s72.333 41.667 133 41h82
c35.333 0 63.5 -4.66699 84.5 -14s37.167 -23.666 48.5 -42.999v36c0 14 7 21 21 21s21 -7 21 -21zM423.503 69.501c31 18.333 46.5 45.501 46.5 81.501v156c0 40 -10.5 68.667 -31.5 86s-54.833 26 -101.5 26h-82c-48.667 0.666992 -83 -9 -103 -29s-30 -54.667 -30 -104
v-112c0 -48.667 10 -82.834 30 -102.501s54.333 -29.5 103 -29.5h38c56 0 99.5 9.16699 130.5 27.5zM209.503 550.002c-20.333 20.667 -30.501 50.667 -30.501 90v2c0 14 7 21 21 21s21 -7 21 -21v-2c0 -28 6.33301 -48.333 19 -61s33 -19 61 -19
c28.667 0.666992 49.167 7.16699 61.5 19.5s18.5 32.5 18.5 60.5v2c0 14 7 21 21 21s21 -7 21 -21v-2c0 -80.667 -41.333 -121 -124 -121c-39.333 0 -69.166 10.333 -89.499 31z" />
    <glyph glyph-name="Gdotaccent" unicode="&#x120;" horiz-adv-x="656" 
d="M128.5 48.5c-32.333 32.333 -48.501 83.832 -48.501 154.499v227c0 71.333 16 123 48 155s83.333 48 154 48h121c61.333 0 106.333 -12.667 135 -38s44.334 -66.333 47.001 -123v-3c0 -12.667 -6.66699 -19 -20 -19s-20.666 7 -21.999 21
c-2 44.667 -13.5 75.834 -34.5 93.501s-56.167 26.5 -105.5 26.5h-121c-40 0 -71.5 -5.16699 -94.5 -15.5s-39.667 -27.166 -50 -50.499s-15.5 -55 -15.5 -95v-227c0 -58.667 12.167 -100.167 36.5 -124.5s65.833 -36.5 124.5 -36.5h120c36 0 64.167 4.33301 84.5 13
s34.833 23.167 43.5 43.5s13 48.5 13 84.5v68l-120 1c-14 0 -21 7 -21 21s7 21 21 21l141 -1c14 0 21 -7 21 -21v-89c0 -64.667 -14.333 -111.334 -43 -140.001s-75.334 -43 -140.001 -43h-120c-70.667 0 -122.167 16.167 -154.5 48.5zM292.999 757.999l-0.000976562 20
c0 20 10 30 30 30h20c20 0 30 -10 30 -30v-20c0 -10 -2.66699 -17.667 -8 -23s-12.666 -8 -21.999 -8h-20c-20 0 -30 10.333 -30 31z" />
    <glyph glyph-name="gdotaccent" unicode="&#x121;" 
d="M512 440l0.00292969 -516.999c0 -42.667 -9.83301 -73.834 -29.5 -93.501s-50.834 -29.5 -93.501 -29.5h-186c-39.333 0 -68.833 8.16699 -88.5 24.5s-30.834 41.833 -33.501 76.5v2c0 6.66699 1.83301 11.667 5.5 15s8.5 5 14.5 5c14 0 21.333 -7 22 -21
c2 -22.667 9 -38.334 21 -47.001s31.667 -13 59 -13h186c31.333 0 52.666 5.66699 63.999 17s17 32.666 17 63.999v152c-28.667 -50 -87.667 -75 -177 -75h-38c-60.667 0 -105 13.833 -133 41.5s-42 71.834 -42 132.501v112c0 61.333 14 106 42 134s72.333 41.667 133 41h82
c35.333 0 63.5 -4.66699 84.5 -14s37.167 -23.666 48.5 -42.999v36c0 14 7 21 21 21s21 -7 21 -21zM423.503 69.501c31 18.333 46.5 45.501 46.5 81.501v156c0 40 -10.5 68.667 -31.5 86s-54.833 26 -101.5 26h-82c-48.667 0.666992 -83 -9 -103 -29s-30 -54.667 -30 -104
v-112c0 -48.667 10 -82.834 30 -102.501s54.333 -29.5 103 -29.5h38c56 0 99.5 9.16699 130.5 27.5zM261.003 586.002l-0.000976562 20c0 20 10 30 30 30h20c20 0 30 -10 30 -30v-20c0 -10 -2.66699 -17.667 -8 -23s-12.666 -8 -21.999 -8h-20c-20 0 -30 10.333 -30 31z" />
    <glyph glyph-name="Gcommaaccent" unicode="&#x122;" horiz-adv-x="656" 
d="M128.5 48.5c-32.333 32.333 -48.501 83.832 -48.501 154.499v227c0 71.333 16 123 48 155s83.333 48 154 48h121c61.333 0 106.333 -12.667 135 -38s44.334 -66.333 47.001 -123v-3c0 -12.667 -6.66699 -19 -20 -19s-20.666 7 -21.999 21
c-2 44.667 -13.5 75.834 -34.5 93.501s-56.167 26.5 -105.5 26.5h-121c-40 0 -71.5 -5.16699 -94.5 -15.5s-39.667 -27.166 -50 -50.499s-15.5 -55 -15.5 -95v-227c0 -58.667 12.167 -100.167 36.5 -124.5s65.833 -36.5 124.5 -36.5h120c36 0 64.167 4.33301 84.5 13
s34.833 23.167 43.5 43.5s13 48.5 13 84.5v68l-120 1c-14 0 -21 7 -21 21s7 21 21 21l141 -1c14 0 21 -7 21 -21v-89c0 -64.667 -14.333 -111.334 -43 -140.001s-75.334 -43 -140.001 -43h-120c-70.667 0 -122.167 16.167 -154.5 48.5zM374.999 -87.001
c0 -8 -2.00195 -14 -6.00195 -18l-33 -75c-4 -8.66699 -9.33301 -13 -16 -13c-5.33301 0 -9.66602 1.66699 -12.999 5s-4.66602 8 -3.99902 14l18 104c0 14 6.66699 21 20 21h14c6 0 10.833 -2 14.5 -6s5.5 -9.33301 5.5 -16v-16z" />
    <glyph glyph-name="gcommaaccent" unicode="&#x123;" 
d="M512 440l0.00292969 -516.999c0 -42.667 -9.83301 -73.834 -29.5 -93.501s-50.834 -29.5 -93.501 -29.5h-186c-39.333 0 -68.833 8.16699 -88.5 24.5s-30.834 41.833 -33.501 76.5v2c0 6.66699 1.83301 11.667 5.5 15s8.5 5 14.5 5c14 0 21.333 -7 22 -21
c2 -22.667 9 -38.334 21 -47.001s31.667 -13 59 -13h186c31.333 0 52.666 5.66699 63.999 17s17 32.666 17 63.999v152c-28.667 -50 -87.667 -75 -177 -75h-38c-60.667 0 -105 13.833 -133 41.5s-42 71.834 -42 132.501v112c0 61.333 14 106 42 134s72.333 41.667 133 41h82
c35.333 0 63.5 -4.66699 84.5 -14s37.167 -23.666 48.5 -42.999v36c0 14 7 21 21 21s21 -7 21 -21zM423.503 69.501c31 18.333 46.5 45.501 46.5 81.501v156c0 40 -10.5 68.667 -31.5 86s-54.833 26 -101.5 26h-82c-48.667 0.666992 -83 -9 -103 -29s-30 -54.667 -30 -104
v-112c0 -48.667 10 -82.834 30 -102.501s54.333 -29.5 103 -29.5h38c56 0 99.5 9.16699 130.5 27.5zM321.003 649.002c3.33301 -3.33301 4.66797 -8 4.00098 -14l-18 -104c0 -14 -6.66699 -21 -20 -21h-14c-6 0 -10.833 2 -14.5 6s-5.5 9.33301 -5.5 16v16c0 8 2 14 6 18
l33 75c4 8.66699 9.33301 13 16 13c5.33301 0 9.66602 -1.66699 12.999 -5z" />
    <glyph glyph-name="Hcircumflex" unicode="&#x124;" horiz-adv-x="687" 
d="M90 21v591c0 14 7 21 21 21s21 -7 21 -21v-270h423v270c0 14 7 21 21 21s21 -7 21 -21v-591c0 -14 -7 -21 -21 -21s-21 7 -21 21v279h-423v-279c0 -14 -7 -21 -21 -21s-21 7 -21 21zM236 696c-4 4 -6 9 -6 15c0 3.33301 1.33301 7.66602 4 12.999l78 104
c6.66699 8.66699 15 13 25 13h18c10 0 18.333 -4.33301 25 -13l78 -104c2.66699 -5.33301 4 -9.66602 4 -12.999c0 -6 -2 -11 -6 -15s-9 -6 -15 -6c-7.33301 0 -13 3 -17 9l-75 100h-6l-75 -100c-4 -6 -9.66699 -9 -17 -9c-6 0 -11 2 -15 6z" />
    <glyph glyph-name="hcircumflex" unicode="&#x125;" 
d="M470.5 420.5c27.667 -27.667 41.501 -72.167 41.501 -133.5v-266c0 -14 -7 -21 -21 -21s-21 7 -21 21v266c0 49.333 -9.83301 83.833 -29.5 103.5s-54.167 29.5 -103.5 29.5h-28c-108.667 0 -167.334 -36.333 -176.001 -109l-1 -6v-284c0 -14 -7 -21 -21 -21
s-21 7 -21 21v648c0 14 7 21 21 21s21 -7 21 -21v-286c30.667 52.667 89.667 79 177 79h28c61.333 0 105.833 -13.833 133.5 -41.5zM6.00098 736c-4 4 -6 9 -6 15c0 3.33301 1.33301 7.66602 4 12.999l78 104c6.66699 8.66699 15 13 25 13h18c10 0 18.333 -4.33301 25 -13
l78 -104c2.66699 -5.33301 4 -9.66602 4 -12.999c0 -6 -2 -11 -6 -15s-9 -6 -15 -6c-7.33301 0 -13 3 -17 9l-75 100h-6l-75 -100c-4 -6 -9.66699 -9 -17 -9c-6 0 -11 2 -15 6z" />
    <glyph glyph-name="Hbar" unicode="&#x126;" horiz-adv-x="687" 
d="M635 460c0 -12 -6 -18 -18 -18h-20v-421c0 -14 -7 -21 -21 -21s-21 7 -21 21v279h-423v-279c0 -14 -7 -21 -21 -21s-21 7 -21 21v421h-18c-12 0 -18 6 -18 18s6 18 18 18h18v134c0 14 7 21 21 21s21 -7 21 -21v-134h423v134c0 14 7 21 21 21s21 -7 21 -21v-134h20
c12 0 18 -6 18 -18zM555 342v100h-423v-100h423z" />
    <glyph glyph-name="hbar" unicode="&#x127;" 
d="M470.5 420.5c27.667 -27.667 41.501 -72.167 41.501 -133.5v-266c0 -14 -7 -21 -21 -21s-21 7 -21 21v266c0 49.333 -9.83301 83.833 -29.5 103.5s-54.167 29.5 -103.5 29.5h-28c-108.667 0 -167.334 -36.333 -176.001 -109l-1 -6v-284c0 -14 -7 -21 -21 -21
s-21 7 -21 21v529h-69c-14 0 -21 7 -21 21s7 21 21 21h69v77c0 14 7 21 21 21s21 -7 21 -21v-77h147c14 0 21 -7 21 -21s-7 -21 -21 -21h-147v-167c30.667 52.667 89.667 79 177 79h28c61.333 0 105.833 -13.833 133.5 -41.5z" />
    <glyph glyph-name="Itilde" unicode="&#x128;" horiz-adv-x="222" 
d="M96 6c-4 4 -6 9 -6 15v592c0 6 2 11 6 15s9 6 15 6s11 -2 15 -6s6 -9 6 -15v-592c0 -6 -2 -11 -6 -15s-9 -6 -15 -6s-11 2 -15 6zM125 731c-8 6 -17.3301 15.001 -27.9971 27.001c-10.667 14.667 -20.334 22 -29.001 22c-8 0 -14.167 -2.83301 -18.5 -8.5
s-10.5 -17.167 -18.5 -34.5c-4.66699 -10 -11.334 -15 -20.001 -15c-8 0 -14 3.33301 -18 10s-4.66699 12.667 -2 18c11.333 25.333 22.666 43.666 33.999 54.999s25.666 17 42.999 17c13.333 0 24.333 -3.16699 33 -9.5s17.334 -15.166 26.001 -26.499
c6 -7.33301 11.333 -12.833 16 -16.5s9.33398 -5.5 14.001 -5.5c7.33301 0 13.5 3.16699 18.5 9.5s10.167 17.5 15.5 33.5c3.33301 10 10 15 20 15c8 0 13.833 -3.16699 17.5 -9.5s4.5 -12.5 2.5 -18.5c-6.66699 -22.667 -16.334 -40.334 -29.001 -53.001
s-27.667 -19 -45 -19c-13.333 0 -24 3 -32 9z" />
    <glyph glyph-name="itilde" unicode="&#x129;" horiz-adv-x="222" 
d="M90 21v419c0 14 7 21 21 21s21 -7 21 -21v-419c0 -14 -7 -21 -21 -21s-21 7 -21 21zM125 559c-8 6 -17.3301 15.001 -27.9971 27.001c-10.667 14.667 -20.334 22 -29.001 22c-8 0 -14.167 -2.83301 -18.5 -8.5s-10.5 -17.167 -18.5 -34.5
c-4.66699 -10 -11.334 -15 -20.001 -15c-8 0 -14 3.33301 -18 10s-4.66699 12.667 -2 18c11.333 25.333 22.666 43.666 33.999 54.999s25.666 17 42.999 17c13.333 0 24.333 -3.16699 33 -9.5s17.334 -15.166 26.001 -26.499c6 -7.33301 11.333 -12.833 16 -16.5
s9.33398 -5.5 14.001 -5.5c7.33301 0 13.5 3.16699 18.5 9.5s10.167 17.5 15.5 33.5c3.33301 10 10 15 20 15c8 0 13.833 -3.16699 17.5 -9.5s4.5 -12.5 2.5 -18.5c-6.66699 -22.667 -16.334 -40.334 -29.001 -53.001s-27.667 -19 -45 -19c-13.333 0 -24 3 -32 9z" />
    <glyph glyph-name="Imacron" unicode="&#x12a;" horiz-adv-x="222" 
d="M96 6c-4 4 -6 9 -6 15v592c0 6 2 11 6 15s9 6 15 6s11 -2 15 -6s6 -9 6 -15v-592c0 -6 -2 -11 -6 -15s-9 -6 -15 -6s-11 2 -15 6zM18 774c0 14 7 21 21 21h143c14 0 21 -7 21 -21s-7 -21 -21 -21h-143c-14 0 -21 7 -21 21z" />
    <glyph glyph-name="imacron" unicode="&#x12b;" horiz-adv-x="222" 
d="M90 21v419c0 14 7 21 21 21s21 -7 21 -21v-419c0 -14 -7 -21 -21 -21s-21 7 -21 21zM18 602c0 14 7 21 21 21h143c14 0 21 -7 21 -21s-7 -21 -21 -21h-143c-14 0 -21 7 -21 21z" />
    <glyph glyph-name="Ibreve" unicode="&#x12c;" horiz-adv-x="222" 
d="M96 6c-4 4 -6 9 -6 15v592c0 6 2 11 6 15s9 6 15 6s11 -2 15 -6s6 -9 6 -15v-592c0 -6 -2 -11 -6 -15s-9 -6 -15 -6s-11 2 -15 6zM19.5 722c-20.333 20.667 -30.501 50.667 -30.501 90v2c0 14 7 21 21 21s21 -7 21 -21v-2c0 -28 6.33301 -48.333 19 -61s33 -19 61 -19
c28.667 0.666992 49.167 7.16699 61.5 19.5s18.5 32.5 18.5 60.5v2c0 14 7 21 21 21s21 -7 21 -21v-2c0 -80.667 -41.333 -121 -124 -121c-39.333 0 -69.166 10.333 -89.499 31z" />
    <glyph glyph-name="ibreve" unicode="&#x12d;" horiz-adv-x="222" 
d="M90 21v419c0 14 7 21 21 21s21 -7 21 -21v-419c0 -14 -7 -21 -21 -21s-21 7 -21 21zM19.5 550c-20.333 20.667 -30.501 50.667 -30.501 90v2c0 14 7 21 21 21s21 -7 21 -21v-2c0 -28 6.33301 -48.333 19 -61s33 -19 61 -19c28.667 0.666992 49.167 7.16699 61.5 19.5
s18.5 32.5 18.5 60.5v2c0 14 7 21 21 21s21 -7 21 -21v-2c0 -80.667 -41.333 -121 -124 -121c-39.333 0 -69.166 10.333 -89.499 31z" />
    <glyph glyph-name="Iogonek" unicode="&#x12e;" horiz-adv-x="222" 
d="M199 -98c4 -4 6 -9.00195 6 -15.002s-2 -11 -6 -15c-12.667 -12.667 -26.834 -22.5 -42.501 -29.5s-31.167 -10.5 -46.5 -10.5c-24.667 0 -45.5 7.5 -62.5 22.5s-25.5 33.833 -25.5 56.5c0 20.667 7.33301 40.334 22 59.001l46 60v583c0 6 2 11 6 15s9 6 15 6
s11 -2 15 -6s6 -9 6 -15v-592c0 -7.33301 -2.66699 -12.666 -8 -15.999l-46 -61c-9.33301 -12.667 -14 -23.667 -14 -33c0 -10.667 4.33301 -19.5 13 -26.5s19.667 -10.5 33 -10.5c20.667 0 40.334 9.33301 59.001 28c4 4 9 6 15 6s11 -2 15 -6z" />
    <glyph glyph-name="iogonek" unicode="&#x12f;" horiz-adv-x="222" 
d="M71 586l-0.000976562 20c0 20 10 30 30 30h20c20 0 30 -10 30 -30v-20c0 -10 -2.66699 -17.667 -8 -23s-12.666 -8 -21.999 -8h-20c-20 0 -30 10.333 -30 31zM198.999 -98c4 -4 6 -9.00195 6 -15.002s-2 -11 -6 -15c-12.667 -12.667 -26.834 -22.5 -42.501 -29.5
s-31.167 -10.5 -46.5 -10.5c-24.667 0 -45.5 7.5 -62.5 22.5s-25.5 33.833 -25.5 56.5c0 20.667 7.33301 40.334 22 59.001l46 60v410c0 14 7 21 21 21s21 -7 21 -21v-419c0 -9.33301 -3 -15.666 -9 -18.999l-45 -58c-9.33301 -12.667 -14 -23.667 -14 -33
c0 -10.667 4.33301 -19.5 13 -26.5s19.667 -10.5 33 -10.5c20.667 0 40.334 9.33301 59.001 28c4 4 9 6 15 6s11 -2 15 -6z" />
    <glyph glyph-name="Idotaccent" unicode="&#x130;" horiz-adv-x="222" 
d="M96 6c-4 4 -6 9 -6 15v592c0 6 2 11 6 15s9 6 15 6s11 -2 15 -6s6 -9 6 -15v-592c0 -6 -2 -11 -6 -15s-9 -6 -15 -6s-11 2 -15 6zM71 758l-0.000976562 20c0 20 10 30 30 30h20c20 0 30 -10 30 -30v-20c0 -10 -2.66699 -17.667 -8 -23s-12.666 -8 -21.999 -8h-20
c-20 0 -30 10.333 -30 31z" />
    <glyph glyph-name="dotlessi" unicode="&#x131;" horiz-adv-x="222" 
d="M90 21v419c0 14 7 21 21 21s21 -7 21 -21v-419c0 -14 -7 -21 -21 -21s-21 7 -21 21z" />
    <glyph glyph-name="Jcircumflex" unicode="&#x134;" horiz-adv-x="494" 
d="M69 38c-28.667 25.333 -44.332 66.335 -46.999 123.002v3c0 12.667 6.66699 19 20 19c14 0 21.333 -7 22 -21c2 -44.667 13.5 -75.834 34.5 -93.501s56.167 -26.5 105.5 -26.5h27c36 0 64.167 4.33301 84.5 13s34.833 23.167 43.5 43.5s13 48.5 13 84.5v429
c0 14 7 21 21 21s21 -7 21 -21v-429c0 -64.667 -14.333 -111.334 -43 -140.001s-75.334 -43 -140.001 -43h-27c-61.333 0 -106.333 12.667 -135 38zM283.002 696.002c-4 4 -6 9 -6 15c0 3.33301 1.33301 7.66602 4 12.999l78 104c6.66699 8.66699 15 13 25 13h18
c10 0 18.333 -4.33301 25 -13l78 -104c2.66699 -5.33301 4 -9.66602 4 -12.999c0 -6 -2 -11 -6 -15s-9 -6 -15 -6c-7.33301 0 -13 3 -17 9l-75 100h-6l-75 -100c-4 -6 -9.66699 -9 -17 -9c-6 0 -11 2 -15 6z" />
    <glyph glyph-name="jcircumflex" unicode="&#x135;" horiz-adv-x="222" 
d="M-15.5 -163.5c4.33301 3.66699 9.83301 5.49805 16.5 5.49805c33.333 0 56.5 6.5 69.5 19.5s19.5 36.167 19.5 69.5v509c0 14 7 21 21 21s21 -7 21 -21v-509c0 -45.333 -10.5 -78.5 -31.5 -99.5s-54.167 -31.5 -99.5 -31.5c-6.66699 0 -12.167 1.83301 -16.5 5.5
s-6.5 8.83398 -6.5 15.501s2.16699 11.834 6.5 15.501zM3 523.998c-4 4 -6 9 -6 15c0 3.33301 1.33301 7.66602 4 12.999l78 104c6.66699 8.66699 15 13 25 13h18c10 0 18.333 -4.33301 25 -13l78 -104c2.66699 -5.33301 4 -9.66602 4 -12.999c0 -6 -2 -11 -6 -15
s-9 -6 -15 -6c-7.33301 0 -13 3 -17 9l-75 100h-6l-75 -100c-4 -6 -9.66699 -9 -17 -9c-6 0 -11 2 -15 6z" />
    <glyph glyph-name="Kcommaaccent" unicode="&#x136;" horiz-adv-x="539" 
d="M519 17c0 -5.33301 -3 -10.666 -9 -15.999c-4.66699 -4 -9.33398 -6 -14.001 -6c-5.33301 0 -10.333 3 -15 9l-265 329l-84 -86v-226c0 -14 -7 -21 -21 -21s-21 7 -21 21v591c0 14 7 21 21 21s21 -7 21 -21v-304l311 318c4.66699 4.66699 9.66699 7 15 7
c4.66699 0 9.33398 -2.33301 14.001 -7c5.33301 -5.33301 8 -10.333 8 -15c0 -4 -2.33301 -9 -7 -15l-228 -233l268 -332c4 -4.66699 6 -9.33398 6 -14.001zM315 -87c0 -8 -2.00195 -14 -6.00195 -18l-33 -75c-4 -8.66699 -9.33301 -13 -16 -13
c-5.33301 0 -9.66602 1.66699 -12.999 5s-4.66602 8 -3.99902 14l18 104c0 14 6.66699 21 20 21h14c6 0 10.833 -2 14.5 -6s5.5 -9.33301 5.5 -16v-16z" />
    <glyph glyph-name="kcommaaccent" unicode="&#x137;" horiz-adv-x="469" 
d="M449 21c0 -4.66699 -2.99902 -9.66699 -8.99902 -15c-4.66699 -4 -9.33398 -6 -14.001 -6s-9.66699 2.66699 -15 8l-209 236l-1 1l-69 -59v-165c0 -14 -7 -21 -21 -21s-21 7 -21 21v648c0 14 7 21 21 21s21 -7 21 -21v-428l259 222c5.33301 4 10 6 14 6
c4.66699 0 9.66699 -2.66699 15 -8c4 -4.66699 6 -9.33398 6 -14.001c0 -5.33301 -2.66699 -10.666 -8 -15.999l-185 -158l1 -1l208 -236c4.66699 -6 7 -11 7 -15zM275.001 -87c0 -8 -2.00195 -14 -6.00195 -18l-33 -75c-4 -8.66699 -9.33301 -13 -16 -13
c-5.33301 0 -9.66602 1.66699 -12.999 5s-4.66602 8 -3.99902 14l18 104c0 14 6.66699 21 20 21h14c6 0 10.833 -2 14.5 -6s5.5 -9.33301 5.5 -16v-16z" />
    <glyph glyph-name="kgreenlandic" unicode="&#x138;" horiz-adv-x="469" 
d="M449 21c0 -4.66699 -2.99902 -9.66699 -8.99902 -15c-4.66699 -4 -9.33398 -6 -14.001 -6s-9.66699 2.66699 -15 8l-209 236l-1 1l-69 -59v-165c0 -14 -7 -21 -21 -21s-21 7 -21 21v419c0 14 7 21 21 21s21 -7 21 -21v-199l259 222c5.33301 4 10 6 14 6
c4.66699 0 9.66699 -2.66699 15 -8c4 -4.66699 6 -9.33398 6 -14.001c0 -5.33301 -2.66699 -10.666 -8 -15.999l-185 -158l1 -1l208 -236c4.66699 -6 7 -11 7 -15z" />
    <glyph glyph-name="Lacute" unicode="&#x139;" horiz-adv-x="486" 
d="M90 21v591c0 14 7 21 21 21s21 -7 21 -21v-570h313c14 0 21 -7 21 -21s-7 -21 -21 -21h-334c-14 0 -21 7 -21 21zM75 711c0 5.33301 1.66602 10 4.99902 14l90 106c4.66699 6 10 9 16 9c5.33301 0 10 -2 14 -6c5.33301 -4.66699 8 -10 8 -16
c0 -5.33301 -1.66699 -10 -5 -14l-90 -106c-5.33301 -6 -10.666 -9 -15.999 -9s-10 2 -14 6c-5.33301 4.66699 -8 10 -8 16z" />
    <glyph glyph-name="lacute" unicode="&#x13a;" horiz-adv-x="274" 
d="M122 31.5c-21.333 21 -32 54.167 -32 99.5v538c0 14 7 21 21 21s21 -7 21 -21v-538c0 -34 6.5 -57.333 19.5 -70s36.5 -19 70.5 -19c14.667 0 22 -7 22 -21s-7 -21 -21 -21c-46 0 -79.667 10.5 -101 31.5zM90 768c0 5.33301 1.66602 10 4.99902 14l90 106
c4.66699 6 10 9 16 9c5.33301 0 10 -2 14 -6c5.33301 -4.66699 8 -10 8 -16c0 -5.33301 -1.66699 -10 -5 -14l-90 -106c-5.33301 -6 -10.666 -9 -15.999 -9s-10 2 -14 6c-5.33301 4.66699 -8 10 -8 16z" />
    <glyph glyph-name="Lcommaaccent" unicode="&#x13b;" horiz-adv-x="486" 
d="M90 21v591c0 14 7 21 21 21s21 -7 21 -21v-570h313c14 0 21 -7 21 -21s-7 -21 -21 -21h-334c-14 0 -21 7 -21 21zM316 -87c0 -8 -2.00195 -14 -6.00195 -18l-33 -75c-4 -8.66699 -9.33301 -13 -16 -13c-5.33301 0 -9.66602 1.66699 -12.999 5s-4.66602 8 -3.99902 14
l18 104c0 14 6.66699 21 20 21h14c6 0 10.833 -2 14.5 -6s5.5 -9.33301 5.5 -16v-16z" />
    <glyph glyph-name="lcommaaccent" unicode="&#x13c;" horiz-adv-x="274" 
d="M122 31.5c-21.333 21 -32 54.167 -32 99.5v538c0 14 7 21 21 21s21 -7 21 -21v-538c0 -34 6.5 -57.333 19.5 -70s36.5 -19 70.5 -19c14.667 0 22 -7 22 -21s-7 -21 -21 -21c-46 0 -79.667 10.5 -101 31.5zM220 -87c0 -8 -2.00195 -14 -6.00195 -18l-33 -75
c-4 -8.66699 -9.33301 -13 -16 -13c-5.33301 0 -9.66602 1.66699 -12.999 5s-4.66602 8 -3.99902 14l18 104c0 14 6.66699 21 20 21h14c6 0 10.833 -2 14.5 -6s5.5 -9.33301 5.5 -16v-16z" />
    <glyph glyph-name="Lcaron" unicode="&#x13d;" horiz-adv-x="486" 
d="M90 21v591c0 14 7 21 21 21s21 -7 21 -21v-570h313c14 0 21 -7 21 -21s-7 -21 -21 -21h-334c-14 0 -21 7 -21 21zM315 606c0 -6.66699 -1.66797 -12.332 -5.00098 -16.999l-32 -74c-4 -8.66699 -9.33301 -13 -16 -13c-4.66699 0 -8.66699 1.66699 -12 5
s-4.66602 7.66602 -3.99902 12.999l17 102c0 14 6.66699 21 20 21h13c12.667 0 19 -7.33301 19 -22v-15z" />
    <glyph glyph-name="lcaron" unicode="&#x13e;" horiz-adv-x="311" 
d="M122 31.5c-21.333 21 -32 54.167 -32 99.5v538c0 14 7 21 21 21s21 -7 21 -21v-538c0 -34 6.5 -57.333 19.5 -70s36.5 -19 70.5 -19c14.667 0 22 -7 22 -21s-7 -21 -21 -21c-46 0 -79.667 10.5 -101 31.5zM280 653c0 -6.66699 -1.66797 -12.332 -5.00098 -16.999l-32 -74
c-4 -8.66699 -9.33301 -13 -16 -13c-4.66699 0 -8.66699 1.66699 -12 5s-4.66602 7.66602 -3.99902 12.999l17 102c0 14 6.66699 21 20 21h13c12.667 0 19 -7.33301 19 -22v-15z" />
    <glyph glyph-name="Ldot" unicode="&#x13f;" horiz-adv-x="486" 
d="M90 21v591c0 14 7 21 21 21s21 -7 21 -21v-570h313c14 0 21 -7 21 -21s-7 -21 -21 -21h-334c-14 0 -21 7 -21 21zM300 332v17c0 16.667 8.33301 25 25 25h17c16.667 0 25 -8.33301 25 -25v-17c0 -17.333 -8.33301 -26 -25 -26h-17c-16.667 0 -25 8.66699 -25 26z" />
    <glyph glyph-name="ldot" unicode="&#x140;" horiz-adv-x="349" 
d="M122 31.5c-21.333 21 -32 54.167 -32 99.5v538c0 14 7 21 21 21s21 -7 21 -21v-538c0 -34 6.5 -57.333 19.5 -70s36.5 -19 70.5 -19c14.667 0 22 -7 22 -21s-7 -21 -21 -21c-46 0 -79.667 10.5 -101 31.5zM232 356v17c0 16.667 8.33301 25 25 25h17
c16.667 0 25 -8.33301 25 -25v-17c0 -17.333 -8.33301 -26 -25 -26h-17c-16.667 0 -25 8.66699 -25 26z" />
    <glyph glyph-name="Lslash" unicode="&#x141;" horiz-adv-x="486" 
d="M466 21c0 -14 -7 -21.001 -21 -21.001h-334c-14 0 -21 7 -21 21v233l-54 -41c-5.33301 -3.33301 -10 -5 -14 -5c-6 0 -11.333 3 -16 9c-3.33301 5.33301 -5 10 -5 14c0 5.33301 3 10.333 9 15l80 61v305c0 14 7 21 21 21s21 -7 21 -21v-273l132 100
c5.33301 3.33301 10 5 14 5c4.66699 0 9.66699 -3 15 -9c4 -4.66699 6 -9 6 -13c0 -5.33301 -3.33301 -10.666 -10 -15.999l-157 -120v-244h313c14 0 21 -7 21 -21z" />
    <glyph glyph-name="lslash" unicode="&#x142;" horiz-adv-x="272" 
d="M244 21c0 -14 -7 -21 -21 -21c-46 0 -79.667 10.5 -101 31.5s-32 54.167 -32 99.5v161l-63 -47c-3.33301 -2.66699 -7.66602 -4 -12.999 -4c-6 0 -11 2 -15 6s-6 9 -6 15c0 7.33301 3 13 9 17l88 66v324c0 14 7 21 21 21s21 -7 21 -21v-292l66 49
c3.33301 2.66699 7.66602 4 12.999 4c6 0 11 -2 15 -6s6 -9 6 -15s-3 -11.667 -9 -17l-91 -68v-193c0 -34 6.5 -57.333 19.5 -70s36.5 -19 70.5 -19c14.667 0 22 -7 22 -21z" />
    <glyph glyph-name="Nacute" unicode="&#x143;" horiz-adv-x="687" 
d="M597 612l-0.000976562 -591c0 -14 -7 -21 -21 -21c-7.33301 0 -14.666 4 -21.999 12l-422 541v-532c0 -14 -7 -21 -21 -21s-21 7 -21 21v591c0 14 7 21 21 21c8 0 15.333 -4 22 -12l422 -541v532c0 14 7 21 21 21s21 -7 21 -21zM316.999 711
c0 5.33301 1.66602 10 4.99902 14l90 106c4.66699 6 10 9 16 9c5.33301 0 10 -2 14 -6c5.33301 -4.66699 8 -10 8 -16c0 -5.33301 -1.66699 -10 -5 -14l-90 -106c-5.33301 -6 -10.666 -9 -15.999 -9s-10 2 -14 6c-5.33301 4.66699 -8 10 -8 16z" />
    <glyph glyph-name="nacute" unicode="&#x144;" 
d="M470.5 419.5c27.667 -27.667 41.501 -72.167 41.501 -133.5v-265c0 -14 -7 -21 -21 -21s-21 7 -21 21v265c0 49.333 -9.83301 83.833 -29.5 103.5s-54.167 29.5 -103.5 29.5h-28c-108.667 0 -167.334 -36.333 -176.001 -109l-1 -6v-283c0 -14 -7 -21 -21 -21
s-21 7 -21 21v419c0 14 7 21 21 21s21 -7 21 -21v-58c30.667 52.667 89.667 79 177 79h28c61.333 0 105.833 -13.833 133.5 -41.5zM286.001 539c0 5.33301 1.66602 10 4.99902 14l90 106c4.66699 6 10 9 16 9c5.33301 0 10 -2 14 -6c5.33301 -4.66699 8 -10 8 -16
c0 -5.33301 -1.66699 -10 -5 -14l-90 -106c-5.33301 -6 -10.666 -9 -15.999 -9s-10 2 -14 6c-5.33301 4.66699 -8 10 -8 16z" />
    <glyph glyph-name="Ncommaaccent" unicode="&#x145;" horiz-adv-x="687" 
d="M597 612l-0.000976562 -591c0 -14 -7 -21 -21 -21c-7.33301 0 -14.666 4 -21.999 12l-422 541v-532c0 -14 -7 -21 -21 -21s-21 7 -21 21v591c0 14 7 21 21 21c8 0 15.333 -4 22 -12l422 -541v532c0 14 7 21 21 21s21 -7 21 -21zM394.999 -87
c0 -8 -2.00195 -14 -6.00195 -18l-33 -75c-4 -8.66699 -9.33301 -13 -16 -13c-5.33301 0 -9.66602 1.66699 -12.999 5s-4.66602 8 -3.99902 14l18 104c0 14 6.66699 21 20 21h14c6 0 10.833 -2 14.5 -6s5.5 -9.33301 5.5 -16v-16z" />
    <glyph glyph-name="ncommaaccent" unicode="&#x146;" 
d="M470.5 419.5c27.667 -27.667 41.501 -72.167 41.501 -133.5v-265c0 -14 -7 -21 -21 -21s-21 7 -21 21v265c0 49.333 -9.83301 83.833 -29.5 103.5s-54.167 29.5 -103.5 29.5h-28c-108.667 0 -167.334 -36.333 -176.001 -109l-1 -6v-283c0 -14 -7 -21 -21 -21
s-21 7 -21 21v419c0 14 7 21 21 21s21 -7 21 -21v-58c30.667 52.667 89.667 79 177 79h28c61.333 0 105.833 -13.833 133.5 -41.5zM374.001 -87c0 -8 -2.00195 -14 -6.00195 -18l-33 -75c-4 -8.66699 -9.33301 -13 -16 -13c-5.33301 0 -9.66602 1.66699 -12.999 5
s-4.66602 8 -3.99902 14l18 104c0 14 6.66699 21 20 21h14c6 0 10.833 -2 14.5 -6s5.5 -9.33301 5.5 -16v-16z" />
    <glyph glyph-name="Ncaron" unicode="&#x147;" horiz-adv-x="687" 
d="M597 612l-0.000976562 -591c0 -14 -7 -21 -21 -21c-7.33301 0 -14.666 4 -21.999 12l-422 541v-532c0 -14 -7 -21 -21 -21s-21 7 -21 21v591c0 14 7 21 21 21c8 0 15.333 -4 22 -12l422 -541v532c0 14 7 21 21 21s21 -7 21 -21zM274.999 836l100.998 -84h12l101 84
c4.66699 3.33301 9.33398 5 14.001 5c6 0 11 -2 15 -6s6 -9 6 -15c0 -6.66699 -2.66699 -12 -8 -16l-101 -85c-8 -6 -16.667 -9 -26 -9h-14c-9.33301 0 -18 3 -26 9l-101 85c-5.33301 4 -8 9.33301 -8 16c0 6 2 11 6 15s9 6 15 6c4.66699 0 9.33398 -1.66699 14.001 -5z" />
    <glyph glyph-name="ncaron" unicode="&#x148;" 
d="M470.5 419.5c27.667 -27.667 41.501 -72.167 41.501 -133.5v-265c0 -14 -7 -21 -21 -21s-21 7 -21 21v265c0 49.333 -9.83301 83.833 -29.5 103.5s-54.167 29.5 -103.5 29.5h-28c-108.667 0 -167.334 -36.333 -176.001 -109l-1 -6v-283c0 -14 -7 -21 -21 -21
s-21 7 -21 21v419c0 14 7 21 21 21s21 -7 21 -21v-58c30.667 52.667 89.667 79 177 79h28c61.333 0 105.833 -13.833 133.5 -41.5zM244.001 660l75 -100h6l75 100c4 6 9.66699 9 17 9c6 0 11 -2 15 -6s6 -9 6 -15c0 -3.33301 -1.33301 -7.66602 -4 -12.999l-78 -104
c-6.66699 -8.66699 -15 -13 -25 -13h-18c-10 0 -18.333 4.33301 -25 13l-78 104c-2.66699 5.33301 -4 9.66602 -4 12.999c0 6 2 11 6 15s9 6 15 6c7.33301 0 13 -3 17 -9z" />
    <glyph glyph-name="Eng" unicode="&#x14a;" horiz-adv-x="687" 
d="M597 612l0.00488281 -688.997c0 -42.667 -9.83301 -73.834 -29.5 -93.501s-50.834 -29.5 -93.501 -29.5h-109c-39.333 0 -68.833 8.16699 -88.5 24.5s-30.834 41.833 -33.501 76.5v2c0 6.66699 1.83301 11.667 5.5 15s8.5 5 14.5 5c14 0 21.333 -7 22 -21
c1.33301 -22.667 8.16602 -38.334 20.499 -47.001s32.166 -13 59.499 -13h109c31.333 0 52.666 5.66699 63.999 17s17 32.666 17 63.999v88l-1 1l-422 541v-532c0 -14 -7 -21 -21 -21s-21 7 -21 21v591c0 14 7 21 21 21c8 0 15.333 -4 22 -12l422 -541v532c0 14 7 21 21 21
s21 -7 21 -21z" />
    <glyph glyph-name="eng" unicode="&#x14b;" horiz-adv-x="592" 
d="M470.5 419.5c27.667 -27.667 41.501 -72.167 41.501 -133.5v-365c0 -42.667 -9.83301 -74 -29.5 -94s-50.834 -30 -93.501 -30h-96c-42.667 0 -73.834 10 -93.501 30s-29.5 51.333 -29.5 94c0 14 7 21 21 21s21 -7 21 -21c0 -31.333 5.83301 -52.833 17.5 -64.5
s32.834 -17.5 63.501 -17.5h96c30.667 0 51.834 5.83301 63.501 17.5s17.5 33.167 17.5 64.5v365c0 49.333 -9.83301 83.833 -29.5 103.5s-54.167 29.5 -103.5 29.5h-28c-108.667 0 -167.334 -36.333 -176.001 -109l-1 -6v-283c0 -14 -7 -21 -21 -21s-21 7 -21 21v419
c0 14 7 21 21 21s21 -7 21 -21v-58c30.667 52.667 89.667 79 177 79h28c61.333 0 105.833 -13.833 133.5 -41.5z" />
    <glyph glyph-name="Omacron" unicode="&#x14c;" horiz-adv-x="686" 
d="M128.5 48.5c-32.333 32.333 -48.5 83.835 -48.5 154.502v227c0 71.333 16 123.166 48 155.499s83.333 48.166 154 47.499h121c71.333 0 123 -16 155 -48s48 -83.667 48 -155v-227c0 -70.667 -16 -122.167 -48 -154.5s-83.667 -48.5 -155 -48.5h-120
c-70.667 0 -122.167 16.167 -154.5 48.5zM403 42.002c59.333 0 101 12.165 125 36.498s36 65.833 36 124.5v227c0 59.333 -12 101 -36 125s-65.667 36 -125 36h-121c-58.667 0.666992 -100 -11.166 -124 -35.499s-36 -66.166 -36 -125.499v-227
c0 -58.667 12.167 -100.167 36.5 -124.5s65.833 -36.5 124.5 -36.5h120zM196 777c0 14 7 21 21 21h253c14 0 21 -7 21 -21s-7 -21 -21 -21h-253c-14 0 -21 7 -21 21z" />
    <glyph glyph-name="omacron" unicode="&#x14d;" horiz-adv-x="592" 
d="M122 41.5c-28 27.667 -42 71.833 -42 132.5v112c0 61.333 14 106 42 134s72.333 41.667 133 41h82c61.333 0 105.833 -13.833 133.5 -41.5s41.5 -72.167 41.5 -133.5v-111c0 -60.667 -13.833 -105 -41.5 -133s-72.167 -42 -133.5 -42h-82
c-60.667 -0 -105 13.833 -133 41.5zM337 41.999c49.333 0 83.833 10.001 103.5 30.001s29.5 54.333 29.5 103v111c0 49.333 -9.83301 83.833 -29.5 103.5s-54.167 29.5 -103.5 29.5h-82c-48.667 0.666992 -83 -9 -103 -29s-30 -54.667 -30 -104v-112
c0 -48.667 10 -82.834 30 -102.501s54.333 -29.5 103 -29.5h82zM149 605c0 14 7 21 21 21h253c14 0 21 -7 21 -21s-7 -21 -21 -21h-253c-14 0 -21 7 -21 21z" />
    <glyph glyph-name="Obreve" unicode="&#x14e;" horiz-adv-x="686" 
d="M128.5 48.5c-32.333 32.333 -48.5 83.835 -48.5 154.502v227c0 71.333 16 123.166 48 155.499s83.333 48.166 154 47.499h121c71.333 0 123 -16 155 -48s48 -83.667 48 -155v-227c0 -70.667 -16 -122.167 -48 -154.5s-83.667 -48.5 -155 -48.5h-120
c-70.667 0 -122.167 16.167 -154.5 48.5zM403 42.002c59.333 0 101 12.165 125 36.498s36 65.833 36 124.5v227c0 59.333 -12 101 -36 125s-65.667 36 -125 36h-121c-58.667 0.666992 -100 -11.166 -124 -35.499s-36 -66.166 -36 -125.499v-227
c0 -58.667 12.167 -100.167 36.5 -124.5s65.833 -36.5 124.5 -36.5h120zM251.5 722c-20.333 20.667 -30.501 50.667 -30.501 90v2c0 14 7 21 21 21s21 -7 21 -21v-2c0 -28 6.33301 -48.333 19 -61s33 -19 61 -19c28.667 0.666992 49.167 7.16699 61.5 19.5
s18.5 32.5 18.5 60.5v2c0 14 7 21 21 21s21 -7 21 -21v-2c0 -80.667 -41.333 -121 -124 -121c-39.333 0 -69.166 10.333 -89.499 31z" />
    <glyph glyph-name="obreve" unicode="&#x14f;" horiz-adv-x="592" 
d="M122 41.5c-28 27.667 -42 71.833 -42 132.5v112c0 61.333 14 106 42 134s72.333 41.667 133 41h82c61.333 0 105.833 -13.833 133.5 -41.5s41.5 -72.167 41.5 -133.5v-111c0 -60.667 -13.833 -105 -41.5 -133s-72.167 -42 -133.5 -42h-82
c-60.667 -0 -105 13.833 -133 41.5zM337 41.999c49.333 0 83.833 10.001 103.5 30.001s29.5 54.333 29.5 103v111c0 49.333 -9.83301 83.833 -29.5 103.5s-54.167 29.5 -103.5 29.5h-82c-48.667 0.666992 -83 -9 -103 -29s-30 -54.667 -30 -104v-112
c0 -48.667 10 -82.834 30 -102.501s54.333 -29.5 103 -29.5h82zM204.5 550c-20.333 20.667 -30.501 50.667 -30.501 90v2c0 14 7 21 21 21s21 -7 21 -21v-2c0 -28 6.33301 -48.333 19 -61s33 -19 61 -19c28.667 0.666992 49.167 7.16699 61.5 19.5s18.5 32.5 18.5 60.5v2
c0 14 7 21 21 21s21 -7 21 -21v-2c0 -80.667 -41.333 -121 -124 -121c-39.333 0 -69.166 10.333 -89.499 31z" />
    <glyph glyph-name="Ohungarumlaut" unicode="&#x150;" horiz-adv-x="686" 
d="M128.5 48.5c-32.333 32.333 -48.5 83.835 -48.5 154.502v227c0 71.333 16 123.166 48 155.499s83.333 48.166 154 47.499h121c71.333 0 123 -16 155 -48s48 -83.667 48 -155v-227c0 -70.667 -16 -122.167 -48 -154.5s-83.667 -48.5 -155 -48.5h-120
c-70.667 0 -122.167 16.167 -154.5 48.5zM403 42.002c59.333 0 101 12.165 125 36.498s36 65.833 36 124.5v227c0 59.333 -12 101 -36 125s-65.667 36 -125 36h-121c-58.667 0.666992 -100 -11.166 -124 -35.499s-36 -66.166 -36 -125.499v-227
c0 -58.667 12.167 -100.167 36.5 -124.5s65.833 -36.5 124.5 -36.5h120zM266 711c0 5.33301 1.66797 10 5.00098 14l90 106c5.33301 6 10.666 9 15.999 9s10 -2 14 -6c5.33301 -4.66699 8 -10 8 -16c0 -5.33301 -1.66699 -10 -5 -14l-90 -106c-4.66699 -6 -10 -9 -16 -9
c-5.33301 0 -10 2 -14 6c-5.33301 4.66699 -8 10 -8 16zM366.001 711c0 5.33301 1.66797 10 5.00098 14l90 106c5.33301 6 10.666 9 15.999 9s10 -2 14 -6c5.33301 -4.66699 8 -10 8 -16c0 -5.33301 -1.66699 -10 -5 -14l-90 -106c-4.66699 -6 -10 -9 -16 -9
c-5.33301 0 -10 2 -14 6c-5.33301 4.66699 -8 10 -8 16z" />
    <glyph glyph-name="ohungarumlaut" unicode="&#x151;" horiz-adv-x="592" 
d="M122 41.5c-28 27.667 -42 71.833 -42 132.5v112c0 61.333 14 106 42 134s72.333 41.667 133 41h82c61.333 0 105.833 -13.833 133.5 -41.5s41.5 -72.167 41.5 -133.5v-111c0 -60.667 -13.833 -105 -41.5 -133s-72.167 -42 -133.5 -42h-82
c-60.667 -0 -105 13.833 -133 41.5zM337 41.999c49.333 0 83.833 10.001 103.5 30.001s29.5 54.333 29.5 103v111c0 49.333 -9.83301 83.833 -29.5 103.5s-54.167 29.5 -103.5 29.5h-82c-48.667 0.666992 -83 -9 -103 -29s-30 -54.667 -30 -104v-112
c0 -48.667 10 -82.834 30 -102.501s54.333 -29.5 103 -29.5h82zM219 539c0 5.33301 1.66797 10 5.00098 14l90 106c5.33301 6 10.666 9 15.999 9s10 -2 14 -6c5.33301 -4.66699 8 -10 8 -16c0 -5.33301 -1.66699 -10 -5 -14l-90 -106c-4.66699 -6 -10 -9 -16 -9
c-5.33301 0 -10 2 -14 6c-5.33301 4.66699 -8 10 -8 16zM319.001 539c0 5.33301 1.66797 10 5.00098 14l90 106c5.33301 6 10.666 9 15.999 9s10 -2 14 -6c5.33301 -4.66699 8 -10 8 -16c0 -5.33301 -1.66699 -10 -5 -14l-90 -106c-4.66699 -6 -10 -9 -16 -9
c-5.33301 0 -10 2 -14 6c-5.33301 4.66699 -8 10 -8 16z" />
    <glyph glyph-name="OE" unicode="&#x152;" horiz-adv-x="808" 
d="M773 21c0 -14 -7 -21 -21 -21h-469c-70.667 0 -122.167 16.167 -154.5 48.5s-48.5 83.833 -48.5 154.5v227c0 71.333 16 123 48 155s83.333 48 154 48h470c14 0 21 -7 21 -21s-7 -21 -21 -21h-289v-249h171c14 0 21 -7 21 -21s-7 -21 -21 -21h-171v-258h289
c14 0 21 -7 21 -21zM158.5 78.5c24.333 -24.333 65.833 -36.501 124.5 -36.501h138v549h-139c-40 0 -71.5 -5.16699 -94.5 -15.5s-39.667 -27.166 -50 -50.499s-15.5 -55 -15.5 -95v-227c0 -58.667 12.167 -100.167 36.5 -124.5z" />
    <glyph glyph-name="oe" unicode="&#x153;" horiz-adv-x="922" 
d="M122 42.5c-28 27.667 -42.001 71.833 -42.001 132.5v112c0 61.333 14 106 42 134s72.333 41.667 133 41h52c39.333 0 71.666 -5.66699 96.999 -17s44.333 -29 57 -53c12.667 24.667 31.334 42.667 56.001 54s56 16.666 94 15.999h60c59.333 0 102.666 -16 129.999 -48
s41 -82.667 41 -152c0 -14 -7 -21 -21 -21h-339v-63c0 -49.333 9.66699 -84.166 29 -104.499s52.333 -30.5 99 -30.5h61c48 0 81.5 7 100.5 21s28.5 38.333 28.5 73c0 6 2 11 6 15s9 6 15 6s11 -2 15 -6s6 -9 6 -15c0 -47.333 -13.667 -81.833 -41 -103.5
s-70.666 -32.5 -129.999 -32.5h-61c-75.333 0 -125 23.333 -149 70c-12.667 -24 -31.667 -41.667 -57 -53s-57.666 -17 -96.999 -17h-52c-60.667 0 -105 13.833 -133 41.5zM306.999 42.999c49.333 0 83.833 10.001 103.5 30.001s29.5 54.333 29.5 103v111
c0 49.333 -9.83301 83.833 -29.5 103.5s-54.167 29.5 -103.5 29.5h-52c-48.667 0.666992 -83 -9 -103 -29s-30 -54.667 -30 -104v-112c0 -48.667 10 -82.834 30 -102.501s54.333 -29.5 103 -29.5h52zM799.999 283c-2.66699 50.667 -13.666 86.168 -32.999 106.501
s-51.333 30.5 -96 30.5h-60c-48.667 0.666992 -82.334 -9.33301 -101.001 -30s-28 -56.334 -28 -107.001h318z" />
    <glyph glyph-name="Racute" unicode="&#x154;" horiz-adv-x="582" 
d="M537 15c0 -6.66699 -3.66602 -12.0029 -10.999 -16.0029c-4.66699 -2.66699 -9 -4 -13 -4c-6.66699 0 -12 3.33301 -16 10l-167 262h-198v-246c0 -14 -7 -21 -21 -21s-21 7 -21 21v591c0 14 7 21 21 21h234c55.333 0 97.166 -14.167 125.499 -42.5
s42.5 -70.166 42.5 -125.499v-30c0 -99.333 -44.667 -154.666 -134 -165.999l153 -241c3.33301 -5.33301 5 -9.66602 5 -12.999zM132.001 308.997l213 0.00195312c43.333 0 75.166 10.167 95.499 30.5s30.5 52.166 30.5 95.499v30c0 43.333 -10.167 75.166 -30.5 95.499
s-52.166 30.5 -95.499 30.5h-213v-282zM255.001 710.999c0 5.33301 1.66602 10 4.99902 14l90 106c4.66699 6 10 9 16 9c5.33301 0 10 -2 14 -6c5.33301 -4.66699 8 -10 8 -16c0 -5.33301 -1.66699 -10 -5 -14l-90 -106c-5.33301 -6 -10.666 -9 -15.999 -9s-10 2 -14 6
c-5.33301 4.66699 -8 10 -8 16z" />
    <glyph glyph-name="racute" unicode="&#x155;" horiz-adv-x="360" 
d="M350 440c0 -14 -7 -20.999 -21 -20.999c-60 0 -106.833 -14.333 -140.5 -43s-52.167 -70.334 -55.5 -125.001c0 -2.66699 -0.333008 -4.66699 -1 -6v-224c0 -14 -7 -21 -21 -21s-21 7 -21 21v419c0 14 7 21 21 21s21 -7 21 -21v-94c16.667 37.333 41.667 65.833 75 85.5
s74 29.5 122 29.5c14 0 21 -7 21 -21zM182 539.001c0 5.33301 1.66602 10 4.99902 14l90 106c4.66699 6 10 9 16 9c5.33301 0 10 -2 14 -6c5.33301 -4.66699 8 -10 8 -16c0 -5.33301 -1.66699 -10 -5 -14l-90 -106c-5.33301 -6 -10.666 -9 -15.999 -9s-10 2 -14 6
c-5.33301 4.66699 -8 10 -8 16z" />
    <glyph glyph-name="Rcommaaccent" unicode="&#x156;" horiz-adv-x="582" 
d="M537 15c0 -6.66699 -3.66602 -12.0029 -10.999 -16.0029c-4.66699 -2.66699 -9 -4 -13 -4c-6.66699 0 -12 3.33301 -16 10l-167 262h-198v-246c0 -14 -7 -21 -21 -21s-21 7 -21 21v591c0 14 7 21 21 21h234c55.333 0 97.166 -14.167 125.499 -42.5
s42.5 -70.166 42.5 -125.499v-30c0 -99.333 -44.667 -154.666 -134 -165.999l153 -241c3.33301 -5.33301 5 -9.66602 5 -12.999zM132.001 308.997l213 0.00195312c43.333 0 75.166 10.167 95.499 30.5s30.5 52.166 30.5 95.499v30c0 43.333 -10.167 75.166 -30.5 95.499
s-52.166 30.5 -95.499 30.5h-213v-282zM333.001 -87.001c0 -8 -2.00195 -14 -6.00195 -18l-33 -75c-4 -8.66699 -9.33301 -13 -16 -13c-5.33301 0 -9.66602 1.66699 -12.999 5s-4.66602 8 -3.99902 14l18 104c0 14 6.66699 21 20 21h14c6 0 10.833 -2 14.5 -6
s5.5 -9.33301 5.5 -16v-16z" />
    <glyph glyph-name="rcommaaccent" unicode="&#x157;" horiz-adv-x="360" 
d="M350 440c0 -14 -7 -20.999 -21 -20.999c-60 0 -106.833 -14.333 -140.5 -43s-52.167 -70.334 -55.5 -125.001c0 -2.66699 -0.333008 -4.66699 -1 -6v-224c0 -14 -7 -21 -21 -21s-21 7 -21 21v419c0 14 7 21 21 21s21 -7 21 -21v-94c16.667 37.333 41.667 65.833 75 85.5
s74 29.5 122 29.5c14 0 21 -7 21 -21zM154 -87.999c0 -8 -2.00195 -14 -6.00195 -18l-33 -75c-4 -8.66699 -9.33301 -13 -16 -13c-5.33301 0 -9.66602 1.66699 -12.999 5s-4.66602 8 -3.99902 14l18 104c0 14 6.66699 21 20 21h14c6 0 10.833 -2 14.5 -6
s5.5 -9.33301 5.5 -16v-16z" />
    <glyph glyph-name="Rcaron" unicode="&#x158;" horiz-adv-x="582" 
d="M537 15c0 -6.66699 -3.66602 -12.0029 -10.999 -16.0029c-4.66699 -2.66699 -9 -4 -13 -4c-6.66699 0 -12 3.33301 -16 10l-167 262h-198v-246c0 -14 -7 -21 -21 -21s-21 7 -21 21v591c0 14 7 21 21 21h234c55.333 0 97.166 -14.167 125.499 -42.5
s42.5 -70.166 42.5 -125.499v-30c0 -99.333 -44.667 -154.666 -134 -165.999l153 -241c3.33301 -5.33301 5 -9.66602 5 -12.999zM132.001 308.997l213 0.00195312c43.333 0 75.166 10.167 95.499 30.5s30.5 52.166 30.5 95.499v30c0 43.333 -10.167 75.166 -30.5 95.499
s-52.166 30.5 -95.499 30.5h-213v-282zM213.001 835.999l100.998 -84h12l101 84c4.66699 3.33301 9.33398 5 14.001 5c6 0 11 -2 15 -6s6 -9 6 -15c0 -6.66699 -2.66699 -12 -8 -16l-101 -85c-8 -6 -16.667 -9 -26 -9h-14c-9.33301 0 -18 3 -26 9l-101 85
c-5.33301 4 -8 9.33301 -8 16c0 6 2 11 6 15s9 6 15 6c4.66699 0 9.33398 -1.66699 14.001 -5z" />
    <glyph glyph-name="rcaron" unicode="&#x159;" horiz-adv-x="360" 
d="M350 440c0 -14 -7 -20.999 -21 -20.999c-60 0 -106.833 -14.333 -140.5 -43s-52.167 -70.334 -55.5 -125.001c0 -2.66699 -0.333008 -4.66699 -1 -6v-224c0 -14 -7 -21 -21 -21s-21 7 -21 21v419c0 14 7 21 21 21s21 -7 21 -21v-94c16.667 37.333 41.667 65.833 75 85.5
s74 29.5 122 29.5c14 0 21 -7 21 -21zM140 660.001l75 -100h6l75 100c4 6 9.66699 9 17 9c6 0 11 -2 15 -6s6 -9 6 -15c0 -3.33301 -1.33301 -7.66602 -4 -12.999l-78 -104c-6.66699 -8.66699 -15 -13 -25 -13h-18c-10 0 -18.333 4.33301 -25 13l-78 104
c-2.66699 5.33301 -4 9.66602 -4 12.999c0 6 2 11 6 15s9 6 15 6c7.33301 0 13 -3 17 -9z" />
    <glyph glyph-name="Sacute" unicode="&#x15a;" horiz-adv-x="652" 
d="M121.5 42.5c-27.667 27.667 -41.5 71.5 -41.5 131.5c0 6 2 11 6 15s9 6 15 6s11 -2 15 -6s6 -9 6 -15c0 -48.667 9.83301 -82.667 29.5 -102s53.834 -29 102.501 -29h144c48.667 0 82.834 9.66699 102.501 29s29.5 53.333 29.5 102s-9.83301 82.667 -29.5 102
s-53.834 29 -102.501 29h-141c-57.333 0 -99.166 13 -125.499 39s-39.5 67.667 -39.5 125s13.167 99 39.5 125s67.833 39 124.5 39h147c56.667 0 98.167 -13 124.5 -39s39.5 -67.333 39.5 -124c0 -6 -2 -11 -6 -15s-9 -6 -15 -6s-11 2 -15 6s-6 9 -6 15
c0 44.667 -9.16699 76 -27.5 94s-49.833 27 -94.5 27h-147c-44.667 0 -76.167 -9 -94.5 -27s-27.5 -49.667 -27.5 -95s9.16699 -77 27.5 -95s50.166 -27 95.499 -27h141c60.667 0 104.834 -13.833 132.501 -41.5s41.5 -71.5 41.5 -131.5s-13.833 -103.833 -41.5 -131.5
s-71.834 -41.5 -132.501 -41.5h-144c-60.667 0 -104.834 13.833 -132.501 41.5zM290 711c0 5.33301 1.66602 10 4.99902 14l90 106c4.66699 6 10 9 16 9c5.33301 0 10 -2 14 -6c5.33301 -4.66699 8 -10 8 -16c0 -5.33301 -1.66699 -10 -5 -14l-90 -106
c-5.33301 -6 -10.666 -9 -15.999 -9s-10 2 -14 6c-5.33301 4.66699 -8 10 -8 16z" />
    <glyph glyph-name="sacute" unicode="&#x15b;" horiz-adv-x="541" 
d="M96 27c-20.667 17.333 -32.666 44.333 -35.999 81v2c0 13.333 7 20 21 20c13.333 0 20.333 -7 21 -21c2.66699 -24 10.5 -41 23.5 -51s33.833 -15 62.5 -15h164c32.667 0 55.334 6.33301 68.001 19s19 35.334 19 68.001s-6.33301 55.334 -19 68.001
s-35.334 19 -68.001 19h-162c-42 0 -73 9.83301 -93 29.5s-30 50.5 -30 92.5c0 42.667 10 73.834 30 93.501s51 29.5 93 29.5h157c38 0 67 -8.16699 87 -24.5s31.333 -41.5 34 -75.5v-4c0 -12 -6.66699 -18 -20 -18c-12.667 0 -20 7 -22 21c-2 22 -9 37.333 -21 46
s-31.333 13 -58 13h-157c-30.667 0 -51.834 -5.83301 -63.501 -17.5s-17.5 -32.834 -17.5 -63.501c0 -30 5.83301 -50.833 17.5 -62.5s32.834 -17.5 63.501 -17.5h162c44.667 0 77.334 -10.333 98.001 -31s31 -53.334 31 -98.001s-10.333 -77.334 -31 -98.001
s-53.334 -31 -98.001 -31h-164c-40.667 0 -71.334 8.66699 -92.001 26zM230.001 539c0 5.33301 1.66602 10 4.99902 14l90 106c4.66699 6 10 9 16 9c5.33301 0 10 -2 14 -6c5.33301 -4.66699 8 -10 8 -16c0 -5.33301 -1.66699 -10 -5 -14l-90 -106
c-5.33301 -6 -10.666 -9 -15.999 -9s-10 2 -14 6c-5.33301 4.66699 -8 10 -8 16z" />
    <glyph glyph-name="Scircumflex" unicode="&#x15c;" horiz-adv-x="652" 
d="M121.5 42.5c-27.667 27.667 -41.5 71.5 -41.5 131.5c0 6 2 11 6 15s9 6 15 6s11 -2 15 -6s6 -9 6 -15c0 -48.667 9.83301 -82.667 29.5 -102s53.834 -29 102.501 -29h144c48.667 0 82.834 9.66699 102.501 29s29.5 53.333 29.5 102s-9.83301 82.667 -29.5 102
s-53.834 29 -102.501 29h-141c-57.333 0 -99.166 13 -125.499 39s-39.5 67.667 -39.5 125s13.167 99 39.5 125s67.833 39 124.5 39h147c56.667 0 98.167 -13 124.5 -39s39.5 -67.333 39.5 -124c0 -6 -2 -11 -6 -15s-9 -6 -15 -6s-11 2 -15 6s-6 9 -6 15
c0 44.667 -9.16699 76 -27.5 94s-49.833 27 -94.5 27h-147c-44.667 0 -76.167 -9 -94.5 -27s-27.5 -49.667 -27.5 -95s9.16699 -77 27.5 -95s50.166 -27 95.499 -27h141c60.667 0 104.834 -13.833 132.501 -41.5s41.5 -71.5 41.5 -131.5s-13.833 -103.833 -41.5 -131.5
s-71.834 -41.5 -132.501 -41.5h-144c-60.667 0 -104.834 13.833 -132.501 41.5zM218 696c-4 4 -6 9 -6 15c0 3.33301 1.33301 7.66602 4 12.999l78 104c6.66699 8.66699 15 13 25 13h18c10 0 18.333 -4.33301 25 -13l78 -104c2.66699 -5.33301 4 -9.66602 4 -12.999
c0 -6 -2 -11 -6 -15s-9 -6 -15 -6c-7.33301 0 -13 3 -17 9l-75 100h-6l-75 -100c-4 -6 -9.66699 -9 -17 -9c-6 0 -11 2 -15 6z" />
    <glyph glyph-name="scircumflex" unicode="&#x15d;" horiz-adv-x="541" 
d="M96 27c-20.667 17.333 -32.666 44.333 -35.999 81v2c0 13.333 7 20 21 20c13.333 0 20.333 -7 21 -21c2.66699 -24 10.5 -41 23.5 -51s33.833 -15 62.5 -15h164c32.667 0 55.334 6.33301 68.001 19s19 35.334 19 68.001s-6.33301 55.334 -19 68.001
s-35.334 19 -68.001 19h-162c-42 0 -73 9.83301 -93 29.5s-30 50.5 -30 92.5c0 42.667 10 73.834 30 93.501s51 29.5 93 29.5h157c38 0 67 -8.16699 87 -24.5s31.333 -41.5 34 -75.5v-4c0 -12 -6.66699 -18 -20 -18c-12.667 0 -20 7 -22 21c-2 22 -9 37.333 -21 46
s-31.333 13 -58 13h-157c-30.667 0 -51.834 -5.83301 -63.501 -17.5s-17.5 -32.834 -17.5 -63.501c0 -30 5.83301 -50.833 17.5 -62.5s32.834 -17.5 63.501 -17.5h162c44.667 0 77.334 -10.333 98.001 -31s31 -53.334 31 -98.001s-10.333 -77.334 -31 -98.001
s-53.334 -31 -98.001 -31h-164c-40.667 0 -71.334 8.66699 -92.001 26zM158.001 524c-4 4 -6 9 -6 15c0 3.33301 1.33301 7.66602 4 12.999l78 104c6.66699 8.66699 15 13 25 13h18c10 0 18.333 -4.33301 25 -13l78 -104c2.66699 -5.33301 4 -9.66602 4 -12.999
c0 -6 -2 -11 -6 -15s-9 -6 -15 -6c-7.33301 0 -13 3 -17 9l-75 100h-6l-75 -100c-4 -6 -9.66699 -9 -17 -9c-6 0 -11 2 -15 6z" />
    <glyph glyph-name="Scedilla" unicode="&#x15e;" horiz-adv-x="652" 
d="M530.5 42.5c-27.667 -27.667 -71.833 -41.501 -132.5 -41.501h-29c3.33301 -9.33301 12 -18.333 26 -27c13.333 -8.66699 24.166 -18.167 32.499 -28.5s12.5 -24.5 12.5 -42.5c0 -35.333 -8.33301 -61.333 -25 -78s-42.667 -25 -78 -25c-55.333 0 -83 27.667 -83 83
c0 14 7 21 21 21s21 -7 21 -21c0 -16 2.83301 -26.833 8.5 -32.5s16.5 -8.5 32.5 -8.5c23.333 0 39.333 4.33301 48 13s13 24.667 13 48c0 7.33301 -1.66699 13.333 -5 18s-10.333 10.667 -21 18c-12.667 9.33301 -23 18.333 -31 27s-13 20.334 -15 35.001h-72
c-60.667 0 -104.834 13.833 -132.501 41.5s-41.5 71.5 -41.5 131.5c0 6 2 11 6 15s9 6 15 6s11 -2 15 -6s6 -9 6 -15c0 -48.667 9.83301 -82.667 29.5 -102s53.834 -29 102.501 -29h144c48.667 0 82.834 9.66699 102.501 29s29.5 53.333 29.5 102s-9.83301 82.667 -29.5 102
s-53.834 29 -102.501 29h-141c-57.333 0 -99.166 13 -125.499 39s-39.5 67.667 -39.5 125s13.167 99 39.5 125s67.833 39 124.5 39h147c56.667 0 98.167 -13 124.5 -39s39.5 -67.333 39.5 -124c0 -6 -2 -11 -6 -15s-9 -6 -15 -6s-11 2 -15 6s-6 9 -6 15
c0 44.667 -9.16699 76 -27.5 94s-49.833 27 -94.5 27h-147c-44.667 0 -76.167 -9 -94.5 -27s-27.5 -49.667 -27.5 -95s9.16699 -77 27.5 -95s50.166 -27 95.499 -27h141c60.667 0 104.834 -13.833 132.501 -41.5s41.5 -71.5 41.5 -131.5s-13.833 -103.833 -41.5 -131.5z" />
    <glyph glyph-name="scedilla" unicode="&#x15f;" horiz-adv-x="541" 
d="M450 32c-20.667 -20.667 -53.332 -31.001 -97.999 -31.001h-43c3.33301 -9.33301 12 -18.333 26 -27c13.333 -8.66699 24.166 -18.167 32.499 -28.5s12.5 -24.5 12.5 -42.5c0 -35.333 -8.33301 -61.333 -25 -78s-42.667 -25 -78 -25c-55.333 0 -83 27.667 -83 83
c0 14 7 21 21 21s21 -7 21 -21c0 -16 2.83301 -26.833 8.5 -32.5s16.5 -8.5 32.5 -8.5c23.333 0 39.333 4.33301 48 13s13 24.667 13 48c0 7.33301 -1.66699 13.333 -5 18s-10.333 10.667 -21 18c-12.667 9.33301 -23 18.333 -31 27s-13 20.334 -15 35.001h-78
c-40.667 0 -71.334 8.66699 -92.001 26s-32.667 44.333 -36 81v2c0 13.333 7 20 21 20c13.333 0 20.333 -7 21 -21c2.66699 -24 10.5 -41 23.5 -51s33.833 -15 62.5 -15h164c32.667 0 55.334 6.33301 68.001 19s19 35.334 19 68.001s-6.33301 55.334 -19 68.001
s-35.334 19 -68.001 19h-162c-42 0 -73 9.83301 -93 29.5s-30 50.5 -30 92.5c0 42.667 10 73.834 30 93.501s51 29.5 93 29.5h157c38 0 67 -8.16699 87 -24.5s31.333 -41.5 34 -75.5v-4c0 -12 -6.66699 -18 -20 -18c-12.667 0 -20 7 -22 21c-2 22 -9 37.333 -21 46
s-31.333 13 -58 13h-157c-30.667 0 -51.834 -5.83301 -63.501 -17.5s-17.5 -32.834 -17.5 -63.501c0 -30 5.83301 -50.833 17.5 -62.5s32.834 -17.5 63.501 -17.5h162c44.667 0 77.334 -10.333 98.001 -31s31 -53.334 31 -98.001s-10.333 -77.334 -31 -98.001z" />
    <glyph glyph-name="Scaron" unicode="&#x160;" horiz-adv-x="652" 
d="M121.5 42.5c-27.667 27.667 -41.5 71.5 -41.5 131.5c0 6 2 11 6 15s9 6 15 6s11 -2 15 -6s6 -9 6 -15c0 -48.667 9.83301 -82.667 29.5 -102s53.834 -29 102.501 -29h144c48.667 0 82.834 9.66699 102.501 29s29.5 53.333 29.5 102s-9.83301 82.667 -29.5 102
s-53.834 29 -102.501 29h-141c-57.333 0 -99.166 13 -125.499 39s-39.5 67.667 -39.5 125s13.167 99 39.5 125s67.833 39 124.5 39h147c56.667 0 98.167 -13 124.5 -39s39.5 -67.333 39.5 -124c0 -6 -2 -11 -6 -15s-9 -6 -15 -6s-11 2 -15 6s-6 9 -6 15
c0 44.667 -9.16699 76 -27.5 94s-49.833 27 -94.5 27h-147c-44.667 0 -76.167 -9 -94.5 -27s-27.5 -49.667 -27.5 -95s9.16699 -77 27.5 -95s50.166 -27 95.499 -27h141c60.667 0 104.834 -13.833 132.501 -41.5s41.5 -71.5 41.5 -131.5s-13.833 -103.833 -41.5 -131.5
s-71.834 -41.5 -132.501 -41.5h-144c-60.667 0 -104.834 13.833 -132.501 41.5zM248 836l100.998 -84h12l101 84c4.66699 3.33301 9.33398 5 14.001 5c6 0 11 -2 15 -6s6 -9 6 -15c0 -6.66699 -2.66699 -12 -8 -16l-101 -85c-8 -6 -16.667 -9 -26 -9h-14
c-9.33301 0 -18 3 -26 9l-101 85c-5.33301 4 -8 9.33301 -8 16c0 6 2 11 6 15s9 6 15 6c4.66699 0 9.33398 -1.66699 14.001 -5z" />
    <glyph glyph-name="scaron" unicode="&#x161;" horiz-adv-x="541" 
d="M96 27c-20.667 17.333 -32.666 44.333 -35.999 81v2c0 13.333 7 20 21 20c13.333 0 20.333 -7 21 -21c2.66699 -24 10.5 -41 23.5 -51s33.833 -15 62.5 -15h164c32.667 0 55.334 6.33301 68.001 19s19 35.334 19 68.001s-6.33301 55.334 -19 68.001
s-35.334 19 -68.001 19h-162c-42 0 -73 9.83301 -93 29.5s-30 50.5 -30 92.5c0 42.667 10 73.834 30 93.501s51 29.5 93 29.5h157c38 0 67 -8.16699 87 -24.5s31.333 -41.5 34 -75.5v-4c0 -12 -6.66699 -18 -20 -18c-12.667 0 -20 7 -22 21c-2 22 -9 37.333 -21 46
s-31.333 13 -58 13h-157c-30.667 0 -51.834 -5.83301 -63.501 -17.5s-17.5 -32.834 -17.5 -63.501c0 -30 5.83301 -50.833 17.5 -62.5s32.834 -17.5 63.501 -17.5h162c44.667 0 77.334 -10.333 98.001 -31s31 -53.334 31 -98.001s-10.333 -77.334 -31 -98.001
s-53.334 -31 -98.001 -31h-164c-40.667 0 -71.334 8.66699 -92.001 26zM188.001 660l75 -100h6l75 100c4 6 9.66699 9 17 9c6 0 11 -2 15 -6s6 -9 6 -15c0 -3.33301 -1.33301 -7.66602 -4 -12.999l-78 -104c-6.66699 -8.66699 -15 -13 -25 -13h-18
c-10 0 -18.333 4.33301 -25 13l-78 104c-2.66699 5.33301 -4 9.66602 -4 12.999c0 6 2 11 6 15s9 6 15 6c7.33301 0 13 -3 17 -9z" />
    <glyph glyph-name="uni0162" unicode="&#x162;" horiz-adv-x="552" 
d="M531 628c4 -4 6.00098 -9.00195 6.00098 -15.002s-2 -11 -6 -15s-9 -6 -15 -6h-219v-572v-2v-3c0 -9.33301 1.83301 -16.666 5.5 -21.999s11.167 -11.666 22.5 -18.999c13.333 -9.33301 24.166 -19 32.499 -29s12.5 -24 12.5 -42c0 -35.333 -8.33301 -61.333 -25 -78
s-42.667 -25 -78 -25c-55.333 0 -83 27.667 -83 83c0 14 7 21 21 21s21 -7 21 -21c0 -16 2.83301 -26.833 8.5 -32.5s16.5 -8.5 32.5 -8.5c23.333 0 39.333 4.33301 48 13s13 24.667 13 48c0 7.33301 -1.66699 13.333 -5 18s-10.333 10.667 -21 18
c-14 10 -25.333 20.333 -34 31s-13 25.667 -13 45v3v2v572h-219c-6 0 -11 2 -15 6s-6 9 -6 15s2 11 6 15s9 6 15 6h480c6 0 11 -2 15 -6z" />
    <glyph glyph-name="uni0163" unicode="&#x163;" horiz-adv-x="338" 
d="M295.5 -55c8.33301 -10 12.5 -24.001 12.5 -42.001c0 -35.333 -8.33301 -61.333 -25 -78s-42.667 -25 -78 -25c-55.333 0 -83 27.667 -83 83c0 14 7 21 21 21s21 -7 21 -21c0 -16 2.83301 -26.833 8.5 -32.5s16.5 -8.5 32.5 -8.5c23.333 0 39.333 4.33301 48 13
s13 24.667 13 48c0 7.33301 -1.66699 13.333 -5 18s-10.333 10.667 -21 18c-14 10 -25.167 20 -33.5 30s-12.833 24.333 -13.5 43c-30.667 10.667 -53.167 29 -67.5 55s-21.5 60.667 -21.5 104v248h-63c-14 0 -21 7 -21 21s7 21 21 21h63v119c0 14 7 21 21 21s21 -7 21 -21
v-119h129c14 0 21 -7 21 -21s-7 -21 -21 -21h-129v-248c0 -48 9.5 -81.5 28.5 -100.5s52.833 -28.5 101.5 -28.5c14.667 0 22 -7 22 -21s-7.33301 -21 -22 -21c-9.33301 0 -22.666 0.666992 -39.999 2c1.33301 -4.66699 4 -9.16699 8 -13.5s10.333 -9.16602 19 -14.499
c13.333 -9.33301 24.166 -19 32.499 -29z" />
    <glyph glyph-name="Tcaron" unicode="&#x164;" horiz-adv-x="552" 
d="M261 5c-4 4 -6 9 -6 15v572h-219c-6 0 -11 2 -15 6s-6 9 -6 15s2 11 6 15s9 6 15 6h480c6 0 11 -2 15 -6s6 -9 6 -15s-2 -11 -6 -15s-9 -6 -15 -6h-219v-572c0 -6 -2 -11 -6 -15s-9 -6 -15 -6s-11 2 -15 6zM198 836l100.998 -84h12l101 84
c4.66699 3.33301 9.33398 5 14.001 5c6 0 11 -2 15 -6s6 -9 6 -15c0 -6.66699 -2.66699 -12 -8 -16l-101 -85c-8 -6 -16.667 -9 -26 -9h-14c-9.33301 0 -18 3 -26 9l-101 85c-5.33301 4 -8 9.33301 -8 16c0 6 2 11 6 15s9 6 15 6c4.66699 0 9.33398 -1.66699 14.001 -5z" />
    <glyph glyph-name="tcaron" unicode="&#x165;" horiz-adv-x="338" 
d="M298 21c0 -14 -7.33301 -20.999 -22 -20.999c-60 0 -103.667 13.667 -131 41s-41 70.666 -41 129.999v248h-63c-14 0 -21 7 -21 21s7 21 21 21h63v119c0 14 7 21 21 21s21 -7 21 -21v-119h129c14 0 21 -7 21 -21s-7 -21 -21 -21h-129v-248c0 -48 9.5 -81.5 28.5 -100.5
s52.833 -28.5 101.5 -28.5c14.667 0 22 -7 22 -21zM306 651.001c0 -6.66699 -1.66797 -12.332 -5.00098 -16.999l-32 -74c-4 -8.66699 -9.33301 -13 -16 -13c-4.66699 0 -8.66699 1.66699 -12 5s-4.66602 7.66602 -3.99902 12.999l17 102c0 14 6.66699 21 20 21h13
c12.667 0 19 -7.33301 19 -22v-15z" />
    </font>
</defs>
</svg>
