<svg width="381" height="410" viewBox="0 0 381 410" fill="none" xmlns="http://www.w3.org/2000/svg">
<path d="M31.8715 325.335L241.46 214.528C249.538 210.23 256.147 198.679 256.147 188.874V14.5359C256.147 4.59678 249.538 0.0301533 241.46 4.32816L31.8715 115.136C23.7935 119.434 17.1842 130.985 17.1842 140.79V315.128C17.1842 325.067 23.7935 329.633 31.8715 325.335Z" fill="#D1EBFF"/>
<path d="M25.9966 112.451L235.731 1.64284C238.963 -0.103224 241.9 -0.37185 244.397 0.434026C244.691 0.568339 250.419 3.25459 250.713 3.38891C248.216 2.3144 244.984 2.44872 241.606 4.32909L31.8715 115.137C23.7935 119.435 17.1842 130.852 17.1842 140.791V315.129C17.1842 321.307 19.681 325.336 23.6466 326.545C23.3528 326.545 22.9122 326.411 22.3247 326.142C22.1779 326.008 16.0092 323.053 15.8623 322.919C13.0717 321.173 11.3092 317.412 11.3092 312.308V138.105C11.3092 128.165 17.9185 116.615 25.9966 112.451Z" fill="#3F92D1"/>
<path d="M27.759 113.121L237.347 2.3135C240.578 0.56743 243.516 0.298805 246.013 1.10468C246.306 1.23899 250.419 3.25368 250.713 3.388C248.216 2.31349 244.984 2.44781 241.606 4.32819L31.8715 115.136L27.759 113.121Z" fill="#4F9FDB"/>
<path d="M31.1371 114.867L240.872 4.05951C244.25 2.31344 247.188 2.04482 249.684 2.985C247.628 2.71638 245.131 3.11932 242.635 4.46244L32.8996 115.27C24.8216 119.568 18.2123 130.985 18.2123 140.924V315.262C18.2123 321.037 20.5622 325.067 24.0872 326.41C19.5341 325.738 16.4498 321.44 16.4498 314.725V140.521C16.4498 130.582 23.0591 119.165 31.1371 114.867Z" fill="white"/>
<path d="M247.922 30.1162V189.008C247.922 196.798 243.81 204.32 237.347 208.215L29.9621 317.68C29.8153 317.68 29.8153 317.814 29.6684 317.814C27.759 318.754 25.4091 317.545 25.4091 315.531V147.64L247.922 30.1162Z" fill="#03336E"/>
<path d="M25.7028 316.337C25.8497 316.202 25.9966 316.202 25.9966 316.202L233.382 206.603C239.844 202.842 243.956 195.187 243.956 187.396V32.1309L247.922 30.1162V189.008C247.922 196.798 243.81 204.32 237.347 208.215L29.9621 317.68C29.8153 317.68 29.8153 317.814 29.6684 317.814C28.0528 318.62 26.1434 317.948 25.7028 316.337C25.7028 316.471 25.7028 316.471 25.7028 316.337Z" fill="#001A46"/>
<path d="M37.1589 128.567C37.1589 130.851 35.3964 133.806 33.0465 134.88C30.8434 136.089 28.934 135.149 28.934 132.731C28.934 130.448 30.6965 127.493 33.0465 126.418C35.2496 125.21 37.1589 126.15 37.1589 128.567Z" fill="#FFCC00"/>
<path d="M47.5869 122.926C47.5869 125.21 45.8244 128.164 43.4745 129.239C41.2714 130.448 39.362 129.508 39.362 127.09C39.362 124.672 41.1245 121.852 43.4745 120.777C45.6776 119.703 47.5869 120.643 47.5869 122.926Z" fill="#EB4680"/>
<path d="M58.0149 117.419C58.0149 119.703 56.2524 122.658 53.9025 123.732C51.6994 124.941 49.79 124.001 49.79 121.583C49.79 119.3 51.5525 116.345 53.9025 115.27C56.1056 114.196 58.0149 115.136 58.0149 117.419Z" fill="#0FBAB8"/>
<path d="M217.519 55.7699L229.857 49.3229C231.032 48.6514 232.06 49.1886 232.06 50.5317C232.06 51.8749 231.032 53.4866 229.857 54.0239L217.519 60.4709C216.344 61.1424 215.316 60.6052 215.316 59.2621C215.316 58.0532 216.344 56.4415 217.519 55.7699Z" fill="#72B5E8"/>
<path d="M197.251 66.5149L209.588 60.0679C210.763 59.3964 211.791 59.9336 211.791 61.2767C211.791 62.6199 210.763 64.2316 209.588 64.7689L197.251 71.2159C196.076 71.8874 195.048 71.3502 195.048 70.0071C195.048 68.7982 196.076 67.1865 197.251 66.5149Z" fill="#3F92D1"/>
<path d="M176.982 77.1257L189.32 70.6786C190.495 70.0071 191.523 70.5443 191.523 71.8875C191.523 73.2306 190.495 74.8423 189.32 75.3796L176.982 81.8266C175.807 82.4982 174.779 81.9609 174.779 80.6178C174.779 79.409 175.807 77.7972 176.982 77.1257Z" fill="#3F92D1"/>
<path d="M156.861 87.8707L169.198 81.4236C170.373 80.7521 171.401 81.2893 171.401 82.6325C171.401 83.9756 170.373 85.5873 169.198 86.1246L156.861 92.5716C155.686 93.2432 154.657 92.7059 154.657 91.3628C154.511 90.154 155.539 88.5422 156.861 87.8707Z" fill="#3F92D1"/>
<path d="M136.445 98.75L148.783 92.303C149.958 91.6315 150.986 92.1687 150.986 93.5118C150.986 94.855 149.958 96.4667 148.783 97.004L136.445 103.451C135.27 104.123 134.242 103.585 134.242 102.242C134.242 100.899 135.27 99.4216 136.445 98.75ZM116.324 109.361L128.661 102.914C129.836 102.242 130.864 102.779 130.864 104.123C130.864 105.466 129.836 107.077 128.661 107.615L116.324 114.062C115.149 114.733 114.12 114.196 114.12 112.853C113.974 111.644 115.002 110.032 116.324 109.361ZM96.0551 120.106L108.392 113.659C109.567 112.987 110.596 113.524 110.596 114.868C110.596 116.211 109.567 117.822 108.392 118.36L96.0551 124.807C94.8801 125.478 93.852 124.941 93.852 123.598C93.7051 122.389 94.7332 120.777 96.0551 120.106ZM75.7866 130.716L88.1239 124.269C89.2989 123.598 90.327 124.135 90.327 125.478C90.327 126.821 89.2989 128.433 88.1239 128.97L75.7866 135.417C74.6116 136.089 73.5835 135.552 73.5835 134.209C73.5835 133 74.6116 131.388 75.7866 130.716Z" fill="#3F92D1"/>
<path d="M183.592 145.759V143.342L203.86 133V135.283L183.592 145.759Z" fill="#72B5E8"/>
<path d="M240.431 86.7961V89.2138L176.688 122.389V119.971L240.431 86.7961Z" fill="#3F92D1"/>
<path d="M197.104 129.642L240.431 106.809V109.226L197.104 132.06V129.642Z" fill="white"/>
<path d="M171.695 128.836L240.431 92.8402V97.2725L171.695 133.268V128.836Z" fill="#0FBAB8"/>
<path d="M207.385 119.165L240.431 101.839V104.257L207.385 121.583V119.165Z" fill="white"/>
<path d="M204.741 120.509V122.926L145.551 153.684V151.266L204.741 120.509Z" fill="white"/>
<path d="M194.46 130.985V133.403L164.498 149.117V146.7L194.46 130.985Z" fill="white"/>
<path d="M169.051 134.612L123.814 158.116V153.684L169.051 130.179V134.612Z" fill="#0FBAB8"/>
<path d="M142.908 155.161L123.814 165.1V162.683L142.908 152.744V155.161Z" fill="white"/>
<path d="M161.854 150.46L123.814 170.204V167.787L161.854 148.043V150.46Z" fill="white"/>
<path d="M206.357 131.522L240.431 113.793V116.211L206.357 133.94V131.522Z" fill="#72B5E8"/>
<path d="M181.095 147.237L160.386 157.982V155.564L181.095 144.819V147.237Z" fill="#72B5E8"/>
<path d="M183.592 186.725V184.307L203.86 173.831V176.248L183.592 186.725Z" fill="#72B5E8"/>
<path d="M240.431 127.761V130.179L176.688 163.354V160.937L240.431 127.761Z" fill="#3F92D1"/>
<path d="M197.104 170.473L240.431 147.774V150.192L197.104 172.891V170.473Z" fill="white"/>
<path d="M200.923 154.49L240.431 133.671V138.104L200.923 158.922V154.49Z" fill="#0FBAB8"/>
<path d="M215.316 155.967L240.431 142.804V145.222L215.316 158.385V155.967Z" fill="white"/>
<path d="M212.819 157.31V159.728L145.551 194.649V192.232L212.819 157.31Z" fill="white"/>
<path d="M194.46 171.95V174.234L172.87 185.785V183.367L194.46 171.95Z" fill="white"/>
<path d="M142.908 195.992L123.814 206.066V203.648L142.908 193.575V195.992Z" fill="white"/>
<path d="M170.226 187.128L139.676 202.842V200.425L170.226 184.71V187.128Z" fill="white"/>
<path d="M206.357 172.488L240.431 154.624V157.042L206.357 174.905V172.488Z" fill="#72B5E8"/>
<path d="M181.095 188.068L160.386 198.813V196.395L181.095 185.65V188.068Z" fill="#72B5E8"/>
<path d="M155.392 178.129L198.426 155.833V160.265L155.392 182.561V178.129Z" fill="#0FBAB8"/>
<path d="M152.748 179.472V183.904L123.814 198.947V194.515L152.748 179.472Z" fill="#0FBAB8"/>
<path d="M183.592 226.616V224.198L203.86 213.722V216.139L183.592 226.616Z" fill="#72B5E8"/>
<path d="M240.431 167.652V170.07L176.688 203.245V200.828L240.431 167.652Z" fill="#3F92D1"/>
<path d="M197.104 210.364L240.431 187.665V190.083L197.104 212.781V210.364Z" fill="white"/>
<path d="M171.695 209.558L240.431 173.562V177.994L171.695 213.99V209.558Z" fill="#0FBAB8"/>
<path d="M207.385 199.887L240.431 182.561V184.979L207.385 202.305V199.887Z" fill="white"/>
<path d="M204.741 201.365V203.648L145.551 234.54V232.122L204.741 201.365Z" fill="white"/>
<path d="M194.46 211.707V214.125L164.498 229.839V227.421L194.46 211.707Z" fill="white"/>
<path d="M169.051 215.333L123.814 238.838V234.406L169.051 210.901V215.333Z" fill="#0FBAB8"/>
<path d="M142.908 235.883L123.814 245.957V243.539L142.908 233.466V235.883Z" fill="white"/>
<path d="M161.854 231.182L123.814 250.926V248.509L161.854 228.899V231.182Z" fill="white"/>
<path d="M206.357 212.378L240.431 194.515V196.933L206.357 214.796V212.378Z" fill="#72B5E8"/>
<path d="M181.095 227.959L160.386 238.704V236.286L181.095 225.541V227.959Z" fill="#72B5E8"/>
<path d="M81.6615 160.4L174.926 110.973C178.01 109.361 180.507 104.928 180.507 101.168V100.362C180.507 96.601 178.01 94.855 174.926 96.4667L81.6615 145.894C78.5772 147.506 76.0804 151.938 76.0804 155.699V156.505C76.0804 160.265 78.5772 162.011 81.6615 160.4Z" fill="#72B5E8"/>
<path d="M79.6053 159.728L172.87 110.301C175.954 108.689 178.451 104.257 178.451 100.496V99.6901C178.451 97.8098 177.863 96.4666 176.835 95.7951C178.892 95.6608 180.507 97.4068 180.507 100.227V101.033C180.507 104.794 178.01 109.226 174.926 110.838L81.6615 160.265C80.0459 161.071 78.7241 161.071 77.696 160.265C78.2834 160.399 78.8709 160.131 79.6053 159.728Z" fill="#3F92D1"/>
<path d="M229.857 79.8119C230.738 79.8119 231.619 79.5433 232.5 79.1404C235.438 77.5286 237.788 73.9022 237.788 70.6787C237.788 68.261 236.319 66.6493 234.116 66.6493C233.235 66.6493 232.353 66.9179 231.472 67.3209C228.535 68.9326 226.185 72.5591 226.185 75.7826C226.185 76.9914 226.479 77.9316 227.213 78.7374C227.8 79.409 228.682 79.8119 229.857 79.8119ZM234.116 68.3954C235.585 68.3954 235.731 69.8728 235.731 70.5444C235.731 72.962 233.822 76.0512 231.472 77.3943C230.297 78.0659 229.269 78.0659 228.682 77.3943C228.388 76.9914 228.241 76.4541 228.241 75.6482C228.241 73.2306 230.15 70.1414 232.5 68.7983C233.088 68.5297 233.675 68.3954 234.116 68.3954Z" fill="#72B5E8"/>
<path d="M216.491 87.0649C217.372 87.0649 218.254 86.7962 219.135 86.3933C222.072 84.7815 224.422 81.1551 224.422 77.9316C224.422 75.514 222.954 73.9022 220.75 73.9022C219.869 73.9022 218.988 74.1708 218.107 74.5738C215.169 76.1855 212.819 79.812 212.819 83.0355C212.819 84.2443 213.113 85.1845 213.847 85.9904C214.435 86.6619 215.463 87.0649 216.491 87.0649ZM220.897 75.6483C222.366 75.6483 222.513 77.1257 222.513 77.7973C222.513 80.2149 220.604 83.3041 218.254 84.6472C217.079 85.3188 216.051 85.3188 215.463 84.6472C215.169 84.2443 215.022 83.707 215.022 82.9012C215.022 80.4835 216.932 77.3943 219.282 76.0512C219.869 75.9169 220.457 75.6483 220.897 75.6483Z" fill="#EB4680"/>
<path d="M203.126 94.3177C204.007 94.3177 204.888 94.049 205.769 93.6461C208.707 92.0344 211.057 88.4079 211.057 85.1844C211.057 82.7668 209.588 81.155 207.385 81.155C206.504 81.155 205.623 81.4237 204.741 81.8266C201.804 83.4383 199.454 87.0648 199.454 90.2883C199.454 91.4971 199.748 92.4373 200.482 93.2432C201.069 93.9147 201.951 94.3177 203.126 94.3177ZM207.385 82.9011C208.854 82.9011 209.001 84.3785 209.001 85.0501C209.001 87.4677 207.091 90.5569 204.741 91.9C203.566 92.5716 202.538 92.5716 201.951 91.9C201.657 91.4971 201.51 90.9599 201.51 90.154C201.51 87.7363 203.419 84.6472 205.769 83.304C206.357 83.1697 206.944 82.9011 207.385 82.9011Z" fill="#FFD70F"/>
<path d="M189.76 101.571C190.641 101.571 191.523 101.302 192.404 100.899C195.341 99.2873 197.691 95.6609 197.691 92.4373C197.691 90.0197 196.223 88.408 194.02 88.408C193.138 88.408 192.257 88.6766 191.376 89.0795C188.438 90.6913 186.088 94.3177 186.088 97.5412C186.088 98.75 186.382 99.6902 187.116 100.496C187.704 101.168 188.732 101.571 189.76 101.571ZM194.166 90.154C195.635 90.154 195.782 91.6315 195.782 92.303C195.782 94.7207 193.873 97.8099 191.523 99.153C190.348 99.8245 189.32 99.8245 188.732 99.153C188.438 98.75 188.291 98.2128 188.291 97.4069C188.291 94.9893 190.201 91.9001 192.551 90.557C193.138 90.4226 193.579 90.154 194.166 90.154Z" fill="#0FBAB8"/>
<path opacity="0.5" d="M11.603 275.506C11.603 273.357 11.7499 271.208 12.0436 268.924L0 267.581C1.17499 262.074 3.08434 256.433 5.43431 250.926L19.2404 247.166C21.5904 242.465 24.5278 238.032 27.759 233.734L24.5278 221.109C28.6403 216.542 32.8996 212.244 37.5995 208.484L44.9432 217.214C46.8526 215.871 48.9088 214.528 50.965 213.453C53.0212 212.379 55.0774 211.573 56.9868 210.767L64.3305 194.246C69.0304 193.038 73.4366 192.635 77.4022 193.038L74.171 209.155C77.4022 209.961 80.3396 211.438 82.6896 213.587L96.3488 202.977C98.6988 205.932 100.608 209.558 101.783 213.856L89.7395 227.959C90.0333 229.839 90.1801 231.854 90.1801 234.003C90.1801 236.152 90.0333 238.301 89.7395 240.584L101.783 241.927C100.608 247.434 98.6988 253.075 96.3488 258.582L82.6896 262.343C80.3396 267.044 77.4022 271.476 74.171 275.774L77.4022 288.4C73.2897 292.966 69.0304 297.264 64.3305 301.025L56.9868 292.295C55.0774 293.638 53.0212 294.981 50.965 296.055C48.9088 297.13 46.8526 297.936 44.9432 298.742L37.5995 315.262C32.8996 316.471 28.4934 316.874 24.5278 316.471L27.759 300.353C24.5278 299.548 21.5904 298.07 19.2404 295.921L5.58118 306.532C3.23121 303.577 1.32186 299.95 0.146873 295.652L12.1905 281.55C11.8967 279.535 11.603 277.655 11.603 275.506ZM50.5244 285.579C66.9742 276.983 80.1928 256.03 80.1928 238.838C80.1928 221.646 66.9742 214.796 50.5244 223.392C34.0746 231.988 20.856 252.941 20.856 270.133C20.856 287.325 34.2215 294.309 50.5244 285.579Z" fill="#03336E"/>
<path d="M52.8743 286.922C69.3241 278.326 82.5427 257.373 82.5427 240.181C82.5427 233.869 80.6334 228.899 77.549 225.541C86.5083 226.079 92.677 233.063 92.677 244.614C92.677 261.806 79.4584 282.758 63.0086 291.354C52.7275 296.727 43.6213 296.055 38.3339 290.549C42.5932 290.952 47.44 289.743 52.8743 286.922Z" fill="#72B5E8"/>
<path d="M23.9403 281.281C23.9403 279.132 24.0872 276.983 24.3809 274.7L12.3373 273.357C13.5123 267.85 15.4217 262.209 17.7716 256.702L31.4309 252.941C33.7808 248.24 36.7183 243.808 39.9495 239.51L36.8652 227.019C40.9776 222.452 45.2369 218.154 49.9369 214.393L57.2805 223.124C59.1899 221.781 61.2461 220.437 63.3023 219.363C65.3586 218.288 67.4148 217.483 69.3241 216.677L76.6678 200.156C81.3678 198.947 85.7739 198.544 89.7395 198.947L86.5083 215.065C89.7395 215.871 92.677 217.348 95.027 219.497L108.686 208.886C111.036 211.841 112.945 215.468 114.12 219.766L102.077 233.734C102.371 235.615 102.517 237.629 102.517 239.778C102.517 241.927 102.371 244.076 102.077 246.36L114.12 247.703C112.945 253.21 111.036 258.851 108.686 264.358L95.027 268.118C92.677 272.819 89.7395 277.252 86.5083 281.55L89.7395 294.175C85.6271 298.742 81.3678 303.04 76.6678 306.8L69.3241 298.07C67.4148 299.413 65.3586 300.756 63.3023 301.831C61.2461 302.905 59.1899 303.711 57.2805 304.517L49.9369 321.038C45.2369 322.246 40.8307 322.649 36.8652 322.246L40.0964 306.129C36.8652 305.323 33.9277 303.846 31.5777 301.697L17.9185 312.307C15.5686 309.352 13.6592 305.726 12.4842 301.428L24.5278 287.325C24.2341 285.445 23.9403 283.43 23.9403 281.281ZM62.8617 291.489C79.3115 282.893 92.5301 261.94 92.5301 244.748C92.5301 227.556 79.3115 220.706 62.8617 229.302C46.4119 237.898 33.1933 258.851 33.1933 276.043C33.1933 293.235 46.5588 300.085 62.8617 291.489Z" fill="#A8CFF0"/>
<path d="M57.7212 210.632L65.2117 194.246L76.6678 200.29L69.3241 216.677L57.7212 210.632Z" fill="#72B5E8"/>
<path d="M69.3242 216.677C67.4148 217.348 65.3586 218.288 63.3024 219.363C61.2461 220.437 59.1899 221.781 57.2806 223.124L49.9369 214.393C49.9369 214.393 51.1119 213.722 51.8462 213.319C53.9025 212.244 55.9587 211.438 57.868 210.633L69.3242 216.677Z" fill="#D1EBFF"/>
<path d="M65.2117 194.246C69.9116 193.038 74.3178 192.635 78.2834 193.038L89.7395 199.082C85.6271 198.679 81.3677 199.082 76.6678 200.29L65.2117 194.246Z" fill="#D1EBFF"/>
<path d="M25.2622 220.975C29.3747 216.408 33.634 212.11 38.3339 208.349L49.79 214.393C45.0901 218.154 40.6839 222.318 36.7183 227.019L25.2622 220.975Z" fill="#D1EBFF"/>
<path d="M36.8652 227.019L40.0964 239.51L28.6403 233.466L25.2622 220.975L36.8652 227.019Z" fill="#72B5E8"/>
<path d="M40.0964 239.51C36.8652 243.673 33.9277 248.24 31.5778 252.941L20.1216 246.897C22.4716 242.196 25.4091 237.764 28.6403 233.466L40.0964 239.51Z" fill="#72B5E8"/>
<path d="M31.5777 252.941L17.9185 256.702L6.46243 250.658L20.1216 246.897L31.5777 252.941Z" fill="#D1EBFF"/>
<path d="M17.9185 256.702C15.5686 262.209 13.6592 267.715 12.4842 273.357L1.02811 267.312C2.20309 261.806 4.11244 256.165 6.46242 250.658L17.9185 256.702Z" fill="#72B5E8"/>
<path d="M86.5083 215.065L87.3895 210.364L97.0832 202.842L108.539 208.886L94.8801 219.497C92.5301 217.348 89.7395 215.871 86.5083 215.065Z" fill="#72B5E8"/>
<path d="M12.4842 301.428C13.6592 305.592 15.5686 309.352 17.9185 312.307L6.46242 306.263C4.11244 303.308 2.20309 299.682 1.02811 295.384L12.4842 301.428Z" fill="#72B5E8"/>
<path d="M13.0717 281.281C12.778 279.401 12.6311 277.386 12.6311 275.237C12.6311 274.565 12.6311 273.894 12.778 273.357L24.6747 274.7C24.381 276.983 24.2341 279.132 24.2341 281.281C24.2341 283.43 24.381 285.445 24.6747 287.325L13.0717 281.281Z" fill="#72B5E8"/>
<path d="M24.5278 287.325L12.4842 301.428L1.02811 295.384L13.0717 281.281L24.5278 287.325Z" fill="#D1EBFF"/>
<path d="M31.5777 301.562C33.9277 303.711 36.8652 305.189 40.0964 305.995L36.8652 322.112L25.4091 316.068L27.759 304.651L31.5777 301.562Z" fill="#72B5E8"/>
<path d="M102.517 241.524L114.12 247.703L102.077 246.36C102.224 244.748 102.371 243.136 102.517 241.524Z" fill="#D1EBFF"/>
<path d="M69.3241 298.07L76.6678 306.8L65.0648 300.756C66.5336 299.95 67.8554 299.01 69.3241 298.07Z" fill="#72B5E8"/>
<path d="M101.93 246.225L113.533 247.703C113.533 247.837 113.386 248.106 113.386 248.24L103.546 247.031C103.399 246.897 101.783 246.494 101.93 246.225Z" fill="white"/>
<path d="M37.4527 227.69L40.6839 240.316C37.4527 244.479 34.5152 249.046 32.1652 253.747L18.506 257.508C16.1561 262.88 12.6311 273.491 12.6311 273.491C13.8061 267.984 14.9811 262.209 17.331 256.702L30.9903 252.941C33.3402 248.24 36.2777 243.808 39.5089 239.51L36.2777 226.884C40.3901 222.318 45.237 218.02 49.9369 214.393C49.79 214.393 41.2714 223.258 37.4527 227.69Z" fill="white"/>
<path d="M62.7149 291.22C79.1647 282.624 92.3832 261.671 92.3832 244.479C92.3832 236.824 89.7395 231.317 85.4802 228.228C90.4739 231.182 93.5582 236.958 93.5582 245.285C93.5582 262.477 80.3396 283.43 63.8899 292.026C55.665 296.458 48.1744 296.727 42.7401 293.906C43.1807 294.041 43.6214 294.041 43.9151 294.175C49.2025 295.787 55.665 294.981 62.7149 291.22Z" fill="white"/>
<path d="M37.8933 305.457C35.9839 304.786 34.0746 303.846 32.459 302.637L32.8996 302.234C34.5152 303.577 36.1308 304.651 37.8933 305.457Z" fill="white"/>
<path d="M95.3207 219.766C95.7613 219.766 95.3207 219.363 94.8801 219.094L108.099 208.886C108.539 209.424 108.833 209.827 108.246 209.961L95.3207 219.766Z" fill="white"/>
<path d="M40.3901 306.8L37.3058 322.112C37.5995 322.112 37.012 322.112 36.2777 321.978L39.5089 306.129C40.0964 306.398 40.8307 306.532 40.3901 306.8Z" fill="white"/>
<path d="M23.3528 281.281C23.3528 279.266 23.4997 277.252 23.7935 275.237L25.1153 275.371C24.8216 277.655 24.6747 279.804 24.6747 281.953C24.6747 284.102 24.8216 286.116 25.1153 287.997L13.0717 302.099C14.0998 305.726 15.5686 308.815 17.4779 311.501L17.331 312.307C14.9811 309.352 13.0717 305.726 11.8967 301.428L23.9403 287.325C23.6466 285.445 23.3528 283.43 23.3528 281.281Z" fill="white"/>
<path d="M77.1084 200.693L69.7648 217.214C67.8554 217.885 65.7992 218.826 63.743 219.9C61.6868 220.975 59.6305 222.318 57.7212 223.661L57.4274 222.586C59.1899 221.512 60.8055 220.303 62.568 219.497C64.6242 218.423 66.6804 217.617 68.5898 216.811L75.9335 200.29C80.6334 199.082 85.0396 198.679 89.0052 199.082L88.8583 199.753C85.4802 199.619 80.9271 199.753 77.1084 200.693Z" fill="white"/>
<path d="M70.646 298.876L76.8147 306.129C76.5209 306.398 76.374 306.532 76.0803 306.8L69.9116 299.413C70.0585 299.145 70.3522 299.01 70.646 298.876Z" fill="white"/>
<path d="M102.811 239.778C105.896 241.39 106.189 245.151 103.693 247.3L93.4114 255.627L87.9771 279.401L102.518 287.056L122.492 270.939L125.283 258.716C126.017 255.627 129.836 254.015 132.773 255.627C134.683 256.567 135.711 258.716 135.27 260.597L131.452 277.117C130.864 279.938 129.248 282.355 127.045 284.37L95.1739 312.71L59.9243 368.45C52.2869 380.538 39.8027 387.119 32.1652 383.09C24.5278 379.061 24.5278 366.032 32.1652 354.078L67.4148 298.339L78.2834 259.119C79.0178 256.433 80.6334 253.881 82.9834 252.001L96.9363 240.584C98.5519 239.107 100.902 238.838 102.811 239.778ZM40.2433 370.062C43.3276 371.673 48.4682 368.987 51.5525 364.018C54.6369 359.048 54.6369 353.675 51.5525 352.064C48.4682 350.452 43.3276 353.138 40.2433 358.108C37.1589 363.077 37.1589 368.45 40.2433 370.062Z" fill="#2672AB"/>
<path d="M55.2243 352.064C55.5181 352.064 55.665 352.198 55.9587 352.332C59.0431 353.944 59.0431 359.317 55.9587 364.286C52.8744 369.256 47.7338 371.942 44.6495 370.33C47.7338 371.136 52.2869 368.584 55.2243 364.018C58.3087 359.048 58.3087 353.675 55.2243 352.064Z" fill="#1568BF"/>
<path d="M129.836 258.716L127.045 270.939L107.071 287.056L106.336 286.653L126.164 270.536L128.955 258.314C129.689 255.359 133.214 253.747 136.151 255.09C133.361 254.418 130.423 256.03 129.836 258.716Z" fill="#3F92D1"/>
<path d="M35.6902 353.676L70.9398 297.936L81.8084 258.716C82.5428 256.03 84.1584 253.478 86.5083 251.598L100.461 240.181C102.077 238.972 104.28 238.704 106.042 239.51C104.427 239.107 102.518 239.375 101.196 240.45L87.2427 251.866C84.8927 253.747 83.2771 256.299 82.5428 258.985L71.6741 298.204L36.4246 353.944C28.7872 366.032 28.7872 379.061 36.4246 382.956C36.7183 383.09 36.8652 383.224 37.1589 383.359C36.5715 383.224 36.1308 382.956 35.5433 382.687C28.0528 378.792 28.0528 365.764 35.6902 353.676Z" fill="#3F92D1"/>
<path d="M34.6621 351.661L69.9117 295.921L80.7803 256.702C81.5147 254.015 83.1303 251.464 85.4802 249.583L99.4332 238.167C101.049 236.823 103.399 236.555 105.308 237.629L109.567 239.778L107.805 241.121C107.952 242.599 107.511 244.076 106.189 245.151L95.9082 253.478L90.6208 277.252L105.161 284.907L125.136 268.79L127.927 256.567C128.661 253.478 132.48 251.866 135.417 253.478L139.676 255.627L138.061 257.373C138.061 257.776 138.061 258.179 137.914 258.448L134.095 274.968C133.508 277.789 131.892 280.206 129.689 282.221L97.8176 310.561L62.568 366.301C56.1056 376.374 46.412 382.687 38.9214 382.015L39.0683 383.09L34.809 380.941C27.0247 376.777 27.0247 363.749 34.6621 351.661ZM42.7401 367.913C45.8245 369.524 50.965 366.838 54.0494 361.869C57.1337 356.899 57.1337 351.526 54.0494 349.915C50.965 348.303 45.8245 350.989 42.7401 355.959C39.6558 360.928 39.6558 366.301 42.7401 367.913Z" fill="#084C94"/>
<path opacity="0.5" d="M92.8239 222.183L86.0677 225.541L84.7458 236.42L80.7803 241.39L76.9615 235.883L80.0459 233.466L78.724 227.959L84.0115 223.258L92.8239 222.183Z" fill="#92B4D1"/>
<path opacity="0.5" d="M94.7332 238.301C97.8176 238.838 101.489 238.167 105.455 236.152C116.03 230.645 124.548 217.079 124.548 206.066C124.548 195.052 116.03 190.486 105.455 196.127C101.489 198.276 97.8176 201.499 94.7332 205.26V188.605C95.4676 187.934 96.3488 187.262 97.0832 186.59L101.783 192.232C103.105 191.426 104.28 190.486 105.602 189.814C106.924 189.142 108.246 188.605 109.421 188.068L114.12 177.457C117.058 176.651 119.995 176.517 122.492 176.651L120.436 186.993C122.492 187.531 124.402 188.471 125.87 189.814L134.683 182.964C136.151 184.844 137.326 187.262 138.208 189.948L130.423 198.947C130.57 200.156 130.717 201.499 130.717 202.842C130.717 204.185 130.57 205.663 130.423 207.14L138.208 208.08C137.473 211.573 136.298 215.199 134.683 218.826L125.87 221.243C124.402 224.198 122.492 227.153 120.436 229.839L122.492 237.898C119.849 240.853 117.058 243.673 114.12 245.957L109.421 240.316C108.099 241.121 106.924 242.062 105.602 242.733C104.28 243.405 102.958 243.942 101.783 244.479L97.0832 255.09C96.3488 255.359 95.4676 255.493 94.7332 255.627V238.301Z" fill="#03336E"/>
<path d="M106.777 236.689C117.352 231.182 125.87 217.617 125.87 206.603C125.87 202.439 124.695 199.35 122.639 197.201C128.367 197.604 132.333 202.036 132.333 209.558C132.333 220.572 123.814 234.137 113.239 239.644C106.63 243.136 100.755 242.599 97.377 239.107C100.168 239.241 103.399 238.569 106.777 236.689Z" fill="#72B5E8"/>
<path d="M88.2708 233.063C88.2708 231.72 88.4177 230.242 88.5646 228.765L80.7803 227.824C81.5146 224.332 82.6896 220.706 84.3052 217.079L93.1176 214.662C94.5863 211.707 96.4957 208.752 98.5519 206.066L96.4957 198.007C99.1394 195.052 101.93 192.232 104.867 189.948L109.567 195.589C110.889 194.784 112.064 193.843 113.386 193.172C114.708 192.5 116.03 191.963 117.205 191.426L121.905 180.815C124.842 180.009 127.78 179.875 130.277 180.009L128.22 190.351C130.277 190.888 132.186 191.829 133.655 193.172L142.467 186.322C143.936 188.202 145.111 190.62 145.992 193.306L138.208 202.305C138.355 203.514 138.501 204.857 138.501 206.2C138.501 207.543 138.355 209.021 138.208 210.498L145.992 211.438C145.258 214.93 144.083 218.557 142.467 222.183L133.655 224.601C132.186 227.556 130.277 230.511 128.22 233.197L130.277 241.256C127.633 244.211 124.842 247.031 121.905 249.314L117.205 243.673C115.883 244.479 114.708 245.419 113.386 246.091C112.064 246.763 110.742 247.3 109.567 247.837L104.867 258.448C101.93 259.254 98.9925 259.388 96.4957 259.254L98.5519 248.912C96.4957 248.374 94.5863 247.434 93.1176 246.091L84.3052 252.941C82.8365 251.061 81.6615 248.643 80.7803 245.957L88.5646 236.958C88.4177 235.749 88.2708 234.406 88.2708 233.063ZM113.239 239.644C123.814 234.137 132.333 220.572 132.333 209.558C132.333 198.544 123.814 193.978 113.239 199.619C102.664 205.126 94.1457 218.691 94.1457 229.705C94.1457 240.718 102.811 245.151 113.239 239.644Z" fill="#A8CFF0"/>
<path d="M110.008 187.531L114.708 177.054L122.199 180.815L117.352 191.426L110.008 187.531Z" fill="#72B5E8"/>
<path d="M117.352 191.426C116.03 191.829 114.855 192.366 113.533 193.172C112.211 193.843 110.889 194.649 109.714 195.589L105.014 189.948C105.014 189.948 105.749 189.545 106.189 189.277C107.511 188.605 108.833 188.068 110.008 187.531L117.352 191.426Z" fill="#D1EBFF"/>
<path d="M114.708 177.054C117.645 176.248 120.583 176.114 123.08 176.248L130.423 180.143C127.78 179.875 124.989 180.143 122.052 180.949L114.708 177.054Z" fill="#D1EBFF"/>
<path d="M89.152 194.246C91.7958 191.291 94.5864 188.471 97.5238 186.188L104.867 190.083C101.93 192.5 98.9925 195.186 96.4957 198.141L89.152 194.246Z" fill="#D1EBFF"/>
<path d="M96.4957 198.141L98.5519 206.2L91.2083 202.305L89.152 194.246L96.4957 198.141Z" fill="#72B5E8"/>
<path d="M98.5519 206.2C96.4957 208.886 94.5864 211.841 93.1176 214.796L85.774 210.901C87.2427 207.946 89.1521 204.991 91.2083 202.305L98.5519 206.2Z" fill="#72B5E8"/>
<path d="M93.1176 214.796L84.3052 217.214L76.9615 213.319L85.7739 210.901L93.1176 214.796Z" fill="#D1EBFF"/>
<path d="M84.3052 217.214C82.8365 220.706 81.6615 224.332 80.7803 227.959L73.4366 224.064C74.171 220.571 75.346 216.945 76.9616 213.319L84.3052 217.214Z" fill="#72B5E8"/>
<path d="M128.514 190.486L129.102 187.531L135.417 182.695L142.761 186.59L133.948 193.44C132.333 191.963 130.57 190.889 128.514 190.486Z" fill="#72B5E8"/>
<path d="M80.9272 245.957C81.6615 248.643 82.8365 251.061 84.4521 252.941L77.1085 249.046C75.6397 247.166 74.4647 244.748 73.5835 242.062L80.9272 245.957Z" fill="#72B5E8"/>
<path d="M81.2209 233.063C81.074 231.854 80.9272 230.511 80.9272 229.168C80.9272 228.765 80.9272 228.362 80.9272 227.959L88.5646 228.899C88.4177 230.376 88.2708 231.72 88.2708 233.197C88.2708 234.54 88.4177 235.883 88.5646 237.092L81.2209 233.063Z" fill="#72B5E8"/>
<path d="M88.5646 236.958L80.9272 245.957L73.4366 242.062L81.2209 233.063L88.5646 236.958Z" fill="#D1EBFF"/>
<path d="M93.1176 246.091C94.5863 247.434 96.4957 248.374 98.5519 248.912L96.4957 259.254L89.152 255.359L90.6208 247.971L93.1176 246.091Z" fill="#72B5E8"/>
<path d="M138.795 207.543L146.286 211.573L138.501 210.632C138.648 209.558 138.795 208.483 138.795 207.543Z" fill="#D1EBFF"/>
<path d="M117.352 243.808L122.052 249.449L114.561 245.554C115.589 245.016 116.47 244.479 117.352 243.808Z" fill="#72B5E8"/>
<path d="M96.9363 198.544L98.9926 206.603C96.9363 209.289 95.027 212.244 93.5583 215.199L84.7459 217.617C83.2771 221.109 82.1021 224.467 81.3678 227.959L80.4865 227.825C81.2209 224.332 82.3959 220.706 84.0115 217.08L92.8239 214.662C94.2926 211.707 96.202 208.752 98.2582 206.066L96.202 198.007C98.8457 195.052 101.636 192.232 104.574 189.948L104.867 190.889C102.077 193.172 99.4332 195.724 96.9363 198.544Z" fill="white"/>
<path d="M113.239 239.51C123.814 234.003 132.333 220.437 132.333 209.424C132.333 204.588 130.717 200.962 127.927 198.947C131.158 200.828 133.067 204.588 133.067 209.961C133.067 220.975 124.549 234.54 113.974 240.047C108.686 242.868 103.839 243.136 100.314 241.256C100.608 241.39 100.902 241.39 101.049 241.39C104.427 242.465 108.686 241.927 113.239 239.51Z" fill="white"/>
<path d="M97.2301 248.643C95.9082 248.24 94.7333 247.568 93.7051 246.897L93.9989 246.628C95.027 247.434 96.0551 248.106 97.2301 248.643Z" fill="white"/>
<path d="M134.242 193.44C134.536 193.44 134.242 193.172 133.948 193.037L142.467 186.456C142.761 186.725 142.908 187.128 142.467 187.128L134.242 193.44Z" fill="white"/>
<path d="M98.8457 249.449L96.7895 259.388C97.0832 259.388 96.4957 259.388 96.0551 259.388L98.1113 249.18C98.6988 249.18 99.1394 249.314 98.8457 249.449Z" fill="white"/>
<path d="M87.8302 233.063C87.8302 231.854 87.9771 230.511 88.1239 229.168H88.8583C88.7114 230.645 88.5646 231.988 88.5646 233.466C88.5646 234.809 88.7114 236.152 88.8583 237.361L81.074 246.36C81.8084 248.643 82.6896 250.658 83.8646 252.404V252.941C82.3959 251.061 81.2209 248.643 80.3397 245.957L88.1239 236.958C87.9771 235.749 87.8302 234.406 87.8302 233.063Z" fill="white"/>
<path d="M122.492 181.218L117.792 191.829C116.47 192.232 115.295 192.769 113.974 193.575C112.652 194.246 111.33 195.052 110.155 195.992L110.008 195.321C111.036 194.649 112.211 193.843 113.386 193.306C114.708 192.635 116.03 192.097 117.205 191.56L121.905 180.949C124.842 180.144 127.78 180.009 130.277 180.144L130.13 180.546C127.927 180.412 124.989 180.546 122.492 181.218Z" fill="white"/>
<path d="M118.38 244.345L122.345 249.046C122.199 249.18 122.052 249.315 121.905 249.449L117.939 244.748C117.939 244.614 118.086 244.479 118.38 244.345Z" fill="white"/>
<path d="M146.286 211.438L138.501 210.632V210.095L146.286 211.438Z" fill="white"/>
<path d="M100.168 194.515L97.8176 190.754C97.5238 190.351 97.2301 190.083 96.9363 190.083L96.202 189.008C97.2301 188.068 97.0832 185.919 95.9082 183.904C94.5863 181.755 92.2364 180.546 90.9145 181.218C89.5927 181.89 89.5927 184.307 90.9145 186.456C92.2364 188.471 94.1457 189.68 95.6145 189.277L96.3488 190.351C96.202 190.62 96.202 191.023 96.4957 191.426L98.8457 195.186C99.1394 195.724 99.58 195.858 99.8738 195.724L100.314 195.455C100.461 195.589 100.461 195.052 100.168 194.515ZM94.8801 187.934C93.9989 188.471 92.5301 187.665 91.502 186.188C90.6208 184.71 90.6208 183.233 91.502 182.695C92.3833 182.158 93.852 182.964 94.8801 184.441C95.7613 185.919 95.7613 187.396 94.8801 187.934Z" fill="white"/>
<path d="M296.514 86.3715L353.698 119.944L365.736 146L370 144.246V73.0929L296.514 30L292 32.0043L296.514 86.3715Z" fill="#FFCC00"/>
<path d="M364.733 75.5983L294.257 34.2592L293.254 31.0022L366.74 74.3456V145.499L364.733 139.737V75.5983Z" fill="white"/>
<path d="M292 87.8746L348.932 121.697L365.486 146V74.8465L292 31.7537V87.8746Z" fill="#FFDE17"/>
<path d="M310.309 59.5636L305.543 56.8077V51.7969L319.588 60.0647V64.825L314.823 62.069V90.8811L310.309 88.1252V59.5636Z" fill="#001A46"/>
<path d="M323.1 94.1381C321.846 91.8833 321.344 89.6284 321.344 86.8725V69.0842C321.344 66.3282 321.846 64.5744 323.1 63.8228C324.354 63.0712 326.109 63.3217 328.367 64.5744C330.624 65.8271 332.379 67.5809 333.633 69.8358C334.887 72.0906 335.389 74.3455 335.389 77.1014V94.8898C335.389 97.6457 334.887 99.3995 333.633 100.151C332.379 100.903 330.624 100.652 328.367 99.3995C326.109 97.8962 324.354 96.1425 323.1 94.1381ZM330.624 92.3844V74.0949C330.624 71.8401 329.871 70.3368 328.116 69.3347C326.611 68.3325 325.608 69.0842 325.608 71.339V89.6284C325.608 91.8833 326.36 93.3865 328.116 94.3887C329.871 95.3908 330.624 94.6392 330.624 92.3844Z" fill="#001A46"/>
<path d="M338.399 70.8379L345.17 74.8465C347.428 76.0992 349.183 77.853 350.437 79.8573C351.691 81.8616 352.193 84.367 352.193 87.123V90.38C352.193 93.1359 351.691 94.8897 350.437 95.6413C349.183 96.393 347.678 96.1424 345.17 94.8897L342.913 93.637V107.417L338.399 104.661V70.8379ZM345.17 90.1295C345.923 90.6305 346.424 90.6305 346.926 90.38C347.428 90.1295 347.428 89.3778 347.428 88.3757V84.367C347.428 83.1143 347.177 82.3627 346.926 81.6111C346.424 80.8595 345.923 80.3584 345.17 79.8573L342.913 78.6046V88.8768L345.17 90.1295Z" fill="#001A46"/>
<g clip-path="url(#clip0)">
<path d="M380.102 398.51C382.077 402.28 380.641 407.128 376.871 409.102C373.101 411.077 368.254 409.641 366.279 405.871C364.304 402.1 365.74 397.253 369.51 395.278C373.28 393.303 377.948 394.739 380.102 398.51Z" fill="#001A46"/>
<path d="M355.328 349.317L338.453 358.473L363.766 404.973C365.202 407.666 370.228 407.846 374.896 405.332C379.564 402.819 382.077 398.51 380.641 395.817L355.328 349.317Z" fill="#084C94"/>
<path d="M355.328 349.496C356.764 352.189 354.251 356.498 349.583 359.012C344.915 361.525 339.889 361.346 338.453 358.653C337.016 355.959 339.53 351.651 344.197 349.137C348.865 346.444 353.892 346.624 355.328 349.496Z" fill="#2672AB"/>
<path d="M344.377 337.108L334.323 342.494L341.504 355.78C342.402 357.396 345.274 357.575 348.147 355.96C350.84 354.523 352.455 352.01 351.558 350.394L344.377 337.108Z" fill="#001A46"/>
<path d="M315.832 230.284C303.266 223.102 291.955 222.205 283.697 226.693C283.518 226.873 271.49 233.515 271.131 234.054C279.568 227.591 292.135 227.77 306.138 235.849C331.631 250.571 352.276 286.12 352.276 315.384C352.276 330.286 346.89 340.699 338.273 345.367C338.812 345.187 339.709 344.828 340.607 344.29C340.786 344.11 349.045 339.263 349.224 339.083C357.303 334.236 362.15 324.002 362.15 309.819C361.97 280.734 341.325 245.006 315.832 230.284Z" fill="#72B5E8"/>
<path d="M306.138 235.849C280.645 221.127 260 232.977 260 262.241C260 291.506 280.645 327.054 306.138 341.776C331.631 356.498 352.276 344.649 352.276 315.564C352.276 286.479 331.631 250.571 306.138 235.849ZM305.42 334.774C283.877 322.207 266.283 292.044 266.283 267.268C266.283 242.492 283.877 232.438 305.42 245.006C326.963 257.573 344.556 287.736 344.556 312.512C344.556 337.288 326.963 347.162 305.42 334.774Z" fill="#D1EBFF"/>
<path d="M313.499 330.286C291.955 317.718 274.362 287.556 274.362 262.78C274.362 252.726 277.234 245.006 282.261 240.338C272.567 242.851 266.283 252.546 266.283 267.268C266.283 292.044 283.877 322.207 305.42 334.774C318.166 342.135 329.656 341.597 336.657 334.954C330.194 336.57 322.116 335.313 313.499 330.286Z" fill="#72B5E8"/>
<path d="M308.292 234.772C296.085 227.77 284.954 226.693 276.696 230.823C284.415 228.668 295.726 229.925 305.958 235.85C331.451 250.572 352.096 286.12 352.096 315.384C352.096 330.645 344.736 341.597 335.76 345.906C347.07 342.674 354.251 331.543 354.251 314.128C354.43 285.043 333.785 249.494 308.292 234.772Z" fill="white"/>
<path d="M308.113 273.732L297.162 261.882L300.393 260.087C300.393 260.087 302.009 260.625 303.984 260.985C305.958 261.523 307.574 261.344 308.651 260.625C309.908 259.907 310.806 258.291 311.703 255.958L319.423 260.446V322.925L307.933 316.282V273.732H308.113Z" fill="#F76195"/>
<path d="M304.881 275.707L297.162 271.398V262.062C297.162 262.062 298.777 262.6 300.752 262.959C302.727 263.498 304.343 263.318 305.42 262.6C306.677 261.882 307.574 260.266 308.472 257.932L316.191 262.421V324.9L304.881 318.436V275.707Z" fill="#EB4680"/>
<path d="M316.191 324.9L319.602 323.104V260.625L316.191 262.421V324.9Z" fill="#D62D69"/>
<path d="M311.883 256.137L308.651 257.932L316.191 262.421L319.602 260.626L311.883 256.137Z" fill="#F76195"/>
<path opacity="0.5" d="M316.191 262.062L308.651 257.932L316.191 262.421L319.602 260.625L316.191 262.062Z" fill="white"/>
</g>
<defs>
<clipPath id="clip0">
<rect width="121" height="186" fill="white" transform="translate(260 224)"/>
</clipPath>
</defs>
</svg>
