<svg width="400" height="380" viewBox="0 0 400 380" fill="none" xmlns="http://www.w3.org/2000/svg">
<g filter="url(#filter0_d)">
<g opacity="0.5">
<path opacity="0.5" d="M268.035 135.27L154.484 69.6634C152.702 68.5294 150.92 68.5294 149.786 69.3394L142.983 73.2272L147.356 76.467V80.0308L144.764 81.1647L144.926 216.103L152.378 223.392L177.971 238.133L259.288 284.139C259.288 284.139 262.203 284.139 262.689 284.139C262.851 284.139 263.013 283.815 263.175 283.167L266.577 285.111L265.443 290.294L272.408 286.245C273.866 285.435 274.838 283.329 274.838 280.413V148.877C275 143.693 271.922 137.537 268.035 135.27ZM264.957 276.687L155.455 213.349C154.484 212.863 153.836 211.405 153.836 210.271V80.1927L176.513 94.7719L261.393 145.475L263.823 149.201L265.119 208.003L264.957 276.687Z" fill="url(#paint0_linear)"/>
<path opacity="0.6" d="M272.732 140.615L262.041 146.771L263.661 149.201L264.957 208.003L264.795 276.525L262.851 275.391C262.851 277.497 265.605 288.027 265.605 290.132L271.274 286.893L272.57 286.083C274.028 285.273 275 283.167 275 280.251V148.877C275 146.123 274.19 143.207 272.732 140.615Z" fill="#0F054C"/>
<path opacity="0.5" d="M260.745 139.481L147.356 73.7133C143.307 71.4454 140.229 73.8753 140.229 79.059V210.757C140.229 215.941 143.469 222.097 147.356 224.364L260.907 290.133C264.795 292.4 268.035 289.971 268.035 284.787V153.089C267.873 147.743 264.795 141.749 260.745 139.481ZM261.393 280.737C261.393 281.871 260.745 282.519 259.773 282.033L148.328 217.399C147.356 216.913 146.708 215.455 146.708 214.321V83.1087C146.708 81.9748 147.356 81.3268 148.328 81.8128L259.773 146.285C260.745 146.771 261.393 148.229 261.393 149.363V280.737Z" fill="url(#paint1_linear)"/>
<path opacity="0.5" d="M260.745 139.481L147.356 73.7133C143.307 71.4454 140.229 73.8753 140.229 79.059V210.757C140.229 215.941 143.469 222.097 147.356 224.364L260.907 290.133C264.795 292.4 268.035 289.971 268.035 284.787V153.089C267.873 147.743 264.795 141.749 260.745 139.481ZM261.393 280.737C261.393 281.871 260.745 282.519 259.773 282.033L148.328 217.399C147.356 216.913 146.708 215.455 146.708 214.321V83.1087C146.708 81.9748 147.356 81.3268 148.328 81.8128L259.773 146.285C260.745 146.771 261.393 148.229 261.393 149.363V280.737Z" fill="url(#paint2_linear)"/>
<path opacity="0.5" d="M155.455 213.349C154.484 212.863 153.836 211.405 153.836 210.271V85.0523L148.328 81.8125C147.356 81.3266 146.708 81.8125 146.708 83.1085V214.321C146.708 215.455 147.356 216.913 148.328 217.399L259.773 281.871C260.745 282.357 261.393 281.871 261.393 280.575V274.419L155.455 213.349Z" fill="#251C72"/>
<path opacity="0.4" d="M261.393 280.737C261.393 281.871 260.745 282.519 259.773 282.033L148.328 217.399C147.356 216.913 146.708 215.455 146.708 214.321V83.1086C146.708 81.9747 147.356 81.3267 148.328 81.8127L259.773 146.285C260.745 146.771 261.393 148.229 261.393 149.363V280.737Z" fill="#42E8E0"/>
</g>
<g opacity="0.5">
<path opacity="0.5" d="M5.29588 148.877V280.575C5.29588 283.491 6.26778 285.435 7.72564 286.407L14.691 290.456L13.7191 285.111L17.1207 283.167C17.2827 283.653 17.4447 284.139 17.6067 284.139C17.9307 284.139 21.0084 284.139 21.0084 284.139L102.325 238.133L127.918 223.392L135.369 216.103L135.531 81.0027L132.94 79.8688V76.305L137.313 73.0652L130.672 69.3394C129.376 68.5294 127.756 68.6914 125.974 69.6634L12.4232 135.27C8.53556 137.537 5.29588 143.693 5.29588 148.877ZM15.3389 208.003L16.6348 149.201L19.0646 145.475L103.944 94.7719L126.622 80.1928V210.109C126.622 211.243 125.974 212.701 125.002 213.187L15.5009 276.687L15.3389 208.003Z" fill="url(#paint3_linear)"/>
<path opacity="0.6" d="M7.56366 140.615L18.2546 146.771L16.6348 149.201L15.3389 208.003L15.5009 276.687L17.4447 275.553C17.4447 277.659 14.691 288.189 14.691 290.294L9.02152 287.055L7.72564 286.245C6.26778 285.435 5.29588 283.329 5.29588 280.413V148.877C5.29588 146.123 6.26778 143.207 7.56366 140.615Z" fill="#0F054C"/>
<path opacity="0.5" d="M12.5852 153.088V284.787C12.5852 289.97 15.8249 292.4 19.7125 290.132L133.264 224.364C137.151 222.096 140.391 216.103 140.391 210.757V79.0587C140.391 73.875 137.151 71.4452 133.264 73.713L19.5505 139.481C15.6629 141.749 12.5852 147.743 12.5852 153.088ZM19.0646 149.525C19.0646 148.391 19.7125 146.933 20.6844 146.447L132.13 81.9746C133.102 81.4886 133.75 81.9746 133.75 83.2705V214.483C133.75 215.617 133.102 217.075 132.13 217.561L20.6844 282.033C19.7125 282.519 19.0646 282.033 19.0646 280.737V149.525Z" fill="url(#paint4_linear)"/>
<path opacity="0.5" d="M12.5852 153.088V284.787C12.5852 289.97 15.8249 292.4 19.7125 290.132L133.264 224.364C137.151 222.096 140.391 216.103 140.391 210.757V79.0587C140.391 73.875 137.151 71.4452 133.264 73.713L19.5505 139.481C15.6629 141.749 12.5852 147.743 12.5852 153.088ZM19.0646 149.525C19.0646 148.391 19.7125 146.933 20.6844 146.447L132.13 81.9746C133.102 81.4886 133.75 81.9746 133.75 83.2705V214.483C133.75 215.617 133.102 217.075 132.13 217.561L20.6844 282.033C19.7125 282.519 19.0646 282.033 19.0646 280.737V149.525Z" fill="url(#paint5_linear)"/>
<path opacity="0.5" d="M125.002 213.349C125.974 212.863 126.622 211.405 126.622 210.271V85.0523L132.13 81.8125C133.102 81.3266 133.75 81.8125 133.75 83.1085V214.321C133.75 215.455 133.102 216.913 132.13 217.399L20.6844 281.871C19.7125 282.357 19.0646 281.871 19.0646 280.575V274.419L125.002 213.349Z" fill="#251C72"/>
<path opacity="0.4" d="M19.0646 280.737C19.0646 281.871 19.7125 282.519 20.6844 282.033L132.13 217.561C133.102 217.075 133.75 215.617 133.75 214.483V83.2705C133.75 82.1365 133.102 81.4886 132.13 81.9745L20.6844 146.285C19.7125 146.771 19.0646 148.229 19.0646 149.363V280.737Z" fill="#42E8E0"/>
</g>
<path d="M140.229 223.878L109.128 205.735V241.859L140.229 259.84L171.33 241.859V205.735L140.229 223.878Z" fill="#42E8E0"/>
<path d="M140.229 259.84L109.128 241.859V205.735L140.229 223.878V259.84Z" fill="#42E8E0"/>
<path d="M171.33 241.859L140.229 259.84V223.878L171.33 205.735V241.859Z" fill="#2FD3C7"/>
<path d="M140.229 223.878L109.128 205.735L140.229 187.754L171.33 205.735L140.229 223.878Z" fill="#42E8E0"/>
<path d="M140.229 223.878L110.424 206.545L109.128 207.355L140.229 225.336L171.33 207.355L170.034 206.545L140.229 223.878Z" fill="white"/>
<path d="M180.725 246.881L149.462 228.9V264.862L180.725 282.843L211.826 264.862V228.9L180.725 246.881Z" fill="#42E8E0"/>
<path d="M180.725 282.843L149.462 264.862V228.9L180.725 246.881V282.843Z" fill="#42E8E0"/>
<path d="M211.826 264.862L180.725 282.843V246.881L211.826 228.9V264.862Z" fill="#2FD3C7"/>
<path d="M180.725 246.881L149.462 228.9L180.725 210.919L211.826 228.9L180.725 246.881Z" fill="#42E8E0"/>
<path d="M180.725 246.881L150.92 229.71L149.462 230.52L180.725 248.501L211.826 230.52L210.53 229.71L180.725 246.881Z" fill="white"/>
<path d="M221.221 270.046L189.958 252.065V288.027L221.221 306.008L252.322 288.027V252.065L221.221 270.046Z" fill="#42E8E0"/>
<path d="M221.221 306.008L189.958 288.027V252.065L221.221 270.046V306.008Z" fill="#42E8E0"/>
<path d="M252.322 288.027L221.221 306.008V270.046L252.322 252.065V288.027Z" fill="#2FD3C7"/>
<path d="M221.221 270.046L189.958 252.065L221.221 234.084L252.322 252.065L221.221 270.046Z" fill="#42E8E0"/>
<path d="M221.221 270.046L191.416 252.713L189.958 253.523L221.221 271.504L252.322 253.523V252.065L221.221 270.046Z" fill="white"/>
<path d="M99.7328 248.501L68.6318 230.52V266.482L99.7328 284.463L130.834 266.482V230.52L99.7328 248.501Z" fill="#42E8E0"/>
<path d="M99.7328 284.463L68.6318 266.482V230.52L99.7328 248.501V284.463Z" fill="#42E8E0"/>
<path d="M130.834 266.482L99.7328 284.463V248.501L130.834 230.52V266.482Z" fill="#2FD3C7"/>
<path d="M99.7328 248.501L68.6318 230.52L99.7328 212.539L130.834 230.52L99.7328 248.501Z" fill="#42E8E0"/>
<path d="M99.7328 248.501L69.9277 231.168L68.6318 231.978L99.7328 249.959L130.834 231.978L129.538 231.168L99.7328 248.501Z" fill="white"/>
<path d="M140.229 271.503L109.128 253.522V289.484L140.229 307.465L171.33 289.484V253.522L140.229 271.503Z" fill="#42E8E0"/>
<path d="M140.229 307.465L109.128 289.484V253.522L140.229 271.503V307.465Z" fill="#42E8E0"/>
<path d="M171.33 289.484L140.229 307.465V271.503L171.33 253.522V289.484Z" fill="#2FD3C7"/>
<path d="M140.229 271.503L109.128 253.522L140.229 235.542L171.33 253.522L140.229 271.503Z" fill="#42E8E0"/>
<path d="M140.229 271.504L110.424 254.333L109.128 255.142L140.229 273.123L171.33 255.142L170.034 254.333L140.229 271.504Z" fill="white"/>
<path d="M180.725 294.668L149.462 276.687V312.649L180.725 330.63L211.826 312.649V276.687L180.725 294.668Z" fill="#42E8E0"/>
<path d="M180.725 330.63L149.462 312.649V276.687L180.725 294.668V330.63Z" fill="#42E8E0"/>
<path d="M211.826 312.649L180.725 330.63V294.668L211.826 276.687V312.649Z" fill="#2FD3C7"/>
<path d="M180.725 294.668L149.462 276.687L180.725 258.706L211.826 276.687L180.725 294.668Z" fill="#42E8E0"/>
<path d="M180.725 294.668L150.92 277.497L149.462 278.145L180.725 296.126L211.826 278.145V276.687L180.725 294.668Z" fill="white"/>
<path d="M59.2367 273.123L28.1357 255.142V291.104L59.2367 309.085L90.4997 291.104V255.142L59.2367 273.123Z" fill="#42E8E0"/>
<path d="M59.2367 309.085L28.1357 291.104V255.142L59.2367 273.123V309.085Z" fill="#42E8E0"/>
<path d="M90.4997 291.104L59.2367 309.085V273.123L90.4997 255.142V291.104Z" fill="#2FD3C7"/>
<path d="M59.2367 273.123L28.1357 255.142L59.2367 237.161L90.4997 255.142L59.2367 273.123Z" fill="#42E8E0"/>
<path d="M59.2367 273.123L28.1357 255.142V256.6L59.2367 274.743L90.4997 256.6L89.0418 255.952L59.2367 273.123Z" fill="white"/>
<path d="M99.7328 296.126L68.6318 278.145V314.107L99.7328 332.25L130.834 314.107V278.145L99.7328 296.126Z" fill="#42E8E0"/>
<path d="M99.7328 332.25L68.6318 314.107V278.145L99.7328 296.126V332.25Z" fill="#42E8E0"/>
<path d="M130.834 314.107L99.7328 332.25V296.126L130.834 278.145V314.107Z" fill="#2FD3C7"/>
<path d="M99.7328 296.126L68.6318 278.145L99.7328 260.164L130.834 278.145L99.7328 296.126Z" fill="#42E8E0"/>
<path d="M99.7328 296.126L68.6318 278.145V279.765L99.7328 297.746L130.834 279.765L129.538 278.955L99.7328 296.126Z" fill="white"/>
<path d="M140.229 319.291L109.128 301.31V337.272L140.229 355.253L171.33 337.272V301.31L140.229 319.291Z" fill="#42E8E0"/>
<path d="M140.229 355.253L109.128 337.272V301.31L140.229 319.291V355.253Z" fill="#42E8E0"/>
<path d="M171.33 337.272L140.229 355.253V319.291L171.33 301.31V337.272Z" fill="#2FD3C7"/>
<path d="M140.229 319.291L109.128 301.31L140.229 283.329L171.33 301.31L140.229 319.291Z" fill="#42E8E0"/>
<path d="M140.229 319.291L109.128 301.31V302.93L140.229 320.911L171.33 302.93V301.31L140.229 319.291Z" fill="white"/>
<path d="M140.229 176.091L109.128 158.11V194.072L140.229 212.053L171.33 194.072V158.11L140.229 176.091Z" fill="#42E8E0"/>
<path d="M140.229 212.053L109.128 194.072V158.11L140.229 176.091V212.053Z" fill="#42E8E0"/>
<path d="M171.33 194.072L140.229 212.053V176.091L171.33 158.11V194.072Z" fill="#2FD3C7"/>
<path d="M140.229 176.091L109.128 158.11L140.229 140.129L171.33 158.11L140.229 176.091Z" fill="#42E8E0"/>
<path d="M140.229 176.091L110.424 158.92L109.128 159.568L140.229 177.549L171.33 159.568L170.034 158.92L140.229 176.091Z" fill="white"/>
<path opacity="0.7" d="M140.229 313.459L119.009 301.148L140.229 288.837L161.449 301.148L140.229 313.459Z" fill="#18B2A3"/>
<path opacity="0.7" d="M99.7328 290.295L78.5128 278.145L99.7328 265.834L120.953 278.145L99.7328 290.295Z" fill="#18B2A3"/>
<path opacity="0.7" d="M180.725 288.837L159.343 276.525L180.725 264.214L201.945 276.525L180.725 288.837Z" fill="#18B2A3"/>
<path opacity="0.7" d="M221.221 264.376L200.001 252.065L221.221 239.916L242.441 252.065L221.221 264.376Z" fill="#18B2A3"/>
<path opacity="0.7" d="M59.2367 267.292L38.0167 254.981L59.2367 242.669L80.4567 254.981L59.2367 267.292Z" fill="#18B2A3"/>
<path d="M180.725 199.094L149.462 181.113V217.075L180.725 235.056L211.826 217.075V181.113L180.725 199.094Z" fill="#42E8E0"/>
<path d="M180.725 235.056L149.462 217.075V181.113L180.725 199.094V235.056Z" fill="#42E8E0"/>
<path d="M211.826 217.075L180.725 235.056V199.094L211.826 181.113V217.075Z" fill="#2FD3C7"/>
<path d="M180.725 199.094L149.462 181.113L180.725 163.132L211.826 181.113L180.725 199.094Z" fill="#42E8E0"/>
<path d="M180.725 199.094L150.92 181.923L149.462 182.733L180.725 200.714L211.826 182.733L210.53 181.923L180.725 199.094Z" fill="white"/>
<path d="M221.221 222.259L189.958 204.278V240.239L221.221 258.22L252.322 240.239V204.278L221.221 222.259Z" fill="#42E8E0"/>
<path d="M221.221 258.22L189.958 240.239V204.278L221.221 222.259V258.22Z" fill="#42E8E0"/>
<path d="M252.322 240.239L221.221 258.22V222.259L252.322 204.278V240.239Z" fill="#2FD3C7"/>
<path d="M221.221 222.258L189.958 204.278L221.221 186.297L252.322 204.278L221.221 222.258Z" fill="#42E8E0"/>
<path d="M221.221 222.259L191.416 205.088L189.958 205.735L221.221 223.878L252.322 205.735V204.278L221.221 222.259Z" fill="white"/>
<path d="M99.7328 200.714L68.6318 182.733V218.695L99.7328 236.675L130.834 218.695V182.733L99.7328 200.714Z" fill="#42E8E0"/>
<path d="M99.7328 236.675L68.6318 218.695V182.733L99.7328 200.714V236.675Z" fill="#42E8E0"/>
<path d="M130.834 218.695L99.7328 236.675V200.714L130.834 182.733V218.695Z" fill="#2FD3C7"/>
<path d="M99.7328 200.714L68.6318 182.733L99.7328 164.752L130.834 182.733L99.7328 200.714Z" fill="#42E8E0"/>
<path d="M99.7328 200.714L69.9277 183.543L68.6318 184.353L99.7328 202.334L130.834 184.353L129.538 183.543L99.7328 200.714Z" fill="white"/>
<path d="M140.229 223.878L109.128 205.735V241.859L140.229 259.84L171.33 241.859V205.735L140.229 223.878Z" fill="#42E8E0"/>
<path d="M140.229 259.84L109.128 241.859V205.735L140.229 223.878V259.84Z" fill="#42E8E0"/>
<path d="M171.33 241.859L140.229 259.84V223.878L171.33 205.735V241.859Z" fill="#2FD3C7"/>
<path d="M140.229 223.878L109.128 205.735L140.229 187.754L171.33 205.735L140.229 223.878Z" fill="#42E8E0"/>
<path d="M140.229 223.878L110.424 206.545L109.128 207.355L140.229 225.336L171.33 207.355L170.034 206.545L140.229 223.878Z" fill="white"/>
<path d="M180.725 246.881L149.462 228.9V264.862L180.725 282.843L211.826 264.862V228.9L180.725 246.881Z" fill="#42E8E0"/>
<path d="M180.725 282.843L149.462 264.862V228.9L180.725 246.881V282.843Z" fill="#42E8E0"/>
<path d="M211.826 264.862L180.725 282.843V246.881L211.826 228.9V264.862Z" fill="#2FD3C7"/>
<path d="M180.725 246.881L149.462 228.9L180.725 210.919L211.826 228.9L180.725 246.881Z" fill="#42E8E0"/>
<path d="M180.725 246.881L150.92 229.71L149.462 230.52L180.725 248.501L211.826 230.52V228.9L180.725 246.881Z" fill="white"/>
<path d="M59.2367 225.336L28.1357 207.355V243.317L59.2367 261.298L90.4997 243.317V207.355L59.2367 225.336Z" fill="#42E8E0"/>
<path d="M59.2367 261.298L28.1357 243.317V207.355L59.2367 225.336V261.298Z" fill="#42E8E0"/>
<path d="M90.4997 243.317L59.2367 261.298V225.336L90.4997 207.355V243.317Z" fill="#2FD3C7"/>
<path d="M59.2367 225.336L28.1357 207.355L59.2367 189.374L90.4997 207.355L59.2367 225.336Z" fill="#42E8E0"/>
<path d="M59.2367 225.336L29.4316 208.165L28.1357 208.975L59.2367 226.956L90.4997 208.975L89.0418 208.165L59.2367 225.336Z" fill="white"/>
<path d="M99.7328 248.501L68.6318 230.52V266.482L99.7328 284.463L130.834 266.482V230.52L99.7328 248.501Z" fill="#42E8E0"/>
<path d="M99.7328 284.463L68.6318 266.482V230.52L99.7328 248.501V284.463Z" fill="#42E8E0"/>
<path d="M130.834 266.482L99.7328 284.463V248.501L130.834 230.52V266.482Z" fill="#2FD3C7"/>
<path d="M99.7328 248.501L68.6318 230.52L99.7328 212.539L130.834 230.52L99.7328 248.501Z" fill="#42E8E0"/>
<path d="M99.7328 248.501L68.6318 230.52V231.978L99.7328 249.959L130.834 231.978L129.538 231.168L99.7328 248.501Z" fill="white"/>
<path d="M140.229 271.503L109.128 253.522V289.484L140.229 307.465L171.33 289.484V253.522L140.229 271.503Z" fill="#42E8E0"/>
<path d="M140.229 307.465L109.128 289.484V253.522L140.229 271.503V307.465Z" fill="#42E8E0"/>
<path d="M171.33 289.484L140.229 307.465V271.503L171.33 253.522V289.484Z" fill="#2FD3C7"/>
<path d="M140.229 271.503L109.128 253.522L140.229 235.542L171.33 253.522L140.229 271.503Z" fill="#42E8E0"/>
<path d="M140.229 271.503L109.128 253.522V255.142L140.229 273.123L171.33 255.142V253.522L140.229 271.503Z" fill="white"/>
<path opacity="0.7" d="M221.221 216.913L200.001 204.601L221.221 192.29L242.441 204.601L221.221 216.913Z" fill="#18B2A3"/>
<path opacity="0.7" d="M59.2367 219.666L38.0167 207.517L59.2367 195.206L80.4567 207.517L59.2367 219.666Z" fill="#18B2A3"/>
<path d="M140.229 128.304L109.128 110.323V146.285L140.229 164.266L171.33 146.285V110.323L140.229 128.304Z" fill="#42E8E0"/>
<path d="M140.229 164.266L109.128 146.285V110.323L140.229 128.304V164.266Z" fill="#42E8E0"/>
<path d="M171.33 146.285L140.229 164.266V128.304L171.33 110.323V146.285Z" fill="#2FD3C7"/>
<path d="M140.229 128.304L109.128 110.323L140.229 92.342L171.33 110.323L140.229 128.304Z" fill="#42E8E0"/>
<path d="M140.229 128.304L109.128 110.323V111.943L140.229 129.924L171.33 111.943V110.323L140.229 128.304Z" fill="white"/>
<path d="M180.725 151.468L149.462 133.488V169.449L180.725 187.43L211.826 169.449V133.488L180.725 151.468Z" fill="#42E8E0"/>
<path d="M180.725 187.43L149.462 169.449V133.488L180.725 151.468V187.43Z" fill="#42E8E0"/>
<path d="M211.826 169.449L180.725 187.43V151.468L211.826 133.488V169.449Z" fill="#2FD3C7"/>
<path d="M180.725 151.468L149.462 133.488L180.725 115.507L211.826 133.488L180.725 151.468Z" fill="#42E8E0"/>
<path d="M180.725 151.468L149.462 133.488V134.945L180.725 152.926L211.826 134.945V133.488L180.725 151.468Z" fill="white"/>
<path d="M221.221 174.471L189.958 156.49V192.452L221.221 210.433L252.322 192.452V156.49L221.221 174.471Z" fill="#42E8E0"/>
<path d="M221.221 210.433L189.958 192.452V156.49L221.221 174.471V210.433Z" fill="#42E8E0"/>
<path d="M252.322 192.452L221.221 210.433V174.471L252.322 156.49V192.452Z" fill="#2FD3C7"/>
<path d="M221.221 174.471L189.958 156.49L221.221 138.509L252.322 156.49L221.221 174.471Z" fill="#42E8E0"/>
<path d="M221.221 174.471L189.958 156.49V158.11L221.221 176.091L252.322 158.11V156.49L221.221 174.471Z" fill="white"/>
<path d="M99.7328 152.926L68.6318 134.946V170.907L99.7328 188.888L130.834 170.907V134.946L99.7328 152.926Z" fill="#42E8E0"/>
<path d="M99.7328 188.888L68.6318 170.907V134.946L99.7328 152.926V188.888Z" fill="#42E8E0"/>
<path d="M130.834 170.907L99.7328 188.888V152.926L130.834 134.946V170.907Z" fill="#2FD3C7"/>
<path d="M99.7328 152.926L68.6318 134.946L99.7328 116.965L130.834 134.946L99.7328 152.926Z" fill="#42E8E0"/>
<path d="M99.7328 152.926L68.6318 134.946V136.565L99.7328 154.546L130.834 136.565V134.946L99.7328 152.926Z" fill="white"/>
<path d="M59.2367 177.549L28.1357 159.568V195.53L59.2367 213.673L90.4997 195.53V159.568L59.2367 177.549Z" fill="#42E8E0"/>
<path d="M59.2367 213.673L28.1357 195.53V159.568L59.2367 177.549V213.673Z" fill="#42E8E0"/>
<path d="M90.4997 195.53L59.2367 213.673V177.549L90.4997 159.568V195.53Z" fill="#2FD3C7"/>
<path d="M59.2367 177.549L28.1357 159.568L59.2367 141.587L90.4997 159.568L59.2367 177.549Z" fill="#42E8E0"/>
<path d="M59.2367 177.549L28.1357 159.568V161.188L59.2367 179.169L90.4997 161.188V159.568L59.2367 177.549Z" fill="white"/>
<path opacity="0.7" d="M140.229 266.32L119.009 254.009L140.229 241.697L161.449 254.009L140.229 266.32Z" fill="#18B2A3"/>
<path opacity="0.7" d="M99.7328 243.155L78.5128 230.844L99.7328 218.695L120.953 230.844L99.7328 243.155Z" fill="#18B2A3"/>
<path opacity="0.7" d="M180.725 241.535L159.343 229.386L180.725 217.075L201.945 229.386L180.725 241.535Z" fill="#18B2A3"/>
<path d="M140.229 176.577L109.128 158.596V194.558L140.229 212.539L171.33 194.558V158.596L140.229 176.577Z" fill="#42E8E0"/>
<path d="M140.229 212.539L109.128 194.558V158.596L140.229 176.577V212.539Z" fill="#42E8E0"/>
<path d="M171.33 194.558L140.229 212.539V176.577L171.33 158.596V194.558Z" fill="#2FD3C7"/>
<path d="M140.229 176.577L109.128 158.596L140.229 140.615L171.33 158.596L140.229 176.577Z" fill="#42E8E0"/>
<path d="M140.229 176.577L110.424 159.406L109.128 160.216L140.229 178.197L171.33 160.216L170.034 159.406L140.229 176.577Z" fill="white"/>
<path d="M180.725 199.742L149.462 181.761V217.723L180.725 235.704L211.826 217.723V181.761L180.725 199.742Z" fill="#42E8E0"/>
<path d="M180.725 235.704L149.462 217.723V181.761L180.725 199.742V235.704Z" fill="#42E8E0"/>
<path d="M211.826 217.723L180.725 235.704V199.742L211.826 181.761V217.723Z" fill="#2FD3C7"/>
<path d="M180.725 199.742L149.462 181.761L180.725 163.78L211.826 181.761L180.725 199.742Z" fill="#42E8E0"/>
<path d="M180.725 199.742L150.92 182.571L149.462 183.219L180.725 201.362L211.826 183.219V181.761L180.725 199.742Z" fill="white"/>
<path d="M99.7328 201.362L68.6318 183.219V219.343L99.7328 237.324L130.834 219.343V183.219L99.7328 201.362Z" fill="#42E8E0"/>
<path d="M99.7328 237.324L68.6318 219.343V183.219L99.7328 201.362V237.324Z" fill="#42E8E0"/>
<path d="M130.834 219.343L99.7328 237.324V201.362L130.834 183.219V219.343Z" fill="#2FD3C7"/>
<path d="M99.7328 201.362L68.6318 183.219L99.7328 165.238L130.834 183.219L99.7328 201.362Z" fill="#42E8E0"/>
<path d="M99.7328 201.362L68.6318 183.219V184.839L99.7328 202.82L130.834 184.839L129.538 184.029L99.7328 201.362Z" fill="white"/>
<path d="M140.229 224.364L109.128 206.383V242.345L140.229 260.326L171.33 242.345V206.383L140.229 224.364Z" fill="#42E8E0"/>
<path d="M140.229 260.326L109.128 242.345V206.383L140.229 224.364V260.326Z" fill="#42E8E0"/>
<path d="M171.33 242.345L140.229 260.326V224.364L171.33 206.383V242.345Z" fill="#2FD3C7"/>
<path d="M140.229 224.364L109.128 206.383L140.229 188.402L171.33 206.383L140.229 224.364Z" fill="#42E8E0"/>
<path d="M140.229 224.364L109.128 206.383V208.003L140.229 225.984L171.33 208.003V206.383L140.229 224.364Z" fill="white"/>
<path d="M131.806 208.489L18.2546 142.883C16.4728 141.911 14.853 141.749 13.5571 142.559L6.75373 146.447L11.1273 149.687V153.25L8.53556 154.384L8.69754 289.484L16.1488 296.774L41.7424 311.515L123.059 357.52C123.059 357.52 125.974 357.52 126.46 357.52C126.622 357.52 126.784 357.197 126.946 356.549L130.348 358.492L129.214 363.676L136.179 359.626C137.637 358.816 138.609 356.711 138.609 353.795V222.096C138.771 216.913 135.693 210.757 131.806 208.489ZM128.728 349.907L19.2265 286.407C18.2546 285.921 17.6067 284.463 17.6067 283.329V153.412L40.2845 167.992L125.164 218.695L127.594 222.42L128.89 281.223L128.728 349.907Z" fill="url(#paint6_linear)"/>
<path opacity="0.6" d="M136.665 213.835L125.974 219.991L127.594 222.42L128.89 281.223L128.728 349.907L126.784 348.773C126.784 350.879 129.538 361.408 129.538 363.514L135.207 360.274L136.503 359.464C137.961 358.654 138.933 356.549 138.933 353.633V221.934C138.771 219.343 137.961 216.427 136.665 213.835Z" fill="#0F054C"/>
<path d="M124.678 212.701L11.1273 146.933C7.23969 144.665 4 147.095 4 152.278V283.977C4 289.16 7.23969 295.316 11.1273 297.584L124.678 363.352C128.566 365.62 131.806 363.19 131.806 358.006V226.308C131.644 220.962 128.566 214.969 124.678 212.701ZM125.164 353.957C125.164 355.091 124.516 355.739 123.545 355.253L12.0992 290.618C11.1273 290.132 10.4794 288.674 10.4794 287.54V156.328C10.4794 155.194 11.1273 154.546 12.0992 155.032L123.545 219.505C124.516 219.99 125.164 221.448 125.164 222.582V353.957Z" fill="url(#paint7_linear)"/>
<path d="M124.678 212.701L11.1273 146.933C7.23969 144.665 4 147.095 4 152.278V283.977C4 289.16 7.23969 295.316 11.1273 297.584L124.678 363.352C128.566 365.62 131.806 363.19 131.806 358.006V226.308C131.644 220.962 128.566 214.969 124.678 212.701ZM125.164 353.957C125.164 355.091 124.516 355.739 123.545 355.253L12.0992 290.618C11.1273 290.132 10.4794 288.674 10.4794 287.54V156.328C10.4794 155.194 11.1273 154.546 12.0992 155.032L123.545 219.505C124.516 219.99 125.164 221.448 125.164 222.582V353.957Z" fill="url(#paint8_linear)"/>
<path d="M19.2265 286.407C18.2546 285.921 17.6067 284.463 17.6067 283.329V158.272L12.0992 155.032C11.1273 154.546 10.4794 155.032 10.4794 156.328V287.54C10.4794 288.674 11.1273 290.132 12.0992 290.618L123.545 355.09C124.516 355.576 125.164 355.091 125.164 353.795V347.639L19.2265 286.407Z" fill="#251C72"/>
<path opacity="0.7" d="M125.164 353.957C125.164 355.091 124.516 355.739 123.545 355.253L12.0992 290.618C11.1273 290.132 10.4794 288.675 10.4794 287.541V156.328C10.4794 155.194 11.1273 154.546 12.0992 155.032L123.545 219.505C124.516 219.991 125.164 221.448 125.164 222.582V353.957Z" fill="#42E8E0"/>
<path d="M138.771 222.096V353.795C138.771 356.711 139.743 358.654 141.201 359.626L148.166 363.676L147.032 358.492L150.434 356.549C150.596 357.035 150.758 357.52 150.92 357.52C151.244 357.52 154.322 357.52 154.322 357.52L235.638 311.515L261.231 296.774L268.683 289.484L268.845 154.384L266.253 153.25V149.687L270.626 146.447L263.823 142.559C262.527 141.749 260.907 141.911 259.126 142.883L145.898 208.489C142.011 210.757 138.771 216.913 138.771 222.096ZM148.814 281.223L150.11 222.42L152.54 218.695L237.42 167.992L260.097 153.412V283.329C260.097 284.463 259.45 285.921 258.478 286.407L148.976 349.745L148.814 281.223Z" fill="url(#paint9_linear)"/>
<path opacity="0.6" d="M138.771 222.096V353.795C138.771 356.711 139.743 358.654 141.201 359.626L148.166 363.676L147.032 358.492L150.434 356.549C150.596 357.035 150.758 357.52 150.92 357.52C151.244 357.52 154.322 357.52 154.322 357.52L235.638 311.515L261.231 296.774L268.683 289.484L268.845 154.384L266.253 153.25V149.687L270.626 146.447L263.823 142.559C262.527 141.749 260.907 141.911 259.126 142.883L145.898 208.489C142.011 210.757 138.771 216.913 138.771 222.096ZM148.814 281.223L150.11 222.42L152.54 218.695L237.42 167.992L260.097 153.412V283.329C260.097 284.463 259.45 285.921 258.478 286.407L148.976 349.745L148.814 281.223Z" fill="#0F054C"/>
<path d="M145.898 226.146V357.844C145.898 363.028 149.138 365.458 153.026 363.19L266.577 297.422C270.464 295.154 273.704 289.16 273.704 283.815V152.278C273.704 147.095 270.464 144.665 266.577 146.933L153.026 212.701C149.138 214.969 145.898 220.962 145.898 226.146ZM152.378 222.582C152.378 221.448 153.026 219.99 153.998 219.505L265.443 155.032C266.415 154.546 267.063 155.032 267.063 156.328V287.541C267.063 288.674 266.415 290.132 265.443 290.618L153.998 355.091C153.026 355.577 152.378 355.091 152.378 353.795V222.582Z" fill="url(#paint10_linear)"/>
<path opacity="0.75" d="M145.898 226.146V357.844C145.898 363.028 149.138 365.458 153.026 363.19L266.577 297.422C270.464 295.154 273.704 289.16 273.704 283.815V152.278C273.704 147.095 270.464 144.665 266.577 146.933L153.026 212.701C149.138 214.969 145.898 220.962 145.898 226.146ZM152.378 222.582C152.378 221.448 153.026 219.99 153.998 219.505L265.443 155.032C266.415 154.546 267.063 155.032 267.063 156.328V287.541C267.063 288.674 266.415 290.132 265.443 290.618L153.998 355.091C153.026 355.577 152.378 355.091 152.378 353.795V222.582Z" fill="#0F054C"/>
<path d="M10.6414 155.356C9.99342 155.194 9.50747 155.842 9.50747 156.814V288.027C9.50747 289.16 10.1554 290.618 11.1273 291.104L122.573 355.577C123.221 355.901 123.707 355.739 124.03 355.253C123.868 355.253 123.707 355.253 123.545 355.091L12.0992 290.618C11.1273 290.132 10.4794 288.675 10.4794 287.541V156.328C10.4794 155.842 10.4794 155.518 10.6414 155.356Z" fill="white"/>
<path d="M124.678 212.539L11.1273 146.933C9.1835 145.799 7.40167 145.799 6.1058 146.771C7.23969 146.285 8.69755 146.609 10.1554 147.419L123.707 213.187C127.594 215.455 130.834 221.449 130.834 226.794V358.492C130.834 361.084 130.024 363.028 128.728 364C130.51 363.352 131.806 361.246 131.806 358.006V226.308C131.644 220.963 128.566 214.807 124.678 212.539Z" fill="white"/>
<path d="M267.063 155.356C267.711 155.194 268.197 155.842 268.197 156.814V288.027C268.197 289.16 267.549 290.618 266.577 291.104L155.131 355.577C154.484 355.901 153.998 355.739 153.674 355.253C153.836 355.253 153.998 355.253 154.16 355.091L265.605 290.618C266.577 290.132 267.225 288.675 267.225 287.541V156.328C267.225 155.842 267.063 155.518 267.063 155.356Z" fill="#42E8E0"/>
<path d="M153.026 212.539L266.577 146.771C268.521 145.637 270.302 145.637 271.598 146.609C270.464 146.123 269.007 146.447 267.549 147.257L153.998 213.187C150.11 215.455 146.87 221.448 146.87 226.794V358.492C146.87 361.084 147.68 363.028 148.976 364C147.194 363.352 145.898 361.246 145.898 358.006V226.308C145.898 220.962 149.138 214.807 153.026 212.539Z" fill="#42E8E0"/>
<path d="M258.478 286.407C259.449 285.921 260.097 284.463 260.097 283.329V158.272L265.605 155.032C266.577 154.546 267.225 155.032 267.225 156.328V287.54C267.225 288.674 266.577 290.132 265.605 290.618L154.16 355.09C153.188 355.576 152.54 355.091 152.54 353.795V347.639L258.478 286.407Z" fill="#251C72"/>
<path opacity="0.2" d="M152.378 353.957C152.378 355.091 153.026 355.738 153.998 355.253L265.443 290.78C266.415 290.294 267.063 288.836 267.063 287.702V156.49C267.063 155.356 266.415 154.708 265.443 155.194L153.998 219.504C153.026 219.99 152.378 221.448 152.378 222.582V353.957Z" fill="#42E8E0"/>
<path d="M10.6414 155.356C9.99342 155.194 9.50747 155.842 9.50747 156.814V288.027C9.50747 289.16 10.1554 290.618 11.1273 291.104L122.573 355.577C123.221 355.901 123.707 355.739 124.03 355.253C123.868 355.253 123.707 355.253 123.545 355.091L12.0992 290.618C11.1273 290.132 10.4794 288.675 10.4794 287.541V156.328C10.4794 155.842 10.4794 155.518 10.6414 155.356Z" fill="#42E8E0"/>
<path d="M124.678 212.539L11.1273 146.933C9.1835 145.799 7.40167 145.799 6.1058 146.771C7.23969 146.285 8.69755 146.609 10.1554 147.419L123.707 213.187C127.594 215.455 130.834 221.449 130.834 226.794V358.492C130.834 361.084 130.024 363.028 128.728 364C130.51 363.352 131.806 361.246 131.806 358.006V226.308C131.644 220.963 128.566 214.807 124.678 212.539Z" fill="#42E8E0"/>
<path d="M147.032 207.841L261.069 142.235C263.499 140.777 264.795 138.995 264.795 137.214V129.276L260.907 132.84L257.506 130.896C257.83 130.41 258.154 130.086 257.992 129.924C257.83 129.6 256.372 127.008 256.372 127.008L175.865 79.5449L150.434 64.4798L140.391 61.564L23.2761 128.79L23.6001 131.544L20.5224 133.326L15.5009 131.058V138.995C15.5009 140.453 16.3108 141.911 18.0926 142.883L131.644 208.489C135.693 210.757 142.497 210.433 147.032 207.841ZM193.36 169.774L141.687 197.96L137.313 197.798L50.9755 149.363L27.0018 137.052L139.581 72.2553C140.553 71.6074 142.173 71.6074 143.145 72.0933L252.646 135.27L193.36 169.774Z" fill="url(#paint11_linear)"/>
<path opacity="0.6" d="M138.771 209.947V197.636L141.687 197.798L193.36 169.773L252.646 135.432L250.702 134.298C252.484 133.164 263.013 130.41 264.795 129.276V135.755V137.213C264.795 138.995 263.499 140.777 261.069 142.235L147.032 207.841C144.764 209.299 141.687 209.947 138.771 209.947Z" fill="#0F054C"/>
<path d="M147.032 199.58L261.069 133.812C265.605 131.22 266.091 127.17 262.203 124.902L148.652 59.458C144.764 57.1901 137.961 57.5141 133.426 60.106L19.2265 125.874C14.691 128.466 14.205 132.516 18.0926 134.784L131.644 200.39C135.693 202.496 142.497 202.172 147.032 199.58ZM140.715 195.854C139.743 196.502 138.123 196.502 137.151 196.016L25.7059 131.544C24.734 131.058 24.896 130.086 26.0299 129.6L139.743 63.9937C140.715 63.3458 142.335 63.3458 143.307 63.8317L254.914 128.304C255.886 128.79 255.724 129.762 254.59 130.248L140.715 195.854Z" fill="url(#paint12_linear)"/>
<path d="M147.032 199.58L261.069 133.812C265.605 131.22 266.091 127.17 262.203 124.902L148.652 59.458C144.764 57.1901 137.961 57.5141 133.426 60.106L19.2265 125.874C14.691 128.466 14.205 132.516 18.0926 134.784L131.644 200.39C135.693 202.496 142.497 202.172 147.032 199.58ZM140.715 195.854C139.743 196.502 138.123 196.502 137.151 196.016L25.7059 131.544C24.734 131.058 24.896 130.086 26.0299 129.6L139.743 63.9937C140.715 63.3458 142.335 63.3458 143.307 63.8317L254.914 128.304C255.886 128.79 255.724 129.762 254.59 130.248L140.715 195.854Z" fill="url(#paint13_linear)"/>
<path d="M254.752 127.17L143.145 62.6977C142.173 62.2118 140.715 62.2118 139.581 62.8597L25.8679 128.466C25.058 128.952 24.734 129.6 25.22 130.086C25.382 129.924 25.5439 129.762 25.8679 129.6L139.743 63.9936C140.715 63.3457 142.335 63.3457 143.307 63.8317L254.914 128.304C255.076 128.466 255.238 128.466 255.238 128.628C255.562 128.142 255.4 127.494 254.752 127.17Z" fill="#42E8E0"/>
<path d="M261.069 132.84L147.032 198.446C142.497 201.038 135.693 201.362 131.806 199.094L18.2546 133.488C16.6348 132.516 15.8249 131.382 15.6629 130.248C15.3389 131.868 16.3108 133.488 18.2546 134.622L131.806 200.228C135.693 202.496 142.497 202.172 147.032 199.58L261.069 133.812C263.823 132.192 265.119 130.086 264.795 128.304C264.633 129.924 263.337 131.544 261.069 132.84Z" fill="#42E8E0"/>
<path d="M143.145 72.0933C142.173 71.6073 140.715 71.6073 139.581 72.2553L31.0514 134.784L25.5439 131.544C24.572 131.058 24.734 130.086 25.8679 129.6L139.743 63.9937C140.715 63.3458 142.335 63.3458 143.307 63.8318L254.914 128.304C255.886 128.79 255.724 129.762 254.59 130.248L249.244 133.326L143.145 72.0933Z" fill="#251C72"/>
<path opacity="0.7" d="M254.428 130.248C255.4 129.6 255.562 128.79 254.752 128.304L143.145 63.8318C142.173 63.3458 140.715 63.3458 139.581 63.9937L25.8679 129.438C24.896 130.086 24.734 130.896 25.5439 131.382L137.151 195.854C138.123 196.34 139.581 196.34 140.715 195.692L254.428 130.248Z" fill="#42E8E0"/>
</g>
<g filter="url(#filter1_d)">
<path d="M361.407 121.745L357.687 84.1765L327 106.309L330.72 143.877L365.313 159.5L396 137.368L361.407 121.745Z" fill="#42E8E0"/>
<path d="M330.72 143.877L327 106.309L357.687 84.1765L361.407 121.745L330.72 143.877Z" fill="#42E8E0"/>
<path d="M365.313 159.5L330.72 143.877L361.407 121.745L396 137.368L365.313 159.5Z" fill="#2FD3C7"/>
<path d="M361.407 121.745L357.687 84.1765L392.28 99.7992L396 137.368L361.407 121.745Z" fill="#42E8E0"/>
<path d="M361.407 121.745L357.687 84.1765L356.385 85.1064L360.105 122.861L394.698 138.298L396 137.368L361.407 121.745Z" fill="white"/>
</g>
<g filter="url(#filter2_d)">
<path d="M223.442 18.8646L203.27 21.1293L215.385 37.4719L235.558 35.2072L243.713 16.4986L231.598 0.156077L223.442 18.8646Z" fill="#42E8E0"/>
<path d="M235.558 35.2072L215.385 37.4719L203.27 21.1293L223.442 18.8646L235.558 35.2072Z" fill="#42E8E0"/>
<path d="M243.713 16.4987L235.558 35.2072L223.442 18.8647L231.598 0.156149L243.713 16.4987Z" fill="#2FD3C7"/>
<path d="M223.442 18.8647L203.27 21.1294L211.426 2.42084L231.598 0.156123L223.442 18.8647Z" fill="#42E8E0"/>
<path d="M223.442 18.8647L203.27 21.1294L203.779 21.8228L224.051 19.5568L232.107 0.849514L231.598 0.156134L223.442 18.8647Z" fill="white"/>
</g>
<g filter="url(#filter3_d)">
<path d="M264.9 350.7L247 340.3V361L264.9 371.3L282.8 361V340.3L264.9 350.7Z" fill="#42E8E0"/>
<path d="M264.9 371.3L247 361V340.3L264.9 350.7V371.3Z" fill="#42E8E0"/>
<path d="M282.8 361L264.9 371.3V350.7L282.8 340.3V361Z" fill="#2FD3C7"/>
<path d="M264.9 350.7L247 340.3L264.9 330L282.8 340.3L264.9 350.7Z" fill="#42E8E0"/>
<path d="M264.9 350.7L247 340.3V341.2L264.9 351.5L282.8 341.2V340.3L264.9 350.7Z" fill="white"/>
</g>
<defs>
<filter id="filter0_d" x="0" y="57.9414" width="279" height="314.261" filterUnits="userSpaceOnUse" color-interpolation-filters="sRGB">
<feFlood flood-opacity="0" result="BackgroundImageFix"/>
<feColorMatrix in="SourceAlpha" type="matrix" values="0 0 0 0 0 0 0 0 0 0 0 0 0 0 0 0 0 0 127 0"/>
<feOffset dy="4"/>
<feGaussianBlur stdDeviation="2"/>
<feColorMatrix type="matrix" values="0 0 0 0 0 0 0 0 0 0 0 0 0 0 0 0 0 0 0.2 0"/>
<feBlend mode="normal" in2="BackgroundImageFix" result="effect1_dropShadow"/>
<feBlend mode="normal" in="SourceGraphic" in2="effect1_dropShadow" result="shape"/>
</filter>
<filter id="filter1_d" x="323" y="84.1765" width="77" height="83.3235" filterUnits="userSpaceOnUse" color-interpolation-filters="sRGB">
<feFlood flood-opacity="0" result="BackgroundImageFix"/>
<feColorMatrix in="SourceAlpha" type="matrix" values="0 0 0 0 0 0 0 0 0 0 0 0 0 0 0 0 0 0 127 0"/>
<feOffset dy="4"/>
<feGaussianBlur stdDeviation="2"/>
<feColorMatrix type="matrix" values="0 0 0 0 0 0 0 0 0 0 0 0 0 0 0 0 0 0 0.2 0"/>
<feBlend mode="normal" in2="BackgroundImageFix" result="effect1_dropShadow"/>
<feBlend mode="normal" in="SourceGraphic" in2="effect1_dropShadow" result="shape"/>
</filter>
<filter id="filter2_d" x="199.27" y="0.156128" width="48.4428" height="45.3158" filterUnits="userSpaceOnUse" color-interpolation-filters="sRGB">
<feFlood flood-opacity="0" result="BackgroundImageFix"/>
<feColorMatrix in="SourceAlpha" type="matrix" values="0 0 0 0 0 0 0 0 0 0 0 0 0 0 0 0 0 0 127 0"/>
<feOffset dy="4"/>
<feGaussianBlur stdDeviation="2"/>
<feColorMatrix type="matrix" values="0 0 0 0 0 0 0 0 0 0 0 0 0 0 0 0 0 0 0.2 0"/>
<feBlend mode="normal" in2="BackgroundImageFix" result="effect1_dropShadow"/>
<feBlend mode="normal" in="SourceGraphic" in2="effect1_dropShadow" result="shape"/>
</filter>
<filter id="filter3_d" x="243" y="330" width="43.8" height="49.3" filterUnits="userSpaceOnUse" color-interpolation-filters="sRGB">
<feFlood flood-opacity="0" result="BackgroundImageFix"/>
<feColorMatrix in="SourceAlpha" type="matrix" values="0 0 0 0 0 0 0 0 0 0 0 0 0 0 0 0 0 0 127 0"/>
<feOffset dy="4"/>
<feGaussianBlur stdDeviation="2"/>
<feColorMatrix type="matrix" values="0 0 0 0 0 0 0 0 0 0 0 0 0 0 0 0 0 0 0.2 0"/>
<feBlend mode="normal" in2="BackgroundImageFix" result="effect1_dropShadow"/>
<feBlend mode="normal" in="SourceGraphic" in2="effect1_dropShadow" result="shape"/>
</filter>
<linearGradient id="paint0_linear" x1="168.924" y1="179.525" x2="276.082" y2="179.525" gradientUnits="userSpaceOnUse">
<stop stop-color="#BCBEFF"/>
<stop offset="0.1659" stop-color="#B6B8FC"/>
<stop offset="0.3956" stop-color="#A4A8F5"/>
<stop offset="0.6625" stop-color="#868DEA"/>
<stop offset="0.9554" stop-color="#5E67DA"/>
<stop offset="1" stop-color="#5761D7"/>
</linearGradient>
<linearGradient id="paint1_linear" x1="140.207" y1="181.877" x2="267.908" y2="181.877" gradientUnits="userSpaceOnUse">
<stop stop-color="#BCBEFF"/>
<stop offset="0.1659" stop-color="#B6B8FC"/>
<stop offset="0.3956" stop-color="#A4A8F5"/>
<stop offset="0.6625" stop-color="#868DEA"/>
<stop offset="0.9554" stop-color="#5E67DA"/>
<stop offset="1" stop-color="#5761D7"/>
</linearGradient>
<linearGradient id="paint2_linear" x1="122.569" y1="181.877" x2="352.962" y2="181.877" gradientUnits="userSpaceOnUse">
<stop stop-color="#706EC4"/>
<stop offset="0.0222208" stop-color="#6D6BC2"/>
<stop offset="0.2509" stop-color="#5651AC"/>
<stop offset="0.4865" stop-color="#463F9D"/>
<stop offset="0.7314" stop-color="#3C3494"/>
<stop offset="1" stop-color="#393091"/>
</linearGradient>
<linearGradient id="paint3_linear" x1="111.49" y1="179.525" x2="4.33207" y2="179.525" gradientUnits="userSpaceOnUse">
<stop stop-color="#BCBEFF"/>
<stop offset="0.1659" stop-color="#B6B8FC"/>
<stop offset="0.3956" stop-color="#A4A8F5"/>
<stop offset="0.6625" stop-color="#868DEA"/>
<stop offset="0.9554" stop-color="#5E67DA"/>
<stop offset="1" stop-color="#5761D7"/>
</linearGradient>
<linearGradient id="paint4_linear" x1="140.207" y1="181.877" x2="12.5063" y2="181.877" gradientUnits="userSpaceOnUse">
<stop stop-color="#BCBEFF"/>
<stop offset="0.1659" stop-color="#B6B8FC"/>
<stop offset="0.3956" stop-color="#A4A8F5"/>
<stop offset="0.6625" stop-color="#868DEA"/>
<stop offset="0.9554" stop-color="#5E67DA"/>
<stop offset="1" stop-color="#5761D7"/>
</linearGradient>
<linearGradient id="paint5_linear" x1="157.844" y1="181.877" x2="-72.5479" y2="181.877" gradientUnits="userSpaceOnUse">
<stop stop-color="#706EC4"/>
<stop offset="0.0222208" stop-color="#6D6BC2"/>
<stop offset="0.2509" stop-color="#5651AC"/>
<stop offset="0.4865" stop-color="#463F9D"/>
<stop offset="0.7314" stop-color="#3C3494"/>
<stop offset="1" stop-color="#393091"/>
</linearGradient>
<linearGradient id="paint6_linear" x1="32.7171" y1="252.726" x2="139.875" y2="252.726" gradientUnits="userSpaceOnUse">
<stop stop-color="#BCBEFF"/>
<stop offset="0.1659" stop-color="#B6B8FC"/>
<stop offset="0.3956" stop-color="#A4A8F5"/>
<stop offset="0.6625" stop-color="#868DEA"/>
<stop offset="0.9554" stop-color="#5E67DA"/>
<stop offset="1" stop-color="#5761D7"/>
</linearGradient>
<linearGradient id="paint7_linear" x1="4" y1="255.078" x2="131.701" y2="255.078" gradientUnits="userSpaceOnUse">
<stop stop-color="#BCBEFF"/>
<stop offset="0.1659" stop-color="#B6B8FC"/>
<stop offset="0.3956" stop-color="#A4A8F5"/>
<stop offset="0.6625" stop-color="#868DEA"/>
<stop offset="0.9554" stop-color="#5E67DA"/>
<stop offset="1" stop-color="#5761D7"/>
</linearGradient>
<linearGradient id="paint8_linear" x1="-13.6375" y1="255.078" x2="216.755" y2="255.078" gradientUnits="userSpaceOnUse">
<stop stop-color="#706EC4"/>
<stop offset="0.0222208" stop-color="#6D6BC2"/>
<stop offset="0.2509" stop-color="#5651AC"/>
<stop offset="0.4865" stop-color="#463F9D"/>
<stop offset="0.7314" stop-color="#3C3494"/>
<stop offset="1" stop-color="#393091"/>
</linearGradient>
<linearGradient id="paint9_linear" x1="309.88" y1="299.368" x2="224.351" y2="261.1" gradientUnits="userSpaceOnUse">
<stop stop-color="#BCBEFF"/>
<stop offset="0.1659" stop-color="#B6B8FC"/>
<stop offset="0.3956" stop-color="#A4A8F5"/>
<stop offset="0.6625" stop-color="#868DEA"/>
<stop offset="0.9554" stop-color="#5E67DA"/>
<stop offset="1" stop-color="#5761D7"/>
</linearGradient>
<linearGradient id="paint10_linear" x1="-107.474" y1="275.598" x2="303.718" y2="249.008" gradientUnits="userSpaceOnUse">
<stop stop-color="#BCBEFF"/>
<stop offset="0.1659" stop-color="#B6B8FC"/>
<stop offset="0.3956" stop-color="#A4A8F5"/>
<stop offset="0.6625" stop-color="#868DEA"/>
<stop offset="0.9554" stop-color="#5E67DA"/>
<stop offset="1" stop-color="#5761D7"/>
</linearGradient>
<linearGradient id="paint11_linear" x1="120.63" y1="100.619" x2="174.12" y2="193.481" gradientUnits="userSpaceOnUse">
<stop stop-color="#BCBEFF"/>
<stop offset="0.1659" stop-color="#B6B8FC"/>
<stop offset="0.3956" stop-color="#A4A8F5"/>
<stop offset="0.6625" stop-color="#868DEA"/>
<stop offset="0.9554" stop-color="#5E67DA"/>
<stop offset="1" stop-color="#5761D7"/>
</linearGradient>
<linearGradient id="paint12_linear" x1="108.335" y1="74.5585" x2="172.079" y2="185.223" gradientUnits="userSpaceOnUse">
<stop stop-color="#BCBEFF"/>
<stop offset="0.1659" stop-color="#B6B8FC"/>
<stop offset="0.3956" stop-color="#A4A8F5"/>
<stop offset="0.6625" stop-color="#868DEA"/>
<stop offset="0.9554" stop-color="#5E67DA"/>
<stop offset="1" stop-color="#5761D7"/>
</linearGradient>
<linearGradient id="paint13_linear" x1="99.5313" y1="59.2738" x2="214.536" y2="258.93" gradientUnits="userSpaceOnUse">
<stop stop-color="#706EC4"/>
<stop offset="0.0222208" stop-color="#6D6BC2"/>
<stop offset="0.2509" stop-color="#5651AC"/>
<stop offset="0.4865" stop-color="#463F9D"/>
<stop offset="0.7314" stop-color="#3C3494"/>
<stop offset="1" stop-color="#393091"/>
</linearGradient>
</defs>
</svg>
