<svg width="356" height="447" viewBox="0 0 356 447" fill="none" xmlns="http://www.w3.org/2000/svg">
<g clip-path="url(#clip0)" filter="url(#filter0_d)">
<path d="M144.048 309.857C143.736 310.637 143.362 311.417 142.925 312.198C142.301 313.238 141.489 314.149 140.553 314.994C139.742 315.709 138.868 316.294 137.87 316.75C137.557 316.88 137.308 317.01 136.996 317.14C136.309 317.4 135.56 317.595 134.874 317.725C133.938 317.855 133.002 317.92 132.128 317.855C131.004 317.79 129.943 317.53 128.882 317.075C127.01 316.359 125.325 315.124 124.014 313.433C123.765 313.108 123.515 312.783 123.328 312.458C123.078 312.068 122.829 311.612 122.579 311.157C122.517 311.027 122.454 310.832 122.329 310.702C121.892 309.662 121.58 308.621 121.456 307.581C121.268 306.41 121.268 305.175 121.393 304.004C121.518 303.094 121.705 302.248 122.017 301.338C122.392 300.298 122.953 299.257 123.578 298.347C124.139 297.566 124.763 296.916 125.45 296.266C126.012 295.811 126.636 295.356 127.26 294.965C127.509 294.835 127.821 294.64 128.134 294.51C129.132 294.055 130.131 293.73 131.129 293.6C132.315 293.405 133.501 293.405 134.687 293.6C135.498 293.73 136.309 293.925 137.121 294.25C137.932 294.575 138.743 294.965 139.43 295.486C140.366 296.136 141.24 296.916 141.989 297.892C142.675 298.737 143.237 299.647 143.674 300.688C143.736 300.883 143.799 301.013 143.861 301.208C144.048 301.663 144.173 302.183 144.298 302.639C144.423 303.029 144.485 303.419 144.547 303.874C144.984 305.76 144.735 307.906 144.048 309.857Z" fill="#FF0048"/>
<path d="M344.324 182.142L264.5 174.404C261.942 174.209 259.632 176.03 259.196 178.631L250.833 225.256C250.708 225.776 250.708 226.296 250.77 226.816L253.329 232.929L263.564 184.939L351.438 190.726L348.63 185.199C347.818 183.508 346.196 182.338 344.324 182.142Z" fill="url(#paint0_linear)"/>
<path d="M289.215 248.406L283.411 239.497C282.537 238.196 281.164 237.351 279.604 237.221L257.386 235.66C254.39 235.465 252.268 232.604 252.83 229.548L260.506 186.369C260.943 183.768 263.252 181.947 265.749 182.142L347.444 188.19C350.565 188.45 352.749 191.571 351.875 194.758L340.392 237.871C339.768 240.212 337.646 241.838 335.274 241.643L309.311 240.082C308.063 240.017 306.752 240.472 305.816 241.318L296.58 249.446C294.27 251.462 290.838 251.007 289.215 248.406Z" fill="url(#paint1_linear)"/>
<path d="M190.419 163.089L209.08 195.668C209.392 196.253 210.016 196.514 210.64 196.383L213.137 195.798L225.806 187.15L235.417 191.376C235.729 191.506 236.041 191.506 236.291 191.441L238.663 190.921L195.724 157.822L190.919 161.008C190.232 161.464 190.045 162.374 190.419 163.089Z" fill="url(#paint2_linear)"/>
<path d="M210.89 194.693L192.541 162.309C191.979 161.334 192.291 160.033 193.228 159.448L234.731 132.396C235.729 131.746 236.977 132.071 237.539 133.112L255.451 165.105C256.013 166.081 255.701 167.381 254.764 167.966L241.721 176.55C241.159 176.94 240.784 177.525 240.784 178.241L240.223 189.035C240.16 190.531 238.663 191.441 237.352 190.856L228.427 186.629C227.803 186.304 227.054 186.369 226.493 186.759L213.761 195.473C212.825 196.058 211.514 195.733 210.89 194.693Z" fill="url(#paint3_linear)"/>
<path d="M330.968 83.7556L298.015 74.7168C296.767 74.3916 295.518 74.5867 294.457 75.1069L291.649 76.4725L291.275 80.8944L273.175 152.815C272.489 155.611 274.049 158.472 276.733 159.188L309.686 168.227C309.81 168.292 309.935 168.292 310.123 168.292L310.435 169.137L313.056 167.901H313.118H313.181C314.429 167.251 315.427 166.081 315.864 164.52L334.587 90.1933C335.211 87.3321 333.651 84.4709 330.968 83.7556Z" fill="url(#paint4_linear)"/>
<path d="M306.752 169.592L273.8 160.553C271.116 159.838 269.493 156.977 270.242 154.181L288.965 79.8539C289.652 77.0578 292.398 75.367 295.082 76.1474L328.034 85.1862C330.718 85.9015 332.341 88.7627 331.592 91.5589L312.869 165.886C312.182 168.682 309.436 170.307 306.752 169.592Z" fill="url(#paint5_linear)"/>
<path d="M314.491 127.844L286.656 120.236C285.096 119.846 284.16 118.155 284.597 116.53L292.648 84.5359C293.022 82.9102 294.645 81.9348 296.205 82.39L324.04 89.9982C325.6 90.3884 326.537 92.0791 326.1 93.7048L318.049 125.698C317.612 127.324 316.052 128.3 314.491 127.844Z" fill="url(#paint6_linear)"/>
<path d="M305.379 113.928C310.033 113.928 313.805 109.998 313.805 105.15C313.805 100.301 310.033 96.3709 305.379 96.3709C300.726 96.3709 296.954 100.301 296.954 105.15C296.954 109.998 300.726 113.928 305.379 113.928Z" fill="url(#paint7_linear)"/>
<path d="M309.811 106.385L303.944 100.273L301.822 108.596L309.811 106.385Z" fill="url(#paint8_linear)"/>
<path d="M284.534 129.405C282.912 128.95 281.913 127.194 282.35 125.503C282.787 123.813 284.472 122.772 286.095 123.227C287.717 123.683 288.716 125.438 288.279 127.129C287.842 128.885 286.157 129.86 284.534 129.405Z" fill="url(#paint9_linear)"/>
<path d="M293.147 131.746C291.524 131.291 290.526 129.535 290.963 127.844C291.399 126.154 293.084 125.113 294.707 125.568C296.33 126.024 297.328 127.779 296.891 129.47C296.455 131.226 294.77 132.201 293.147 131.746Z" fill="url(#paint10_linear)"/>
<path d="M301.697 134.152C300.074 133.697 299.076 131.941 299.513 130.25C299.95 128.56 301.635 127.519 303.257 127.974C304.88 128.43 305.879 130.185 305.442 131.876C305.005 133.567 303.32 134.542 301.697 134.152Z" fill="url(#paint11_linear)"/>
<path d="M310.871 145.337L281.663 137.338C280.478 137.013 279.791 135.778 280.103 134.542C280.415 133.307 281.601 132.591 282.787 132.916L311.995 140.915C313.181 141.24 313.867 142.476 313.555 143.711C313.181 144.882 311.995 145.662 310.871 145.337Z" fill="url(#paint12_linear)"/>
<path d="M308.999 152.555L279.791 144.556C278.605 144.231 277.919 142.996 278.231 141.76C278.543 140.525 279.729 139.809 280.914 140.135L310.122 148.133C311.308 148.458 311.995 149.694 311.683 150.929C311.371 152.165 310.185 152.88 308.999 152.555Z" fill="url(#paint13_linear)"/>
<path d="M307.189 159.838L277.981 151.839C276.795 151.514 276.109 150.279 276.421 149.043C276.733 147.808 277.919 147.092 279.105 147.418L308.313 155.416C309.498 155.741 310.185 156.977 309.873 158.212C309.561 159.448 308.375 160.163 307.189 159.838Z" fill="url(#paint14_linear)"/>
<path d="M270.679 138.899L269.244 134.477L267.683 134.217L263.439 133.112C262.691 132.917 262.191 132.136 262.379 131.291L267.184 110.092C267.371 109.311 268.058 108.856 268.807 108.986L276.234 110.287L275.922 137.403L274.673 140.395L271.74 139.939C271.303 139.809 270.866 139.419 270.679 138.899Z" fill="url(#paint15_linear)"/>
<path d="M266.123 132.266L271.428 110.742C271.615 109.962 272.364 109.442 273.113 109.637L290.276 113.148C291.087 113.343 291.587 114.189 291.399 115.034L286.719 135.648C286.531 136.428 285.845 136.948 285.096 136.818L280.353 136.103C279.853 136.038 279.292 136.233 278.98 136.688L276.546 139.939C275.797 140.98 274.237 140.59 273.924 139.354L273.176 135.973C273.051 135.388 272.551 134.867 271.927 134.802L267.246 134.087C266.498 134.022 265.936 133.177 266.123 132.266Z" fill="url(#paint16_linear)"/>
<path d="M-13.3511 150.669L-15.2858 151.124L-15.0986 153.27L-38.5649 194.823L-15.7851 208.674L-13.7256 223.045L-13.1014 226.101H-11.4164C-11.1667 226.101 -10.9171 226.036 -10.7299 225.971L3.1877 220.249L22.847 233.124L24.8441 232.734C25.4058 232.604 25.9051 232.279 26.1548 231.758L48.5601 191.636C49.0594 190.726 48.8098 189.491 47.936 188.97L-11.9781 150.994C-12.3525 150.604 -12.8518 150.539 -13.3511 150.669Z" fill="url(#paint17_linear)"/>
<path d="M-39.3763 192.613L-16.4716 152.166C-15.7851 150.996 -14.3497 150.606 -13.2263 151.321L45.6892 188.647C46.7502 189.362 47.1247 190.793 46.5006 191.963L24.3448 231.825C23.6583 232.996 22.2229 233.386 21.0995 232.67L2.31394 220.77C1.68983 220.38 0.940899 220.315 0.254383 220.575L-12.2901 225.777C-13.6631 226.363 -15.2234 225.452 -15.4731 223.892L-17.5326 209.716C-17.6574 209 -18.0319 208.35 -18.656 207.96L-38.4401 195.93C-39.6883 195.279 -40.0628 193.784 -39.3763 192.613Z" fill="url(#paint18_linear)"/>
<path d="M92.9964 97.5414L84.2589 110.157L179.435 167.641L181.557 161.203C182.306 158.928 181.495 156.391 179.622 155.026L100.298 96.2409C97.9268 94.5502 94.6815 95.0704 92.9964 97.5414Z" fill="url(#paint19_linear)"/>
<path d="M82.1994 202.236L81.6377 184.613C81.5753 182.793 80.7015 181.102 79.2661 180.062L55.3629 162.764C52.8664 160.943 52.2423 157.302 53.9898 154.701L90.0631 101.508C91.8106 98.907 95.2432 98.3218 97.7396 100.143L178.187 159.448C180.683 161.334 181.245 164.975 179.435 167.576L142.051 220.444C140.241 222.98 136.809 223.565 134.375 221.679L110.097 203.406C108.724 202.366 106.914 202.041 105.291 202.561L89.3142 207.568C85.8816 208.674 82.3866 206.008 82.1994 202.236Z" fill="url(#paint20_linear)"/>
<path d="M74.2733 256.664L79.391 269.149L98.1141 255.819L158.527 202.301L155.345 193.717L148.667 182.793C147.606 181.037 145.359 180.387 143.611 181.362L73.9612 217.843C72.0889 218.818 71.2776 221.159 72.0889 223.11L76.5201 233.839L82.0746 242.878L74.3981 253.088C73.8988 254.128 73.774 255.494 74.2733 256.664Z" fill="url(#paint21_linear)"/>
<path d="M79.9526 264.402L87.005 256.274C88.1908 254.908 88.378 252.892 87.3794 251.332L78.954 237.676C77.7058 235.595 78.3923 232.864 80.5143 231.824L151.537 195.733C153.597 194.693 156.093 195.668 156.905 197.944L175.503 248.21C176.252 250.161 175.378 252.437 173.568 253.348L111.345 284.691C109.535 285.601 107.413 284.951 106.352 283.26L99.2374 271.62C98.4261 270.32 96.9907 269.605 95.4928 269.8L83.2603 271.23C79.703 271.62 77.5186 267.199 79.9526 264.402Z" fill="url(#paint22_linear)"/>
<path d="M204.961 209.844L194.601 210.755L282.163 306.67L232.671 376.965L243.094 376.25C244.529 376.12 245.902 375.405 246.776 374.234L296.455 307.581C298.015 305.435 297.828 302.444 296.018 300.493L209.018 211.34C207.957 210.234 206.459 209.714 204.961 209.844Z" fill="url(#paint23_linear)"/>
<path d="M178 342.045V317.53C178 316.034 177.438 314.539 176.502 313.433L152.037 285.731C150.289 283.781 150.04 280.854 151.35 278.578L188.921 213.681C190.856 210.299 195.35 209.779 197.971 212.575L284.097 304.329C286.095 306.475 286.282 309.792 284.534 312.198L238.538 374.624C236.353 377.616 232.109 377.811 229.675 375.014L205.086 346.727C203.713 345.167 201.653 344.451 199.656 344.842L184.802 347.963C181.307 348.678 178 345.817 178 342.045Z" fill="url(#paint24_linear)"/>
<path d="M315.615 265.053C315.427 265.638 315.115 266.158 314.803 266.678C314.366 267.394 313.805 268.044 313.118 268.629C312.557 269.084 311.932 269.54 311.246 269.865C311.059 269.995 310.809 270.06 310.622 270.125C310.123 270.32 309.623 270.45 309.124 270.515C308.5 270.645 307.813 270.645 307.189 270.58C306.378 270.515 305.629 270.32 304.942 270.06C303.632 269.54 302.446 268.694 301.51 267.524C301.323 267.329 301.135 267.069 301.011 266.808C300.823 266.548 300.636 266.223 300.511 265.898C300.449 265.768 300.387 265.703 300.324 265.573C300.012 264.858 299.825 264.077 299.7 263.362C299.575 262.517 299.575 261.671 299.7 260.826C299.762 260.176 299.95 259.59 300.137 258.94C300.387 258.16 300.761 257.444 301.26 256.794C301.635 256.274 302.072 255.754 302.571 255.299C302.945 254.973 303.382 254.648 303.819 254.388C304.006 254.258 304.194 254.193 304.443 254.063C305.13 253.738 305.879 253.543 306.565 253.413C307.376 253.283 308.25 253.283 309.062 253.413C309.623 253.478 310.247 253.673 310.747 253.868C311.308 254.063 311.87 254.388 312.369 254.713C313.056 255.168 313.68 255.754 314.179 256.404C314.616 256.989 315.053 257.64 315.365 258.355C315.427 258.485 315.49 258.615 315.49 258.68C315.615 259.005 315.739 259.33 315.802 259.72C315.864 259.981 315.927 260.306 315.989 260.566C316.301 262.191 316.114 263.687 315.615 265.053Z" fill="#FF0048"/>
<path d="M20.7875 227.077C20.4754 227.857 20.101 228.637 19.6641 229.417C19.04 230.458 18.2286 231.368 17.2925 232.214C16.4812 232.929 15.6074 233.514 14.6088 233.969C14.2968 234.099 14.0471 234.23 13.7351 234.36C13.0486 234.62 12.2996 234.815 11.6131 234.945C10.677 235.075 9.74082 235.14 8.86707 235.075C7.74368 235.01 6.6827 234.75 5.62172 234.295C3.74941 233.579 2.06433 232.344 0.75371 230.653C0.504068 230.328 0.254422 230.003 0.0671911 229.678C-0.182451 229.287 -0.4321 228.832 -0.681742 228.377C-0.744153 228.247 -0.80656 228.052 -0.931381 227.922C-1.36825 226.881 -1.6803 225.841 -1.80512 224.801C-1.99236 223.63 -1.99236 222.395 -1.86754 221.224C-1.74272 220.314 -1.55549 219.468 -1.24343 218.558C-0.86897 217.517 -0.307276 216.477 0.316829 215.567C0.878524 214.786 1.50263 214.136 2.18914 213.486C2.75084 213.031 3.37494 212.575 3.99904 212.185C4.24869 212.055 4.56073 211.86 4.87279 211.73C5.87135 211.275 6.86993 210.95 7.8685 210.755C9.0543 210.56 10.2401 210.56 11.4259 210.755C12.2372 210.885 13.0486 211.08 13.8599 211.405C14.6712 211.73 15.4826 212.12 16.1691 212.64C17.1052 213.291 17.979 214.071 18.7279 215.046C19.4144 215.892 19.9761 216.802 20.413 217.843C20.4754 218.038 20.5378 218.168 20.6002 218.363C20.7875 218.818 20.9123 219.338 21.0371 219.793C21.1619 220.184 21.2243 220.574 21.2868 221.029C21.7236 222.98 21.5364 225.126 20.7875 227.077Z" fill="#04DAF2"/>
<path d="M234.169 166.471C233.982 166.926 233.794 167.446 233.482 167.836C233.108 168.422 232.609 169.007 232.047 169.527C231.548 169.917 231.048 170.307 230.424 170.568C230.237 170.633 230.05 170.698 229.863 170.763C229.426 170.893 228.989 171.023 228.614 171.088C228.053 171.153 227.491 171.218 226.992 171.153C226.305 171.088 225.681 170.958 225.057 170.698C223.934 170.242 222.935 169.527 222.124 168.552C221.999 168.357 221.812 168.161 221.687 167.966C221.5 167.706 221.375 167.446 221.25 167.186C221.188 167.121 221.188 166.991 221.125 166.926C220.875 166.341 220.688 165.69 220.563 165.04C220.439 164.325 220.439 163.61 220.563 162.894C220.626 162.374 220.751 161.789 220.938 161.334C221.188 160.683 221.5 160.098 221.874 159.513C222.186 159.058 222.561 158.667 222.997 158.277C223.309 158.017 223.684 157.757 224.058 157.497C224.246 157.432 224.37 157.302 224.558 157.237C225.119 156.977 225.744 156.782 226.368 156.652C227.054 156.522 227.803 156.522 228.49 156.652C228.989 156.717 229.488 156.847 229.925 157.042C230.424 157.237 230.861 157.497 231.298 157.757C231.86 158.147 232.359 158.602 232.858 159.188C233.233 159.708 233.607 160.228 233.857 160.878C233.919 161.008 233.919 161.073 233.982 161.204C234.107 161.464 234.169 161.789 234.231 162.049C234.294 162.309 234.356 162.504 234.356 162.764C234.731 164 234.606 165.3 234.169 166.471Z" fill="#4F61FC"/>
</g>
<defs>
<filter id="filter0_d" x="-175" y="0" width="531" height="455" filterUnits="userSpaceOnUse" color-interpolation-filters="sRGB">
<feFlood flood-opacity="0" result="BackgroundImageFix"/>
<feColorMatrix in="SourceAlpha" type="matrix" values="0 0 0 0 0 0 0 0 0 0 0 0 0 0 0 0 0 0 127 0"/>
<feOffset dy="4"/>
<feGaussianBlur stdDeviation="2"/>
<feColorMatrix type="matrix" values="0 0 0 0 0 0 0 0 0 0 0 0 0 0 0 0 0 0 0.2 0"/>
<feBlend mode="normal" in2="BackgroundImageFix" result="effect1_dropShadow"/>
<feBlend mode="normal" in="SourceGraphic" in2="effect1_dropShadow" result="shape"/>
</filter>
<linearGradient id="paint0_linear" x1="250.714" y1="203.692" x2="351.358" y2="203.692" gradientUnits="userSpaceOnUse">
<stop stop-color="#A6EBFA"/>
<stop offset="0.7688" stop-color="#7AE0F7"/>
<stop offset="0.9774" stop-color="#21CCF2"/>
</linearGradient>
<linearGradient id="paint1_linear" x1="269.439" y1="179.091" x2="337.346" y2="241.55" gradientUnits="userSpaceOnUse">
<stop stop-color="#4DD6F5"/>
<stop offset="1" stop-color="#1999B5"/>
</linearGradient>
<linearGradient id="paint2_linear" x1="190.216" y1="177.088" x2="238.68" y2="177.088" gradientUnits="userSpaceOnUse">
<stop stop-color="#A6EBFA"/>
<stop offset="0.7688" stop-color="#7AE0F7"/>
<stop offset="0.9774" stop-color="#21CCF2"/>
</linearGradient>
<linearGradient id="paint3_linear" x1="192.282" y1="163.897" x2="255.755" y2="163.897" gradientUnits="userSpaceOnUse">
<stop stop-color="#4DD6F5"/>
<stop offset="1" stop-color="#1999B5"/>
</linearGradient>
<linearGradient id="paint4_linear" x1="281.672" y1="115.782" x2="325.294" y2="126.768" gradientUnits="userSpaceOnUse">
<stop stop-color="#86A8B5"/>
<stop offset="1" stop-color="#5A7079"/>
</linearGradient>
<linearGradient id="paint5_linear" x1="279.555" y1="117.016" x2="322.471" y2="127.824" gradientUnits="userSpaceOnUse">
<stop stop-color="#E1F3FA"/>
<stop offset="1" stop-color="#C2E6F5"/>
</linearGradient>
<linearGradient id="paint6_linear" x1="293.59" y1="79.2016" x2="318.345" y2="129.441" gradientUnits="userSpaceOnUse">
<stop stop-color="#B3E0F2"/>
<stop offset="1" stop-color="#63C9F2"/>
</linearGradient>
<linearGradient id="paint7_linear" x1="301.292" y1="96.1713" x2="309.854" y2="113.548" gradientUnits="userSpaceOnUse">
<stop stop-color="#E1F3FA"/>
<stop offset="1" stop-color="#C2E6F5"/>
</linearGradient>
<linearGradient id="paint8_linear" x1="308.625" y1="102.454" x2="300.299" y2="106.232" gradientUnits="userSpaceOnUse">
<stop stop-color="#B3E0F2"/>
<stop offset="1" stop-color="#63C9F2"/>
</linearGradient>
<linearGradient id="paint9_linear" x1="283.848" y1="123.09" x2="286.961" y2="129.409" gradientUnits="userSpaceOnUse">
<stop stop-color="#B3E0F2"/>
<stop offset="1" stop-color="#63C9F2"/>
</linearGradient>
<linearGradient id="paint10_linear" x1="292.422" y1="125.435" x2="295.535" y2="131.753" gradientUnits="userSpaceOnUse">
<stop stop-color="#B3E0F2"/>
<stop offset="1" stop-color="#63C9F2"/>
</linearGradient>
<linearGradient id="paint11_linear" x1="300.996" y1="127.779" x2="304.11" y2="134.098" gradientUnits="userSpaceOnUse">
<stop stop-color="#B3E0F2"/>
<stop offset="1" stop-color="#63C9F2"/>
</linearGradient>
<linearGradient id="paint12_linear" x1="291.046" y1="126.444" x2="303.152" y2="151.013" gradientUnits="userSpaceOnUse">
<stop stop-color="#B3E0F2"/>
<stop offset="1" stop-color="#63C9F2"/>
</linearGradient>
<linearGradient id="paint13_linear" x1="289.217" y1="133.704" x2="301.323" y2="158.273" gradientUnits="userSpaceOnUse">
<stop stop-color="#B3E0F2"/>
<stop offset="1" stop-color="#63C9F2"/>
</linearGradient>
<linearGradient id="paint14_linear" x1="287.389" y1="140.963" x2="299.495" y2="165.532" gradientUnits="userSpaceOnUse">
<stop stop-color="#B3E0F2"/>
<stop offset="1" stop-color="#63C9F2"/>
</linearGradient>
<linearGradient id="paint15_linear" x1="262.386" y1="124.676" x2="276.307" y2="124.676" gradientUnits="userSpaceOnUse">
<stop stop-color="#FF99B6"/>
<stop offset="1" stop-color="#FF6691"/>
</linearGradient>
<linearGradient id="paint16_linear" x1="266.105" y1="125.11" x2="291.514" y2="125.11" gradientUnits="userSpaceOnUse">
<stop stop-color="#FF6691"/>
<stop offset="1" stop-color="#FF0048"/>
</linearGradient>
<linearGradient id="paint17_linear" x1="-38.5463" y1="191.788" x2="48.9279" y2="191.788" gradientUnits="userSpaceOnUse">
<stop stop-color="#7C36FF"/>
<stop offset="0.6935" stop-color="#5B04FF"/>
<stop offset="0.9774" stop-color="#2E0280"/>
</linearGradient>
<linearGradient id="paint18_linear" x1="-39.729" y1="191.974" x2="46.7246" y2="191.974" gradientUnits="userSpaceOnUse">
<stop stop-color="#95A0FD"/>
<stop offset="1" stop-color="#4F61FC"/>
</linearGradient>
<linearGradient id="paint19_linear" x1="84.2799" y1="131.435" x2="181.831" y2="131.435" gradientUnits="userSpaceOnUse">
<stop stop-color="#FF99B6"/>
<stop offset="1" stop-color="#FF6691"/>
</linearGradient>
<linearGradient id="paint20_linear" x1="86.8447" y1="100.084" x2="157.747" y2="233.306" gradientUnits="userSpaceOnUse">
<stop stop-color="#FF6691"/>
<stop offset="1" stop-color="#FF0048"/>
</linearGradient>
<linearGradient id="paint21_linear" x1="71.8074" y1="225.058" x2="158.556" y2="225.058" gradientUnits="userSpaceOnUse">
<stop stop-color="#95A0FD"/>
<stop offset="1" stop-color="#4F61FC"/>
</linearGradient>
<linearGradient id="paint22_linear" x1="99.4794" y1="220.734" x2="164.399" y2="261.051" gradientUnits="userSpaceOnUse">
<stop stop-color="#7C36FF"/>
<stop offset="1" stop-color="#5B04FF"/>
</linearGradient>
<linearGradient id="paint23_linear" x1="216.455" y1="212.967" x2="266.68" y2="333.799" gradientUnits="userSpaceOnUse">
<stop stop-color="#7C36FF"/>
<stop offset="0.6935" stop-color="#5B04FF"/>
<stop offset="0.9774" stop-color="#2E0280"/>
</linearGradient>
<linearGradient id="paint24_linear" x1="199.83" y1="210.374" x2="234.918" y2="359.97" gradientUnits="userSpaceOnUse">
<stop stop-color="#95A0FD"/>
<stop offset="1" stop-color="#4F61FC"/>
</linearGradient>
<clipPath id="clip0">
<rect width="523" height="447" fill="white" transform="translate(-171)"/>
</clipPath>
</defs>
</svg>
