<svg width="454" height="430" viewBox="0 0 454 430" fill="none" xmlns="http://www.w3.org/2000/svg">
<g filter="url(#filter0_d)">
<path d="M210.87 355.911L210.09 355.253C194.027 341.622 185.893 325.122 169.457 314.379L149.945 301.626L151.786 263.613L170.391 254.599C170.391 254.599 196.628 300.825 213.189 308.369C218.915 312.112 223.213 320.587 222.935 327.265L222.904 327.543L243.216 344.398L219.168 356.414C216.991 358.123 214.051 357.991 210.87 355.911Z" fill="url(#paint0_linear)"/>
<path d="M248.383 337.188L249.485 314.2C249.831 307.418 245.465 299.047 239.739 295.304C223.178 287.76 206.521 278.513 189.872 267.631L170.254 254.808L168.413 292.821L188.031 305.644C204.361 316.318 220.577 328.557 236.64 342.187L237.42 342.846C243.108 346.415 248.036 343.97 248.383 337.188Z" fill="url(#paint1_linear)"/>
<path d="M235.912 342.606C219.849 328.976 203.633 316.737 187.303 306.063L167.685 293.24L169.526 255.227L170.905 256.128L169.171 292.124L188.789 304.947C205.12 315.621 221.335 327.86 237.398 341.49L238.178 342.149C240.935 343.951 243.565 344.328 245.543 343.384C243.549 345.51 240.297 345.622 236.692 343.265L235.912 342.606Z" fill="url(#paint2_radial)"/>
<path d="M191.775 294.82L212.684 305.206L206.368 308.385L188.235 296.532L191.775 294.82Z" fill="url(#paint3_linear)"/>
<path d="M191.707 294.925L212.683 305.206L213.513 291.433L192.499 280.978L191.707 294.925Z" fill="url(#paint4_linear)"/>
<path d="M192.499 280.978L191.707 294.925L188.235 296.532L188.958 282.69L192.499 280.978Z" fill="url(#paint5_linear)"/>
<path d="M248.383 337.188L249.485 314.2C249.831 307.418 245.465 299.047 239.739 295.304C223.178 287.76 206.521 278.513 189.872 267.631L170.254 254.808L168.413 292.821L188.031 305.644C204.361 316.318 220.577 328.557 236.64 342.187L237.42 342.846C243.108 346.415 248.036 343.97 248.383 337.188Z" fill="url(#paint6_radial)"/>
<path d="M72.0514 323.778C83.2919 331.125 93.8778 332.527 101.793 328.754C102.035 328.614 142.611 308.91 142.853 308.77C150.799 304.719 139.69 303.422 140.345 289.685C141.655 262.21 124.07 227.752 100.953 212.642C89.5004 205.157 96.2232 194.64 88.2401 198.518C87.9975 198.657 46.3906 219.476 46.148 219.616C38.3086 223.737 33.2464 233.103 32.6218 246.562C31.2433 274.141 48.9342 308.668 72.0514 323.778Z" fill="url(#paint7_linear)"/>
<path d="M72.0514 323.778C83.2919 331.125 93.8778 332.527 101.793 328.754C102.035 328.614 142.611 308.91 142.853 308.77C150.799 304.719 139.69 303.422 140.345 289.685C141.655 262.21 124.07 227.752 100.953 212.642C89.5004 205.157 96.2232 194.64 88.2401 198.518C87.9975 198.657 46.3906 219.476 46.148 219.616C38.3086 223.737 33.2464 233.103 32.6218 246.562C31.2433 274.141 48.9342 308.668 72.0514 323.778Z" fill="url(#paint8_radial)"/>
<path d="M113.939 302.993C137.056 318.103 156.904 308.113 158.214 280.638C159.525 253.163 141.94 218.706 118.822 203.596C95.7052 188.486 75.857 198.476 74.5468 225.951C73.2366 253.426 90.8214 287.883 113.939 302.993Z" fill="url(#paint9_linear)"/>
<path d="M72.5375 227.173C73.1316 213.992 78.0572 204.835 85.5102 200.61C79.921 205.457 76.2768 213.811 75.6844 224.905C74.3742 252.38 91.959 286.837 115.076 301.947C127.165 309.849 138.305 310.867 146.379 306.154C138.098 313.267 125.609 313.156 111.823 304.145C88.8121 289.105 71.1213 254.578 72.5375 227.173Z" fill="url(#paint10_radial)"/>
<path d="M119.997 299.05C130.919 306.189 141.225 307.557 148.897 303.923C148.897 303.923 156.046 300.395 166.076 295.469C207.895 274.789 255.456 267.553 301.859 275.517C301.966 275.586 302.14 275.551 302.14 275.551C315.15 268.845 225.52 88.2868 212.434 94.6451C190.956 133.989 158.275 166.159 117.987 186.349C104.94 192.881 95.0157 197.877 95.0157 197.877C87.4189 201.858 82.3872 210.945 81.8615 224.022C80.4003 250.802 97.5159 284.356 119.997 299.05Z" fill="url(#paint11_linear)"/>
<g opacity="0.7">
<path opacity="0.7" d="M98.6486 318.05C109.844 315.973 119.592 313.1 126.574 310.059C126.574 310.059 132.965 307.228 141.857 303.348C179.164 287.024 211.871 269.633 279.98 276.574C280.086 276.644 274.119 251.271 274.119 251.271C285.65 246.134 249.206 206.955 169.851 247.089L169.894 249.801C153.704 263.226 142.87 268.223 106.921 284.091C95.2841 289.16 86.4976 293.109 86.4976 293.109C79.7958 296.184 73.0857 309.692 73.8947 312.159C75.3382 317.128 75.91 322.274 98.6486 318.05Z" fill="url(#paint12_radial)"/>
</g>
<path d="M267.727 264.987C287.345 277.81 305.713 280.272 319.496 273.773C319.913 273.598 333.005 267.692 333.422 267.517C347.16 260.392 327.92 258.106 329.046 234.387C331.395 186.566 300.705 126.544 260.409 100.206C240.473 87.1751 252.249 68.9267 238.261 75.7392C237.844 75.914 223 83.8064 222.583 83.9812C209.057 91.2446 200.079 107.296 198.916 130.841C196.741 178.626 227.431 238.648 267.727 264.987Z" fill="url(#paint13_linear)"/>
<path d="M283.208 257.51C323.504 283.849 357.924 266.384 360.274 218.564C362.623 170.743 331.933 110.721 291.637 84.3828C251.341 58.0443 216.921 75.5089 214.571 123.329C212.116 171.081 242.912 231.172 283.208 257.51Z" fill="url(#paint14_linear)"/>
<path d="M283.432 251.842C321.078 276.447 353.382 260.135 355.502 215.445C357.621 170.754 328.952 114.588 291.306 89.9822C253.661 65.3766 221.357 81.6888 219.237 126.379C217.118 171.07 245.787 227.236 283.432 251.842Z" fill="url(#paint15_linear)"/>
<path d="M343.112 223.749C345.232 179.059 316.562 122.892 278.917 98.2864C261.526 86.9193 245.393 84.2778 232.703 89.1052C245.984 75.2698 267.659 74.5257 291.306 89.9822C328.952 114.588 357.621 170.754 355.502 215.445C354.278 239.546 344.421 255.321 329.646 261.023C337.42 252.833 342.326 240.234 343.112 223.749Z" fill="url(#paint16_linear)"/>
<path d="M211.714 123.997C212.816 101.008 224.757 84.3589 233.765 78.9139C223.967 87.4209 216.141 103.331 215.155 122.667C212.806 170.488 243.496 230.51 283.792 256.849C304.789 270.572 325.781 270.873 339.853 262.774C326.749 272.401 304.316 273.842 280.351 258.178C240.161 231.909 209.364 171.817 211.714 123.997Z" fill="url(#paint17_radial)"/>
<path d="M283.432 251.842C321.078 276.447 353.382 260.135 355.502 215.445C357.621 170.754 328.952 114.588 291.306 89.9822C253.661 65.3766 221.357 81.6888 219.237 126.379C217.118 171.07 245.787 227.236 283.432 251.842Z" fill="url(#paint18_radial)"/>
<path d="M228.759 179.424C234.224 177.778 271.049 166.358 271.049 166.358C273.271 165.275 271.358 168.201 274.54 170.28C280.902 174.439 285.813 184.06 285.443 191.573C285.258 195.329 288.342 195.704 286.121 196.787C286.121 196.787 259.112 216.113 251.779 221.311C242.415 208.778 234.454 194.33 228.759 179.424Z" fill="url(#paint19_linear)"/>
<path d="M278.226 195.205C284.588 199.364 290.176 196.604 290.439 189.023C290.877 181.406 285.898 171.889 279.536 167.73C273.173 163.572 267.586 166.332 267.322 173.913C266.884 181.53 271.863 191.047 278.226 195.205Z" fill="url(#paint20_linear)"/>
<path d="M278.403 190.997C282.751 193.839 286.534 191.988 286.766 186.771C286.997 181.554 283.675 175.059 279.222 172.148C274.874 169.306 271.091 171.157 270.859 176.374C270.696 181.486 273.95 188.086 278.403 190.997Z" fill="url(#paint21_linear)"/>
<path d="M266.769 174.297C266.885 170.645 268.244 168.103 270.359 166.951C268.842 168.346 267.795 170.643 267.633 173.669C267.195 181.285 272.174 190.803 278.537 194.961C281.824 197.11 284.976 197.381 287.16 196.124C284.953 198.111 281.384 198.015 277.672 195.589C271.31 191.43 266.399 181.809 266.769 174.297Z" fill="url(#paint22_radial)"/>
</g>
<g filter="url(#filter1_d)">
<path d="M350.211 30.1054V30.0342C350.211 29.8919 350.14 29.0378 349.998 27.6856C349.998 27.5432 349.998 27.472 349.927 27.3297C349.927 27.1874 349.855 26.9738 349.855 26.8315C349.215 22.6324 347.72 18.718 345.585 15.1594C345.372 14.8036 345.087 14.3766 344.873 14.0207C343.663 12.2414 342.311 10.6045 340.817 9.03873C340.105 8.32702 339.251 7.54414 338.468 6.9036C337.97 6.47658 337.4 6.12071 336.902 5.69369L336.831 5.62252L336.76 5.55134C336.689 5.48017 336.546 5.409 336.475 5.33783C336.119 5.12432 335.764 4.83964 335.336 4.55495C335.336 4.55495 335.336 4.55495 335.265 4.55495C335.052 4.41261 334.838 4.34144 334.625 4.1991C334.554 4.12793 334.411 4.05676 334.34 4.05676C334.269 3.98559 334.198 3.98558 334.127 3.91441C334.055 3.84324 333.984 3.84324 333.913 3.77207C332.632 3.06036 331.351 2.491 329.999 1.92163C329.643 1.77929 329.358 1.70811 329.216 1.63694L329.002 1.56577L328.789 1.4946H328.718C328.575 1.42343 328.433 1.42343 328.291 1.35226H328.219H328.148L327.864 1.28108C327.721 1.28108 327.579 1.20991 327.508 1.13874L327.223 1.06757C327.152 1.06757 327.081 1.06757 327.081 0.996401C327.081 0.996401 327.081 0.996401 327.009 0.996401H326.938H326.867L326.511 0.925226C326.44 0.925226 326.298 0.854061 326.227 0.854061C326.155 0.854061 326.013 0.782886 325.942 0.782886C325.871 0.782886 325.8 0.782882 325.8 0.711711C325.728 0.711711 325.586 0.640546 325.444 0.640546L325.23 0.569371C325.159 0.569371 325.017 0.498206 324.946 0.498206H324.874C324.803 0.498206 324.732 0.498202 324.661 0.427031H324.518H324.376H324.305H324.234C324.163 0.427031 324.091 0.427026 323.949 0.355855C323.878 0.355855 323.807 0.355855 323.807 0.355855C323.736 0.355855 323.593 0.355862 323.522 0.284691L323.309 0.213515C323.237 0.213515 323.237 0.213515 323.166 0.213515C323.095 0.213515 323.024 0.213515 322.953 0.213515C322.882 0.213515 322.81 0.213515 322.739 0.213515C322.597 0.213515 322.526 0.213522 322.383 0.142351L322.027 0.0711754C321.956 0.0711754 321.956 0.0711754 321.885 0.0711754C321.814 0.0711754 321.672 0.0711754 321.6 0.0711754C321.458 0.0711754 321.316 0.0711711 321.173 0C321.031 0 320.96 0 320.889 0C320.746 0 320.675 0 320.533 0C320.391 0 320.319 0 320.177 0C320.106 0 320.035 0 319.964 0H319.75C319.679 0 319.679 0 319.608 0C319.537 0 319.465 0 319.465 0C318.825 0 318.184 0 317.544 0C317.401 0 317.259 0 317.117 0C316.974 0 316.832 0 316.69 0C316.618 0 316.476 0 316.405 0C316.191 0 315.978 4.34288e-06 315.764 0.0711754C315.693 0.0711754 315.622 0.0711754 315.551 0.0711754C315.266 0.0711754 314.982 0.142351 314.697 0.142351C314.555 0.142351 314.412 0.142344 314.27 0.213515H314.199C313.985 0.213515 313.772 0.284691 313.629 0.284691C313.487 0.284691 313.345 0.355855 313.202 0.355855C312.846 0.427026 312.562 0.498206 312.419 0.498206C311.494 0.711719 310.569 0.925228 309.644 1.13874C309.074 1.28108 308.647 1.42342 308.007 1.63694C305.516 2.49099 303.167 3.7009 300.961 5.12433C300.747 5.26667 300.534 5.409 300.32 5.55134L300.249 5.62252C299.893 5.9072 299.537 6.19188 299.11 6.4054L299.039 6.47657C299.039 6.47657 299.039 6.47657 298.968 6.47657C298.897 6.54774 298.755 6.61892 298.683 6.69009C298.47 6.83243 298.256 7.04594 298.114 7.18828C298.043 7.25945 297.9 7.40179 297.829 7.47296C297.616 7.68647 297.402 7.82882 297.189 8.04233C297.118 8.1135 297.118 8.1135 297.046 8.18467C296.05 9.1099 295.481 9.75044 295.41 9.82161C295.125 10.1775 294.769 10.4622 294.484 10.818C294.271 11.0315 294.057 11.3162 293.844 11.6009C293.844 11.6009 293.844 11.6721 293.773 11.6721V11.7432C293.346 12.3126 292.847 12.9531 292.349 13.6649C292.136 14.0207 291.851 14.3766 291.637 14.8036C291.424 15.1594 291.21 15.5153 291.068 15.8L290.499 16.9387C290.285 17.2946 290.143 17.7216 289.929 18.0063C289.573 18.6468 289.289 19.5009 288.933 20.4261C288.648 21.209 288.364 22.063 288.15 22.8459C287.865 23.9135 287.581 24.9099 287.51 25.6928C287.082 28.6108 287.011 28.8955 287.011 30.8171C286.94 33.3081 287.225 35.0162 287.296 35.8702C287.652 38.29 288.221 40.1405 288.435 40.781C289.075 42.9162 289.716 44.1972 290.285 45.4071C290.641 46.19 290.926 46.6882 291.282 47.3288C291.709 48.0405 292.207 48.8234 292.705 49.5351C292.776 49.6062 292.847 49.6774 292.847 49.8197C293.346 50.6026 294.128 51.5279 294.698 52.1684C295.125 52.6666 295.765 53.3071 296.192 53.8053C296.691 54.3035 297.331 54.8729 297.829 55.2999C298.399 55.7981 298.612 56.0116 299.182 56.3675C299.822 56.8657 300.463 57.3639 301.174 57.7909C301.388 57.9333 301.601 58.0756 301.815 58.2179C302.1 58.3603 302.313 58.5026 302.527 58.645C302.669 58.7161 302.811 58.7873 303.025 58.9296C303.025 58.9296 303.096 58.9296 303.096 59.0008C303.31 59.1432 303.523 59.2143 303.808 59.3567C303.879 59.3567 303.95 59.4278 303.95 59.4278C304.733 59.8549 305.658 60.2819 306.797 60.7801C307.01 60.8513 307.366 60.9936 307.722 61.1359C307.864 61.2071 307.936 61.2071 308.078 61.2783L308.647 61.4918C308.79 61.563 308.932 61.563 309.074 61.6341L309.217 61.7053L309.43 61.7765C309.573 61.7765 309.715 61.8477 309.786 61.9188L310.142 61.99C311.494 62.417 312.846 62.6305 314.056 62.8441H314.199C314.27 62.8441 314.412 62.8441 314.555 62.9152C314.697 62.9152 314.768 62.9152 314.839 62.9864L315.551 63.0576C315.836 63.0576 316.263 63.1287 316.618 63.1287C316.903 63.1287 317.259 63.1999 317.615 63.1999C317.757 63.1999 317.971 63.1999 318.113 63.1999C318.54 63.1999 319.109 63.1999 319.608 63.1999C320.035 63.1999 320.675 63.1287 321.102 63.1287C322.027 63.0576 323.309 62.9152 324.305 62.7729C325.017 62.6305 326.013 62.4882 326.725 62.2747C326.938 62.2035 327.081 62.1323 327.294 62.1323C327.864 61.99 328.433 61.7765 328.931 61.6341L329.5 61.4206C329.927 61.2783 330.426 61.0648 330.853 60.9224L331.066 60.8513C331.636 60.6377 332.276 60.3531 332.845 60.0684C333.059 59.926 333.344 59.8549 333.557 59.7125C334.198 59.3567 335.052 58.9296 335.621 58.5026C335.621 58.5026 335.692 58.5026 335.692 58.4314C336.262 58.0756 336.76 57.7197 337.329 57.3639C337.472 57.2927 337.543 57.2215 337.685 57.1504L338.254 56.7233C338.397 56.581 338.539 56.5098 338.682 56.3675L339.536 55.6558C339.891 55.3711 340.461 54.8729 341.386 53.9477C341.386 53.9477 341.386 53.9477 341.457 53.8765L341.528 53.8053C341.955 53.3071 342.525 52.8089 343.094 52.0972C343.094 52.0972 343.094 52.0972 343.165 52.0261C343.735 51.3855 344.731 50.1044 345.87 48.3963C345.87 48.3963 345.87 48.3963 345.87 48.3252C346.083 47.8981 346.368 47.5423 346.653 47.0441C346.795 46.8306 346.866 46.6882 347.009 46.4747C347.151 46.19 347.293 45.9053 347.436 45.6918C347.507 45.6207 347.507 45.5495 347.578 45.4783C347.791 45.0513 348.005 44.6243 348.218 44.1261C348.503 43.4855 348.788 42.845 348.93 42.3468C349.286 41.4216 349.571 40.4252 349.855 39.3576C349.998 38.7171 350.211 38.0765 350.282 37.5072C350.425 36.8666 350.496 36.2261 350.638 35.5144C350.638 35.372 350.709 35.2297 350.709 35.0873C350.852 34.1621 350.852 33.2369 350.923 32.2405V32.1693V32.0982C350.282 31.6711 350.211 30.8882 350.211 30.1054Z" fill="url(#paint23_radial)"/>
<path d="M340.817 23.9848C340.817 24.5542 340.603 25.8353 339.251 25.8353C339.18 25.8353 339.037 25.8353 338.966 25.7641C341.315 26.4758 341.101 30.2479 339.607 30.9596C339.393 31.0308 339.109 31.1019 338.895 31.1019C338.753 31.1019 338.682 31.1019 338.539 31.0308C340.817 31.6713 340.176 35.301 338.61 35.9416C338.397 36.0127 338.112 36.0127 337.899 36.0127C337.685 36.0127 337.472 35.9416 337.329 35.9416C339.251 36.5109 338.539 39.3578 337.329 40.1407C336.973 40.3542 336.618 40.4253 336.404 40.4253C332.418 39.9271 327.579 39.5001 322.312 39.2154C321.743 39.1443 321.458 38.7884 321.458 38.1479C321.672 34.8028 321.814 31.2443 321.956 27.6857C322.028 25.8353 322.028 23.9848 322.099 22.2056C322.099 21.8497 322.099 21.8497 323.736 19.7146C326.227 16.5119 327.437 14.6614 328.362 13.1668C328.219 12.3839 328.077 11.6011 327.935 10.8182C327.864 10.0353 328.148 9.67944 328.789 9.67944C330.355 9.96413 331.351 10.8894 331.991 12.5263C332.063 12.8821 332.205 13.238 332.276 13.5227C332.774 16.0137 332.632 17.5794 331.707 19.7857C334.269 19.9992 336.689 20.2839 338.824 20.6398C340.817 21.2092 340.817 23.9848 340.817 23.9848ZM319.75 40.2118C319.964 36.2262 320.177 31.956 320.248 27.5434C320.319 25.6929 320.319 23.8425 320.391 22.0632C320.319 21.2092 319.892 20.7821 319.11 20.711C317.188 20.6398 315.337 20.6398 313.487 20.5686C312.704 20.6398 312.277 21.0668 312.135 21.9209C311.992 23.7001 311.921 25.4794 311.85 27.401C311.708 31.7425 311.779 36.0839 311.992 40.0695C312.135 40.8524 312.491 41.2794 313.202 41.4217C314.91 41.4217 316.619 41.4929 318.398 41.4929C319.252 41.4217 319.679 40.9947 319.75 40.2118Z" fill="#ECF5F9"/>
</g>
<g filter="url(#filter2_d)">
<path d="M467.816 136.3V136.2C467.816 136 467.716 134.8 467.516 132.9C467.516 132.7 467.516 132.6 467.416 132.4C467.416 132.2 467.316 131.9 467.316 131.7C466.416 125.8 464.316 120.3 461.316 115.3C461.016 114.8 460.616 114.2 460.316 113.7C458.616 111.2 456.716 108.9 454.616 106.7C453.616 105.7 452.416 104.6 451.316 103.7C450.616 103.1 449.816 102.6 449.116 102L449.016 101.9L448.916 101.8C448.816 101.7 448.616 101.6 448.516 101.5C448.016 101.2 447.516 100.8 446.916 100.4C446.916 100.4 446.916 100.4 446.816 100.4C446.516 100.2 446.216 100.1 445.916 99.9C445.816 99.8 445.616 99.7 445.516 99.7C445.416 99.6 445.316 99.6 445.216 99.5C445.116 99.4 445.016 99.4 444.916 99.3C443.116 98.3 441.316 97.5 439.416 96.7C438.916 96.5 438.516 96.4 438.316 96.3L438.016 96.2L437.716 96.1H437.616C437.416 96 437.216 96 437.016 95.9H436.916H436.816L436.416 95.8C436.216 95.8 436.016 95.7 435.916 95.6L435.516 95.5C435.416 95.5 435.316 95.5 435.316 95.4C435.316 95.4 435.316 95.4 435.216 95.4H435.116H435.016L434.516 95.3C434.416 95.3 434.216 95.2 434.116 95.2C434.016 95.2 433.816 95.1 433.716 95.1C433.616 95.1 433.516 95.1 433.516 95C433.416 95 433.216 94.9 433.016 94.9L432.716 94.8C432.616 94.8 432.416 94.7 432.316 94.7H432.216C432.116 94.7 432.016 94.7 431.916 94.6H431.716H431.516H431.416H431.316C431.216 94.6 431.116 94.6 430.916 94.5C430.816 94.5 430.716 94.5 430.716 94.5C430.616 94.5 430.416 94.5 430.316 94.4L430.016 94.3C429.916 94.3 429.916 94.3 429.816 94.3C429.716 94.3 429.616 94.3 429.516 94.3C429.416 94.3 429.316 94.3 429.216 94.3C429.016 94.3 428.916 94.3 428.716 94.2L428.216 94.1C428.116 94.1 428.116 94.1 428.016 94.1C427.916 94.1 427.716 94.1 427.616 94.1C427.416 94.1 427.216 94.1 427.016 94C426.816 94 426.716 94 426.616 94C426.416 94 426.316 94 426.116 94C425.916 94 425.816 94 425.616 94C425.516 94 425.416 94 425.316 94H425.016C424.916 94 424.916 94 424.816 94C424.716 94 424.616 94 424.616 94C423.716 94 422.816 94 421.916 94C421.716 94 421.516 94 421.316 94C421.116 94 420.916 94 420.716 94C420.616 94 420.416 94 420.316 94C420.016 94 419.716 94 419.416 94.1C419.316 94.1 419.216 94.1 419.116 94.1C418.716 94.1 418.316 94.2 417.916 94.2C417.716 94.2 417.516 94.2 417.316 94.3H417.216C416.916 94.3 416.616 94.4 416.416 94.4C416.216 94.4 416.016 94.5 415.816 94.5C415.316 94.6 414.916 94.7 414.716 94.7C413.416 95 412.116 95.3 410.816 95.6C410.016 95.8 409.416 96 408.516 96.3C405.016 97.5 401.716 99.2 398.616 101.2C398.316 101.4 398.016 101.6 397.716 101.8L397.616 101.9C397.116 102.3 396.616 102.7 396.016 103L395.916 103.1C395.916 103.1 395.916 103.1 395.816 103.1C395.716 103.2 395.516 103.3 395.416 103.4C395.116 103.6 394.816 103.9 394.616 104.1C394.516 104.2 394.316 104.4 394.216 104.5C393.916 104.8 393.616 105 393.316 105.3C393.216 105.4 393.216 105.4 393.116 105.5C391.716 106.8 390.916 107.7 390.816 107.8C390.416 108.3 389.916 108.7 389.516 109.2C389.216 109.5 388.916 109.9 388.616 110.3C388.616 110.3 388.616 110.4 388.516 110.4V110.5C387.916 111.3 387.216 112.2 386.516 113.2C386.216 113.7 385.816 114.2 385.516 114.8C385.216 115.3 384.916 115.8 384.716 116.2L383.916 117.8C383.616 118.3 383.416 118.9 383.116 119.3C382.616 120.2 382.216 121.4 381.716 122.7C381.316 123.8 380.916 125 380.616 126.1C380.216 127.6 379.816 129 379.716 130.1C379.116 134.2 379.016 134.6 379.016 137.3C378.916 140.8 379.316 143.2 379.416 144.4C379.916 147.8 380.716 150.4 381.016 151.3C381.916 154.3 382.816 156.1 383.616 157.8C384.116 158.9 384.516 159.6 385.016 160.5C385.616 161.5 386.316 162.6 387.016 163.6C387.116 163.7 387.216 163.8 387.216 164C387.916 165.1 389.016 166.4 389.816 167.3C390.416 168 391.316 168.9 391.916 169.6C392.616 170.3 393.516 171.1 394.216 171.7C395.016 172.4 395.316 172.7 396.116 173.2C397.016 173.9 397.916 174.6 398.916 175.2C399.216 175.4 399.516 175.6 399.816 175.8C400.216 176 400.516 176.2 400.816 176.4C401.016 176.5 401.216 176.6 401.516 176.8C401.516 176.8 401.616 176.8 401.616 176.9C401.916 177.1 402.216 177.2 402.616 177.4C402.716 177.4 402.816 177.5 402.816 177.5C403.916 178.1 405.216 178.7 406.816 179.4C407.116 179.5 407.616 179.7 408.116 179.9C408.316 180 408.416 180 408.616 180.1L409.416 180.4C409.616 180.5 409.816 180.5 410.016 180.6L410.216 180.7L410.516 180.8C410.716 180.8 410.916 180.9 411.016 181L411.516 181.1C413.416 181.7 415.316 182 417.016 182.3H417.216C417.316 182.3 417.516 182.3 417.716 182.4C417.916 182.4 418.016 182.4 418.116 182.5L419.116 182.6C419.516 182.6 420.116 182.7 420.616 182.7C421.016 182.7 421.516 182.8 422.016 182.8C422.216 182.8 422.516 182.8 422.716 182.8C423.316 182.8 424.116 182.8 424.816 182.8C425.416 182.8 426.316 182.7 426.916 182.7C428.216 182.6 430.016 182.4 431.416 182.2C432.416 182 433.816 181.8 434.816 181.5C435.116 181.4 435.316 181.3 435.616 181.3C436.416 181.1 437.216 180.8 437.916 180.6L438.716 180.3C439.316 180.1 440.016 179.8 440.616 179.6L440.916 179.5C441.716 179.2 442.616 178.8 443.416 178.4C443.716 178.2 444.116 178.1 444.416 177.9C445.316 177.4 446.516 176.8 447.316 176.2C447.316 176.2 447.416 176.2 447.416 176.1C448.216 175.6 448.916 175.1 449.716 174.6C449.916 174.5 450.016 174.4 450.216 174.3L451.016 173.7C451.216 173.5 451.416 173.4 451.616 173.2L452.816 172.2C453.316 171.8 454.116 171.1 455.416 169.8C455.416 169.8 455.416 169.8 455.516 169.7L455.616 169.6C456.216 168.9 457.016 168.2 457.816 167.2C457.816 167.2 457.816 167.2 457.916 167.1C458.716 166.2 460.116 164.4 461.716 162C461.716 162 461.716 162 461.716 161.9C462.016 161.3 462.416 160.8 462.816 160.1C463.016 159.8 463.116 159.6 463.316 159.3C463.516 158.9 463.716 158.5 463.916 158.2C464.016 158.1 464.016 158 464.116 157.9C464.416 157.3 464.716 156.7 465.016 156C465.416 155.1 465.816 154.2 466.016 153.5C466.516 152.2 466.916 150.8 467.316 149.3C467.516 148.4 467.816 147.5 467.916 146.7C468.116 145.8 468.216 144.9 468.416 143.9C468.416 143.7 468.516 143.5 468.516 143.3C468.716 142 468.716 140.7 468.816 139.3V139.2V139.1C467.916 138.6 467.916 137.4 467.816 136.3Z" fill="url(#paint24_radial)"/>
<path d="M437.716 122.4C445.216 135.3 437.016 147.2 432.716 153.6C431.316 153.8 429.516 154.1 428.216 154.4C404.216 157.6 395.116 139.5 402.916 130.9C403.516 130.2 409.416 124.1 417.716 130.1C416.616 124.8 418.016 121.3 422.216 118.2C427.316 114.9 434.516 116.9 437.716 122.4Z" fill="white"/>
</g>
<g filter="url(#filter3_d)">
<path d="M358.254 128.555V128.48C358.254 128.331 358.179 127.436 358.03 126.018C358.03 125.869 358.03 125.794 357.956 125.645C357.956 125.496 357.881 125.272 357.881 125.123C357.21 120.722 355.643 116.619 353.405 112.889C353.181 112.516 352.883 112.069 352.659 111.696C351.391 109.831 349.974 108.115 348.407 106.474C347.661 105.728 346.766 104.907 345.946 104.236C345.423 103.788 344.827 103.415 344.304 102.968L344.23 102.893L344.155 102.819C344.081 102.744 343.931 102.669 343.857 102.595C343.484 102.371 343.111 102.073 342.663 101.774C342.663 101.774 342.663 101.774 342.589 101.774C342.365 101.625 342.141 101.55 341.917 101.401C341.843 101.327 341.693 101.252 341.619 101.252C341.544 101.177 341.47 101.177 341.395 101.103C341.321 101.028 341.246 101.028 341.171 100.954C339.829 100.208 338.486 99.6109 337.068 99.0141C336.695 98.8649 336.397 98.7903 336.248 98.7157L336.024 98.6411L335.8 98.5665H335.726C335.577 98.4919 335.427 98.4919 335.278 98.4173H335.204H335.129L334.831 98.3427C334.681 98.3427 334.532 98.2682 334.458 98.1936L334.159 98.119C334.085 98.119 334.01 98.119 334.01 98.0444C334.01 98.0444 334.01 98.0444 333.935 98.0444H333.861H333.786L333.413 97.9698C333.339 97.9698 333.189 97.8952 333.115 97.8952C333.04 97.8952 332.891 97.8206 332.816 97.8206C332.742 97.8206 332.667 97.8206 332.667 97.746C332.593 97.746 332.443 97.6714 332.294 97.6714L332.07 97.5968C331.996 97.5968 331.847 97.5222 331.772 97.5222H331.697C331.623 97.5222 331.548 97.5222 331.474 97.4476H331.325H331.175H331.101H331.026C330.952 97.4476 330.877 97.4476 330.728 97.373C330.653 97.373 330.579 97.373 330.579 97.373C330.504 97.373 330.355 97.373 330.28 97.2984L330.056 97.2238C329.982 97.2238 329.982 97.2238 329.907 97.2238C329.833 97.2238 329.758 97.2238 329.683 97.2238C329.609 97.2238 329.534 97.2238 329.46 97.2238C329.31 97.2238 329.236 97.2238 329.087 97.1492L328.714 97.0746C328.639 97.0746 328.639 97.0746 328.564 97.0746C328.49 97.0746 328.341 97.0746 328.266 97.0746C328.117 97.0746 327.968 97.0746 327.818 97C327.669 97 327.595 97 327.52 97C327.371 97 327.296 97 327.147 97C326.998 97 326.923 97 326.774 97C326.699 97 326.625 97 326.55 97H326.326C326.252 97 326.252 97 326.177 97C326.103 97 326.028 97 326.028 97C325.357 97 324.685 97 324.014 97C323.865 97 323.716 97 323.566 97C323.417 97 323.268 97 323.119 97C323.044 97 322.895 97 322.82 97C322.597 97 322.373 97 322.149 97.0746C322.074 97.0746 322 97.0746 321.925 97.0746C321.627 97.0746 321.329 97.1492 321.03 97.1492C320.881 97.1492 320.732 97.1492 320.583 97.2238H320.508C320.284 97.2238 320.06 97.2984 319.911 97.2984C319.762 97.2984 319.613 97.373 319.464 97.373C319.091 97.4476 318.792 97.5222 318.643 97.5222C317.673 97.746 316.703 97.9698 315.734 98.1936C315.137 98.3428 314.689 98.4919 314.018 98.7157C311.407 99.6109 308.945 100.879 306.633 102.371C306.409 102.52 306.185 102.669 305.962 102.819L305.887 102.893C305.514 103.192 305.141 103.49 304.693 103.714L304.619 103.788C304.619 103.788 304.619 103.788 304.544 103.788C304.47 103.863 304.32 103.938 304.246 104.012C304.022 104.161 303.798 104.385 303.649 104.534C303.574 104.609 303.425 104.758 303.351 104.833C303.127 105.056 302.903 105.206 302.679 105.429C302.605 105.504 302.605 105.504 302.53 105.579C301.486 106.548 300.889 107.22 300.814 107.294C300.516 107.667 300.143 107.966 299.845 108.339C299.621 108.563 299.397 108.861 299.173 109.159C299.173 109.159 299.173 109.234 299.099 109.234V109.309C298.651 109.905 298.129 110.577 297.607 111.323C297.383 111.696 297.084 112.069 296.861 112.516C296.637 112.889 296.413 113.262 296.264 113.561L295.667 114.754C295.443 115.127 295.294 115.575 295.07 115.873C294.697 116.544 294.399 117.44 294.026 118.409C293.728 119.23 293.429 120.125 293.205 120.946C292.907 122.065 292.609 123.109 292.534 123.93C292.086 126.988 292.012 127.286 292.012 129.301C291.937 131.911 292.236 133.702 292.31 134.597C292.683 137.133 293.28 139.073 293.504 139.744C294.175 141.982 294.847 143.325 295.443 144.593C295.816 145.413 296.115 145.936 296.488 146.607C296.935 147.353 297.457 148.174 297.98 148.92C298.054 148.994 298.129 149.069 298.129 149.218C298.651 150.038 299.472 151.008 300.068 151.68C300.516 152.202 301.187 152.873 301.635 153.395C302.157 153.918 302.828 154.514 303.351 154.962C303.947 155.484 304.171 155.708 304.768 156.081C305.439 156.603 306.111 157.125 306.857 157.573C307.08 157.722 307.304 157.871 307.528 158.02C307.826 158.17 308.05 158.319 308.274 158.468C308.423 158.543 308.572 158.617 308.796 158.766C308.796 158.766 308.871 158.766 308.871 158.841C309.095 158.99 309.318 159.065 309.617 159.214C309.691 159.214 309.766 159.289 309.766 159.289C310.587 159.736 311.556 160.184 312.75 160.706C312.974 160.78 313.347 160.93 313.72 161.079C313.869 161.153 313.943 161.153 314.093 161.228L314.689 161.452C314.839 161.526 314.988 161.526 315.137 161.601L315.286 161.676L315.51 161.75C315.659 161.75 315.808 161.825 315.883 161.899L316.256 161.974C317.673 162.422 319.091 162.645 320.359 162.869H320.508C320.583 162.869 320.732 162.869 320.881 162.944C321.03 162.944 321.105 162.944 321.179 163.018L321.925 163.093C322.224 163.093 322.671 163.168 323.044 163.168C323.343 163.168 323.716 163.242 324.089 163.242C324.238 163.242 324.462 163.242 324.611 163.242C325.058 163.242 325.655 163.242 326.177 163.242C326.625 163.242 327.296 163.168 327.744 163.168C328.714 163.093 330.056 162.944 331.101 162.795C331.847 162.645 332.891 162.496 333.637 162.272C333.861 162.198 334.01 162.198 334.234 162.123C334.831 161.974 335.427 161.75 335.95 161.601L336.546 161.377C336.994 161.228 337.516 161.004 337.964 160.855L338.187 160.78C338.784 160.557 339.456 160.258 340.052 159.96C340.276 159.811 340.575 159.736 340.798 159.587C341.47 159.214 342.365 158.766 342.962 158.319C342.962 158.319 343.036 158.319 343.036 158.244C343.633 157.871 344.155 157.498 344.752 157.125C344.901 157.051 344.976 156.976 345.125 156.901L345.722 156.454C345.871 156.305 346.02 156.23 346.169 156.081L347.064 155.335C347.437 155.036 348.034 154.514 349.004 153.545C349.004 153.545 349.004 153.545 349.079 153.47L349.153 153.395C349.601 152.873 350.198 152.351 350.794 151.605C350.794 151.605 350.794 151.605 350.869 151.53C351.466 150.859 352.51 149.516 353.704 147.726C353.704 147.726 353.704 147.726 353.704 147.651C353.927 147.204 354.226 146.831 354.524 146.309C354.673 146.085 354.748 145.936 354.897 145.712C355.046 145.413 355.196 145.115 355.345 144.891C355.419 144.817 355.419 144.742 355.494 144.667C355.718 144.22 355.942 143.772 356.165 143.25C356.464 142.579 356.762 141.907 356.911 141.385C357.284 140.415 357.583 139.371 357.881 138.252C358.03 137.581 358.254 136.909 358.329 136.313C358.478 135.641 358.552 134.97 358.702 134.224C358.702 134.075 358.776 133.926 358.776 133.776C358.925 132.807 358.925 131.837 359 130.792V130.718V130.643C358.329 130.27 358.329 129.45 358.254 128.555Z" fill="url(#paint25_radial)"/>
<path d="M318.568 102.893C319.687 103.117 320.284 103.937 320.06 104.982C319.538 107.966 314.167 110.278 312.526 108.189C311.109 106.175 314.839 102.222 318.568 102.893ZM341.843 113.187C338.784 111.322 336.099 114.157 336.919 117.29C337.814 120.647 341.768 121.617 343.335 118.857C344.304 117.066 343.708 114.456 341.843 113.187ZM324.611 116.022C317.449 113.337 311.705 121.244 314.391 127.361C317.226 133.851 325.954 131.314 328.117 124.974C329.385 121.244 327.893 117.439 324.611 116.022ZM325.804 98.4172C323.417 97.895 319.314 98.5664 319.837 99.2378C319.911 99.3124 320.135 99.387 320.135 99.387C320.284 99.387 320.657 99.4616 321.254 99.3124C322.447 99.0886 323.492 99.014 324.163 99.1632C324.909 99.3124 325.208 99.76 325.357 99.9837C325.431 100.058 325.581 100.431 326.327 100.506C327.072 100.581 327.818 100.357 327.893 99.9837C327.893 99.9837 327.744 98.9394 325.804 98.4172ZM343.484 106.324C341.917 105.355 339.232 104.758 339.381 105.877C339.381 106.026 339.53 106.324 339.978 106.697C339.978 106.697 339.978 106.697 340.052 106.697C340.351 106.921 340.724 107.07 341.022 107.07C341.321 107.07 342.29 107.07 343.185 107.667C343.857 108.115 344.454 108.861 344.901 109.831C345.125 110.353 345.498 110.577 345.573 110.651C346.02 110.95 346.393 110.95 346.542 110.726C346.99 110.054 345.2 107.369 343.484 106.324Z" fill="#463313"/>
</g>
<g filter="url(#filter4_d)">
<path d="M435.686 296.094V296.011C435.686 295.845 435.603 294.85 435.437 293.273C435.437 293.108 435.437 293.025 435.354 292.859C435.354 292.693 435.271 292.444 435.271 292.278C434.525 287.383 432.783 282.82 430.294 278.672C430.045 278.257 429.713 277.759 429.464 277.344C428.053 275.27 426.477 273.362 424.735 271.537C423.905 270.707 422.91 269.794 421.997 269.048C421.416 268.55 420.753 268.135 420.172 267.637L420.089 267.554L420.006 267.471C419.923 267.388 419.757 267.305 419.674 267.222C419.259 266.973 418.844 266.642 418.347 266.31C418.347 266.31 418.347 266.31 418.264 266.31C418.015 266.144 417.766 266.061 417.517 265.895C417.434 265.812 417.268 265.729 417.185 265.729C417.102 265.646 417.019 265.646 416.936 265.563C416.853 265.48 416.77 265.48 416.687 265.397C415.194 264.568 413.701 263.904 412.124 263.24C411.709 263.074 411.377 262.991 411.212 262.908L410.963 262.825L410.714 262.742H410.631C410.465 262.659 410.299 262.659 410.133 262.576H410.05H409.967L409.635 262.493C409.469 262.493 409.303 262.41 409.22 262.327L408.889 262.244C408.806 262.244 408.723 262.244 408.723 262.162C408.723 262.162 408.723 262.162 408.64 262.162H408.557H408.474L408.059 262.079C407.976 262.079 407.81 261.996 407.727 261.996C407.644 261.996 407.478 261.913 407.395 261.913C407.312 261.913 407.229 261.913 407.229 261.83C407.146 261.83 406.98 261.747 406.814 261.747L406.565 261.664C406.483 261.664 406.317 261.581 406.234 261.581H406.151C406.068 261.581 405.985 261.581 405.902 261.498H405.736H405.57H405.487H405.404C405.321 261.498 405.238 261.498 405.072 261.415C404.989 261.415 404.906 261.415 404.906 261.415C404.823 261.415 404.657 261.415 404.574 261.332L404.325 261.249C404.242 261.249 404.242 261.249 404.16 261.249C404.077 261.249 403.994 261.249 403.911 261.249C403.828 261.249 403.745 261.249 403.662 261.249C403.496 261.249 403.413 261.249 403.247 261.166L402.832 261.083C402.749 261.083 402.749 261.083 402.666 261.083C402.583 261.083 402.417 261.083 402.334 261.083C402.168 261.083 402.002 261.083 401.836 261C401.671 261 401.588 261 401.505 261C401.339 261 401.256 261 401.09 261C400.924 261 400.841 261 400.675 261C400.592 261 400.509 261 400.426 261H400.177C400.094 261 400.094 261 400.011 261C399.928 261 399.845 261 399.845 261C399.099 261 398.352 261 397.605 261C397.439 261 397.273 261 397.107 261C396.942 261 396.776 261 396.61 261C396.527 261 396.361 261 396.278 261C396.029 261 395.78 261 395.531 261.083C395.448 261.083 395.365 261.083 395.282 261.083C394.95 261.083 394.619 261.166 394.287 261.166C394.121 261.166 393.955 261.166 393.789 261.249H393.706C393.457 261.249 393.208 261.332 393.042 261.332C392.876 261.332 392.71 261.415 392.544 261.415C392.13 261.498 391.798 261.581 391.632 261.581C390.553 261.83 389.475 262.079 388.396 262.327C387.732 262.493 387.235 262.659 386.488 262.908C383.584 263.904 380.846 265.314 378.274 266.973C378.025 267.139 377.777 267.305 377.528 267.471L377.445 267.554C377.03 267.886 376.615 268.218 376.117 268.467L376.034 268.55C376.034 268.55 376.034 268.55 375.951 268.55C375.868 268.633 375.702 268.716 375.619 268.799C375.371 268.965 375.122 269.214 374.956 269.379C374.873 269.462 374.707 269.628 374.624 269.711C374.375 269.96 374.126 270.126 373.877 270.375C373.794 270.458 373.794 270.458 373.711 270.541C372.55 271.62 371.886 272.366 371.803 272.449C371.471 272.864 371.056 273.196 370.725 273.611C370.476 273.86 370.227 274.191 369.978 274.523C369.978 274.523 369.978 274.606 369.895 274.606V274.689C369.397 275.353 368.816 276.1 368.236 276.929C367.987 277.344 367.655 277.759 367.406 278.257C367.157 278.672 366.908 279.086 366.742 279.418L366.078 280.746C365.83 281.161 365.664 281.658 365.415 281.99C365 282.737 364.668 283.732 364.253 284.811C363.921 285.724 363.59 286.719 363.341 287.632C363.009 288.876 362.677 290.038 362.594 290.95C362.096 294.352 362.013 294.684 362.013 296.924C361.93 299.828 362.262 301.819 362.345 302.814C362.76 305.635 363.424 307.792 363.673 308.539C364.419 311.028 365.166 312.521 365.83 313.932C366.244 314.844 366.576 315.425 366.991 316.172C367.489 317.001 368.07 317.914 368.65 318.744C368.733 318.827 368.816 318.91 368.816 319.076C369.397 319.988 370.31 321.067 370.973 321.813C371.471 322.394 372.218 323.141 372.716 323.722C373.296 324.302 374.043 324.966 374.624 325.464C375.288 326.045 375.537 326.294 376.2 326.708C376.947 327.289 377.694 327.87 378.523 328.368C378.772 328.534 379.021 328.7 379.27 328.866C379.602 329.031 379.851 329.197 380.1 329.363C380.266 329.446 380.431 329.529 380.68 329.695C380.68 329.695 380.763 329.695 380.763 329.778C381.012 329.944 381.261 330.027 381.593 330.193C381.676 330.193 381.759 330.276 381.759 330.276C382.672 330.774 383.75 331.271 385.078 331.852C385.326 331.935 385.741 332.101 386.156 332.267C386.322 332.35 386.405 332.35 386.571 332.433L387.235 332.682C387.401 332.765 387.566 332.765 387.732 332.848L387.898 332.931L388.147 333.014C388.313 333.014 388.479 333.097 388.562 333.18L388.977 333.263C390.553 333.76 392.13 334.009 393.54 334.258H393.706C393.789 334.258 393.955 334.258 394.121 334.341C394.287 334.341 394.37 334.341 394.453 334.424L395.282 334.507C395.614 334.507 396.112 334.59 396.527 334.59C396.859 334.59 397.273 334.673 397.688 334.673C397.854 334.673 398.103 334.673 398.269 334.673C398.767 334.673 399.431 334.673 400.011 334.673C400.509 334.673 401.256 334.59 401.754 334.59C402.832 334.507 404.325 334.341 405.487 334.175C406.317 334.009 407.478 333.843 408.308 333.595C408.557 333.512 408.723 333.429 408.971 333.429C409.635 333.263 410.299 333.014 410.88 332.848L411.543 332.599C412.041 332.433 412.622 332.184 413.12 332.018L413.369 331.935C414.032 331.686 414.779 331.354 415.443 331.023C415.692 330.857 416.024 330.774 416.272 330.608C417.019 330.193 418.015 329.695 418.678 329.197C418.678 329.197 418.761 329.197 418.761 329.114C419.425 328.7 420.006 328.285 420.67 327.87C420.836 327.787 420.918 327.704 421.084 327.621L421.748 327.123C421.914 326.957 422.08 326.874 422.246 326.708L423.242 325.879C423.656 325.547 424.32 324.966 425.399 323.888C425.399 323.888 425.399 323.888 425.482 323.805L425.565 323.722C426.062 323.141 426.726 322.56 427.39 321.731C427.39 321.731 427.39 321.73 427.473 321.648C428.136 320.901 429.298 319.407 430.625 317.416C430.625 317.416 430.625 317.416 430.625 317.333C430.874 316.836 431.206 316.421 431.538 315.84C431.704 315.591 431.787 315.425 431.953 315.176C432.119 314.844 432.285 314.513 432.451 314.264C432.534 314.181 432.534 314.098 432.617 314.015C432.865 313.517 433.114 313.019 433.363 312.438C433.695 311.692 434.027 310.945 434.193 310.364C434.608 309.286 434.94 308.124 435.271 306.88C435.437 306.133 435.686 305.386 435.769 304.723C435.935 303.976 436.018 303.229 436.184 302.4C436.184 302.234 436.267 302.068 436.267 301.902C436.433 300.823 436.433 299.745 436.516 298.583V298.5V298.417C435.686 298.002 435.686 297.09 435.686 296.094Z" fill="url(#paint26_radial)"/>
<path d="M407.81 271.205C408.059 271.702 408.557 272.864 406.897 273.694C406.731 273.777 406.648 273.777 406.483 273.86C409.469 273.113 411.377 276.183 410.631 277.676C410.382 278.174 409.967 278.34 409.635 278.506C409.469 278.589 409.386 278.589 409.22 278.672C412.124 278.008 413.7 281.243 412.954 282.737C412.705 283.235 412.29 283.401 411.958 283.566C411.709 283.649 411.46 283.732 411.212 283.815C413.783 283.235 415.111 286.304 414.364 287.715C414.115 288.213 413.783 288.378 413.452 288.544C408.474 290.37 403.164 293.107 398.02 296.592C397.439 296.924 396.859 296.758 396.444 296.177C394.204 292.859 391.964 289.54 389.889 286.304C388.811 284.645 387.732 282.986 386.737 281.492C386.571 281.16 386.405 280.912 388.479 269.877C387.981 269.379 387.566 268.882 387.069 268.467C386.737 267.969 386.903 267.554 387.649 267.056C389.392 266.31 390.802 266.31 392.13 267.139C392.378 267.305 392.627 267.554 392.793 267.72C394.37 269.296 394.95 270.624 395.033 273.113C397.937 271.702 400.758 270.458 403.496 269.545C406.317 268.882 407.81 271.205 407.81 271.205ZM396.527 299.33C393.706 295.348 390.968 291.365 388.313 287.383C387.235 285.724 386.156 284.064 385.243 282.571C384.746 281.907 384.082 281.824 383.252 282.322C381.51 283.649 379.768 284.977 378.191 286.304C377.528 286.968 377.445 287.632 377.777 288.461C378.689 290.038 379.685 291.697 380.763 293.356C383.335 297.256 386.322 301.155 389.558 304.806C390.221 305.469 390.968 305.552 391.632 305.137C393.042 303.893 394.619 302.648 396.278 301.404C397.024 300.906 397.024 300.16 396.527 299.33Z" fill="#ECF5F9"/>
</g>
<defs>
<filter id="filter0_d" x="3.05176e-05" y="55.0332" width="413.921" height="351.414" filterUnits="userSpaceOnUse" color-interpolation-filters="sRGB">
<feFlood flood-opacity="0" result="BackgroundImageFix"/>
<feColorMatrix in="SourceAlpha" type="matrix" values="0 0 0 0 0 0 0 0 0 0 0 0 0 0 0 0 0 0 127 0"/>
<feOffset dy="4"/>
<feGaussianBlur stdDeviation="2"/>
<feColorMatrix type="matrix" values="0 0 0 0 0 0 0 0 0 0 0 0 0 0 0 0 0 0 0.2 0"/>
<feBlend mode="normal" in2="BackgroundImageFix" result="effect1_dropShadow"/>
<feBlend mode="normal" in="SourceGraphic" in2="effect1_dropShadow" result="shape"/>
</filter>
<filter id="filter1_d" x="283" y="0" width="71.9229" height="71.1999" filterUnits="userSpaceOnUse" color-interpolation-filters="sRGB">
<feFlood flood-opacity="0" result="BackgroundImageFix"/>
<feColorMatrix in="SourceAlpha" type="matrix" values="0 0 0 0 0 0 0 0 0 0 0 0 0 0 0 0 0 0 127 0"/>
<feOffset dy="4"/>
<feGaussianBlur stdDeviation="2"/>
<feColorMatrix type="matrix" values="0 0 0 0 0 0 0 0 0 0 0 0 0 0 0 0 0 0 0.2 0"/>
<feBlend mode="normal" in2="BackgroundImageFix" result="effect1_dropShadow"/>
<feBlend mode="normal" in="SourceGraphic" in2="effect1_dropShadow" result="shape"/>
</filter>
<filter id="filter2_d" x="375" y="94" width="97.8159" height="96.8" filterUnits="userSpaceOnUse" color-interpolation-filters="sRGB">
<feFlood flood-opacity="0" result="BackgroundImageFix"/>
<feColorMatrix in="SourceAlpha" type="matrix" values="0 0 0 0 0 0 0 0 0 0 0 0 0 0 0 0 0 0 127 0"/>
<feOffset dy="4"/>
<feGaussianBlur stdDeviation="2"/>
<feColorMatrix type="matrix" values="0 0 0 0 0 0 0 0 0 0 0 0 0 0 0 0 0 0 0.2 0"/>
<feBlend mode="normal" in2="BackgroundImageFix" result="effect1_dropShadow"/>
<feBlend mode="normal" in="SourceGraphic" in2="effect1_dropShadow" result="shape"/>
</filter>
<filter id="filter3_d" x="288" y="97" width="75" height="74.2422" filterUnits="userSpaceOnUse" color-interpolation-filters="sRGB">
<feFlood flood-opacity="0" result="BackgroundImageFix"/>
<feColorMatrix in="SourceAlpha" type="matrix" values="0 0 0 0 0 0 0 0 0 0 0 0 0 0 0 0 0 0 127 0"/>
<feOffset dy="4"/>
<feGaussianBlur stdDeviation="2"/>
<feColorMatrix type="matrix" values="0 0 0 0 0 0 0 0 0 0 0 0 0 0 0 0 0 0 0.25 0"/>
<feBlend mode="normal" in2="BackgroundImageFix" result="effect1_dropShadow"/>
<feBlend mode="normal" in="SourceGraphic" in2="effect1_dropShadow" result="shape"/>
</filter>
<filter id="filter4_d" x="358" y="261" width="82.5159" height="81.6731" filterUnits="userSpaceOnUse" color-interpolation-filters="sRGB">
<feFlood flood-opacity="0" result="BackgroundImageFix"/>
<feColorMatrix in="SourceAlpha" type="matrix" values="0 0 0 0 0 0 0 0 0 0 0 0 0 0 0 0 0 0 127 0"/>
<feOffset dy="4"/>
<feGaussianBlur stdDeviation="2"/>
<feColorMatrix type="matrix" values="0 0 0 0 0 0 0 0 0 0 0 0 0 0 0 0 0 0 0.25 0"/>
<feBlend mode="normal" in2="BackgroundImageFix" result="effect1_dropShadow"/>
<feBlend mode="normal" in="SourceGraphic" in2="effect1_dropShadow" result="shape"/>
</filter>
<linearGradient id="paint0_linear" x1="164.221" y1="260.402" x2="212.177" y2="356.754" gradientUnits="userSpaceOnUse">
<stop offset="0.0454545" stop-color="#8566BD"/>
<stop offset="0.6111" stop-color="#8969C3"/>
<stop offset="0.7108" stop-color="#8D6CC4"/>
<stop offset="0.808" stop-color="#9975C7"/>
<stop offset="0.9039" stop-color="#AC83CB"/>
<stop offset="0.9192" stop-color="#B086CC"/>
<stop offset="0.9516" stop-color="#AD84CB"/>
<stop offset="0.973" stop-color="#A47ECA"/>
<stop offset="0.991" stop-color="#9673C6"/>
<stop offset="1" stop-color="#8B6BC4"/>
</linearGradient>
<linearGradient id="paint1_linear" x1="228.591" y1="341.57" x2="192.203" y2="263.385" gradientUnits="userSpaceOnUse">
<stop offset="0.0555556" stop-color="#D1B4E3"/>
<stop offset="0.082573" stop-color="#CFB2E2"/>
<stop offset="0.4229" stop-color="#BE9AD6"/>
<stop offset="0.7376" stop-color="#B48BCF"/>
<stop offset="1" stop-color="#B086CC"/>
</linearGradient>
<radialGradient id="paint2_radial" cx="0" cy="0" r="1" gradientUnits="userSpaceOnUse" gradientTransform="translate(197.282 349.7) rotate(123.17) scale(41.0859 41.7013)">
<stop stop-color="white"/>
<stop offset="1"/>
</radialGradient>
<linearGradient id="paint3_linear" x1="203.33" y1="298.514" x2="184.32" y2="314.689" gradientUnits="userSpaceOnUse">
<stop offset="0.0353535" stop-color="#6B24D6"/>
<stop offset="0.2945" stop-color="#7733DC"/>
<stop offset="0.7943" stop-color="#975CED"/>
<stop offset="1" stop-color="#A56EF4"/>
</linearGradient>
<linearGradient id="paint4_linear" x1="223.327" y1="273.099" x2="181.236" y2="314.283" gradientUnits="userSpaceOnUse">
<stop offset="0.0353535" stop-color="#6B24D6"/>
<stop offset="0.2945" stop-color="#7733DC"/>
<stop offset="0.7943" stop-color="#975CED"/>
<stop offset="1" stop-color="#A56EF4"/>
</linearGradient>
<linearGradient id="paint5_linear" x1="182.603" y1="287.997" x2="191.531" y2="288.798" gradientUnits="userSpaceOnUse">
<stop offset="0.0353535" stop-color="#6B24D6"/>
<stop offset="0.2945" stop-color="#7733DC"/>
<stop offset="0.7943" stop-color="#975CED"/>
<stop offset="1" stop-color="#A56EF4"/>
</linearGradient>
<radialGradient id="paint6_radial" cx="0" cy="0" r="1" gradientUnits="userSpaceOnUse" gradientTransform="translate(178.139 275.127) rotate(123.17) scale(41.5964 42.2195)">
<stop stop-color="#8770B8"/>
<stop offset="1" stop-color="white"/>
</radialGradient>
<linearGradient id="paint7_linear" x1="58.2595" y1="213.288" x2="113.128" y2="323.529" gradientUnits="userSpaceOnUse">
<stop stop-color="#5C1CCC"/>
<stop offset="0.0268398" stop-color="#6323D0"/>
<stop offset="0.0669564" stop-color="#7538DA"/>
<stop offset="0.1151" stop-color="#9259EA"/>
<stop offset="0.1414" stop-color="#A56EF4"/>
<stop offset="0.2273" stop-color="#C994FF"/>
<stop offset="0.2836" stop-color="#AE7AF0"/>
<stop offset="0.3788" stop-color="#7945D1"/>
<stop offset="0.5404" stop-color="#4916A1"/>
<stop offset="0.6229" stop-color="#4B17A4"/>
<stop offset="0.6946" stop-color="#521AAF"/>
<stop offset="0.762" stop-color="#5D1EC1"/>
<stop offset="0.8182" stop-color="#6B24D6"/>
<stop offset="0.9433" stop-color="#5B1DBD"/>
<stop offset="1" stop-color="#531AB0"/>
</linearGradient>
<radialGradient id="paint8_radial" cx="0" cy="0" r="1" gradientUnits="userSpaceOnUse" gradientTransform="translate(115.896 255.674) rotate(123.17) scale(96.0807 97.52)">
<stop offset="0.5808" stop-color="white"/>
<stop offset="0.6411" stop-color="#FBFAFC"/>
<stop offset="0.7135" stop-color="#EEEBF5"/>
<stop offset="0.7923" stop-color="#DAD3E9"/>
<stop offset="0.8754" stop-color="#BEB1D8"/>
<stop offset="0.9613" stop-color="#9986C3"/>
<stop offset="1" stop-color="#8770B8"/>
</radialGradient>
<linearGradient id="paint9_linear" x1="139.892" y1="217.372" x2="92.9008" y2="289.265" gradientUnits="userSpaceOnUse">
<stop offset="0.0353535" stop-color="#A56EF4"/>
<stop offset="0.3636" stop-color="#C994FF"/>
<stop offset="0.5384" stop-color="#B379F5"/>
<stop offset="0.9117" stop-color="#7935DC"/>
<stop offset="1" stop-color="#6B24D6"/>
</linearGradient>
<radialGradient id="paint10_radial" cx="0" cy="0" r="1" gradientUnits="userSpaceOnUse" gradientTransform="translate(110.328 259.915) rotate(123.17) scale(46.3958 47.0908)">
<stop stop-color="white"/>
<stop offset="1"/>
</radialGradient>
<linearGradient id="paint11_linear" x1="145.485" y1="156.993" x2="212.223" y2="291.082" gradientUnits="userSpaceOnUse">
<stop offset="0.010101" stop-color="#C1A1D5"/>
<stop offset="0.0487861" stop-color="#C8ABDA"/>
<stop offset="0.1149" stop-color="#DAC6E6"/>
<stop offset="0.1998" stop-color="#F7F2F9"/>
<stop offset="0.2222" stop-color="white"/>
<stop offset="0.2513" stop-color="#F9F5FB"/>
<stop offset="0.3001" stop-color="#E9DBF2"/>
<stop offset="0.3586" stop-color="#D1B4E3"/>
<stop offset="0.4264" stop-color="#B395D6"/>
<stop offset="0.4949" stop-color="#9C7DCB"/>
<stop offset="0.5583" stop-color="#8E6EC5"/>
<stop offset="0.6111" stop-color="#8969C3"/>
<stop offset="0.755" stop-color="#9471C6"/>
<stop offset="1" stop-color="#B086CC"/>
</linearGradient>
<radialGradient id="paint12_radial" cx="0" cy="0" r="1" gradientUnits="userSpaceOnUse" gradientTransform="translate(210.878 264.432) rotate(143.79) scale(72.4636 51.8687)">
<stop stop-color="#732058"/>
<stop offset="0.0835944" stop-color="#601B49"/>
<stop offset="0.2596" stop-color="#3D112F"/>
<stop offset="0.4388" stop-color="#220A1A"/>
<stop offset="0.6203" stop-color="#0F040C"/>
<stop offset="0.8055" stop-color="#040103"/>
<stop offset="1"/>
</radialGradient>
<linearGradient id="paint13_linear" x1="214.619" y1="86.3324" x2="311.22" y2="280.422" gradientUnits="userSpaceOnUse">
<stop stop-color="#5C1CCC"/>
<stop offset="0.0268398" stop-color="#6323D0"/>
<stop offset="0.0669564" stop-color="#7538DA"/>
<stop offset="0.1151" stop-color="#9259EA"/>
<stop offset="0.1414" stop-color="#A56EF4"/>
<stop offset="0.2273" stop-color="#C994FF"/>
<stop offset="0.2836" stop-color="#AE7AF0"/>
<stop offset="0.3788" stop-color="#7945D1"/>
<stop offset="0.5404" stop-color="#4916A1"/>
<stop offset="0.6229" stop-color="#4B17A4"/>
<stop offset="0.6946" stop-color="#521AAF"/>
<stop offset="0.762" stop-color="#5D1EC1"/>
<stop offset="0.8182" stop-color="#6B24D6"/>
<stop offset="0.9433" stop-color="#5B1DBD"/>
<stop offset="1" stop-color="#531AB0"/>
</linearGradient>
<linearGradient id="paint14_linear" x1="328.299" y1="108.346" x2="246.503" y2="233.489" gradientUnits="userSpaceOnUse">
<stop offset="0.0353535" stop-color="#A56EF4"/>
<stop offset="0.3636" stop-color="#C994FF"/>
<stop offset="0.5384" stop-color="#B379F5"/>
<stop offset="0.9117" stop-color="#7935DC"/>
<stop offset="1" stop-color="#6B24D6"/>
</linearGradient>
<linearGradient id="paint15_linear" x1="331.4" y1="256.537" x2="243.222" y2="79.3712" gradientUnits="userSpaceOnUse">
<stop offset="0.010101" stop-color="#C1A1D5"/>
<stop offset="0.0487861" stop-color="#C8ABDA"/>
<stop offset="0.1149" stop-color="#DAC6E6"/>
<stop offset="0.1998" stop-color="#F7F2F9"/>
<stop offset="0.2222" stop-color="white"/>
<stop offset="0.2513" stop-color="#F9F5FB"/>
<stop offset="0.3001" stop-color="#E9DBF2"/>
<stop offset="0.3586" stop-color="#D1B4E3"/>
<stop offset="0.4264" stop-color="#B395D6"/>
<stop offset="0.4949" stop-color="#9C7DCB"/>
<stop offset="0.5583" stop-color="#8E6EC5"/>
<stop offset="0.6111" stop-color="#8969C3"/>
<stop offset="0.755" stop-color="#9471C6"/>
<stop offset="1" stop-color="#B086CC"/>
</linearGradient>
<linearGradient id="paint16_linear" x1="353.116" y1="248.64" x2="265.389" y2="72.3803" gradientUnits="userSpaceOnUse">
<stop stop-color="#5C1CCC"/>
<stop offset="0.2273" stop-color="#BA85FF"/>
<stop offset="0.3788" stop-color="#7945D1"/>
<stop offset="0.5404" stop-color="#4916A1"/>
<stop offset="0.6139" stop-color="#4B17A4"/>
<stop offset="0.6777" stop-color="#521AAF"/>
<stop offset="0.7378" stop-color="#5D1EC1"/>
<stop offset="0.7879" stop-color="#6B24D6"/>
<stop offset="0.9339" stop-color="#5B1DBD"/>
<stop offset="1" stop-color="#531AB0"/>
</linearGradient>
<radialGradient id="paint17_radial" cx="0" cy="0" r="1" gradientUnits="userSpaceOnUse" gradientTransform="translate(277.606 182.071) rotate(123.17) scale(80.2189 81.4206)">
<stop stop-color="white"/>
<stop offset="1"/>
</radialGradient>
<radialGradient id="paint18_radial" cx="0" cy="0" r="1" gradientUnits="userSpaceOnUse" gradientTransform="translate(218.607 210.513) rotate(123.17) scale(115.665 117.397)">
<stop stop-color="#8770B8"/>
<stop offset="1" stop-color="white"/>
</radialGradient>
<linearGradient id="paint19_linear" x1="269.23" y1="215.459" x2="253.071" y2="170.299" gradientUnits="userSpaceOnUse">
<stop offset="0.0353535" stop-color="#1E1F21"/>
<stop offset="0.2388" stop-color="#101012"/>
<stop offset="0.2677" stop-color="#0E0E0F"/>
<stop offset="0.345" stop-color="#131415"/>
<stop offset="0.4476" stop-color="#232326"/>
<stop offset="0.5644" stop-color="#3C3D41"/>
<stop offset="0.6869" stop-color="#5D6066"/>
<stop offset="1" stop-color="#37383C"/>
</linearGradient>
<linearGradient id="paint20_linear" x1="285.39" y1="171.547" x2="272.392" y2="191.432" gradientUnits="userSpaceOnUse">
<stop offset="0.0353535" stop-color="#1E1F21"/>
<stop offset="0.3101" stop-color="#2C2E30"/>
<stop offset="0.84" stop-color="#515359"/>
<stop offset="1" stop-color="#5D6066"/>
</linearGradient>
<linearGradient id="paint21_linear" x1="283.356" y1="174.659" x2="274.425" y2="188.322" gradientUnits="userSpaceOnUse">
<stop offset="0.0555556" stop-color="#D1B4E3"/>
<stop offset="0.082573" stop-color="#CFB2E2"/>
<stop offset="0.4229" stop-color="#BE9AD6"/>
<stop offset="0.7376" stop-color="#B48BCF"/>
<stop offset="1" stop-color="#B086CC"/>
</linearGradient>
<radialGradient id="paint22_radial" cx="0" cy="0" r="1" gradientUnits="userSpaceOnUse" gradientTransform="translate(277.212 183.315) rotate(123.17) scale(12.8329 13.0251)">
<stop stop-color="white"/>
<stop offset="1"/>
</radialGradient>
<radialGradient id="paint23_radial" cx="0" cy="0" r="1" gradientUnits="userSpaceOnUse" gradientTransform="translate(320.536 28.816) scale(35.1097)">
<stop stop-color="#447BC1"/>
<stop offset="0.4717" stop-color="#3663A8"/>
<stop offset="0.7649" stop-color="#30599E"/>
<stop offset="0.828" stop-color="#335DA1"/>
<stop offset="0.8843" stop-color="#3E67A9"/>
<stop offset="0.938" stop-color="#507AB7"/>
<stop offset="0.9897" stop-color="#6893CA"/>
<stop offset="1" stop-color="#6E99CF"/>
</radialGradient>
<radialGradient id="paint24_radial" cx="0" cy="0" r="1" gradientUnits="userSpaceOnUse" gradientTransform="translate(426.142 134.517) scale(49.3315)">
<stop stop-color="#FF414D"/>
<stop offset="0.2352" stop-color="#F93D4A"/>
<stop offset="0.5345" stop-color="#EA3042"/>
<stop offset="0.7353" stop-color="#DB243A"/>
<stop offset="0.7741" stop-color="#DD2C3D"/>
<stop offset="0.8356" stop-color="#E44347"/>
<stop offset="0.9122" stop-color="#EE6956"/>
<stop offset="1" stop-color="#FD9C6B"/>
</radialGradient>
<radialGradient id="paint25_radial" cx="0" cy="0" r="1" gradientUnits="userSpaceOnUse" gradientTransform="translate(327.155 127.234) scale(36.7998)">
<stop stop-color="#F5E100"/>
<stop offset="0.2948" stop-color="#F5DD00"/>
<stop offset="0.5762" stop-color="#F6D201"/>
<stop offset="0.7298" stop-color="#F6C802"/>
<stop offset="0.7793" stop-color="#F6CB0A"/>
<stop offset="0.8578" stop-color="#F8D221"/>
<stop offset="0.955" stop-color="#FADD46"/>
<stop offset="1" stop-color="#FBE35A"/>
</radialGradient>
<radialGradient id="paint26_radial" cx="0" cy="0" r="1" gradientUnits="userSpaceOnUse" gradientTransform="translate(401.069 294.626) scale(40.928)">
<stop stop-color="#447BC1"/>
<stop offset="0.4717" stop-color="#3663A8"/>
<stop offset="0.7649" stop-color="#30599E"/>
<stop offset="0.828" stop-color="#335DA1"/>
<stop offset="0.8843" stop-color="#3E67A9"/>
<stop offset="0.938" stop-color="#507AB7"/>
<stop offset="0.9897" stop-color="#6893CA"/>
<stop offset="1" stop-color="#6E99CF"/>
</radialGradient>
</defs>
</svg>
